<svg width="622" height="448" viewBox="0 0 622 448" fill="none" xmlns="http://www.w3.org/2000/svg">
<g clip-path="url(#clip0_1198_13756)">
<g opacity="0.4">
<rect x="-5.96948" y="-61.3258" width="178.498" height="84.3318" rx="42.1659" transform="rotate(-8 -5.96948 -61.3258)" fill="white"/>
<rect x="-5.96948" y="-61.3258" width="178.498" height="84.3318" rx="42.1659" transform="rotate(-8 -5.96948 -61.3258)" stroke="url(#paint0_linear_1198_13756)" stroke-width="2"/>
</g>
<g opacity="0.6">
<rect x="8.28955" y="40.1333" width="178.498" height="84.3318" rx="42.1659" transform="rotate(-8 8.28955 40.1333)" fill="white"/>
<path d="M51.3181 76.2866C51.091 74.6705 51.2595 73.1684 51.8239 71.7804C52.404 70.3901 53.2857 69.2483 54.4689 68.3549C55.6657 67.4435 57.0325 66.8798 58.5694 66.6638C60.3281 66.4166 61.95 66.633 63.4351 67.3129C64.9338 67.9748 66.1035 69.0545 66.9441 70.5521L63.6881 71.0097C63.1378 70.1984 62.4523 69.6323 61.6317 69.3114C60.811 68.9905 59.9016 68.9001 58.9034 69.0404C57.8102 69.1941 56.8703 69.5766 56.0837 70.188C55.2971 70.7995 54.7228 71.5992 54.3608 72.5872C54.0147 73.5729 53.9273 74.6758 54.0988 75.8958C54.2702 77.1158 54.6582 78.1519 55.2627 79.0041C55.883 79.854 56.6566 80.4724 57.5834 80.8592C58.5081 81.2301 59.517 81.3387 60.6102 81.1851C61.6084 81.0448 62.4577 80.7073 63.1581 80.1726C63.8585 79.638 64.3614 78.9048 64.6667 77.9733L67.9227 77.5157C67.5275 79.1869 66.7008 80.5472 65.4425 81.5966C64.2002 82.6437 62.6996 83.2908 60.9409 83.538C59.3882 83.7562 57.92 83.599 56.5364 83.0664C55.1506 82.5179 53.9872 81.6554 53.0464 80.4789C52.1213 79.3002 51.5452 77.9027 51.3181 76.2866ZM72.9049 70.296C73.2075 69.5749 73.658 68.9865 74.2564 68.5308C74.8684 68.057 75.626 67.7566 76.5291 67.6297L76.9233 70.4341L76.234 70.531C75.1725 70.6802 74.4023 71.0631 73.9234 71.6797C73.4604 72.2942 73.3225 73.2668 73.5095 74.5977L74.4781 81.49L71.7688 81.8708L69.9283 68.7755L72.6377 68.3947L72.9049 70.296ZM91.9268 72.0336C91.9958 72.5248 92.0265 72.9729 92.0188 73.3779L82.0131 74.7841C82.2393 75.8187 82.7455 76.6039 83.5317 77.1397C84.318 77.6755 85.2181 77.8721 86.2321 77.7296C87.6898 77.5247 88.6339 76.77 89.0646 75.4653L91.9878 75.0545C91.761 76.3143 91.1792 77.4059 90.2426 78.3293C89.3196 79.2345 88.0897 79.7952 86.5528 80.0112C85.3011 80.1871 84.1372 80.0679 83.061 79.6536C81.9985 79.2213 81.1108 78.5382 80.3979 77.6043C79.6986 76.6524 79.2543 75.503 79.0651 74.1563C78.8758 72.8095 78.9792 71.5912 79.3754 70.5015C79.7853 69.3937 80.4424 68.4935 81.3468 67.8009C82.267 67.106 83.3688 66.6684 84.6522 66.4881C85.8881 66.3144 87.0271 66.429 88.0693 66.8318C89.1115 67.2347 89.971 67.8895 90.6478 68.7961C91.3223 69.6869 91.7487 70.7661 91.9268 72.0336ZM88.9784 71.5755C88.8222 70.5795 88.3533 69.8295 87.5715 69.3254C86.7898 68.8213 85.8839 68.6416 84.8541 68.7863C83.9192 68.9177 83.1614 69.3312 82.5806 70.0268C81.9975 70.7066 81.7138 71.5624 81.7296 72.5942L88.9784 71.5755ZM93.7267 72.0472C93.5419 70.7322 93.6476 69.5297 94.0438 68.44C94.4558 67.348 95.0903 66.4591 95.9472 65.7731C96.8176 65.0691 97.8233 64.637 98.9641 64.4767C99.994 64.3319 100.918 64.4121 101.737 64.7171C102.569 65.0041 103.257 65.4164 103.801 65.9539L103.534 64.0526L106.267 63.6685L108.107 76.7638L105.374 77.1479L105.1 75.199C104.727 75.8815 104.174 76.4844 103.44 77.0077C102.705 77.531 101.831 77.8639 100.817 78.0064C99.6922 78.1645 98.6222 78.0241 97.6072 77.5851C96.59 77.1302 95.7318 76.4268 95.0325 75.4749C94.3468 74.5049 93.9116 73.3623 93.7267 72.0472ZM104.452 70.5884C104.325 69.6852 104.025 68.9277 103.551 68.3156C103.093 67.7014 102.539 67.2623 101.887 66.9983C101.236 66.7344 100.562 66.6514 99.8651 66.7494C99.168 66.8473 98.5429 67.1129 97.9898 67.5461C97.4345 67.9635 97.0134 68.5316 96.7267 69.2505C96.4536 69.9513 96.3805 70.7533 96.5074 71.6564C96.6343 72.5596 96.9279 73.3262 97.388 73.9563C97.8641 74.5841 98.4287 75.0379 99.082 75.3177C99.7489 75.5795 100.423 75.6625 101.104 75.5667C101.801 75.4687 102.427 75.2032 102.98 74.77C103.533 74.3368 103.945 73.7618 104.216 73.0452C104.5 72.3104 104.579 71.4915 104.452 70.5884ZM113.297 64.9344L114.316 72.1831C114.385 72.6743 114.546 73.0152 114.799 73.2059C115.065 73.3784 115.476 73.4258 116.03 73.3478L117.694 73.114L118.011 75.3718L115.872 75.6724C114.652 75.8439 113.678 75.6901 112.948 75.211C112.218 74.7319 111.763 73.8506 111.582 72.5673L110.564 65.3185L109.019 65.5356L108.708 63.3253L110.253 63.1082L109.796 59.8522L112.529 59.4681L112.986 62.7241L116.171 62.2765L116.482 64.4868L113.297 64.9344ZM126.219 74.4365C124.983 74.6102 123.827 74.4899 122.751 74.0756C121.672 73.6455 120.777 72.9635 120.064 72.0296C119.349 71.0799 118.897 69.9317 118.707 68.5849C118.52 67.254 118.647 66.0324 119.089 64.9201C119.53 63.8079 120.219 62.9032 121.155 62.2061C122.091 61.5091 123.185 61.0726 124.437 60.8967C125.689 60.7207 126.861 60.8388 127.953 61.2508C129.045 61.6629 129.956 62.3426 130.687 63.2901C131.418 64.2376 131.877 65.3768 132.064 66.7077C132.251 68.0387 132.116 69.2614 131.659 70.3759C131.201 71.4904 130.49 72.4063 129.524 73.1237C128.572 73.8229 127.47 74.2606 126.219 74.4365ZM125.888 72.0836C126.585 71.9856 127.211 71.7279 127.767 71.3106C128.338 70.891 128.767 70.3218 129.054 69.6029C129.34 68.884 129.417 68.0492 129.283 67.0985C129.15 66.1479 128.855 65.3734 128.399 64.775C127.941 64.1607 127.388 63.7295 126.739 63.4814C126.09 63.2333 125.417 63.1582 124.72 63.2562C124.023 63.3542 123.397 63.6119 122.841 64.0292C122.302 64.4443 121.905 65.0091 121.65 65.7236C121.392 66.4222 121.331 67.2468 121.464 68.1975C121.662 69.6076 122.173 70.6508 122.995 71.3269C123.83 71.985 124.795 72.2372 125.888 72.0836ZM136.8 61.3161C137.103 60.595 137.554 60.0065 138.152 59.5508C138.764 59.077 139.522 58.7767 140.425 58.6498L140.819 61.4542L140.13 61.5511C139.068 61.7003 138.298 62.0832 137.819 62.6998C137.356 63.3142 137.218 64.2869 137.405 65.6178L138.374 72.5101L135.664 72.8909L133.824 59.7956L136.533 59.4148L136.8 61.3161ZM149.569 71.1548C148.539 71.2996 147.587 71.2476 146.711 70.999C145.85 70.7323 145.137 70.3155 144.573 69.7485C144.006 69.1657 143.651 68.4804 143.508 67.6926L146.313 67.2985C146.438 67.8464 146.765 68.277 147.294 68.5905C147.836 68.8859 148.472 68.9824 149.201 68.8799C149.961 68.773 150.527 68.548 150.899 68.205C151.285 67.8438 151.445 67.4335 151.381 66.974C151.312 66.4828 151.023 66.1518 150.514 65.9809C150.021 65.8078 149.248 65.65 148.194 65.5073C147.173 65.376 146.336 65.227 145.683 65.0603C145.029 64.8937 144.436 64.5812 143.903 64.1229C143.386 63.6624 143.067 63.0043 142.947 62.1488C142.849 61.4516 142.966 60.7889 143.298 60.1606C143.627 59.5165 144.149 58.9746 144.863 58.535C145.592 58.0931 146.456 57.8021 147.454 57.6618C148.944 57.4525 150.194 57.6646 151.204 58.2982C152.227 58.9137 152.862 59.8667 153.108 61.157L150.399 61.5378C150.269 60.9582 149.965 60.5242 149.488 60.2357C149.012 59.9473 148.409 59.8543 147.68 59.9567C146.967 60.0569 146.439 60.2684 146.097 60.5912C145.755 60.914 145.615 61.2972 145.677 61.7409C145.726 62.0894 145.894 62.3647 146.181 62.5668C146.468 62.7688 146.803 62.9155 147.188 63.0069C147.57 63.0825 148.132 63.1731 148.874 63.2789C149.86 63.3988 150.673 63.5511 151.313 63.7358C151.967 63.9025 152.551 64.2082 153.066 64.6528C153.581 65.0975 153.905 65.7386 154.039 66.5761C154.144 67.3208 154.031 68.0152 153.702 68.6593C153.372 69.3035 152.851 69.8453 152.137 70.285C151.439 70.7224 150.583 71.0123 149.569 71.1548Z" fill="#0094FF"/>
<rect x="8.28955" y="40.1333" width="178.498" height="84.3318" rx="42.1659" transform="rotate(-8 8.28955 40.1333)" stroke="url(#paint1_linear_1198_13756)" stroke-width="2"/>
<rect x="202.998" y="12.7688" width="353.378" height="84.3318" rx="42.1659" transform="rotate(-8 202.998 12.7688)" fill="white"/>
<path d="M282.556 52.4162C281.447 52.572 280.422 52.5222 279.482 52.2666C278.539 51.9952 277.764 51.5386 277.156 50.8969C276.549 50.2552 276.179 49.459 276.045 48.5083L278.945 48.1008C279.108 48.8049 279.468 49.3522 280.024 49.7426C280.595 50.1309 281.333 50.2615 282.236 50.1346C283.17 50.0032 283.868 49.679 284.329 49.1618C284.787 48.6289 284.966 48.0059 284.866 47.2929C284.788 46.7383 284.558 46.3102 284.176 46.0083C283.81 45.7043 283.368 45.4917 282.851 45.3706C282.349 45.2473 281.654 45.1349 280.767 45.0333C279.65 44.8995 278.73 44.7379 278.009 44.5484C277.301 44.3409 276.666 43.9616 276.104 43.4105C275.542 42.8594 275.189 42.0689 275.044 41.039C274.91 40.0883 275.031 39.2231 275.406 38.4433C275.781 37.6635 276.37 37.0233 277.172 36.5228C277.974 36.0223 278.938 35.693 280.063 35.5349C281.663 35.31 283.027 35.5303 284.154 36.1959C285.296 36.8434 286.02 37.8565 286.327 39.2352L283.332 39.656C283.2 39.0606 282.842 38.5858 282.259 38.2315C281.676 37.8771 280.957 37.7601 280.101 37.8804C279.325 37.9895 278.719 38.2766 278.284 38.7417C277.848 39.2069 277.683 39.8118 277.787 40.5565C277.859 41.0635 278.068 41.4622 278.416 41.7526C278.777 42.025 279.209 42.2228 279.711 42.3461C280.213 42.4695 280.892 42.5841 281.747 42.6902C282.882 42.8376 283.812 43.0139 284.536 43.2192C285.275 43.4223 285.927 43.8073 286.491 44.3742C287.069 44.9231 287.432 45.7204 287.579 46.7662C287.697 47.6059 287.578 48.4304 287.224 49.2397C286.885 50.0467 286.312 50.7412 285.505 51.3232C284.712 51.887 283.729 52.2514 282.556 52.4162ZM302.471 42.4436C302.54 42.9347 302.57 43.3828 302.563 43.7879L292.557 45.1941C292.783 46.2287 293.289 47.0138 294.075 47.5496C294.862 48.0854 295.762 48.2821 296.776 48.1396C298.234 47.9347 299.178 47.1799 299.608 45.8753L302.532 45.4645C302.305 46.7243 301.723 47.8159 300.786 48.7392C299.863 49.6445 298.633 50.2051 297.097 50.4211C295.845 50.5971 294.681 50.4779 293.605 50.0636C292.542 49.6313 291.655 48.9482 290.942 48.0143C290.242 47.0624 289.798 45.913 289.609 44.5662C289.42 43.2195 289.523 42.0012 289.919 40.9115C290.329 39.8037 290.986 38.9035 291.89 38.2108C292.811 37.516 293.913 37.0784 295.196 36.898C296.432 36.7243 297.571 36.8389 298.613 37.2418C299.655 37.6447 300.515 38.2994 301.192 39.2061C301.866 40.0969 302.292 41.176 302.471 42.4436ZM299.522 41.9855C299.366 40.9895 298.897 40.2395 298.115 39.7354C297.333 39.2313 296.428 39.0516 295.398 39.1963C294.463 39.3277 293.705 39.7412 293.124 40.4368C292.541 41.1166 292.258 41.9724 292.273 43.0042L299.522 41.9855ZM304.27 42.4572C304.086 41.1421 304.191 39.9397 304.588 38.85C305 37.758 305.634 36.8691 306.491 36.1831C307.361 35.4791 308.367 35.047 309.508 34.8866C310.538 34.7419 311.462 34.8221 312.28 35.1271C313.112 35.4141 313.8 35.8264 314.344 36.3639L314.077 34.4626L316.81 34.0784L318.651 47.1738L315.918 47.5579L315.644 45.609C315.271 46.2915 314.718 46.8944 313.983 47.4177C313.249 47.941 312.375 48.2739 311.361 48.4164C310.236 48.5745 309.166 48.4341 308.151 47.995C307.134 47.5402 306.275 46.8368 305.576 45.8848C304.891 44.9148 304.455 43.7723 304.27 42.4572ZM314.996 40.9983C314.869 40.0952 314.569 39.3376 314.095 38.7256C313.637 38.1114 313.082 37.6723 312.431 37.4083C311.78 37.1444 311.106 37.0614 310.409 37.1593C309.712 37.2573 309.087 37.5229 308.534 37.9561C307.978 38.3734 307.557 38.9416 307.27 39.6605C306.997 40.3613 306.924 41.1633 307.051 42.0664C307.178 42.9695 307.472 43.7361 307.932 44.3662C308.408 44.9941 308.972 45.4479 309.626 45.7277C310.293 45.9895 310.967 46.0724 311.648 45.9767C312.345 45.8787 312.97 45.6131 313.523 45.1799C314.077 44.7467 314.489 44.1718 314.759 43.4551C315.044 42.7204 315.123 41.9015 314.996 40.9983ZM326.993 46.2195C325.963 46.3642 325.01 46.3123 324.135 46.0637C323.274 45.797 322.561 45.3801 321.996 44.8132C321.43 44.2303 321.075 43.5451 320.932 42.7573L323.736 42.3632C323.862 42.911 324.189 43.3417 324.718 43.6551C325.26 43.9505 325.896 44.047 326.625 43.9446C327.385 43.8377 327.951 43.6127 328.323 43.2696C328.709 42.9085 328.869 42.4981 328.805 42.0386C328.736 41.5475 328.447 41.2165 327.938 41.0456C327.445 40.8725 326.672 40.7146 325.617 40.5719C324.597 40.4406 323.76 40.2917 323.107 40.125C322.453 39.9583 321.86 39.6459 321.327 39.1876C320.81 38.7271 320.491 38.069 320.371 37.2134C320.273 36.5163 320.39 35.8535 320.722 35.2253C321.051 34.5811 321.573 34.0392 322.287 33.5996C323.016 33.1578 323.88 32.8667 324.878 32.7264C326.368 32.5171 327.617 32.7293 328.627 33.3629C329.651 33.9784 330.286 34.9313 330.532 36.2216L327.822 36.6024C327.693 36.0229 327.389 35.5889 326.912 35.3004C326.436 35.012 325.833 34.9189 325.104 35.0214C324.391 35.1216 323.863 35.3331 323.521 35.6559C323.178 35.9787 323.038 36.3619 323.101 36.8055C323.15 37.1541 323.318 37.4294 323.605 37.6314C323.892 37.8335 324.227 37.9802 324.612 38.0716C324.994 38.1471 325.556 38.2378 326.298 38.3435C327.284 38.4634 328.097 38.6158 328.737 38.8005C329.391 38.9672 329.975 39.2728 330.49 39.7175C331.005 40.1622 331.329 40.8033 331.463 41.6408C331.568 42.3855 331.455 43.0799 331.126 43.724C330.796 44.3681 330.275 44.91 329.561 45.3496C328.863 45.787 328.007 46.077 326.993 46.2195ZM340.615 44.305C339.379 44.4787 338.223 44.3584 337.147 43.9441C336.069 43.514 335.173 42.832 334.46 41.8981C333.745 40.9484 333.293 39.8002 333.104 38.4534C332.917 37.1225 333.044 35.9009 333.485 34.7886C333.927 33.6764 334.616 32.7717 335.552 32.0746C336.488 31.3776 337.582 30.9411 338.834 30.7652C340.085 30.5893 341.257 30.7073 342.349 31.1194C343.441 31.5314 344.352 32.2112 345.083 33.1586C345.814 34.1061 346.273 35.2453 346.461 36.5763C346.648 37.9072 346.512 39.1299 346.055 40.2444C345.598 41.3589 344.886 42.2748 343.921 42.9922C342.969 43.6915 341.867 44.1291 340.615 44.305ZM340.285 41.9521C340.982 41.8541 341.608 41.5965 342.163 41.1791C342.734 40.7595 343.163 40.1903 343.45 39.4714C343.737 38.7525 343.813 37.9177 343.68 36.9671C343.546 36.0164 343.252 35.2419 342.796 34.6435C342.338 34.0292 341.785 33.598 341.136 33.3499C340.487 33.1018 339.814 33.0268 339.117 33.1247C338.42 33.2227 337.793 33.4804 337.238 33.8977C336.699 34.3128 336.301 34.8776 336.046 35.5921C335.789 36.2907 335.727 37.1153 335.861 38.066C336.059 39.4761 336.569 40.5193 337.391 41.1954C338.227 41.8535 339.191 42.1057 340.285 41.9521ZM354.797 28.5216C355.827 28.3769 356.776 28.4616 357.644 28.7758C358.528 29.0878 359.259 29.6314 359.837 30.4066C360.414 31.1818 360.786 32.1635 360.954 33.3518L362.039 41.0759L359.353 41.4534L358.325 34.1333C358.16 32.9608 357.741 32.1068 357.068 31.5713C356.393 31.0199 355.548 30.8155 354.534 30.958C353.52 31.1005 352.756 31.5309 352.243 32.2493C351.744 32.9497 351.577 33.8861 351.741 35.0585L352.77 42.3786L350.061 42.7594L348.22 29.6641L350.93 29.2833L351.14 30.7806C351.508 30.1795 352.012 29.6806 352.651 29.2838C353.305 28.8848 354.021 28.6307 354.797 28.5216ZM376.532 32.035C376.601 32.5261 376.631 32.9742 376.624 33.3792L366.618 34.7854C366.844 35.82 367.35 36.6052 368.137 37.141C368.923 37.6768 369.823 37.8734 370.837 37.7309C372.295 37.5261 373.239 36.7713 373.67 35.4667L376.593 35.0559C376.366 36.3157 375.784 37.4073 374.848 38.3306C373.925 39.2359 372.695 39.7965 371.158 40.0125C369.906 40.1884 368.742 40.0693 367.666 39.655C366.603 39.2227 365.716 38.5395 365.003 37.6057C364.304 36.6537 363.859 35.5044 363.67 34.1576C363.481 32.8109 363.584 31.5926 363.98 30.5029C364.39 29.395 365.047 28.4948 365.952 27.8022C366.872 27.1074 367.974 26.6698 369.257 26.4894C370.493 26.3157 371.632 26.4303 372.674 26.8332C373.716 27.2361 374.576 27.8908 375.253 28.7974C375.927 29.6882 376.354 30.7674 376.532 32.035ZM373.583 31.5768C373.427 30.5809 372.958 29.8308 372.176 29.3267C371.395 28.8226 370.489 28.6429 369.459 28.7877C368.524 28.9191 367.766 29.3326 367.186 30.0282C366.602 30.7079 366.319 31.5637 366.335 32.5956L373.583 31.5768ZM378.332 32.0486C378.147 30.7335 378.253 29.5311 378.649 28.4414C379.061 27.3494 379.695 26.4604 380.552 25.7745C381.423 25.0705 382.436 24.6372 383.593 24.4747C384.448 24.3544 385.315 24.4265 386.192 24.691C387.083 24.9374 387.818 25.3351 388.396 25.884L387.507 19.5621L390.24 19.178L392.712 36.7651L389.979 37.1492L389.702 35.1766C389.347 35.8727 388.803 36.4825 388.068 37.0057C387.35 37.5268 386.484 37.8586 385.47 38.0011C384.329 38.1614 383.243 38.0232 382.212 37.5864C381.195 37.1316 380.337 36.4282 379.637 35.4762C378.952 34.5062 378.517 33.3637 378.332 32.0486ZM389.057 30.5897C388.93 29.6866 388.63 28.929 388.156 28.317C387.698 27.7027 387.144 27.2636 386.492 26.9997C385.841 26.7357 385.167 26.6527 384.47 26.7507C383.773 26.8487 383.148 27.1143 382.595 27.5475C382.039 27.9648 381.618 28.5329 381.332 29.2519C381.059 29.9527 380.985 30.7547 381.112 31.6578C381.239 32.5609 381.533 33.3275 381.993 33.9576C382.469 34.5855 383.034 35.0393 383.687 35.3191C384.354 35.5808 385.028 35.6638 385.709 35.5681C386.406 35.4701 387.032 35.2045 387.585 34.7713C388.138 34.3381 388.55 33.7632 388.821 33.0465C389.105 32.3118 389.184 31.4928 389.057 30.5897ZM404.846 32.83L410.432 32.0451L410.739 34.2316L402.444 35.3973L400.123 18.8797L402.832 18.4989L404.846 32.83ZM424.041 25.3579C424.11 25.8491 424.141 26.2972 424.133 26.7022L414.128 28.1084C414.354 29.143 414.86 29.9282 415.646 30.464C416.433 30.9998 417.333 31.1964 418.347 31.0539C419.804 30.849 420.749 30.0943 421.179 28.7896L424.102 28.3788C423.876 29.6386 423.294 30.7302 422.357 31.6536C421.434 32.5588 420.204 33.1195 418.667 33.3355C417.416 33.5114 416.252 33.3922 415.176 32.9779C414.113 32.5456 413.225 31.8625 412.513 30.9286C411.813 29.9767 411.369 28.8273 411.18 27.4806C410.99 26.1338 411.094 24.9156 411.49 23.8258C411.9 22.718 412.557 21.8178 413.461 21.1252C414.382 20.4303 415.483 19.9927 416.767 19.8124C418.003 19.6387 419.142 19.7533 420.184 20.1561C421.226 20.559 422.086 21.2138 422.762 22.1204C423.437 23.0112 423.863 24.0904 424.041 25.3579ZM421.093 24.8998C420.937 23.9038 420.468 23.1538 419.686 22.6497C418.904 22.1456 417.999 21.9659 416.969 22.1106C416.034 22.242 415.276 22.6555 414.695 23.3511C414.112 24.0309 413.828 24.8867 413.844 25.9185L421.093 24.8998ZM425.841 25.3715C425.657 24.0565 425.762 22.854 426.158 21.7643C426.57 20.6723 427.205 19.7834 428.062 19.0975C428.932 18.3935 429.938 17.9613 431.079 17.801C432.109 17.6562 433.033 17.7364 433.851 18.0415C434.683 18.3284 435.371 18.7407 435.915 19.2782L435.648 17.3769L438.381 16.9928L440.222 30.0881L437.489 30.4722L437.215 28.5233C436.842 29.2059 436.289 29.8087 435.554 30.332C434.82 30.8553 433.946 31.1882 432.932 31.3307C431.807 31.4888 430.737 31.3484 429.722 30.9094C428.705 30.4545 427.846 29.7511 427.147 28.7992C426.461 27.8292 426.026 26.6866 425.841 25.3715ZM436.567 23.9127C436.44 23.0095 436.139 22.252 435.666 21.6399C435.208 21.0257 434.653 20.5866 434.002 20.3226C433.351 20.0587 432.677 19.9757 431.98 20.0737C431.283 20.1717 430.657 20.4372 430.104 20.8704C429.549 21.2878 429.128 21.8559 428.841 22.5748C428.568 23.2756 428.495 24.0776 428.622 24.9807C428.749 25.8839 429.042 26.6505 429.503 27.2806C429.979 27.9084 430.543 28.3623 431.197 28.6421C431.864 28.9038 432.538 28.9868 433.219 28.891C433.916 28.793 434.541 28.5275 435.094 28.0943C435.647 27.6611 436.059 27.0861 436.33 26.3695C436.615 25.6347 436.694 24.8158 436.567 23.9127ZM441.949 23.1078C441.764 21.7927 441.87 20.5903 442.266 19.5006C442.678 18.4086 443.312 17.5196 444.169 16.8337C445.04 16.1297 446.053 15.6964 447.21 15.5339C448.065 15.4136 448.932 15.4858 449.809 15.7502C450.7 15.9966 451.435 16.3943 452.013 16.9432L451.124 10.6213L453.857 10.2372L456.329 27.8243L453.596 28.2085L453.319 26.2358C452.964 26.932 452.42 27.5417 451.685 28.065C450.967 28.586 450.101 28.9178 449.087 29.0603C447.946 29.2207 446.86 29.0824 445.829 28.6456C444.812 28.1908 443.954 27.4874 443.254 26.5354C442.569 25.5654 442.133 24.4229 441.949 23.1078ZM452.674 21.6489C452.547 20.7458 452.247 19.9882 451.773 19.3762C451.315 18.762 450.76 18.3229 450.109 18.0589C449.458 17.7949 448.784 17.712 448.087 17.8099C447.39 17.9079 446.765 18.1735 446.212 18.6067C445.656 19.024 445.235 19.5922 444.949 20.3111C444.676 21.0119 444.602 21.8139 444.729 22.717C444.856 23.6201 445.15 24.3867 445.61 25.0168C446.086 25.6447 446.651 26.0985 447.304 26.3783C447.971 26.64 448.645 26.723 449.326 26.6273C450.023 26.5293 450.649 26.2637 451.202 25.8305C451.755 25.3973 452.167 24.8224 452.438 24.1057C452.722 23.371 452.801 22.552 452.674 21.6489ZM470.924 18.7689C470.993 19.2601 471.024 19.7082 471.016 20.1132L461.011 21.5194C461.237 22.554 461.743 23.3392 462.529 23.875C463.316 24.4108 464.216 24.6074 465.23 24.4649C466.687 24.26 467.632 23.5053 468.062 22.2007L470.985 21.7898C470.759 23.0497 470.177 24.1413 469.24 25.0646C468.317 25.9699 467.087 26.5305 465.55 26.7465C464.299 26.9224 463.135 26.8032 462.059 26.389C460.996 25.9566 460.108 25.2735 459.396 24.3397C458.696 23.3877 458.252 22.2384 458.063 20.8916C457.873 19.5448 457.977 18.3266 458.373 17.2368C458.783 16.129 459.44 15.2288 460.344 14.5362C461.265 13.8414 462.366 13.4038 463.65 13.2234C464.886 13.0497 466.025 13.1643 467.067 13.5672C468.109 13.97 468.969 14.6248 469.645 15.5314C470.32 16.4222 470.746 17.5014 470.924 18.7689ZM467.976 18.3108C467.82 17.3148 467.351 16.5648 466.569 16.0607C465.787 15.5566 464.882 15.3769 463.852 15.5217C462.917 15.653 462.159 16.0665 461.578 16.7621C460.995 17.4419 460.711 18.2977 460.727 19.3296L467.976 18.3108ZM475.692 13.6879C475.995 12.9668 476.445 12.3784 477.044 11.9227C477.656 11.4489 478.413 11.1485 479.316 11.0216L479.711 13.826L479.021 13.9229C477.96 14.0721 477.19 14.455 476.711 15.0717C476.248 15.6861 476.11 16.6587 476.297 17.9897L477.265 24.8819L474.556 25.2627L472.716 12.1674L475.425 11.7866L475.692 13.6879ZM488.461 23.5267C487.431 23.6714 486.478 23.6195 485.603 23.3708C484.742 23.1041 484.029 22.6873 483.464 22.1203C482.898 21.5375 482.543 20.8522 482.4 20.0645L485.204 19.6703C485.33 20.2182 485.657 20.6489 486.186 20.9623C486.728 21.2577 487.364 21.3542 488.092 21.2518C488.853 21.1449 489.419 20.9199 489.791 20.5768C490.177 20.2156 490.337 19.8053 490.272 19.3458C490.203 18.8546 489.915 18.5236 489.406 18.3528C488.913 18.1797 488.139 18.0218 487.085 17.8791C486.065 17.7478 485.228 17.5988 484.575 17.4322C483.921 17.2655 483.328 16.953 482.795 16.4947C482.278 16.0342 481.959 15.3762 481.839 14.5206C481.741 13.8234 481.858 13.1607 482.19 12.5324C482.519 11.8883 483.041 11.3464 483.755 10.9068C484.484 10.465 485.348 10.1739 486.346 10.0336C487.836 9.8243 489.085 10.0364 490.095 10.67C491.119 11.2856 491.754 12.2385 492 13.5288L489.29 13.9096C489.16 13.33 488.857 12.896 488.38 12.6076C487.903 12.3191 487.301 12.2261 486.572 12.3286C485.859 12.4288 485.331 12.6403 484.989 12.9631C484.646 13.2858 484.506 13.6691 484.569 14.1127C484.618 14.4613 484.786 14.7366 485.072 14.9386C485.359 15.1407 485.695 15.2874 486.08 15.3788C486.462 15.4543 487.024 15.5449 487.766 15.6507C488.752 15.7706 489.565 15.9229 490.205 16.1077C490.859 16.2743 491.443 16.58 491.958 17.0247C492.473 17.4693 492.797 18.1104 492.931 18.948C493.036 19.6926 492.923 20.387 492.594 21.0312C492.264 21.6753 491.742 22.2172 491.029 22.6568C490.331 23.0942 489.475 23.3841 488.461 23.5267Z" fill="#0094FF"/>
<rect x="202.998" y="12.7688" width="353.378" height="84.3318" rx="42.1659" transform="rotate(-8 202.998 12.7688)" stroke="url(#paint2_linear_1198_13756)" stroke-width="2"/>
</g>
<g opacity="0.8">
<rect x="22.5488" y="141.592" width="318.378" height="84.3318" rx="42.1659" transform="rotate(-8 22.5488 141.592)" fill="white"/>
<path d="M119.729 166.766C119.847 167.606 119.76 168.426 119.469 169.227C119.178 170.027 118.63 170.726 117.825 171.324C117.018 171.906 115.933 172.292 114.571 172.484L111.576 172.905L112.518 179.607L109.809 179.988L107.487 163.47L113.191 162.668C114.459 162.49 115.559 162.562 116.493 162.883C117.441 163.186 118.181 163.68 118.713 164.364C119.261 165.047 119.6 165.847 119.729 166.766ZM114.26 170.274C115.29 170.129 116.026 169.791 116.469 169.26C116.909 168.714 117.069 168.013 116.948 167.157C116.695 165.351 115.546 164.591 113.502 164.879L110.507 165.3L111.265 170.695L114.26 170.274ZM125.079 166.426C125.382 165.705 125.832 165.117 126.431 164.661C127.043 164.187 127.8 163.887 128.704 163.76L129.098 166.565L128.408 166.661C127.347 166.811 126.577 167.194 126.098 167.81C125.635 168.425 125.497 169.397 125.684 170.728L126.653 177.62L123.943 178.001L122.103 164.906L124.812 164.525L125.079 166.426ZM138.775 176.135C137.539 176.309 136.383 176.188 135.307 175.774C134.228 175.344 133.333 174.662 132.62 173.728C131.905 172.778 131.453 171.63 131.263 170.283C131.076 168.952 131.203 167.731 131.645 166.619C132.086 165.506 132.775 164.602 133.711 163.905C134.647 163.208 135.741 162.771 136.993 162.595C138.245 162.419 139.417 162.537 140.509 162.949C141.6 163.361 142.512 164.041 143.243 164.989C143.974 165.936 144.433 167.075 144.62 168.406C144.807 169.737 144.672 170.96 144.215 172.074C143.757 173.189 143.046 174.105 142.08 174.822C141.128 175.521 140.026 175.959 138.775 176.135ZM138.444 173.782C139.141 173.684 139.767 173.426 140.323 173.009C140.894 172.589 141.323 172.02 141.61 171.301C141.896 170.582 141.973 169.748 141.839 168.797C141.706 167.846 141.411 167.072 140.955 166.473C140.497 165.859 139.944 165.428 139.295 165.18C138.646 164.932 137.973 164.857 137.276 164.955C136.579 165.053 135.953 165.31 135.397 165.728C134.858 166.143 134.461 166.708 134.206 167.422C133.948 168.121 133.887 168.945 134.02 169.896C134.218 171.306 134.728 172.349 135.551 173.025C136.386 173.683 137.351 173.936 138.444 173.782ZM152.18 162.933L149.756 163.273L151.286 174.158L148.553 174.543L147.023 163.658L145.478 163.875L145.168 161.664L146.713 161.447L146.582 160.52C146.371 159.015 146.613 157.866 147.31 157.074C148.02 156.263 149.23 155.737 150.942 155.497L151.259 157.755C150.435 157.87 149.879 158.11 149.591 158.474C149.3 158.822 149.209 159.376 149.315 160.136L149.446 161.063L151.87 160.722L152.18 162.933ZM167.148 164.925C167.217 165.416 167.248 165.864 167.24 166.269L157.234 167.676C157.461 168.71 157.967 169.495 158.753 170.031C159.539 170.567 160.439 170.764 161.453 170.621C162.911 170.416 163.855 169.661 164.286 168.357L167.209 167.946C166.982 169.206 166.401 170.297 165.464 171.221C164.541 172.126 163.311 172.687 161.774 172.903C160.522 173.078 159.359 172.959 158.282 172.545C157.22 172.113 156.332 171.43 155.619 170.496C154.92 169.544 154.476 168.394 154.286 167.048C154.097 165.701 154.201 164.483 154.597 163.393C155.007 162.285 155.664 161.385 156.568 160.692C157.488 159.997 158.59 159.56 159.874 159.379C161.109 159.206 162.248 159.32 163.291 159.723C164.333 160.126 165.192 160.781 165.869 161.688C166.544 162.578 166.97 163.657 167.148 164.925ZM164.2 164.467C164.044 163.471 163.575 162.721 162.793 162.217C162.011 161.713 161.105 161.533 160.075 161.678C159.141 161.809 158.383 162.223 157.802 162.918C157.219 163.598 156.935 164.454 156.951 165.486L164.2 164.467ZM175.563 170.965C174.533 171.109 173.581 171.057 172.706 170.809C171.844 170.542 171.131 170.125 170.567 169.558C170 168.976 169.645 168.29 169.502 167.502L172.307 167.108C172.432 167.656 172.759 168.087 173.288 168.4C173.83 168.696 174.466 168.792 175.195 168.69C175.955 168.583 176.522 168.358 176.894 168.015C177.279 167.654 177.439 167.243 177.375 166.784C177.306 166.293 177.017 165.962 176.508 165.791C176.015 165.618 175.242 165.46 174.188 165.317C173.168 165.186 172.331 165.037 171.677 164.87C171.024 164.704 170.43 164.391 169.897 163.933C169.38 163.472 169.062 162.814 168.941 161.959C168.843 161.261 168.96 160.599 169.292 159.97C169.622 159.326 170.143 158.784 170.857 158.345C171.587 157.903 172.45 157.612 173.449 157.472C174.938 157.262 176.188 157.474 177.198 158.108C178.221 158.724 178.856 159.676 179.102 160.967L176.393 161.348C176.263 160.768 175.959 160.334 175.483 160.046C175.006 159.757 174.403 159.664 173.674 159.767C172.961 159.867 172.434 160.078 172.091 160.401C171.749 160.724 171.609 161.107 171.671 161.551C171.72 161.899 171.888 162.175 172.175 162.377C172.462 162.579 172.798 162.725 173.182 162.817C173.564 162.892 174.126 162.983 174.868 163.089C175.855 163.209 176.668 163.361 177.308 163.546C177.961 163.712 178.545 164.018 179.06 164.463C179.575 164.907 179.9 165.548 180.033 166.386C180.138 167.131 180.026 167.825 179.696 168.469C179.366 169.113 178.845 169.655 178.131 170.095C177.433 170.532 176.577 170.822 175.563 170.965ZM188.259 169.18C187.229 169.325 186.276 169.273 185.401 169.025C184.54 168.758 183.827 168.341 183.262 167.774C182.696 167.191 182.341 166.506 182.198 165.718L185.002 165.324C185.128 165.872 185.455 166.303 185.984 166.616C186.526 166.911 187.162 167.008 187.89 166.906C188.651 166.799 189.217 166.574 189.589 166.231C189.975 165.869 190.135 165.459 190.07 165C190.001 164.508 189.713 164.177 189.204 164.007C188.711 163.833 187.937 163.676 186.883 163.533C185.863 163.402 185.026 163.253 184.373 163.086C183.719 162.919 183.126 162.607 182.593 162.149C182.076 161.688 181.757 161.03 181.637 160.174C181.539 159.477 181.656 158.814 181.988 158.186C182.317 157.542 182.839 157 183.553 156.561C184.282 156.119 185.146 155.828 186.144 155.687C187.634 155.478 188.883 155.69 189.893 156.324C190.917 156.939 191.552 157.892 191.798 159.183L189.088 159.563C188.958 158.984 188.655 158.55 188.178 158.261C187.701 157.973 187.099 157.88 186.37 157.982C185.657 158.083 185.129 158.294 184.787 158.617C184.444 158.94 184.304 159.323 184.367 159.766C184.416 160.115 184.584 160.39 184.87 160.592C185.157 160.794 185.493 160.941 185.878 161.033C186.26 161.108 186.822 161.199 187.564 161.304C188.55 161.424 189.363 161.577 190.003 161.761C190.657 161.928 191.241 162.234 191.756 162.678C192.271 163.123 192.595 163.764 192.729 164.602C192.834 165.346 192.721 166.041 192.392 166.685C192.062 167.329 191.54 167.871 190.827 168.311C190.129 168.748 189.273 169.038 188.259 169.18ZM195.465 152.826C194.974 152.895 194.539 152.787 194.159 152.501C193.78 152.215 193.555 151.826 193.486 151.335C193.417 150.844 193.526 150.409 193.812 150.029C194.098 149.65 194.486 149.425 194.977 149.356C195.453 149.29 195.88 149.399 196.26 149.685C196.639 149.971 196.863 150.36 196.932 150.851C197.001 151.342 196.893 151.777 196.607 152.157C196.321 152.536 195.94 152.76 195.465 152.826ZM197.04 154.374L198.88 167.47L196.171 167.85L194.33 154.755L197.04 154.374ZM208.148 166.385C206.912 166.559 205.756 166.439 204.68 166.024C203.601 165.594 202.706 164.912 201.993 163.978C201.278 163.029 200.825 161.88 200.636 160.534C200.449 159.203 200.576 157.981 201.018 156.869C201.459 155.757 202.148 154.852 203.084 154.155C204.02 153.458 205.114 153.021 206.366 152.845C207.618 152.669 208.789 152.788 209.881 153.2C210.973 153.612 211.885 154.291 212.616 155.239C213.347 156.186 213.806 157.326 213.993 158.656C214.18 159.987 214.045 161.21 213.587 162.325C213.13 163.439 212.419 164.355 211.453 165.072C210.501 165.772 209.399 166.209 208.148 166.385ZM207.817 164.032C208.514 163.934 209.14 163.677 209.696 163.259C210.267 162.84 210.696 162.271 210.983 161.552C211.269 160.833 211.346 159.998 211.212 159.047C211.079 158.097 210.784 157.322 210.328 156.724C209.87 156.109 209.317 155.678 208.668 155.43C208.019 155.182 207.346 155.107 206.649 155.205C205.952 155.303 205.326 155.561 204.77 155.978C204.231 156.393 203.834 156.958 203.579 157.672C203.321 158.371 203.259 159.196 203.393 160.146C203.591 161.556 204.101 162.599 204.924 163.276C205.759 163.934 206.724 164.186 207.817 164.032ZM222.33 150.602C223.36 150.457 224.309 150.542 225.177 150.856C226.061 151.168 226.792 151.712 227.369 152.487C227.947 153.262 228.319 154.244 228.486 155.432L229.571 163.156L226.886 163.534L225.857 156.214C225.692 155.041 225.273 154.187 224.6 153.652C223.925 153.1 223.08 152.896 222.066 153.038C221.052 153.181 220.289 153.611 219.776 154.33C219.276 155.03 219.109 155.966 219.274 157.139L220.303 164.459L217.593 164.84L215.753 151.744L218.462 151.364L218.673 152.861C219.04 152.26 219.544 151.761 220.183 151.364C220.838 150.965 221.553 150.711 222.33 150.602ZM231.196 156.19C231.011 154.875 231.117 153.673 231.513 152.583C231.925 151.491 232.559 150.602 233.416 149.916C234.287 149.212 235.292 148.78 236.433 148.62C237.463 148.475 238.387 148.555 239.206 148.86C240.038 149.147 240.726 149.559 241.27 150.097L241.003 148.196L243.736 147.812L245.576 160.907L242.843 161.291L242.569 159.342C242.196 160.025 241.643 160.628 240.909 161.151C240.174 161.674 239.3 162.007 238.286 162.15C237.161 162.308 236.091 162.167 235.076 161.728C234.059 161.273 233.201 160.57 232.501 159.618C231.816 158.648 231.381 157.505 231.196 156.19ZM241.921 154.731C241.794 153.828 241.494 153.071 241.02 152.459C240.562 151.844 240.008 151.405 239.356 151.141C238.705 150.877 238.031 150.794 237.334 150.892C236.637 150.99 236.012 151.256 235.459 151.689C234.903 152.107 234.482 152.675 234.196 153.394C233.923 154.094 233.849 154.896 233.976 155.8C234.103 156.703 234.397 157.469 234.857 158.099C235.333 158.727 235.898 159.181 236.551 159.461C237.218 159.723 237.892 159.806 238.573 159.71C239.27 159.612 239.896 159.346 240.449 158.913C241.002 158.48 241.414 157.905 241.685 157.188C241.969 156.453 242.048 155.635 241.921 154.731ZM249.372 142.439L251.844 160.026L249.135 160.407L246.663 142.82L249.372 142.439ZM260.185 159.072C259.155 159.217 258.202 159.165 257.327 158.916C256.466 158.649 255.753 158.233 255.188 157.666C254.622 157.083 254.267 156.397 254.124 155.61L256.928 155.216C257.054 155.763 257.381 156.194 257.91 156.508C258.452 156.803 259.088 156.899 259.816 156.797C260.577 156.69 261.143 156.465 261.515 156.122C261.901 155.761 262.061 155.351 261.996 154.891C261.927 154.4 261.639 154.069 261.13 153.898C260.637 153.725 259.863 153.567 258.809 153.424C257.789 153.293 256.952 153.144 256.299 152.977C255.645 152.811 255.052 152.498 254.519 152.04C254.002 151.579 253.683 150.921 253.563 150.066C253.465 149.369 253.582 148.706 253.914 148.078C254.243 147.434 254.765 146.892 255.478 146.452C256.208 146.01 257.072 145.719 258.07 145.579C259.56 145.37 260.809 145.582 261.819 146.215C262.843 146.831 263.478 147.784 263.724 149.074L261.014 149.455C260.884 148.875 260.581 148.441 260.104 148.153C259.627 147.864 259.025 147.771 258.296 147.874C257.583 147.974 257.055 148.185 256.713 148.508C256.37 148.831 256.23 149.214 256.293 149.658C256.342 150.007 256.51 150.282 256.796 150.484C257.083 150.686 257.419 150.833 257.803 150.924C258.186 151 258.748 151.09 259.49 151.196C260.476 151.316 261.289 151.468 261.929 151.653C262.583 151.82 263.167 152.125 263.682 152.57C264.197 153.015 264.521 153.656 264.655 154.493C264.76 155.238 264.647 155.932 264.318 156.576C263.988 157.221 263.466 157.762 262.753 158.202C262.055 158.639 261.199 158.929 260.185 159.072Z" fill="#0094FF"/>
<rect x="22.5488" y="141.592" width="318.378" height="84.3318" rx="42.1659" transform="rotate(-8 22.5488 141.592)" stroke="url(#paint3_linear_1198_13756)" stroke-width="2"/>
<rect x="355.776" y="94.7603" width="213.498" height="84.3318" rx="42.1659" transform="rotate(-8 355.776 94.7603)" fill="white"/>
<path d="M408.033 121.231L408.344 123.441L401.333 124.427L402.017 129.299L407.484 128.531L407.794 130.741L402.328 131.509L403.343 138.734L400.634 139.115L398.313 122.597L408.033 121.231ZM414.001 125.821C414.304 125.1 414.755 124.512 415.353 124.056C415.965 123.582 416.722 123.282 417.626 123.155L418.02 125.959L417.331 126.056C416.269 126.205 415.499 126.588 415.02 127.205C414.557 127.819 414.419 128.792 414.606 130.123L415.575 137.015L412.865 137.396L411.025 124.301L413.734 123.92L414.001 125.821ZM433.023 127.559C433.092 128.05 433.123 128.498 433.115 128.903L423.11 130.309C423.336 131.344 423.842 132.129 424.628 132.665C425.414 133.201 426.315 133.397 427.329 133.255C428.786 133.05 429.73 132.295 430.161 130.99L433.084 130.58C432.857 131.839 432.276 132.931 431.339 133.854C430.416 134.76 429.186 135.32 427.649 135.536C426.398 135.712 425.234 135.593 424.158 135.179C423.095 134.746 422.207 134.063 421.494 133.129C420.795 132.178 420.351 131.028 420.162 129.681C419.972 128.335 420.076 127.116 420.472 126.027C420.882 124.919 421.539 124.019 422.443 123.326C423.364 122.631 424.465 122.194 425.749 122.013C426.985 121.839 428.124 121.954 429.166 122.357C430.208 122.76 431.068 123.415 431.744 124.321C432.419 125.212 432.845 126.291 433.023 127.559ZM430.075 127.101C429.919 126.105 429.45 125.355 428.668 124.85C427.886 124.346 426.98 124.167 425.951 124.311C425.016 124.443 424.258 124.856 423.677 125.552C423.094 126.232 422.81 127.087 422.826 128.119L430.075 127.101ZM447.692 125.497C447.761 125.988 447.791 126.436 447.784 126.841L437.778 128.248C438.004 129.282 438.51 130.067 439.297 130.603C440.083 131.139 440.983 131.336 441.997 131.193C443.455 130.988 444.399 130.234 444.829 128.929L447.753 128.518C447.526 129.778 446.944 130.87 446.007 131.793C445.084 132.698 443.855 133.259 442.318 133.475C441.066 133.651 439.902 133.532 438.826 133.117C437.763 132.685 436.876 132.002 436.163 131.068C435.463 130.116 435.019 128.967 434.83 127.62C434.641 126.273 434.744 125.055 435.14 123.965C435.55 122.857 436.207 121.957 437.112 121.264C438.032 120.57 439.134 120.132 440.417 119.952C441.653 119.778 442.792 119.893 443.834 120.295C444.876 120.698 445.736 121.353 446.413 122.26C447.087 123.151 447.514 124.23 447.692 125.497ZM444.743 125.039C444.587 124.043 444.118 123.293 443.336 122.789C442.555 122.285 441.649 122.105 440.619 122.25C439.684 122.381 438.926 122.795 438.345 123.49C437.762 124.17 437.479 125.026 437.494 126.058L444.743 125.039ZM451.561 114.023L454.033 131.61L451.323 131.991L448.852 114.404L451.561 114.023ZM455.758 124.63C455.573 123.315 455.679 122.113 456.075 121.023C456.487 119.931 457.122 119.042 457.979 118.356C458.849 117.652 459.855 117.22 460.995 117.06C462.025 116.915 462.949 116.995 463.768 117.3C464.6 117.587 465.288 117.999 465.832 118.537L465.565 116.635L468.298 116.251L470.138 129.347L467.405 129.731L467.131 127.782C466.759 128.464 466.205 129.067 465.471 129.591C464.737 130.114 463.863 130.447 462.848 130.589C461.724 130.747 460.654 130.607 459.639 130.168C458.621 129.713 457.763 129.01 457.064 128.058C456.378 127.088 455.943 125.945 455.758 124.63ZM466.483 123.171C466.357 122.268 466.056 121.511 465.582 120.899C465.124 120.284 464.57 119.845 463.919 119.581C463.268 119.317 462.594 119.234 461.897 119.332C461.199 119.43 460.574 119.696 460.021 120.129C459.466 120.546 459.045 121.115 458.758 121.833C458.485 122.534 458.412 123.336 458.539 124.239C458.666 125.142 458.959 125.909 459.419 126.539C459.895 127.167 460.46 127.621 461.113 127.901C461.78 128.162 462.454 128.245 463.136 128.15C463.833 128.052 464.458 127.786 465.011 127.353C465.564 126.92 465.976 126.345 466.247 125.628C466.532 124.893 466.61 124.074 466.483 123.171ZM478.434 114.609C479.464 114.464 480.413 114.549 481.281 114.863C482.165 115.175 482.896 115.719 483.473 116.494C484.051 117.269 484.423 118.251 484.59 119.439L485.675 127.163L482.99 127.541L481.961 120.22C481.796 119.048 481.377 118.194 480.704 117.658C480.029 117.107 479.184 116.903 478.17 117.045C477.156 117.188 476.393 117.618 475.88 118.337C475.38 119.037 475.213 119.973 475.378 121.146L476.407 128.466L473.697 128.847L471.857 115.751L474.566 115.37L474.777 116.868C475.144 116.267 475.648 115.768 476.287 115.371C476.942 114.972 477.657 114.718 478.434 114.609ZM487.306 120.245C487.117 118.898 487.221 117.68 487.617 116.59C488.027 115.482 488.676 114.583 489.564 113.893C490.453 113.202 491.523 112.769 492.775 112.593C494.359 112.371 495.72 112.567 496.856 113.183C498.007 113.781 498.862 114.751 499.423 116.094L496.499 116.505C496.17 115.889 495.719 115.435 495.145 115.144C494.571 114.853 493.888 114.764 493.095 114.875C491.986 115.031 491.155 115.552 490.601 116.437C490.06 117.305 489.889 118.444 490.087 119.854C490.285 121.264 490.765 122.32 491.526 123.021C492.303 123.719 493.246 123.991 494.355 123.835C495.923 123.614 496.864 122.779 497.177 121.33L500.101 120.919C499.907 122.303 499.344 123.465 498.409 124.404C497.473 125.327 496.228 125.898 494.675 126.116C493.424 126.292 492.275 126.171 491.231 125.752C490.184 125.318 489.313 124.632 488.615 123.696C487.932 122.742 487.496 121.592 487.306 120.245ZM514.419 116.119C514.488 116.611 514.518 117.059 514.511 117.464L504.505 118.87C504.731 119.904 505.237 120.69 506.024 121.225C506.81 121.761 507.71 121.958 508.724 121.815C510.182 121.61 511.126 120.856 511.556 119.551L514.48 119.14C514.253 120.4 513.671 121.492 512.735 122.415C511.812 123.32 510.582 123.881 509.045 124.097C507.793 124.273 506.629 124.154 505.553 123.739C504.49 123.307 503.603 122.624 502.89 121.69C502.191 120.738 501.746 119.589 501.557 118.242C501.368 116.895 501.471 115.677 501.867 114.587C502.277 113.479 502.934 112.579 503.839 111.887C504.759 111.192 505.861 110.754 507.144 110.574C508.38 110.4 509.519 110.515 510.561 110.918C511.603 111.32 512.463 111.975 513.14 112.882C513.814 113.773 514.241 114.852 514.419 116.119ZM511.47 115.661C511.314 114.665 510.845 113.915 510.063 113.411C509.282 112.907 508.376 112.727 507.346 112.872C506.411 113.003 505.653 113.417 505.072 114.113C504.489 114.792 504.206 115.648 504.221 116.68L511.47 115.661ZM519.186 111.038C519.489 110.317 519.94 109.729 520.538 109.273C521.15 108.799 521.908 108.499 522.811 108.372L523.205 111.176L522.516 111.273C521.454 111.423 520.684 111.805 520.205 112.422C519.742 113.036 519.604 114.009 519.791 115.34L520.76 122.232L518.05 122.613L516.21 109.518L518.919 109.137L519.186 111.038ZM531.955 120.877C530.925 121.022 529.973 120.97 529.097 120.721C528.236 120.455 527.523 120.038 526.959 119.471C526.392 118.888 526.037 118.203 525.894 117.415L528.699 117.021C528.824 117.569 529.151 117.999 529.68 118.313C530.222 118.608 530.858 118.705 531.587 118.602C532.347 118.495 532.913 118.27 533.285 117.927C533.671 117.566 533.831 117.156 533.767 116.696C533.698 116.205 533.409 115.874 532.9 115.703C532.407 115.53 531.634 115.372 530.58 115.23C529.559 115.098 528.723 114.949 528.069 114.783C527.415 114.616 526.822 114.303 526.289 113.845C525.772 113.385 525.453 112.727 525.333 111.871C525.235 111.174 525.352 110.511 525.684 109.883C526.013 109.239 526.535 108.697 527.249 108.257C527.978 107.815 528.842 107.524 529.841 107.384C531.33 107.175 532.58 107.387 533.59 108.02C534.613 108.636 535.248 109.589 535.494 110.879L532.785 111.26C532.655 110.68 532.351 110.246 531.875 109.958C531.398 109.67 530.795 109.577 530.066 109.679C529.353 109.779 528.825 109.991 528.483 110.313C528.141 110.636 528.001 111.019 528.063 111.463C528.112 111.812 528.28 112.087 528.567 112.289C528.854 112.491 529.189 112.638 529.574 112.729C529.956 112.805 530.518 112.895 531.26 113.001C532.246 113.121 533.059 113.273 533.699 113.458C534.353 113.625 534.937 113.93 535.452 114.375C535.967 114.82 536.291 115.461 536.425 116.298C536.53 117.043 536.417 117.737 536.088 118.382C535.758 119.026 535.237 119.568 534.523 120.007C533.825 120.445 532.969 120.735 531.955 120.877Z" fill="#0094FF"/>
<rect x="355.776" y="94.7603" width="213.498" height="84.3318" rx="42.1659" transform="rotate(-8 355.776 94.7603)" stroke="url(#paint4_linear_1198_13756)" stroke-width="2"/>
</g>
<rect x="36.8079" y="243.052" width="210.498" height="84.3318" rx="42.1659" transform="rotate(-8 36.8079 243.052)" fill="white"/>
<path d="M91.0796 282.642L84.1636 283.614L83.4496 287.155L80.6213 287.553L84.2144 270.18L87.3516 269.739L95.5942 285.449L92.7422 285.849L91.0796 282.642ZM90.0084 280.538L86.244 273.239L84.6135 281.296L90.0084 280.538ZM102.951 284.633C101.921 284.778 100.968 284.726 100.093 284.477C99.2316 284.21 98.5187 283.793 97.9543 283.226C97.3877 282.644 97.0328 281.958 96.8898 281.171L99.6943 280.776C99.8197 281.324 100.147 281.755 100.676 282.068C101.218 282.364 101.854 282.46 102.582 282.358C103.343 282.251 103.909 282.026 104.281 281.683C104.667 281.322 104.827 280.911 104.762 280.452C104.693 279.961 104.405 279.63 103.896 279.459C103.403 279.286 102.629 279.128 101.575 278.985C100.555 278.854 99.7182 278.705 99.0646 278.538C98.4111 278.372 97.8178 278.059 97.2848 277.601C96.7677 277.14 96.449 276.482 96.3288 275.627C96.2308 274.93 96.3477 274.267 96.6795 273.639C97.0091 272.994 97.5307 272.453 98.2445 272.013C98.9741 271.571 99.838 271.28 100.836 271.14C102.326 270.93 103.575 271.143 104.585 271.776C105.609 272.392 106.244 273.345 106.49 274.635L103.78 275.016C103.65 274.436 103.347 274.002 102.87 273.714C102.393 273.425 101.791 273.332 101.062 273.435C100.349 273.535 99.8211 273.746 99.4787 274.069C99.1363 274.392 98.9962 274.775 99.0586 275.219C99.1076 275.567 99.2755 275.843 99.5624 276.045C99.8494 276.247 100.185 276.394 100.569 276.485C100.952 276.56 101.514 276.651 102.256 276.757C103.242 276.877 104.055 277.029 104.695 277.214C105.349 277.38 105.933 277.686 106.448 278.131C106.963 278.575 107.287 279.217 107.421 280.054C107.526 280.799 107.413 281.493 107.084 282.137C106.754 282.781 106.232 283.323 105.519 283.763C104.821 284.2 103.965 284.49 102.951 284.633ZM112.494 271.973L113.513 279.222C113.582 279.713 113.743 280.054 113.996 280.245C114.262 280.417 114.673 280.465 115.228 280.387L116.891 280.153L117.208 282.411L115.069 282.711C113.849 282.883 112.875 282.729 112.145 282.25C111.415 281.771 110.96 280.89 110.78 279.606L109.761 272.358L108.216 272.575L107.905 270.364L109.45 270.147L108.993 266.891L111.726 266.507L112.183 269.763L115.368 269.316L115.679 271.526L112.494 271.973ZM120.842 270.485C121.144 269.764 121.595 269.176 122.193 268.72C122.805 268.246 123.563 267.946 124.466 267.819L124.86 270.623L124.171 270.72C123.109 270.869 122.339 271.252 121.86 271.869C121.397 272.483 121.259 273.456 121.446 274.787L122.415 281.679L119.706 282.06L117.865 268.965L120.575 268.584L120.842 270.485ZM134.537 280.194C133.301 280.367 132.145 280.247 131.069 279.833C129.991 279.403 129.095 278.721 128.382 277.787C127.667 276.837 127.215 275.689 127.026 274.342C126.839 273.011 126.966 271.79 127.407 270.677C127.849 269.565 128.538 268.66 129.474 267.963C130.41 267.266 131.504 266.83 132.755 266.654C134.007 266.478 135.179 266.596 136.271 267.008C137.363 267.42 138.274 268.1 139.005 269.047C139.736 269.995 140.195 271.134 140.382 272.465C140.569 273.796 140.434 275.019 139.977 276.133C139.52 277.247 138.808 278.163 137.843 278.881C136.891 279.58 135.789 280.018 134.537 280.194ZM134.206 277.841C134.904 277.743 135.53 277.485 136.085 277.068C136.656 276.648 137.085 276.079 137.372 275.36C137.659 274.641 137.735 273.806 137.602 272.856C137.468 271.905 137.173 271.13 136.718 270.532C136.26 269.918 135.706 269.487 135.058 269.239C134.409 268.99 133.736 268.915 133.039 269.013C132.341 269.111 131.715 269.369 131.16 269.786C130.62 270.201 130.223 270.766 129.968 271.481C129.711 272.179 129.649 273.004 129.783 273.955C129.981 275.365 130.491 276.408 131.313 277.084C132.149 277.742 133.113 277.994 134.206 277.841ZM144.22 260.68L146.692 278.267L143.983 278.648L141.511 261.061L144.22 260.68ZM155.959 277.183C154.724 277.357 153.568 277.236 152.491 276.822C151.413 276.392 150.517 275.71 149.805 274.776C149.089 273.826 148.637 272.678 148.448 271.331C148.261 270 148.388 268.779 148.83 267.667C149.271 266.554 149.96 265.65 150.896 264.953C151.832 264.255 152.926 263.819 154.178 263.643C155.429 263.467 156.601 263.585 157.693 263.997C158.785 264.409 159.697 265.089 160.428 266.037C161.159 266.984 161.618 268.123 161.805 269.454C161.992 270.785 161.857 272.008 161.399 273.122C160.942 274.237 160.23 275.153 159.265 275.87C158.313 276.569 157.211 277.007 155.959 277.183ZM155.629 274.83C156.326 274.732 156.952 274.474 157.507 274.057C158.079 273.637 158.508 273.068 158.794 272.349C159.081 271.63 159.158 270.796 159.024 269.845C158.89 268.894 158.596 268.12 158.14 267.521C157.682 266.907 157.129 266.476 156.48 266.228C155.831 265.98 155.158 265.905 154.461 266.003C153.764 266.101 153.137 266.358 152.582 266.776C152.043 267.191 151.645 267.756 151.39 268.47C151.133 269.169 151.071 269.993 151.205 270.944C151.403 272.354 151.913 273.397 152.735 274.073C153.571 274.731 154.536 274.984 155.629 274.83ZM168.811 261.587C169.825 261.444 170.749 261.524 171.583 261.827C172.431 262.112 173.119 262.524 173.647 263.064L173.38 261.162L176.113 260.778L177.984 274.088C178.153 275.292 178.05 276.397 177.674 277.403C177.301 278.425 176.669 279.273 175.778 279.948C174.903 280.62 173.8 281.05 172.469 281.237C170.694 281.486 169.162 281.273 167.871 280.598C166.583 279.939 165.76 278.908 165.401 277.504L168.086 277.127C168.388 277.779 168.901 278.264 169.624 278.583C170.365 278.915 171.203 279.015 172.138 278.884C173.232 278.73 174.064 278.274 174.636 277.515C175.224 276.754 175.429 275.739 175.251 274.472L174.943 272.285C174.571 272.968 174.018 273.579 173.286 274.118C172.568 274.639 171.709 274.969 170.711 275.11C169.57 275.27 168.485 275.132 167.454 274.695C166.437 274.24 165.578 273.537 164.879 272.585C164.193 271.615 163.758 270.472 163.573 269.157C163.388 267.842 163.494 266.64 163.89 265.55C164.302 264.458 164.937 263.569 165.794 262.883C166.664 262.179 167.67 261.747 168.811 261.587ZM174.299 267.698C174.172 266.795 173.871 266.038 173.398 265.426C172.94 264.811 172.385 264.372 171.734 264.108C171.083 263.844 170.409 263.761 169.712 263.859C169.015 263.957 168.389 264.223 167.836 264.656C167.281 265.073 166.86 265.642 166.573 266.36C166.3 267.061 166.227 267.863 166.354 268.766C166.481 269.669 166.774 270.436 167.235 271.066C167.711 271.694 168.275 272.148 168.929 272.428C169.595 272.689 170.27 272.772 170.951 272.677C171.648 272.579 172.273 272.313 172.826 271.88C173.379 271.447 173.791 270.872 174.062 270.155C174.347 269.42 174.426 268.601 174.299 267.698ZM192.549 264.818C192.618 265.309 192.649 265.758 192.641 266.163L182.635 267.569C182.862 268.603 183.368 269.389 184.154 269.924C184.94 270.46 185.84 270.657 186.854 270.514C188.312 270.309 189.256 269.555 189.687 268.25L192.61 267.839C192.383 269.099 191.801 270.191 190.865 271.114C189.942 272.019 188.712 272.58 187.175 272.796C185.923 272.972 184.759 272.853 183.683 272.438C182.621 272.006 181.733 271.323 181.02 270.389C180.321 269.437 179.877 268.288 179.687 266.941C179.498 265.594 179.601 264.376 179.998 263.286C180.407 262.178 181.065 261.278 181.969 260.586C182.889 259.891 183.991 259.453 185.274 259.273C186.51 259.099 187.649 259.214 188.692 259.617C189.734 260.019 190.593 260.674 191.27 261.581C191.945 262.472 192.371 263.551 192.549 264.818ZM189.601 264.36C189.444 263.364 188.975 262.614 188.194 262.11C187.412 261.606 186.506 261.426 185.476 261.571C184.541 261.702 183.784 262.116 183.203 262.811C182.62 263.491 182.336 264.347 182.352 265.379L189.601 264.36ZM197.317 259.737C197.619 259.016 198.07 258.428 198.668 257.972C199.28 257.498 200.038 257.198 200.941 257.071L201.335 259.875L200.646 259.972C199.584 260.121 198.814 260.504 198.335 261.121C197.872 261.735 197.734 262.708 197.921 264.039L198.89 270.931L196.181 271.312L194.34 258.217L197.05 257.836L197.317 259.737ZM210.085 269.576C209.055 269.721 208.103 269.669 207.228 269.42C206.366 269.153 205.653 268.737 205.089 268.17C204.522 267.587 204.167 266.902 204.024 266.114L206.829 265.72C206.954 266.268 207.281 266.698 207.81 267.012C208.353 267.307 208.988 267.404 209.717 267.301C210.478 267.194 211.044 266.969 211.416 266.626C211.801 266.265 211.962 265.855 211.897 265.395C211.828 264.904 211.539 264.573 211.03 264.402C210.538 264.229 209.764 264.071 208.71 263.928C207.69 263.797 206.853 263.648 206.199 263.482C205.546 263.315 204.952 263.002 204.419 262.544C203.902 262.084 203.584 261.426 203.463 260.57C203.365 259.873 203.482 259.21 203.814 258.582C204.144 257.938 204.665 257.396 205.379 256.956C206.109 256.514 206.973 256.223 207.971 256.083C209.46 255.874 210.71 256.086 211.72 256.719C212.744 257.335 213.378 258.288 213.624 259.578L210.915 259.959C210.785 259.379 210.482 258.945 210.005 258.657C209.528 258.368 208.925 258.275 208.196 258.378C207.483 258.478 206.956 258.69 206.613 259.012C206.271 259.335 206.131 259.718 206.193 260.162C206.242 260.511 206.41 260.786 206.697 260.988C206.984 261.19 207.32 261.337 207.704 261.428C208.086 261.504 208.648 261.594 209.39 261.7C210.377 261.82 211.19 261.972 211.83 262.157C212.483 262.324 213.068 262.629 213.582 263.074C214.097 263.519 214.422 264.16 214.556 264.997C214.66 265.742 214.548 266.436 214.218 267.081C213.889 267.725 213.367 268.267 212.653 268.706C211.955 269.144 211.099 269.433 210.085 269.576Z" fill="#0094FF"/>
<rect x="36.8079" y="243.052" width="210.498" height="84.3318" rx="42.1659" transform="rotate(-8 36.8079 243.052)" stroke="url(#paint5_linear_1198_13756)" stroke-width="2"/>
<rect x="263.205" y="211.233" width="321.378" height="84.3318" rx="42.1659" transform="rotate(-8 263.205 211.233)" fill="white"/>
<path d="M356.38 240.339C356.153 238.723 356.322 237.221 356.886 235.833C357.466 234.443 358.348 233.301 359.531 232.407C360.728 231.496 362.095 230.932 363.631 230.716C365.39 230.469 367.012 230.686 368.497 231.365C369.996 232.027 371.165 233.107 372.006 234.605L368.75 235.062C368.2 234.251 367.514 233.685 366.694 233.364C365.873 233.043 364.964 232.953 363.965 233.093C362.872 233.247 361.932 233.629 361.146 234.241C360.359 234.852 359.785 235.652 359.423 236.64C359.077 237.625 358.989 238.728 359.161 239.948C359.332 241.168 359.72 242.204 360.325 243.057C360.945 243.907 361.719 244.525 362.645 244.912C363.57 245.283 364.579 245.391 365.672 245.238C366.67 245.097 367.52 244.76 368.22 244.225C368.921 243.69 369.423 242.957 369.729 242.026L372.985 241.568C372.589 243.239 371.763 244.6 370.505 245.649C369.262 246.696 367.762 247.343 366.003 247.591C364.45 247.809 362.982 247.652 361.598 247.119C360.213 246.57 359.049 245.708 358.108 244.531C357.183 243.353 356.607 241.955 356.38 240.339ZM382.541 245.339C381.305 245.513 380.149 245.392 379.073 244.978C377.995 244.548 377.099 243.866 376.386 242.932C375.671 241.982 375.219 240.834 375.03 239.487C374.842 238.156 374.97 236.935 375.411 235.823C375.853 234.71 376.542 233.806 377.478 233.109C378.414 232.412 379.508 231.975 380.759 231.799C382.011 231.623 383.183 231.741 384.275 232.153C385.367 232.565 386.278 233.245 387.009 234.193C387.74 235.14 388.199 236.279 388.386 237.61C388.573 238.941 388.438 240.164 387.981 241.278C387.523 242.393 386.812 243.309 385.846 244.026C384.895 244.725 383.793 245.163 382.541 245.339ZM382.21 242.986C382.907 242.888 383.534 242.63 384.089 242.213C384.66 241.793 385.089 241.224 385.376 240.505C385.663 239.786 385.739 238.952 385.606 238.001C385.472 237.05 385.177 236.276 384.722 235.677C384.264 235.063 383.71 234.632 383.061 234.384C382.413 234.136 381.74 234.061 381.042 234.159C380.345 234.257 379.719 234.514 379.164 234.932C378.624 235.347 378.227 235.912 377.972 236.626C377.715 237.325 377.653 238.149 377.786 239.1C377.985 240.51 378.495 241.553 379.317 242.229C380.153 242.887 381.117 243.14 382.21 242.986ZM396.723 229.556C397.753 229.411 398.702 229.496 399.57 229.81C400.454 230.122 401.185 230.665 401.762 231.441C402.34 232.216 402.712 233.197 402.879 234.386L403.965 242.11L401.279 242.487L400.25 235.167C400.086 233.995 399.667 233.141 398.994 232.605C398.318 232.054 397.474 231.849 396.46 231.992C395.446 232.134 394.682 232.565 394.169 233.283C393.67 233.984 393.502 234.92 393.667 236.092L394.696 243.413L391.987 243.793L390.146 230.698L392.855 230.317L393.066 231.815C393.434 231.213 393.937 230.715 394.576 230.318C395.231 229.919 395.947 229.665 396.723 229.556ZM412.204 241.17C411.174 241.315 410.222 241.263 409.347 241.014C408.485 240.748 407.772 240.331 407.208 239.764C406.641 239.181 406.286 238.496 406.143 237.708L408.948 237.314C409.073 237.862 409.4 238.292 409.929 238.606C410.471 238.901 411.107 238.998 411.836 238.895C412.596 238.788 413.163 238.563 413.535 238.22C413.92 237.859 414.08 237.449 414.016 236.989C413.947 236.498 413.658 236.167 413.149 235.996C412.656 235.823 411.883 235.665 410.829 235.523C409.809 235.391 408.972 235.242 408.318 235.076C407.665 234.909 407.071 234.596 406.538 234.138C406.021 233.678 405.703 233.02 405.582 232.164C405.484 231.467 405.601 230.804 405.933 230.176C406.263 229.532 406.784 228.99 407.498 228.55C408.228 228.108 409.091 227.817 410.09 227.677C411.579 227.468 412.829 227.68 413.839 228.313C414.862 228.929 415.497 229.882 415.743 231.172L413.034 231.553C412.904 230.973 412.6 230.539 412.124 230.251C411.647 229.963 411.044 229.87 410.315 229.972C409.602 230.072 409.075 230.284 408.732 230.606C408.39 230.929 408.25 231.312 408.312 231.756C408.361 232.105 408.529 232.38 408.816 232.582C409.103 232.784 409.439 232.931 409.823 233.022C410.205 233.098 410.767 233.188 411.509 233.294C412.496 233.414 413.309 233.566 413.949 233.751C414.602 233.918 415.186 234.223 415.701 234.668C416.216 235.113 416.541 235.754 416.674 236.591C416.779 237.336 416.667 238.03 416.337 238.675C416.007 239.319 415.486 239.861 414.772 240.3C414.074 240.738 413.218 241.028 412.204 241.17ZM430.135 225.078L431.976 238.173L429.266 238.554L429.049 237.009C428.697 237.608 428.195 238.115 427.542 238.53C426.903 238.926 426.196 239.179 425.419 239.289C424.389 239.433 423.432 239.35 422.548 239.038C421.68 238.723 420.949 238.18 420.356 237.407C419.779 236.632 419.406 235.65 419.239 234.462L418.157 226.761L420.843 226.384L421.868 233.68C422.033 234.853 422.453 235.715 423.128 236.266C423.801 236.802 424.645 236.998 425.659 236.856C426.673 236.713 427.43 236.292 427.929 235.591C428.442 234.873 428.616 233.927 428.451 232.755L427.426 225.459L430.135 225.078ZM435.788 219.703L438.26 237.29L435.551 237.671L433.079 220.084L435.788 219.703ZM443.448 225.461L444.467 232.71C444.536 233.201 444.697 233.542 444.95 233.732C445.217 233.905 445.627 233.952 446.182 233.874L447.845 233.64L448.163 235.898L446.024 236.199C444.804 236.37 443.829 236.217 443.099 235.737C442.369 235.258 441.914 234.377 441.734 233.094L440.715 225.845L439.17 226.062L438.86 223.852L440.404 223.635L439.947 220.379L442.68 219.995L443.138 223.251L446.322 222.803L446.633 225.013L443.448 225.461ZM448.828 229.067C448.643 227.752 448.749 226.55 449.145 225.46C449.557 224.368 450.192 223.479 451.049 222.793C451.919 222.089 452.925 221.657 454.066 221.497C455.095 221.352 456.02 221.432 456.838 221.737C457.67 222.024 458.358 222.436 458.902 222.974L458.635 221.073L461.368 220.688L463.209 233.784L460.475 234.168L460.202 232.219C459.829 232.901 459.275 233.504 458.541 234.028C457.807 234.551 456.933 234.884 455.919 235.026C454.794 235.184 453.724 235.044 452.709 234.605C451.692 234.15 450.833 233.447 450.134 232.495C449.448 231.525 449.013 230.382 448.828 229.067ZM459.554 227.608C459.427 226.705 459.126 225.948 458.652 225.336C458.195 224.721 457.64 224.282 456.989 224.018C456.338 223.754 455.664 223.671 454.967 223.769C454.269 223.867 453.644 224.133 453.091 224.566C452.536 224.983 452.115 225.552 451.828 226.27C451.555 226.971 451.482 227.773 451.609 228.676C451.736 229.58 452.029 230.346 452.49 230.976C452.966 231.604 453.53 232.058 454.184 232.338C454.85 232.599 455.525 232.682 456.206 232.587C456.903 232.489 457.528 232.223 458.081 231.79C458.634 231.357 459.046 230.782 459.317 230.065C459.602 229.33 459.68 228.511 459.554 227.608ZM471.504 219.046C472.534 218.901 473.483 218.986 474.351 219.3C475.235 219.612 475.966 220.156 476.543 220.931C477.121 221.706 477.493 222.688 477.66 223.876L478.746 231.6L476.06 231.978L475.031 224.658C474.866 223.485 474.447 222.631 473.774 222.096C473.099 221.544 472.254 221.34 471.24 221.482C470.226 221.625 469.463 222.055 468.95 222.774C468.45 223.474 468.283 224.41 468.448 225.583L469.477 232.903L466.767 233.284L464.927 220.188L467.636 219.808L467.847 221.305C468.215 220.704 468.718 220.205 469.357 219.808C470.012 219.409 470.727 219.155 471.504 219.046ZM483.833 219.785L484.851 227.034C484.92 227.525 485.081 227.866 485.334 228.057C485.601 228.229 486.012 228.277 486.566 228.199L488.23 227.965L488.547 230.223L486.408 230.523C485.188 230.695 484.213 230.541 483.483 230.062C482.754 229.583 482.299 228.701 482.118 227.418L481.1 220.169L479.555 220.386L479.244 218.176L480.789 217.959L480.331 214.703L483.064 214.319L483.522 217.575L486.707 217.127L487.017 219.338L483.833 219.785ZM495.828 229.418C494.798 229.562 493.845 229.51 492.97 229.262C492.109 228.995 491.396 228.578 490.831 228.011C490.265 227.428 489.91 226.743 489.767 225.955L492.571 225.561C492.697 226.109 493.024 226.54 493.553 226.853C494.095 227.149 494.731 227.245 495.459 227.143C496.22 227.036 496.786 226.811 497.158 226.468C497.544 226.107 497.704 225.696 497.639 225.237C497.57 224.746 497.281 224.415 496.773 224.244C496.28 224.071 495.506 223.913 494.452 223.77C493.432 223.639 492.595 223.49 491.942 223.323C491.288 223.156 490.695 222.844 490.162 222.386C489.645 221.925 489.326 221.267 489.206 220.411C489.108 219.714 489.225 219.052 489.557 218.423C489.886 217.779 490.408 217.237 491.121 216.798C491.851 216.356 492.715 216.065 493.713 215.924C495.203 215.715 496.452 215.927 497.462 216.561C498.486 217.176 499.121 218.129 499.367 219.42L496.657 219.8C496.527 219.221 496.224 218.787 495.747 218.498C495.27 218.21 494.668 218.117 493.939 218.219C493.226 218.32 492.698 218.531 492.356 218.854C492.013 219.177 491.873 219.56 491.936 220.004C491.985 220.352 492.153 220.627 492.439 220.83C492.726 221.032 493.062 221.178 493.446 221.27C493.829 221.345 494.391 221.436 495.133 221.542C496.119 221.662 496.932 221.814 497.572 221.999C498.226 222.165 498.81 222.471 499.325 222.916C499.84 223.36 500.164 224.001 500.298 224.839C500.403 225.584 500.29 226.278 499.961 226.922C499.631 227.566 499.109 228.108 498.396 228.548C497.698 228.985 496.842 229.275 495.828 229.418Z" fill="#0094FF"/>
<rect x="263.205" y="211.233" width="321.378" height="84.3318" rx="42.1659" transform="rotate(-8 263.205 211.233)" stroke="url(#paint6_linear_1198_13756)" stroke-width="2"/>
<g opacity="0.8">
<rect x="51.0671" y="344.511" width="332.378" height="84.3318" rx="42.1659" transform="rotate(-8 51.0671 344.511)" fill="white"/>
<path d="M172.94 378.042L168.209 371.969L166.141 372.259L167.07 378.867L164.36 379.247L162.039 362.73L167.743 361.928C169.01 361.75 170.111 361.821 171.045 362.143C171.994 362.461 172.736 362.963 173.268 363.648C173.816 364.33 174.155 365.131 174.284 366.05C174.436 367.127 174.257 368.154 173.748 369.13C173.252 370.089 172.377 370.818 171.122 371.317L176.172 377.587L172.94 378.042ZM165.837 370.097L168.832 369.676C169.846 369.533 170.571 369.173 171.006 368.595C171.458 368.014 171.624 367.296 171.503 366.441C171.383 365.585 171.036 364.955 170.462 364.551C169.886 364.131 169.083 363.994 168.053 364.138L165.059 364.559L165.837 370.097ZM190.414 368.582C190.483 369.073 190.513 369.521 190.506 369.926L180.5 371.332C180.726 372.367 181.232 373.152 182.018 373.688C182.805 374.223 183.705 374.42 184.719 374.278C186.177 374.073 187.121 373.318 187.551 372.013L190.475 371.602C190.248 372.862 189.666 373.954 188.729 374.877C187.806 375.783 186.576 376.343 185.039 376.559C183.788 376.735 182.624 376.616 181.548 376.202C180.485 375.769 179.598 375.086 178.885 374.152C178.185 373.2 177.741 372.051 177.552 370.704C177.363 369.357 177.466 368.139 177.862 367.049C178.272 365.942 178.929 365.041 179.833 364.349C180.754 363.654 181.856 363.216 183.139 363.036C184.375 362.862 185.514 362.977 186.556 363.38C187.598 363.783 188.458 364.437 189.135 365.344C189.809 366.235 190.235 367.314 190.414 368.582ZM187.465 368.123C187.309 367.128 186.84 366.377 186.058 365.873C185.276 365.369 184.371 365.19 183.341 365.334C182.406 365.466 181.648 365.879 181.067 366.575C180.484 367.255 180.201 368.11 180.216 369.142L187.465 368.123ZM192.22 368.643C192.031 367.296 192.134 366.078 192.531 364.988C192.94 363.88 193.59 362.981 194.478 362.291C195.367 361.6 196.437 361.167 197.688 360.991C199.273 360.769 200.633 360.965 201.77 361.581C202.921 362.179 203.776 363.149 204.336 364.492L201.413 364.903C201.084 364.287 200.633 363.833 200.059 363.542C199.484 363.251 198.801 363.161 198.009 363.273C196.9 363.429 196.068 363.95 195.514 364.835C194.974 365.703 194.803 366.842 195.001 368.252C195.199 369.662 195.679 370.718 196.44 371.419C197.216 372.117 198.159 372.389 199.268 372.233C200.837 372.012 201.778 371.177 202.091 369.728L205.014 369.317C204.821 370.701 204.257 371.863 203.323 372.802C202.386 373.725 201.142 374.296 199.589 374.514C198.337 374.69 197.189 374.569 196.145 374.15C195.098 373.716 194.226 373.03 193.529 372.094C192.846 371.14 192.409 369.99 192.22 368.643ZM209.432 361.498C209.734 360.777 210.185 360.188 210.783 359.733C211.395 359.259 212.153 358.958 213.056 358.831L213.45 361.636L212.761 361.733C211.699 361.882 210.929 362.265 210.45 362.882C209.987 363.496 209.849 364.469 210.036 365.8L211.005 372.692L208.296 373.073L206.455 359.977L209.165 359.596L209.432 361.498ZM227.436 357.029L229.276 370.124L226.567 370.505L226.35 368.96C225.998 369.559 225.496 370.066 224.843 370.48C224.204 370.877 223.496 371.13 222.72 371.239C221.69 371.384 220.733 371.3 219.849 370.988C218.981 370.674 218.25 370.131 217.657 369.358C217.079 368.582 216.707 367.601 216.54 366.412L215.458 358.712L218.143 358.335L219.169 365.631C219.334 366.803 219.754 367.665 220.429 368.217C221.102 368.752 221.946 368.949 222.96 368.806C223.974 368.664 224.73 368.242 225.23 367.542C225.743 366.824 225.917 365.878 225.752 364.706L224.727 357.409L227.436 357.029ZM232.145 354.598C231.654 354.667 231.219 354.558 230.839 354.272C230.46 353.986 230.236 353.598 230.167 353.106C230.098 352.615 230.206 352.18 230.492 351.8C230.778 351.421 231.167 351.197 231.658 351.128C232.133 351.061 232.561 351.17 232.94 351.456C233.32 351.742 233.544 352.131 233.613 352.622C233.682 353.113 233.573 353.549 233.287 353.928C233.001 354.308 232.621 354.531 232.145 354.598ZM233.72 356.145L235.561 369.241L232.851 369.622L231.011 356.526L233.72 356.145ZM240.749 357.412L241.768 364.66C241.837 365.151 241.998 365.492 242.251 365.683C242.517 365.856 242.928 365.903 243.482 365.825L245.146 365.591L245.463 367.849L243.324 368.15C242.104 368.321 241.13 368.167 240.4 367.688C239.67 367.209 239.215 366.328 239.035 365.044L238.016 357.796L236.471 358.013L236.16 355.802L237.705 355.585L237.248 352.329L239.981 351.945L240.438 355.201L243.623 354.754L243.934 356.964L240.749 357.412ZM258.997 358.943C259.066 359.434 259.097 359.882 259.089 360.287L249.084 361.693C249.31 362.728 249.816 363.513 250.602 364.049C251.388 364.585 252.289 364.781 253.303 364.639C254.76 364.434 255.704 363.679 256.135 362.375L259.058 361.964C258.831 363.224 258.25 364.315 257.313 365.238C256.39 366.144 255.16 366.704 253.623 366.92C252.372 367.096 251.208 366.977 250.132 366.563C249.069 366.13 248.181 365.447 247.468 364.513C246.769 363.562 246.325 362.412 246.136 361.065C245.946 359.719 246.05 358.5 246.446 357.411C246.856 356.303 247.513 355.403 248.417 354.71C249.338 354.015 250.439 353.578 251.723 353.397C252.959 353.224 254.098 353.338 255.14 353.741C256.182 354.144 257.042 354.799 257.718 355.705C258.393 356.596 258.819 357.675 258.997 358.943ZM256.049 358.485C255.893 357.489 255.424 356.739 254.642 356.235C253.86 355.73 252.954 355.551 251.925 355.696C250.99 355.827 250.232 356.24 249.651 356.936C249.068 357.616 248.784 358.472 248.8 359.503L256.049 358.485ZM263.765 353.862C264.068 353.141 264.518 352.552 265.117 352.097C265.729 351.623 266.486 351.322 267.389 351.195L267.783 354L267.094 354.097C266.033 354.246 265.262 354.629 264.784 355.245C264.321 355.86 264.183 356.833 264.37 358.163L265.338 365.056L262.629 365.437L260.789 352.341L263.498 351.96L263.765 353.862ZM276.534 363.7C275.504 363.845 274.551 363.793 273.676 363.545C272.815 363.278 272.102 362.861 271.537 362.294C270.971 361.711 270.616 361.026 270.473 360.238L273.277 359.844C273.403 360.392 273.73 360.823 274.259 361.136C274.801 361.432 275.437 361.528 276.165 361.426C276.926 361.319 277.492 361.094 277.864 360.751C278.249 360.389 278.41 359.979 278.345 359.52C278.276 359.028 277.987 358.697 277.479 358.527C276.986 358.354 276.212 358.196 275.158 358.053C274.138 357.922 273.301 357.773 272.648 357.606C271.994 357.439 271.401 357.127 270.868 356.669C270.351 356.208 270.032 355.55 269.912 354.694C269.814 353.997 269.931 353.335 270.262 352.706C270.592 352.062 271.114 351.52 271.827 351.081C272.557 350.639 273.421 350.348 274.419 350.207C275.909 349.998 277.158 350.21 278.168 350.844C279.192 351.459 279.827 352.412 280.073 353.703L277.363 354.083C277.233 353.504 276.93 353.07 276.453 352.781C275.976 352.493 275.374 352.4 274.645 352.502C273.932 352.603 273.404 352.814 273.062 353.137C272.719 353.46 272.579 353.843 272.642 354.287C272.691 354.635 272.858 354.91 273.145 355.112C273.432 355.314 273.768 355.461 274.152 355.553C274.535 355.628 275.097 355.719 275.839 355.825C276.825 355.944 277.638 356.097 278.278 356.282C278.932 356.448 279.516 356.754 280.031 357.199C280.546 357.643 280.87 358.284 281.004 359.122C281.109 359.866 280.996 360.561 280.667 361.205C280.337 361.849 279.815 362.391 279.102 362.831C278.404 363.268 277.548 363.558 276.534 363.7Z" fill="#0094FF"/>
<rect x="51.0671" y="344.511" width="332.378" height="84.3318" rx="42.1659" transform="rotate(-8 51.0671 344.511)" stroke="url(#paint7_linear_1198_13756)" stroke-width="2"/>
<rect x="398.158" y="295.73" width="199.498" height="84.3318" rx="42.1659" transform="rotate(-8 398.158 295.73)" fill="white"/>
<path d="M445.658 337.484L451.243 336.699L451.55 338.885L443.256 340.051L440.934 323.533L443.644 323.153L445.658 337.484ZM453.11 323.543C452.619 323.612 452.184 323.503 451.804 323.218C451.425 322.932 451.201 322.543 451.132 322.052C451.062 321.561 451.171 321.125 451.457 320.746C451.743 320.366 452.131 320.142 452.623 320.073C453.098 320.006 453.525 320.116 453.905 320.402C454.284 320.688 454.509 321.076 454.578 321.567C454.647 322.059 454.538 322.494 454.252 322.873C453.966 323.253 453.586 323.476 453.11 323.543ZM454.685 325.091L456.525 338.186L453.816 338.567L451.976 325.472L454.685 325.091ZM464.043 326.03L461.619 326.37L463.149 337.255L460.415 337.639L458.886 326.754L457.341 326.972L457.03 324.761L458.575 324.544L458.445 323.617C458.233 322.112 458.476 320.963 459.172 320.17C459.882 319.36 461.093 318.834 462.804 318.594L463.121 320.851C462.297 320.967 461.741 321.207 461.453 321.571C461.163 321.918 461.071 322.473 461.178 323.233L461.308 324.16L463.732 323.819L464.043 326.03ZM479.011 328.022C479.08 328.513 479.11 328.961 479.103 329.366L469.097 330.772C469.323 331.807 469.829 332.592 470.616 333.128C471.402 333.664 472.302 333.86 473.316 333.718C474.774 333.513 475.718 332.758 476.148 331.454L479.072 331.043C478.845 332.303 478.263 333.394 477.326 334.318C476.403 335.223 475.173 335.783 473.637 335.999C472.385 336.175 471.221 336.056 470.145 335.642C469.082 335.21 468.195 334.526 467.482 333.593C466.782 332.641 466.338 331.491 466.149 330.145C465.96 328.798 466.063 327.58 466.459 326.49C466.869 325.382 467.526 324.482 468.431 323.789C469.351 323.094 470.453 322.657 471.736 322.476C472.972 322.303 474.111 322.417 475.153 322.82C476.195 323.223 477.055 323.878 477.732 324.784C478.406 325.675 478.832 326.754 479.011 328.022ZM476.062 327.564C475.906 326.568 475.437 325.818 474.655 325.314C473.874 324.81 472.968 324.63 471.938 324.775C471.003 324.906 470.245 325.319 469.664 326.015C469.081 326.695 468.798 327.551 468.813 328.583L476.062 327.564ZM486.747 325.48C486.52 323.864 486.689 322.362 487.253 320.974C487.833 319.584 488.715 318.442 489.898 317.549C491.095 316.637 492.461 316.074 493.998 315.858C495.757 315.61 497.379 315.827 498.864 316.507C500.363 317.169 501.532 318.248 502.373 319.746L499.117 320.204C498.567 319.392 497.881 318.826 497.061 318.505C496.24 318.184 495.331 318.094 494.332 318.234C493.239 318.388 492.299 318.77 491.513 319.382C490.726 319.993 490.152 320.793 489.79 321.781C489.444 322.767 489.356 323.87 489.528 325.09C489.699 326.31 490.087 327.346 490.692 328.198C491.312 329.048 492.086 329.666 493.012 330.053C493.937 330.424 494.946 330.533 496.039 330.379C497.037 330.239 497.887 329.901 498.587 329.366C499.288 328.832 499.79 328.099 500.096 327.167L503.352 326.709C502.956 328.381 502.13 329.741 500.872 330.79C499.629 331.837 498.129 332.485 496.37 332.732C494.817 332.95 493.349 332.793 491.965 332.26C490.58 331.712 489.416 330.849 488.475 329.673C487.55 328.494 486.974 327.097 486.747 325.48ZM512.908 330.48C511.672 330.654 510.516 330.534 509.44 330.119C508.362 329.689 507.466 329.007 506.753 328.073C506.038 327.124 505.586 325.975 505.396 324.629C505.209 323.298 505.337 322.076 505.778 320.964C506.22 319.852 506.908 318.947 507.845 318.25C508.781 317.553 509.875 317.116 511.126 316.94C512.378 316.764 513.55 316.883 514.642 317.295C515.734 317.707 516.645 318.386 517.376 319.334C518.107 320.281 518.566 321.421 518.753 322.751C518.94 324.082 518.805 325.305 518.348 326.42C517.89 327.534 517.179 328.45 516.213 329.167C515.261 329.867 514.16 330.304 512.908 330.48ZM512.577 328.127C513.274 328.029 513.901 327.772 514.456 327.354C515.027 326.935 515.456 326.366 515.743 325.647C516.03 324.928 516.106 324.093 515.973 323.142C515.839 322.192 515.544 321.417 515.089 320.819C514.631 320.204 514.077 319.773 513.428 319.525C512.78 319.277 512.107 319.202 511.409 319.3C510.712 319.398 510.086 319.656 509.531 320.073C508.991 320.488 508.594 321.053 508.339 321.767C508.082 322.466 508.02 323.291 508.153 324.241C508.352 325.651 508.862 326.694 509.684 327.371C510.52 328.029 511.484 328.281 512.577 328.127ZM520.522 322.454C520.337 321.139 520.443 319.937 520.839 318.847C521.251 317.755 521.885 316.866 522.742 316.18C523.613 315.476 524.618 315.044 525.759 314.884C526.789 314.739 527.713 314.819 528.532 315.124C529.364 315.411 530.052 315.824 530.596 316.361L530.329 314.46L533.062 314.076L534.902 327.171L532.169 327.555L531.895 325.606C531.522 326.289 530.969 326.892 530.235 327.415C529.5 327.938 528.626 328.271 527.612 328.414C526.487 328.572 525.417 328.431 524.402 327.992C523.385 327.537 522.527 326.834 521.828 325.882C521.142 324.912 520.707 323.77 520.522 322.454ZM531.247 320.996C531.12 320.092 530.82 319.335 530.346 318.723C529.888 318.109 529.334 317.67 528.683 317.406C528.031 317.142 527.357 317.059 526.66 317.157C525.963 317.255 525.338 317.52 524.785 317.953C524.23 318.371 523.809 318.939 523.522 319.658C523.249 320.359 523.176 321.161 523.302 322.064C523.429 322.967 523.723 323.733 524.183 324.363C524.659 324.991 525.224 325.445 525.877 325.725C526.544 325.987 527.218 326.07 527.899 325.974C528.597 325.876 529.222 325.61 529.775 325.177C530.328 324.744 530.74 324.169 531.011 323.452C531.295 322.718 531.374 321.899 531.247 320.996ZM536.636 320.238C536.447 318.891 536.55 317.673 536.946 316.583C537.356 315.476 538.005 314.577 538.894 313.886C539.782 313.196 540.852 312.763 542.104 312.587C543.689 312.364 545.049 312.561 546.186 313.176C547.336 313.774 548.192 314.745 548.752 316.088L545.829 316.498C545.5 315.882 545.048 315.429 544.474 315.138C543.9 314.847 543.217 314.757 542.425 314.868C541.316 315.024 540.484 315.545 539.93 316.431C539.389 317.298 539.218 318.437 539.416 319.847C539.615 321.258 540.094 322.313 540.855 323.014C541.632 323.713 542.575 323.984 543.684 323.828C545.253 323.608 546.194 322.773 546.507 321.323L549.43 320.912C549.237 322.297 548.673 323.458 547.739 324.398C546.802 325.321 545.557 325.892 544.005 326.11C542.753 326.286 541.605 326.164 540.56 325.746C539.514 325.311 538.642 324.626 537.945 323.69C537.261 322.735 536.825 321.585 536.636 320.238ZM557.614 310.407C558.613 310.267 559.53 310.356 560.366 310.675C561.219 310.991 561.926 311.538 562.487 312.315C563.065 313.09 563.437 314.072 563.604 315.261L564.69 322.985L562.004 323.362L560.975 316.042C560.811 314.87 560.392 314.016 559.719 313.48C559.043 312.929 558.199 312.724 557.184 312.867C556.17 313.009 555.407 313.44 554.894 314.158C554.395 314.858 554.227 315.795 554.392 316.967L555.421 324.287L552.711 324.668L550.24 307.081L552.949 306.7L553.794 312.713C554.176 312.094 554.694 311.585 555.349 311.186C556.019 310.785 556.775 310.525 557.614 310.407Z" fill="#0094FF"/>
<rect x="398.158" y="295.73" width="199.498" height="84.3318" rx="42.1659" transform="rotate(-8 398.158 295.73)" stroke="url(#paint8_linear_1198_13756)" stroke-width="2"/>
</g>
<g opacity="0.6">
<rect x="65.3262" y="445.97" width="239.498" height="84.3318" rx="42.1659" transform="rotate(-8 65.3262 445.97)" fill="white"/>
<rect x="65.3262" y="445.97" width="239.498" height="84.3318" rx="42.1659" transform="rotate(-8 65.3262 445.97)" stroke="url(#paint9_linear_1198_13756)" stroke-width="2"/>
<rect x="320.441" y="410.116" width="292.378" height="84.3318" rx="42.1659" transform="rotate(-8 320.441 410.116)" fill="white"/>
<path d="M391.558 447.338L384.642 448.31L383.928 451.852L381.1 452.25L384.693 434.876L387.83 434.436L396.073 450.145L393.221 450.546L391.558 447.338ZM390.487 445.235L386.722 437.936L385.092 445.993L390.487 445.235ZM403.382 435.546C404.412 435.401 405.361 435.486 406.229 435.8C407.113 436.112 407.844 436.656 408.422 437.431C408.999 438.206 409.371 439.188 409.538 440.376L410.624 448.1L407.938 448.478L406.91 441.158C406.745 439.985 406.326 439.131 405.653 438.596C404.977 438.044 404.133 437.84 403.119 437.982C402.105 438.125 401.341 438.555 400.828 439.274C400.329 439.974 400.161 440.91 400.326 442.083L401.355 449.403L398.646 449.784L396.805 436.688L399.515 436.308L399.725 437.805C400.093 437.204 400.596 436.705 401.235 436.308C401.89 435.909 402.606 435.655 403.382 435.546ZM417.486 433.564C418.5 433.421 419.424 433.501 420.258 433.804C421.106 434.089 421.794 434.501 422.322 435.041L422.055 433.14L424.788 432.756L426.659 446.065C426.828 447.269 426.725 448.374 426.349 449.38C425.976 450.402 425.343 451.25 424.453 451.925C423.578 452.597 422.475 453.027 421.144 453.214C419.369 453.463 417.837 453.251 416.546 452.576C415.258 451.916 414.434 450.885 414.076 449.481L416.761 449.104C417.063 449.756 417.576 450.242 418.299 450.56C419.04 450.892 419.878 450.992 420.813 450.861C421.906 450.707 422.739 450.251 423.311 449.492C423.899 448.731 424.104 447.716 423.925 446.449L423.618 444.262C423.246 444.945 422.693 445.556 421.961 446.095C421.243 446.616 420.384 446.947 419.386 447.087C418.245 447.247 417.159 447.109 416.129 446.672C415.111 446.217 414.253 445.514 413.554 444.562C412.868 443.592 412.433 442.449 412.248 441.134C412.063 439.819 412.169 438.617 412.565 437.527C412.977 436.435 413.612 435.546 414.469 434.86C415.339 434.156 416.345 433.724 417.486 433.564ZM422.974 439.676C422.847 438.772 422.546 438.015 422.072 437.403C421.615 436.789 421.06 436.349 420.409 436.086C419.758 435.822 419.084 435.739 418.387 435.837C417.689 435.935 417.064 436.2 416.511 436.633C415.956 437.051 415.535 437.619 415.248 438.338C414.975 439.038 414.902 439.84 415.029 440.744C415.156 441.647 415.449 442.413 415.909 443.043C416.386 443.671 416.95 444.125 417.603 444.405C418.27 444.667 418.944 444.75 419.626 444.654C420.323 444.556 420.948 444.29 421.501 443.857C422.054 443.424 422.466 442.849 422.737 442.132C423.022 441.398 423.1 440.579 422.974 439.676ZM441.224 436.796C441.293 437.287 441.324 437.735 441.316 438.14L431.31 439.546C431.536 440.581 432.043 441.366 432.829 441.902C433.615 442.437 434.515 442.634 435.529 442.492C436.987 442.287 437.931 441.532 438.362 440.227L441.285 439.816C441.058 441.076 440.476 442.168 439.54 443.091C438.617 443.996 437.387 444.557 435.85 444.773C434.598 444.949 433.434 444.83 432.358 444.416C431.296 443.983 430.408 443.3 429.695 442.366C428.996 441.414 428.551 440.265 428.362 438.918C428.173 437.571 428.276 436.353 428.673 435.263C429.082 434.156 429.739 433.255 430.644 432.563C431.564 431.868 432.666 431.43 433.949 431.25C435.185 431.076 436.324 431.191 437.366 431.594C438.409 431.997 439.268 432.651 439.945 433.558C440.619 434.449 441.046 435.528 441.224 436.796ZM438.275 436.337C438.119 435.341 437.65 434.591 436.869 434.087C436.087 433.583 435.181 433.404 434.151 433.548C433.216 433.68 432.459 434.093 431.878 434.789C431.295 435.468 431.011 436.324 431.027 437.356L438.275 436.337ZM445.093 425.321L447.565 442.909L444.856 443.289L442.384 425.702L445.093 425.321ZM457.684 424.642L460.005 441.16L457.296 441.541L454.974 425.023L457.684 424.642ZM468.299 426.422C469.329 426.278 470.278 426.362 471.146 426.677C472.03 426.989 472.761 427.532 473.338 428.307C473.916 429.083 474.288 430.064 474.455 431.253L475.541 438.977L472.855 439.354L471.826 432.034C471.661 430.862 471.243 430.008 470.569 429.472C469.894 428.921 469.049 428.716 468.035 428.859C467.021 429.001 466.258 429.432 465.745 430.15C465.245 430.851 465.078 431.787 465.243 432.959L466.272 440.279L463.562 440.66L461.722 427.565L464.431 427.184L464.642 428.681C465.01 428.08 465.513 427.581 466.152 427.185C466.807 426.786 467.523 426.532 468.299 426.422ZM483.718 435.355L485.926 424.163L488.802 423.759L485.651 437.556L482.419 438.01L475.611 425.613L478.511 425.205L483.718 435.355ZM503.727 428.011C503.796 428.502 503.827 428.951 503.819 429.356L493.813 430.762C494.039 431.796 494.546 432.582 495.332 433.117C496.118 433.653 497.018 433.85 498.032 433.707C499.49 433.502 500.434 432.748 500.865 431.443L503.788 431.032C503.561 432.292 502.979 433.384 502.043 434.307C501.12 435.212 499.89 435.773 498.353 435.989C497.101 436.165 495.937 436.046 494.861 435.631C493.799 435.199 492.911 434.516 492.198 433.582C491.499 432.63 491.054 431.481 490.865 430.134C490.676 428.787 490.779 427.569 491.176 426.479C491.585 425.371 492.242 424.471 493.147 423.779C494.067 423.084 495.169 422.646 496.452 422.466C497.688 422.292 498.827 422.407 499.869 422.81C500.912 423.212 501.771 423.867 502.448 424.774C503.122 425.665 503.549 426.744 503.727 428.011ZM500.778 427.553C500.622 426.557 500.153 425.807 499.372 425.303C498.59 424.799 497.684 424.619 496.654 424.764C495.719 424.895 494.961 425.309 494.381 426.005C493.798 426.684 493.514 427.54 493.53 428.572L500.778 427.553ZM512.142 434.051C511.112 434.196 510.159 434.144 509.284 433.895C508.423 433.628 507.71 433.212 507.145 432.645C506.579 432.062 506.224 431.377 506.081 430.589L508.885 430.195C509.011 430.742 509.338 431.173 509.867 431.487C510.409 431.782 511.045 431.878 511.774 431.776C512.534 431.669 513.1 431.444 513.472 431.101C513.858 430.74 514.018 430.33 513.954 429.87C513.885 429.379 513.596 429.048 513.087 428.877C512.594 428.704 511.821 428.546 510.766 428.403C509.746 428.272 508.909 428.123 508.256 427.956C507.602 427.79 507.009 427.477 506.476 427.019C505.959 426.559 505.64 425.9 505.52 425.045C505.422 424.348 505.539 423.685 505.871 423.057C506.2 422.413 506.722 421.871 507.436 421.431C508.165 420.989 509.029 420.698 510.027 420.558C511.517 420.349 512.766 420.561 513.776 421.194C514.8 421.81 515.435 422.763 515.681 424.053L512.971 424.434C512.842 423.854 512.538 423.42 512.061 423.132C511.585 422.843 510.982 422.75 510.253 422.853C509.54 422.953 509.012 423.165 508.67 423.487C508.327 423.81 508.187 424.193 508.25 424.637C508.299 424.986 508.467 425.261 508.754 425.463C509.041 425.665 509.376 425.812 509.761 425.903C510.143 425.979 510.705 426.069 511.447 426.175C512.433 426.295 513.246 426.447 513.886 426.632C514.54 426.799 515.124 427.104 515.639 427.549C516.154 427.994 516.478 428.635 516.612 429.472C516.717 430.217 516.604 430.911 516.275 431.555C515.945 432.2 515.424 432.741 514.71 433.181C514.012 433.618 513.156 433.908 512.142 434.051ZM521.685 421.392L522.704 428.64C522.773 429.132 522.934 429.472 523.187 429.663C523.454 429.836 523.864 429.883 524.419 429.805L526.082 429.571L526.4 431.829L524.261 432.13C523.041 432.301 522.066 432.147 521.336 431.668C520.606 431.189 520.151 430.308 519.971 429.024L518.952 421.776L517.407 421.993L517.097 419.783L518.641 419.565L518.184 416.309L520.917 415.925L521.375 419.181L524.559 418.734L524.87 420.944L521.685 421.392ZM534.607 430.894C533.371 431.067 532.215 430.947 531.139 430.533C530.061 430.103 529.165 429.421 528.452 428.487C527.737 427.537 527.285 426.389 527.096 425.042C526.909 423.711 527.036 422.49 527.477 421.377C527.919 420.265 528.608 419.36 529.544 418.663C530.48 417.966 531.574 417.53 532.825 417.354C534.077 417.178 535.249 417.296 536.341 417.708C537.433 418.12 538.344 418.8 539.075 419.747C539.806 420.695 540.265 421.834 540.452 423.165C540.639 424.496 540.504 425.719 540.047 426.833C539.59 427.948 538.878 428.863 537.913 429.581C536.961 430.28 535.859 430.718 534.607 430.894ZM534.276 428.541C534.974 428.443 535.6 428.185 536.155 427.768C536.726 427.348 537.155 426.779 537.442 426.06C537.729 425.341 537.805 424.506 537.672 423.556C537.538 422.605 537.243 421.831 536.788 421.232C536.33 420.618 535.776 420.187 535.127 419.939C534.479 419.691 533.806 419.615 533.108 419.713C532.411 419.811 531.785 420.069 531.23 420.486C530.69 420.902 530.293 421.466 530.038 422.181C529.781 422.879 529.719 423.704 529.852 424.655C530.051 426.065 530.561 427.108 531.383 427.784C532.219 428.442 533.183 428.694 534.276 428.541ZM545.189 417.773C545.491 417.052 545.942 416.464 546.54 416.008C547.152 415.534 547.91 415.234 548.813 415.107L549.207 417.911L548.518 418.008C547.456 418.157 546.686 418.54 546.207 419.157C545.744 419.771 545.606 420.744 545.793 422.075L546.762 428.967L544.053 429.348L542.212 416.253L544.922 415.872L545.189 417.773ZM557.957 427.612C556.927 427.757 555.975 427.705 555.1 427.456C554.238 427.189 553.525 426.773 552.961 426.206C552.394 425.623 552.039 424.938 551.896 424.15L554.701 423.756C554.826 424.304 555.153 424.734 555.682 425.048C556.225 425.343 556.86 425.44 557.589 425.337C558.35 425.23 558.916 425.005 559.288 424.662C559.673 424.301 559.834 423.891 559.769 423.431C559.7 422.94 559.411 422.609 558.902 422.438C558.409 422.265 557.636 422.107 556.582 421.964C555.562 421.833 554.725 421.684 554.071 421.518C553.418 421.351 552.824 421.038 552.291 420.58C551.774 420.12 551.456 419.462 551.335 418.606C551.237 417.909 551.354 417.246 551.686 416.618C552.016 415.974 552.537 415.432 553.251 414.992C553.981 414.55 554.845 414.259 555.843 414.119C557.332 413.91 558.582 414.122 559.592 414.755C560.615 415.371 561.25 416.324 561.496 417.614L558.787 417.995C558.657 417.415 558.354 416.981 557.877 416.693C557.4 416.404 556.797 416.311 556.068 416.414C555.355 416.514 554.828 416.726 554.485 417.048C554.143 417.371 554.003 417.754 554.065 418.198C554.114 418.547 554.282 418.822 554.569 419.024C554.856 419.226 555.192 419.373 555.576 419.464C555.958 419.54 556.52 419.63 557.262 419.736C558.249 419.856 559.062 420.008 559.702 420.193C560.355 420.36 560.939 420.665 561.454 421.11C561.969 421.555 562.294 422.196 562.427 423.033C562.532 423.778 562.42 424.472 562.09 425.117C561.761 425.761 561.239 426.303 560.525 426.742C559.827 427.18 558.971 427.47 557.957 427.612Z" fill="#0094FF"/>
<rect x="320.441" y="410.116" width="292.378" height="84.3318" rx="42.1659" transform="rotate(-8 320.441 410.116)" stroke="url(#paint10_linear_1198_13756)" stroke-width="2"/>
</g>
</g>
<defs>
<linearGradient id="paint0_linear_1198_13756" x1="-5.96948" y1="-61.3258" x2="179.326" y2="3.60975" gradientUnits="userSpaceOnUse">
<stop stop-color="#00D1FF"/>
<stop offset="1" stop-color="#9B00FA"/>
</linearGradient>
<linearGradient id="paint1_linear_1198_13756" x1="8.28955" y1="40.1333" x2="193.585" y2="105.069" gradientUnits="userSpaceOnUse">
<stop stop-color="#00D1FF"/>
<stop offset="1" stop-color="#9B00FA"/>
</linearGradient>
<linearGradient id="paint2_linear_1198_13756" x1="202.998" y1="12.7688" x2="481.048" y2="205.676" gradientUnits="userSpaceOnUse">
<stop stop-color="#00D1FF"/>
<stop offset="1" stop-color="#9B00FA"/>
</linearGradient>
<linearGradient id="paint3_linear_1198_13756" x1="22.5488" y1="141.592" x2="289.384" y2="308.383" gradientUnits="userSpaceOnUse">
<stop stop-color="#00D1FF"/>
<stop offset="1" stop-color="#9B00FA"/>
</linearGradient>
<linearGradient id="paint4_linear_1198_13756" x1="355.776" y1="94.7603" x2="567.435" y2="183.479" gradientUnits="userSpaceOnUse">
<stop stop-color="#00D1FF"/>
<stop offset="1" stop-color="#9B00FA"/>
</linearGradient>
<linearGradient id="paint5_linear_1198_13756" x1="36.8079" y1="243.052" x2="246.366" y2="329.656" gradientUnits="userSpaceOnUse">
<stop stop-color="#00D1FF"/>
<stop offset="1" stop-color="#9B00FA"/>
</linearGradient>
<linearGradient id="paint6_linear_1198_13756" x1="263.205" y1="211.233" x2="531.129" y2="380.283" gradientUnits="userSpaceOnUse">
<stop stop-color="#00D1FF"/>
<stop offset="1" stop-color="#9B00FA"/>
</linearGradient>
<linearGradient id="paint7_linear_1198_13756" x1="51.0671" y1="344.511" x2="322.775" y2="521.815" gradientUnits="userSpaceOnUse">
<stop stop-color="#00D1FF"/>
<stop offset="1" stop-color="#9B00FA"/>
</linearGradient>
<linearGradient id="paint8_linear_1198_13756" x1="398.158" y1="295.73" x2="599.759" y2="374.692" gradientUnits="userSpaceOnUse">
<stop stop-color="#00D1FF"/>
<stop offset="1" stop-color="#9B00FA"/>
</linearGradient>
<linearGradient id="paint9_linear_1198_13756" x1="65.3262" y1="445.97" x2="293.934" y2="553.462" gradientUnits="userSpaceOnUse">
<stop stop-color="#00D1FF"/>
<stop offset="1" stop-color="#9B00FA"/>
</linearGradient>
<linearGradient id="paint10_linear_1198_13756" x1="320.441" y1="410.116" x2="576.767" y2="557.253" gradientUnits="userSpaceOnUse">
<stop stop-color="#00D1FF"/>
<stop offset="1" stop-color="#9B00FA"/>
</linearGradient>
<clipPath id="clip0_1198_13756">
<rect width="622" height="448" fill="white"/>
</clipPath>
</defs>
</svg>
