<svg width="64" height="48" viewBox="0 0 64 48" fill="none" xmlns="http://www.w3.org/2000/svg">
<rect width="64" height="48" rx="16" fill="#F4F9FD"/>
<path d="M31.1 34.75H26.9C22.99 34.75 21.25 33.01 21.25 29.1V24.9C21.25 20.99 22.99 19.25 26.9 19.25H31.1C35.01 19.25 36.75 20.99 36.75 24.9V29.1C36.75 33.01 35.01 34.75 31.1 34.75ZM26.9 20.75C23.8 20.75 22.75 21.8 22.75 24.9V29.1C22.75 32.2 23.8 33.25 26.9 33.25H31.1C34.2 33.25 35.25 32.2 35.25 29.1V24.9C35.25 21.8 34.2 20.75 31.1 20.75H26.9Z" fill="#0A1629"/>
<path d="M37.1 28.75H36C35.59 28.75 35.25 28.41 35.25 28V24.9C35.25 21.8 34.2 20.75 31.1 20.75H28C27.59 20.75 27.25 20.41 27.25 20V18.9C27.25 14.99 28.99 13.25 32.9 13.25H37.1C41.01 13.25 42.75 14.99 42.75 18.9V23.1C42.75 27.01 41.01 28.75 37.1 28.75ZM36.75 27.25H37.1C40.2 27.25 41.25 26.2 41.25 23.1V18.9C41.25 15.8 40.2 14.75 37.1 14.75H32.9C29.8 14.75 28.75 15.8 28.75 18.9V19.25H31.1C35.01 19.25 36.75 20.99 36.75 24.9V27.25Z" fill="#0A1629"/>
</svg>
