<svg width="24" height="25" viewBox="0 0 24 25" fill="none" xmlns="http://www.w3.org/2000/svg">
<path d="M14.85 4.45078V8.25078H13.35V4.45078C13.35 4.18078 13.11 4.05078 12.95 4.05078C12.9 4.05078 12.85 4.06078 12.8 4.08078L4.87 7.07078C4.34 7.27078 4 7.77078 4 8.34078V9.01078C3.09 9.69078 2.5 10.7808 2.5 12.0108V8.34078C2.5 7.15078 3.23 6.09078 4.34 5.67078L12.28 2.67078C12.5 2.59078 12.73 2.55078 12.95 2.55078C13.95 2.55078 14.85 3.36078 14.85 4.45078Z" fill="#0A1629"/>
<path d="M21.4999 15V16C21.4999 16.27 21.2899 16.49 21.0099 16.5H19.5499C19.0199 16.5 18.5399 16.11 18.4999 15.59C18.4699 15.28 18.5899 14.99 18.7899 14.79C18.9699 14.6 19.2199 14.5 19.4899 14.5H20.9999C21.2899 14.51 21.4999 14.73 21.4999 15Z" fill="#0A1629"/>
<path d="M19.48 13.45H20.5C21.05 13.45 21.5 13 21.5 12.45V12.01C21.5 9.94 19.81 8.25 17.74 8.25H6.26C5.41 8.25 4.63 8.53 4 9.01C3.09 9.69 2.5 10.78 2.5 12.01V18.74C2.5 20.81 4.19 22.5 6.26 22.5H17.74C19.81 22.5 21.5 20.81 21.5 18.74V18.55C21.5 18 21.05 17.55 20.5 17.55H19.63C18.67 17.55 17.75 16.96 17.5 16.03C17.29 15.27 17.54 14.54 18.04 14.05C18.41 13.67 18.92 13.45 19.48 13.45ZM14 13.25H7C6.59 13.25 6.25 12.91 6.25 12.5C6.25 12.09 6.59 11.75 7 11.75H14C14.41 11.75 14.75 12.09 14.75 12.5C14.75 12.91 14.41 13.25 14 13.25Z" fill="#0A1629"/>
</svg>
