<svg width="180" height="179" viewBox="0 0 180 179" fill="none" xmlns="http://www.w3.org/2000/svg">
<path d="M16.1089 162.174C63.4472 161.952 116.553 161.952 163.891 162.174C116.553 162.393 63.4472 162.393 16.1089 162.174Z" fill="#263238"/>
<path d="M113.71 34.2676L115.529 36.8881L118.586 37.8082L116.649 40.3464L116.721 43.5362L113.71 42.4801L110.699 43.5362L110.771 40.3464L108.838 37.8082L111.895 36.8881L113.71 34.2676Z" fill="#FFC727"/>
<path d="M51.0317 78.9277L52.8468 81.5519L55.9041 82.4684L53.9709 85.0066L54.0425 88.1964L51.0317 87.1438L48.0174 88.1964L48.0925 85.0066L46.1558 82.4684L49.2131 81.5519L51.0317 78.9277Z" fill="#FFC727"/>
<path d="M73.1561 107.779L74.0654 109.09L75.5941 109.548L74.6275 110.819L74.6633 112.412L73.1561 111.886L71.6489 112.412L71.6847 110.819L70.7217 109.548L72.2468 109.09L73.1561 107.779Z" fill="#FFC727"/>
<path d="M131.406 75.2578L132.316 76.5717L133.841 77.0299L132.874 78.2972L132.913 79.8939L131.406 79.3677L129.899 79.8939L129.935 78.2972L128.968 77.0299L130.497 76.5717L131.406 75.2578Z" fill="#FFC727"/>
<path d="M103.239 28.8008L104.148 30.1111L105.677 30.5693L104.71 31.8402L104.746 33.4369L103.239 32.907L101.735 33.4369L101.771 31.8402L100.804 30.5693L102.333 30.1111L103.239 28.8008Z" fill="#FFC727"/>
<path d="M76.7039 162.006C77.581 162.321 103.497 162.833 104.474 162.239C104.585 162.178 105.007 153.604 105.007 153.604C104.979 153.482 105.412 152.655 106.081 151.506C107.929 148.284 111.541 142.506 111.541 142.506L96.1469 137.852L89.8282 150.507L88.2172 153.729C88.2172 153.729 84.6837 155.107 81.6014 156.485C79.704 157.33 78.05 158.107 77.6634 158.394C76.6717 159.178 75.8304 161.694 76.7039 162.006Z" fill="#FFC4C0"/>
<path d="M76.7038 162.007C77.5809 162.322 103.497 162.834 104.474 162.24C104.585 162.179 105.007 153.605 105.007 153.605C104.979 153.483 105.412 152.656 106.081 151.507L89.8424 150.512L88.2314 153.734C88.2314 153.734 84.6979 155.112 81.6156 156.49C79.7182 157.335 78.0642 158.112 77.6776 158.398C76.6716 159.179 75.8303 161.696 76.7038 162.007Z" fill="white"/>
<path d="M76.5964 162.103C77.4986 162.422 103.446 162.866 104.449 162.257C104.828 162.028 105.287 158.033 105.007 153.604L88.278 153.336C88.278 153.336 78.5869 157.632 77.563 158.405C76.5391 159.178 75.6799 161.785 76.5964 162.103Z" fill="#FDB306"/>
<path opacity="0.1" d="M104.449 162.257C104.091 162.479 100.396 162.561 95.814 162.561L104.599 153.611H105.004C105.287 158.033 104.828 162.028 104.449 162.257Z" fill="black"/>
<path d="M76.9866 161.069C81.3398 161.037 98.8926 161.32 103.199 161.617C103.232 161.617 103.232 161.645 103.199 161.645C98.8854 161.771 81.3327 161.348 76.9866 161.141C76.8935 161.137 76.8935 161.072 76.9866 161.069Z" fill="#263238"/>
<path d="M79.2598 157.5C79.7438 157.495 80.2235 157.591 80.6684 157.782C81.1133 157.972 81.5139 158.253 81.8446 158.606C82.4451 159.238 82.7797 160.076 82.779 160.948C82.779 160.973 82.7289 160.973 82.7253 160.948C82.5913 160.084 82.1814 159.287 81.5567 158.676C80.932 158.065 80.1262 157.672 79.2598 157.557C79.2522 157.557 79.245 157.554 79.2396 157.549C79.2342 157.544 79.2312 157.536 79.2312 157.529C79.2312 157.521 79.2342 157.514 79.2396 157.509C79.245 157.503 79.2522 157.5 79.2598 157.5Z" fill="#263238"/>
<path d="M86.9031 153.75C88.6466 153.75 90.655 154.402 91.7111 155.844C91.754 155.902 91.6717 155.959 91.6216 155.93C90.1125 155.107 88.52 154.447 86.8709 153.961C86.8452 153.955 86.8229 153.939 86.8082 153.916C86.7936 153.894 86.7877 153.867 86.7918 153.841C86.7958 153.815 86.8094 153.791 86.8299 153.774C86.8505 153.757 86.8766 153.749 86.9031 153.75Z" fill="#263238"/>
<path d="M85.5501 154.248C87.2935 154.248 89.3019 154.903 90.358 156.346C90.4009 156.403 90.3186 156.46 90.2685 156.432C88.7595 155.608 87.1669 154.948 85.5178 154.463C85.494 154.454 85.4739 154.437 85.4609 154.415C85.448 154.393 85.443 154.368 85.4468 154.342C85.4506 154.317 85.4629 154.294 85.4817 154.277C85.5005 154.26 85.5246 154.25 85.5501 154.248Z" fill="#263238"/>
<path d="M84.2002 154.75C85.9401 154.75 87.9485 155.405 89.0046 156.848C89.0475 156.905 88.9652 156.962 88.9151 156.934C87.406 156.11 85.8135 155.45 84.1644 154.965C84.1404 154.956 84.1202 154.939 84.1074 154.916C84.0945 154.894 84.0898 154.868 84.094 154.843C84.0983 154.817 84.1112 154.794 84.1305 154.777C84.1499 154.76 84.1745 154.751 84.2002 154.75Z" fill="#263238"/>
<path d="M82.8399 155.252C84.5798 155.252 86.5881 155.907 87.6442 157.35C87.6872 157.407 87.6048 157.464 87.5547 157.436C86.0457 156.612 84.4531 155.952 82.8041 155.467C82.78 155.458 82.7598 155.441 82.747 155.418C82.7342 155.396 82.7295 155.37 82.7337 155.345C82.7379 155.319 82.7508 155.296 82.7702 155.279C82.7895 155.262 82.8142 155.253 82.8399 155.252Z" fill="#263238"/>
<path d="M102.172 157.467C104.127 157.507 104.066 160.542 102.111 160.503C100.156 160.464 100.203 157.428 102.172 157.467Z" fill="#263238"/>
<path d="M85.1992 151.626C86.1157 152.853 87.5369 153.641 88.7613 154.522C88.7902 154.538 88.8225 154.548 88.8558 154.55C88.889 154.551 88.9222 154.545 88.9527 154.532C88.9833 154.519 89.0103 154.499 89.0318 154.474C89.0532 154.448 89.0685 154.418 89.0763 154.386C89.0834 154.388 89.0909 154.388 89.0981 154.386C89.1053 154.384 89.1119 154.381 89.1173 154.376C89.1227 154.371 89.1267 154.364 89.1289 154.357C89.1312 154.35 89.1315 154.343 89.13 154.336C89.0298 152.737 88.5113 151.192 87.6264 149.857C87.0966 149.091 85.9975 148.357 85.1025 149.073C84.2075 149.789 84.6622 150.91 85.1992 151.626ZM85.1419 150.194C85.3495 148.303 87.0322 149.785 87.4009 150.369C87.6329 150.749 87.8386 151.145 88.0167 151.554C88.3997 152.395 88.6575 153.276 88.9546 154.149C88.3782 153.68 87.7661 153.265 87.1646 152.821C86.4701 152.277 85.0273 151.225 85.1419 150.183V150.194Z" fill="#263238"/>
<path d="M95.334 153.332C95.2159 152.193 93.9235 151.925 93.0035 152.086C91.4297 152.39 89.964 153.104 88.754 154.155C88.7481 154.159 88.7432 154.164 88.7399 154.17C88.7365 154.177 88.7348 154.184 88.7348 154.191C88.7348 154.198 88.7365 154.205 88.7399 154.211C88.7432 154.217 88.7481 154.223 88.754 154.227C88.736 154.255 88.725 154.287 88.7217 154.321C88.7185 154.354 88.7231 154.388 88.7353 154.419C88.7475 154.451 88.7669 154.479 88.7919 154.501C88.8169 154.524 88.8468 154.54 88.8793 154.549C90.365 154.803 91.9223 155.265 93.4402 155.054C94.3316 154.935 95.445 154.409 95.334 153.332ZM91.217 154.477C90.4831 154.366 89.7564 154.223 89.0189 154.141C89.8495 153.74 90.6586 153.307 91.5249 152.988C91.9422 152.83 92.3691 152.698 92.803 152.594C93.476 152.451 95.7135 152.594 94.5106 154.083C93.8483 154.896 92.0906 154.606 91.217 154.477Z" fill="#263238"/>
<path d="M107.248 151.435L90 148.832C90 148.832 98.2984 132.293 103.432 123.317C106.296 118.327 114.104 118.084 117.903 124.062C122.979 132.049 126.921 139.535 129.176 143.684L133.092 144.021L132.244 150.418L119.231 153.332C114.244 153.926 110.746 145.052 110.664 145.202C110.023 146.369 107.248 151.435 107.248 151.435Z" fill="#0A1629"/>
<path d="M110.563 145.241C111.054 144.235 111.437 143.169 111.874 142.141C112.31 141.114 112.719 140.147 113.137 139.148C113.986 137.133 114.863 135.124 115.683 133.098C116.145 131.96 116.567 130.807 117 129.658C117 129.633 117.05 129.658 117.043 129.658C116.71 130.732 116.363 131.827 115.998 132.905C116.094 132.719 116.191 132.547 116.291 132.35C116.571 131.856 116.857 131.365 117.143 130.875C117.143 130.857 117.183 130.875 117.172 130.893C116.907 131.387 116.642 131.877 116.367 132.364C116.231 132.604 116.08 132.844 115.937 133.08C114.931 136.101 113.735 139.056 112.357 141.926C111.806 143.054 111.165 144.132 110.613 145.256C110.596 145.309 110.545 145.277 110.563 145.241Z" fill="#263238"/>
<path d="M117.566 130.908C119.052 133.564 120.573 136.203 122.066 138.856C122.821 140.195 123.577 141.537 124.321 142.88C124.679 143.513 125.016 144.154 125.395 144.781C125.708 145.371 126.181 145.861 126.759 146.195C127.446 146.524 128.166 146.778 128.907 146.95C129.749 147.197 130.583 147.462 131.413 147.691C131.449 147.691 131.431 147.763 131.396 147.752C130.64 147.551 129.881 147.394 129.126 147.19C128.43 147.043 127.743 146.858 127.067 146.635C126.47 146.434 125.942 146.069 125.542 145.582C125.134 145.017 124.775 144.418 124.468 143.792C122.977 141.062 121.498 138.326 120.033 135.583C119.198 134.026 118.371 132.462 117.527 130.908C117.566 130.904 117.566 130.897 117.566 130.908Z" fill="#263238"/>
<path d="M107.639 149.026C106.604 148.839 105.544 148.746 104.503 148.614L101.366 148.213C99.2793 147.937 92.1801 146.81 91.6431 146.631C91.6073 146.631 91.6217 146.562 91.6431 146.562C92.1515 146.562 96.8019 147.168 97.8437 147.318C99.9308 147.626 102.004 147.998 104.08 148.345C104.674 148.446 105.265 148.56 105.87 148.664C106.475 148.768 107.055 148.897 107.66 148.975C107.685 148.975 107.674 149.033 107.639 149.026Z" fill="#263238"/>
<path d="M96.1075 165.909C96.4368 165.039 112.962 145.07 114.047 144.719C114.172 144.673 120.942 149.949 120.942 149.949C121.214 150.347 134.614 148.116 134.614 148.116L134.034 164.141L109.869 162.576C109.869 162.576 106.518 164.366 103.461 165.798C101.581 166.686 99.9166 167.434 99.4476 167.534C98.234 167.785 95.7709 166.775 96.1075 165.909Z" fill="#FFC4C0"/>
<path d="M99.4512 167.544C99.9202 167.444 101.599 166.699 103.464 165.808C106.518 164.376 109.869 162.586 109.869 162.586L115.239 162.944L124.257 149.698C122.395 149.945 121.006 150.081 120.917 149.952C120.917 149.952 114.151 144.678 114.025 144.725C112.951 145.083 96.4154 165.045 96.086 165.915C95.7567 166.785 98.234 167.784 99.4512 167.544Z" fill="white"/>
<path d="M95.9607 165.931C96.3187 165.04 112.905 145.088 114.018 144.727C114.441 144.587 117.766 146.846 120.942 149.95L110.227 162.802C110.227 162.802 100.658 167.349 99.3939 167.614C98.1302 167.879 95.617 166.83 95.9607 165.931Z" fill="#FDB306"/>
<path d="M96.9988 166.309C99.8628 163.034 111.104 149.544 113.689 146.089C113.707 146.061 113.689 146.046 113.667 146.072C110.757 149.258 99.6229 162.833 96.9451 166.263C96.8878 166.334 96.9379 166.377 96.9988 166.309Z" fill="#263238"/>
<path d="M101.18 166.926C101.499 166.562 101.739 166.136 101.885 165.674C102.031 165.213 102.08 164.726 102.029 164.245C101.941 163.379 101.523 162.58 100.862 162.015C100.862 161.997 100.812 162.033 100.83 162.054C101.398 162.718 101.735 163.549 101.791 164.421C101.846 165.293 101.617 166.16 101.137 166.891C101.134 166.896 101.134 166.903 101.135 166.909C101.136 166.916 101.14 166.922 101.145 166.926C101.15 166.93 101.156 166.932 101.162 166.932C101.169 166.932 101.175 166.93 101.18 166.926Z" fill="#263238"/>
<path d="M109.017 163.572C110.152 162.247 110.968 160.303 110.567 158.56C110.549 158.492 110.453 158.517 110.442 158.56C110.083 160.242 109.544 161.88 108.834 163.446C108.818 163.471 108.811 163.5 108.817 163.529C108.822 163.558 108.839 163.584 108.863 163.6C108.887 163.617 108.917 163.623 108.946 163.618C108.975 163.613 109 163.596 109.017 163.572Z" fill="#263238"/>
<path d="M107.757 164.269C108.888 162.944 109.704 161 109.303 159.257C109.303 159.189 109.192 159.214 109.178 159.257C108.819 160.938 108.28 162.575 107.571 164.14C107.554 164.165 107.547 164.195 107.552 164.225C107.558 164.254 107.575 164.281 107.599 164.298C107.624 164.315 107.654 164.321 107.684 164.316C107.714 164.311 107.74 164.294 107.757 164.269Z" fill="#263238"/>
<path d="M106.493 164.966C107.624 163.642 108.444 161.698 108.04 159.954C108.04 159.886 107.929 159.911 107.918 159.954C107.557 161.634 107.018 163.271 106.31 164.837C106.302 164.849 106.296 164.863 106.293 164.877C106.29 164.892 106.289 164.906 106.292 164.921C106.294 164.935 106.299 164.949 106.307 164.961C106.315 164.974 106.325 164.985 106.337 164.993C106.349 165.002 106.363 165.008 106.377 165.011C106.391 165.014 106.406 165.014 106.421 165.012C106.435 165.009 106.449 165.004 106.461 164.996C106.474 164.988 106.485 164.978 106.493 164.966Z" fill="#263238"/>
<path d="M105.229 165.665C106.364 164.341 107.18 162.397 106.779 160.653C106.762 160.585 106.665 160.611 106.654 160.653C106.292 162.339 105.75 163.981 105.036 165.551C105.021 165.577 105.016 165.607 105.024 165.636C105.031 165.665 105.05 165.69 105.075 165.705C105.101 165.72 105.132 165.724 105.16 165.717C105.189 165.71 105.214 165.691 105.229 165.665Z" fill="#263238"/>
<path d="M116.155 149.584C117.401 148.077 115.064 146.14 113.814 147.647C112.565 149.154 114.91 151.077 116.155 149.584Z" fill="#263238"/>
<path d="M111.387 167.988C112.514 167.777 112.672 166.467 112.439 165.565C112.005 164.022 111.173 162.621 110.026 161.501C110.022 161.496 110.016 161.492 110.009 161.489C110.003 161.486 109.996 161.484 109.989 161.484C109.982 161.484 109.975 161.486 109.968 161.489C109.962 161.492 109.956 161.496 109.951 161.501C109.921 161.486 109.888 161.479 109.855 161.479C109.822 161.478 109.789 161.486 109.759 161.501C109.729 161.516 109.703 161.538 109.683 161.565C109.663 161.591 109.649 161.622 109.643 161.655C109.511 163.155 109.182 164.745 109.514 166.241C109.708 167.122 110.324 168.185 111.387 167.988ZM109.908 163.964C109.955 163.223 110.041 162.489 110.059 161.748C110.552 162.527 111.005 163.33 111.415 164.154C111.609 164.555 111.776 164.969 111.913 165.393C112.114 166.052 112.139 168.296 110.571 167.219C109.708 166.639 109.851 164.859 109.908 163.964Z" fill="#263238"/>
<path d="M112.296 157.761C111.147 158.778 110.477 160.267 109.704 161.549C109.689 161.579 109.681 161.612 109.682 161.646C109.682 161.68 109.69 161.713 109.706 161.742C109.722 161.772 109.745 161.798 109.772 161.817C109.8 161.836 109.832 161.849 109.865 161.853C109.865 161.882 109.883 161.91 109.919 161.903C111.505 161.671 113.002 161.024 114.258 160.027C114.974 159.437 115.622 158.28 114.834 157.45C114.047 156.619 112.966 157.163 112.296 157.761ZM113.728 157.586C115.629 157.636 114.287 159.437 113.728 159.852C113.368 160.117 112.99 160.356 112.597 160.568C111.781 160.992 110.945 161.374 110.091 161.713C110.51 161.101 110.871 160.46 111.269 159.834C111.752 159.082 112.683 157.561 113.732 157.586H113.728Z" fill="#263238"/>
<path d="M130.404 143.133C130.404 143.133 147.548 141.286 154.332 143.115C163.794 145.66 164.876 157.027 157.59 161.352C148.354 166.829 116.338 163.779 116.338 163.779L125.288 148.711C125.288 148.711 138.702 146.205 150.727 147.182L126.466 150.182L130.404 143.133Z" fill="#0A1629"/>
<path d="M124.658 149.724C124.667 149.698 124.674 149.672 124.679 149.645C124.683 149.622 124.689 149.599 124.697 149.577L124.74 149.423C124.773 149.317 124.811 149.213 124.855 149.111C124.898 149.008 124.941 148.911 124.991 148.811C125.04 148.713 125.098 148.62 125.163 148.531H125.188H125.209H125.234C126.706 148.295 136.69 147.164 138.183 147.042C139.676 146.92 141.176 146.831 142.676 146.759C145.665 146.604 148.66 146.614 151.648 146.792C151.927 146.792 152.206 146.835 152.485 146.856C152.546 146.856 152.611 146.831 152.671 146.817C152.818 146.784 152.961 146.752 153.108 146.727C153.38 146.681 153.652 146.648 153.924 146.616C154.494 146.545 155.066 146.505 155.632 146.412C155.668 146.412 155.679 146.466 155.632 146.473C155.059 146.584 154.497 146.741 153.924 146.852L153.43 146.946C154.522 147.057 155.614 147.196 156.703 147.354C156.735 147.354 156.735 147.418 156.703 147.415C155.22 147.253 153.72 147.175 152.231 147.139C150.742 147.103 149.27 147.074 147.788 147.103C144.792 147.16 141.792 147.325 138.803 147.54C137.124 147.658 126.935 148.847 125.252 148.85H125.231C125.218 148.893 125.201 148.935 125.181 148.975C125.13 149.076 125.08 149.172 125.027 149.269C124.973 149.366 124.923 149.452 124.862 149.537L124.776 149.67L124.73 149.734C124.712 149.756 124.696 149.778 124.683 149.802C124.69 149.792 124.636 149.763 124.658 149.724Z" fill="#263238"/>
<path d="M120.931 162.837C121.461 161.971 121.919 161.047 122.406 160.145C122.893 159.243 123.383 158.355 123.874 157.453C124.855 155.663 128.352 149.645 128.689 149.219C128.71 149.194 128.75 149.219 128.739 149.258C128.567 149.727 126.373 153.716 125.875 154.603C124.865 156.393 123.813 158.119 122.775 159.87C122.478 160.371 122.173 160.865 121.873 161.362C121.572 161.86 121.253 162.347 120.974 162.859C120.956 162.891 120.913 162.87 120.931 162.837Z" fill="#263238"/>
<path d="M129.233 150.879C130.124 150.686 131.023 150.575 131.932 150.428C132.842 150.281 133.722 150.135 134.635 149.991C136.435 149.7 138.239 149.428 140.048 149.175C143.65 148.67 147.262 148.277 150.888 148.051C152.933 147.926 154.98 147.872 157.028 147.797C157.071 147.797 157.068 147.868 157.028 147.872C153.377 147.949 149.732 148.222 146.109 148.688C142.529 149.096 138.949 149.556 135.369 150.067L132.337 150.503C131.313 150.654 130.286 150.861 129.255 150.947C129.246 150.949 129.237 150.948 129.229 150.943C129.221 150.939 129.215 150.932 129.213 150.923C129.21 150.915 129.211 150.905 129.214 150.897C129.218 150.889 129.225 150.883 129.233 150.879Z" fill="#263238"/>
<path d="M137.159 118.857C137.811 120.525 138.742 122.043 139.264 123.772C139.773 125.36 139.922 127.042 139.701 128.695C138.774 134.745 130.894 138.361 125.36 136.499C122.714 135.597 120.408 133.449 119.707 130.696C118.848 127.32 120.648 124.076 121.744 120.994C122.348 119.269 122.649 117.452 122.632 115.624C122.632 114.024 122.535 112.402 122.857 110.812C123.09 109.685 123.86 106.405 128.012 105.084C130.995 104.146 134.016 105.775 135.405 108.607C137.02 111.908 135.867 115.549 137.159 118.857Z" fill="#263238"/>
<path d="M122.936 119.35C121.647 122.111 119.954 124.928 119.456 127.975C119.048 130.502 119.728 133.234 121.926 134.734C121.926 134.734 121.966 134.734 121.948 134.705C119.639 132.915 119.352 129.825 120 127.166C120.663 124.441 122.259 122.071 123.065 119.404C123.067 119.388 123.065 119.372 123.057 119.357C123.049 119.343 123.037 119.332 123.022 119.326C123.007 119.32 122.99 119.319 122.974 119.323C122.959 119.328 122.945 119.337 122.936 119.35Z" fill="#263238"/>
<path d="M122.367 119.19C121.389 122.795 118.411 125.659 118.221 129.514C118.221 129.557 118.289 129.572 118.293 129.514C118.543 125.666 121.873 122.934 122.438 119.19C122.446 119.154 122.378 119.147 122.367 119.19Z" fill="#263238"/>
<path d="M137.367 118.797C136.744 117.462 136.361 116.029 136.236 114.562C136.232 114.546 136.223 114.532 136.21 114.521C136.198 114.511 136.182 114.506 136.166 114.506C136.15 114.506 136.134 114.511 136.121 114.521C136.109 114.532 136.1 114.546 136.096 114.562C135.738 119.874 141.824 123.87 140.217 129.358C140.217 129.393 140.263 129.422 140.274 129.383C141.054 127.113 140.449 124.847 139.433 122.756C138.781 121.403 137.993 120.143 137.367 118.797Z" fill="#263238"/>
<path d="M136.135 113.752C136.135 113.652 135.974 113.681 135.981 113.777C136.126 115.767 136.768 117.689 137.85 119.366C138.38 120.193 139.028 120.934 139.54 121.771C140.102 122.691 140.532 123.679 141.004 124.635C141.007 124.641 141.011 124.645 141.016 124.647C141.022 124.649 141.028 124.648 141.033 124.646C141.038 124.644 141.042 124.639 141.044 124.634C141.046 124.629 141.046 124.623 141.044 124.617C140.431 122.788 139.468 121.331 138.369 119.774C137.137 117.983 136.369 115.913 136.135 113.752Z" fill="#263238"/>
<path d="M124.368 123.543C116.266 128.992 109.69 134.197 108.999 137.831C108.025 142.861 111.072 144.418 112.468 144.497C116.266 144.719 124.948 131.874 127.633 126.11C130.243 120.511 126.158 122.344 124.368 123.543Z" fill="#FDB306"/>
<path opacity="0.1" d="M127.633 126.111C124.944 131.874 116.266 144.727 112.468 144.498C111.498 144.444 109.736 143.678 109.071 141.533L128.374 122.76C128.617 123.293 128.467 124.324 127.633 126.111Z" fill="black"/>
<path d="M143.077 143.111C143.077 143.111 133.411 144.378 128.725 144.328C124.522 144.285 120.398 142.241 120.398 142.241L122.306 135.232C122.306 135.232 120.405 132.808 121.876 130.18C122.925 128.311 126.212 124.309 127.962 122.437C131.9 118.209 135.208 120.607 136.196 121.95C139.876 127.091 143.077 143.111 143.077 143.111Z" fill="#FDB306"/>
<path d="M128.184 134.68C127.293 134.652 126.401 134.698 125.517 134.82C125.077 134.888 124.644 134.977 124.207 135.077C123.988 135.127 123.77 135.167 123.552 135.21C123.326 135.258 123.095 135.276 122.864 135.263C122.86 135.263 122.855 135.265 122.852 135.269C122.848 135.272 122.846 135.277 122.846 135.281C122.846 135.286 122.848 135.291 122.852 135.294C122.855 135.297 122.86 135.299 122.864 135.299C123.077 135.339 123.292 135.363 123.509 135.371C123.721 135.37 123.933 135.354 124.142 135.321C124.59 135.256 125.034 135.17 125.481 135.102C126.383 134.966 127.271 134.827 128.188 134.762C128.227 134.759 128.227 134.68 128.184 134.68Z" fill="#263238"/>
<path d="M130.232 135.847C129.525 135.668 128.808 135.533 128.084 135.443C127.726 135.4 127.368 135.378 126.992 135.371H126.466C126.272 135.371 126.079 135.407 125.886 135.407C125.881 135.407 125.877 135.409 125.873 135.412C125.87 135.415 125.868 135.42 125.868 135.425C125.868 135.43 125.87 135.434 125.873 135.437C125.877 135.441 125.881 135.443 125.886 135.443C126.065 135.443 126.244 135.489 126.426 135.507L126.971 135.564L128.045 135.679C128.761 135.747 129.494 135.822 130.221 135.919C130.264 135.922 130.268 135.858 130.232 135.847Z" fill="#263238"/>
<path d="M136.898 123.252C143.467 128.948 148.153 136.903 147.953 142.087C147.752 147.206 145.995 146.623 145.49 146.565C142.408 146.207 135.824 131.615 133.887 125.705C131.95 119.794 135.262 121.845 136.898 123.252Z" fill="#FDB306"/>
<path d="M141.552 142.371C141.226 141.708 140.89 141.053 140.571 140.384L139.601 138.397C138.964 137.069 138.312 135.748 137.693 134.409C137.073 133.07 136.44 131.745 135.824 130.403C135.516 129.73 135.215 129.057 134.929 128.38C134.643 127.703 134.356 127.023 134.077 126.336C134.498 127.753 134.997 129.147 135.57 130.51C136.132 131.878 136.748 133.22 137.36 134.563C137.972 135.905 138.652 137.216 139.347 138.522C140.041 139.829 140.772 141.121 141.552 142.371Z" fill="#263238"/>
<path d="M134.725 128.085C134.608 127.849 134.478 127.619 134.335 127.398C134.263 127.291 134.195 127.18 134.12 127.072C134.045 126.965 133.973 126.854 133.884 126.75C133.932 127.016 134.034 127.269 134.184 127.495C134.326 127.723 134.51 127.924 134.725 128.085Z" fill="#263238"/>
<path d="M128.768 125.441C128.768 125.441 133.189 121.911 135.502 121.993L137.46 123.741C137.46 123.741 138.104 123.955 138.301 123.547C138.799 122.538 138.903 120.096 136.805 118.507C134.882 117.049 130.934 117.339 128.306 118.027C125.782 118.686 124.386 120.175 125.159 121.814C125.932 123.454 128.768 125.441 128.768 125.441Z" fill="#FDB306"/>
<path opacity="0.1" d="M128.517 124.668C128.517 124.668 126.469 122.549 126.176 121.321C125.882 120.093 128.324 118.929 129.921 118.475C132.373 117.759 134.041 117.93 135.412 119.241C136.783 120.551 128.517 124.668 128.517 124.668Z" fill="black"/>
<path d="M132.083 121.026C132.044 121.456 130.203 123.625 128.292 123.797C127.669 123.851 127.447 121.262 127.447 121.262L127.357 121.019L126.097 117.628L129.845 114.432L130.393 114.002C130.393 114.002 130.676 114.954 131.016 116.15C131.034 116.204 131.048 116.261 131.066 116.318C131.084 116.375 131.109 116.447 131.123 116.512C131.177 116.687 131.231 116.87 131.281 117.049C131.331 117.228 131.356 117.321 131.392 117.467L131.507 117.901C131.769 118.928 131.962 119.972 132.083 121.026Z" fill="#FFC4C0"/>
<path d="M131.016 116.14C130.796 117.168 130.355 118.136 129.723 118.976C129.091 119.816 128.284 120.509 127.357 121.005L126.097 117.615L129.845 114.418L130.393 113.988C130.393 113.988 130.676 114.955 131.016 116.14Z" fill="#263238"/>
<path d="M122.22 110.334C119.75 116.183 122.975 118.324 124.235 118.854C125.381 119.337 129.341 120.834 132.405 115.274C135.47 109.714 133.529 106.714 130.973 105.472C128.417 104.23 124.726 104.487 122.22 110.334Z" fill="#FFC4C0"/>
<path d="M123.652 109.978C123.794 110.012 123.937 110.04 124.082 110.06C124.23 110.11 124.391 110.11 124.54 110.06C124.583 110.035 124.616 109.996 124.635 109.95C124.654 109.904 124.657 109.854 124.644 109.806C124.603 109.714 124.539 109.635 124.458 109.576C124.377 109.518 124.282 109.482 124.182 109.473C123.984 109.422 123.775 109.448 123.595 109.544C123.556 109.569 123.524 109.604 123.505 109.646C123.485 109.687 123.478 109.734 123.484 109.779C123.49 109.825 123.509 109.868 123.539 109.903C123.569 109.938 123.608 109.964 123.652 109.978Z" fill="#263238"/>
<path d="M127.79 111.378C127.666 111.303 127.547 111.221 127.432 111.131C127.293 111.035 127.175 110.974 127.11 110.809C127.098 110.761 127.102 110.711 127.121 110.665C127.139 110.619 127.172 110.581 127.214 110.555C127.307 110.518 127.408 110.507 127.507 110.523C127.606 110.538 127.699 110.58 127.776 110.644C127.949 110.75 128.077 110.916 128.134 111.11C128.145 111.154 128.142 111.201 128.127 111.245C128.112 111.288 128.085 111.326 128.048 111.354C128.012 111.383 127.969 111.4 127.923 111.404C127.877 111.408 127.831 111.399 127.79 111.378Z" fill="#263238"/>
<path d="M126.459 112.152C126.459 112.152 126.484 112.185 126.477 112.202C126.29 112.593 126.14 113.069 126.441 113.359C126.441 113.359 126.441 113.387 126.441 113.38C126.018 113.13 126.222 112.492 126.459 112.152Z" fill="#263238"/>
<path d="M126.996 111.893C127.654 112.126 127.142 113.422 126.534 113.211C125.925 112.999 126.444 111.696 126.996 111.893Z" fill="#263238"/>
<path d="M127.232 112.055C127.314 112.173 127.375 112.349 127.508 112.413C127.64 112.477 127.83 112.413 127.987 112.313C127.987 112.313 128.009 112.313 127.987 112.338C127.894 112.588 127.697 112.807 127.418 112.739C127.298 112.691 127.2 112.601 127.142 112.485C127.085 112.37 127.072 112.237 127.107 112.112C127.121 112.055 127.189 112.016 127.232 112.055Z" fill="#263238"/>
<path d="M124.157 111.152C124.157 111.134 124.117 111.152 124.11 111.177C123.967 111.585 123.752 112.029 123.319 112.022C123.319 112.022 123.301 112.043 123.319 112.047C123.784 112.154 124.085 111.563 124.157 111.152Z" fill="#263238"/>
<path d="M123.956 110.594C123.326 110.293 122.775 111.575 123.358 111.854C123.942 112.134 124.486 110.845 123.956 110.594Z" fill="#263238"/>
<path d="M123.652 110.563C123.519 110.588 123.365 110.666 123.24 110.623C123.115 110.58 123.054 110.391 123.022 110.219C123.022 110.201 123.004 110.219 122.997 110.219C122.882 110.462 122.853 110.752 123.068 110.899C123.283 111.046 123.512 110.899 123.677 110.674C123.713 110.623 123.706 110.552 123.652 110.563Z" fill="#263238"/>
<path d="M125.181 115.389C125.055 115.46 124.923 115.571 124.765 115.546C124.611 115.502 124.467 115.426 124.343 115.324C124.343 115.324 124.314 115.324 124.321 115.342C124.36 115.439 124.425 115.524 124.508 115.587C124.591 115.65 124.69 115.689 124.794 115.7C124.885 115.701 124.974 115.674 125.05 115.622C125.125 115.571 125.183 115.499 125.216 115.414C125.231 115.396 125.202 115.378 125.181 115.389Z" fill="#263238"/>
<path d="M123.931 113.354C123.931 113.354 123.652 113.941 123.573 114.231C123.573 114.259 123.63 114.295 123.727 114.331C123.961 114.457 124.226 114.516 124.492 114.5C124.757 114.484 125.013 114.395 125.231 114.242C125.263 114.22 125.231 114.177 125.202 114.188C124.751 114.322 124.27 114.308 123.827 114.148C123.827 114.063 124.339 113.157 124.296 113.139C124.062 113.085 123.821 113.065 123.58 113.078C124.128 111.836 124.873 110.69 125.399 109.444C125.417 109.401 125.356 109.366 125.331 109.401C124.497 110.605 123.784 111.888 123.204 113.232C123.133 113.393 123.799 113.364 123.931 113.354Z" fill="#263238"/>
<path d="M123.777 114.231C123.863 114.52 124.021 114.782 124.236 114.994C124.358 115.101 124.51 115.17 124.672 115.191C125.03 115.23 125.152 114.936 125.191 114.661C125.207 114.513 125.207 114.364 125.191 114.217C124.734 114.373 124.238 114.378 123.777 114.231Z" fill="#263238"/>
<path d="M124.236 114.994C124.358 115.102 124.51 115.171 124.672 115.191C125.03 115.231 125.152 114.937 125.191 114.661C125.018 114.602 124.829 114.602 124.656 114.663C124.483 114.723 124.335 114.84 124.236 114.994Z" fill="#FF9ABB"/>
<path d="M131.918 115.051C130.812 114.919 131.17 112.334 131.17 112.334C131.17 112.334 126.738 110.326 127.339 106.445C126.174 107.737 124.622 108.616 122.915 108.951C122.915 108.951 124.765 104.444 128.259 104.501C128.259 104.501 132.197 104.175 133.841 108.017C135.509 111.947 132.674 115.151 131.918 115.051Z" fill="#263238"/>
<path d="M127.397 106.162C127.189 106.735 127.105 107.345 127.15 107.952C127.185 108.564 127.347 109.161 127.626 109.706C127.693 109.844 127.77 109.977 127.855 110.104L127.977 110.297C128.023 110.361 128.07 110.419 128.12 110.476C128.217 110.594 128.31 110.716 128.413 110.834C128.517 110.952 128.632 111.045 128.743 111.145L128.911 111.299L129.097 111.432L129.455 111.693C129.717 111.847 129.981 111.983 130.25 112.119C130.014 111.933 129.763 111.761 129.534 111.586L129.197 111.299L129.033 111.156C128.979 111.103 128.933 111.049 128.882 110.995L128.582 110.676C128.489 110.566 128.406 110.444 128.317 110.318L128.184 110.147L128.073 109.96C127.996 109.838 127.926 109.711 127.862 109.581C127.597 109.064 127.424 108.504 127.35 107.927C127.311 107.638 127.296 107.345 127.304 107.054C127.311 106.754 127.342 106.456 127.397 106.162Z" fill="#263238"/>
<path d="M131.199 114.612C131.199 114.612 133.125 113.155 133.83 113.896C134.535 114.637 132.656 117.053 131.532 117.118C131.387 117.134 131.241 117.121 131.102 117.079C130.963 117.037 130.834 116.968 130.723 116.875C130.611 116.782 130.52 116.667 130.454 116.538C130.388 116.409 130.349 116.267 130.339 116.122L131.199 114.612Z" fill="#FFC4C0"/>
<path d="M133.275 114.579V114.608C132.477 114.665 131.897 115.199 131.417 115.793C131.48 115.736 131.556 115.693 131.637 115.668C131.719 115.642 131.805 115.635 131.89 115.646C131.975 115.657 132.056 115.687 132.128 115.733C132.2 115.778 132.262 115.839 132.308 115.911C132.308 115.929 132.308 115.954 132.28 115.943C132.169 115.864 132.035 115.821 131.898 115.821C131.762 115.821 131.628 115.864 131.517 115.943C131.329 116.074 131.158 116.227 131.005 116.398C130.952 116.448 130.848 116.377 130.894 116.312C131.17 115.388 132.28 114.357 133.275 114.579Z" fill="#263238"/>
<path d="M128.517 124.667C128.517 124.667 132.233 119.78 135.806 119.297L135.502 121.978C135.502 121.978 132.523 122.025 128.768 125.426L128.517 124.667Z" fill="#FDB306"/>
<path d="M136.465 122.046C135.815 121.992 135.16 122.078 134.546 122.297C132.094 122.873 129.591 124.885 129.591 124.885L128.875 125.547L128.796 125.619L128.707 125.573C127.508 124.921 126.301 123.403 126.076 123.106C126.912 123.938 127.837 124.676 128.836 125.304L128.668 125.333L129.384 124.652C129.634 124.434 132.373 122.633 134.496 122.121C134.653 122.078 134.822 122.05 134.983 122.018C135.144 121.985 135.312 121.971 135.477 121.964C135.808 121.935 136.142 121.963 136.465 122.046Z" fill="#263238"/>
<path d="M137.46 123.739C136.737 123.241 136.079 122.654 135.502 121.992C135.864 122.238 136.21 122.506 136.54 122.794C136.867 123.088 137.175 123.404 137.46 123.739Z" fill="#263238"/>
<path d="M129.738 124.098C130.035 125.193 130.238 126.312 130.343 127.441C130.422 128.229 130.343 131.086 129.455 131.05C128.567 131.014 129.856 129.077 129.989 127.567C130.121 126.056 129.631 124.993 129.512 124.101L129.738 124.098Z" fill="#263238"/>
<path d="M127.253 124.059C126.89 125.03 126.613 126.032 126.423 127.051C126.283 127.767 126.118 130.363 126.924 130.406C127.729 130.449 126.727 128.58 126.734 127.184C126.741 125.788 127.271 124.871 127.45 124.073L127.253 124.059Z" fill="#263238"/>
<path d="M110.345 130.513C110.603 128.093 111.176 124.714 112.013 123.983C112.851 123.253 116.091 120.64 117.025 120.282C117.96 119.924 122.134 118.18 122.922 118.603C123.555 118.943 122.871 120.6 120.888 121.449C119.813 121.935 118.768 122.486 117.759 123.099C117.251 123.339 116.066 125.043 116.427 125.773C116.639 126.199 117.92 126.672 118.697 126.289C119.474 125.906 119.617 124.345 120.487 123.579C121.357 122.813 122.954 122.863 123.058 123.278C123.161 123.693 122.646 123.923 121.883 125.405C121.389 126.357 121.429 128.605 120.297 130.252C119.725 131.226 119.212 132.234 118.762 133.27L110.345 130.513Z" fill="#FFC4C0"/>
<path d="M121.314 122.887C121.603 122.836 121.871 122.705 122.087 122.508C122.175 122.418 122.234 122.305 122.256 122.182C122.266 122.114 122.266 122.045 122.256 121.978C122.25 121.907 122.221 121.84 122.173 121.788C122.156 121.788 122.173 121.759 122.173 121.788C122.173 121.817 122.227 121.849 122.249 121.881C122.268 121.909 122.285 121.939 122.299 121.971C122.324 122.033 122.337 122.1 122.338 122.168C122.338 122.315 122.288 122.458 122.195 122.572C122.084 122.697 121.946 122.794 121.791 122.856C121.637 122.918 121.47 122.944 121.303 122.93L121.314 122.887Z" fill="#263238"/>
<path d="M112.013 123.983C112.729 122.755 114.627 120.525 116.542 119.716C117.835 119.171 122.42 121.219 122.317 122.089C122.213 122.959 121.443 122.981 120.298 122.884C119.879 122.848 117.656 122.132 117.294 122.605C116.778 123.285 116.17 125.573 116.17 125.573L112.013 123.983Z" fill="#FFC4C0"/>
<path d="M122.195 121.753C121.608 120.851 120.366 120.396 119.134 120.049V120.077C119.449 120.167 121.465 121.015 122.191 121.771C122.188 121.778 122.199 121.764 122.195 121.753Z" fill="#263238"/>
<path d="M112.013 123.984C112.729 122.756 114.627 120.526 116.542 119.717C117.835 119.172 121.497 121.864 121.393 122.734C121.289 123.604 120.187 123.705 118.948 123.318C118.547 123.196 117.19 122.305 116.832 122.777C116.313 123.458 115.042 125.147 115.042 125.147L112.013 123.984Z" fill="#FFC4C0"/>
<path d="M115.776 124.102C115.89 123.909 115.933 123.841 116.052 123.651C116.17 123.462 116.295 123.272 116.427 123.089C116.531 122.921 116.663 122.772 116.818 122.649C116.979 122.551 117.167 122.507 117.355 122.524C117.779 122.599 118.183 122.762 118.54 123.003C118.951 123.218 119.796 123.565 120.434 123.479C120.608 123.463 120.778 123.411 120.931 123.326C121.049 123.269 121.15 123.182 121.225 123.075C121.486 122.595 121.124 122.069 120.759 121.704C120.04 121.039 119.207 120.509 118.3 120.139C118.085 120.043 117.867 119.95 117.648 119.86C117.405 119.739 117.139 119.672 116.868 119.663C116.424 119.663 115.711 120.15 115.49 120.293C115.49 120.293 115.461 120.275 115.49 120.265C115.754 120.086 116.413 119.513 117.129 119.524C117.392 119.555 117.648 119.631 117.885 119.749C118.135 119.849 118.386 119.957 118.633 120.071C119.115 120.289 119.579 120.544 120.022 120.834C120.465 121.1 120.855 121.444 121.175 121.851C121.308 122.032 121.39 122.247 121.41 122.471C121.431 122.696 121.391 122.922 121.293 123.125C121.202 123.254 121.085 123.362 120.948 123.441C120.811 123.519 120.659 123.567 120.502 123.58C120.315 123.607 120.126 123.607 119.939 123.58C119.52 123.503 119.106 123.396 118.701 123.261C118.307 123.118 117.949 122.871 117.544 122.76C117.449 122.731 117.349 122.721 117.251 122.731C117.152 122.741 117.056 122.77 116.968 122.817C116.807 122.932 116.664 123.071 116.546 123.229C116.288 123.501 116.055 123.796 115.851 124.11C115.776 124.228 115.729 124.185 115.776 124.102Z" fill="#263238"/>
<path d="M111.48 125.05C111.741 124.466 112.139 122.096 112.554 121.359C112.969 120.621 114.981 118.054 115.955 118.137C117.176 118.233 115.98 120.471 115.371 121.398C114.763 122.325 114.92 123.854 114.92 123.854L111.48 125.05Z" fill="#FFC4C0"/>
<path d="M114.956 124.105C114.93 124.695 115.053 125.281 115.314 125.81C115.435 126.078 115.574 126.337 115.729 126.586C115.89 126.837 116.067 127.076 116.259 127.302C116.627 127.726 116.941 128.194 117.194 128.695C117.432 129.211 117.606 129.755 117.713 130.313C117.735 129.727 117.642 129.142 117.441 128.591C117.226 128.04 116.92 127.529 116.535 127.08C116.169 126.651 115.847 126.186 115.575 125.691C115.282 125.201 115.072 124.665 114.956 124.105Z" fill="#263238"/>
<path d="M112.869 144.275C115.228 143.852 116.61 139.814 119.019 132.715C119.442 131.469 112.912 124.205 112.117 125.365C111.115 126.826 108.594 134.834 108.383 136.997C107.975 141.26 110.112 144.769 112.869 144.275Z" fill="#FFC4C0"/>
<path d="M117.756 136.675L109.783 129.568C109.783 129.568 107.886 136.062 108.204 138.737C108.523 141.411 109.59 144.425 112.826 144.465C115.25 144.475 117.756 136.675 117.756 136.675Z" fill="#FDB306"/>
<path d="M115.504 141.926C115.762 141.525 115.991 141.102 116.22 140.68C116.449 140.257 116.646 139.824 116.843 139.391C117.04 138.958 117.222 138.51 117.376 138.059C117.546 137.61 117.675 137.146 117.763 136.674C117.58 137.114 117.383 137.547 117.187 137.981L116.599 139.28C116.41 139.717 116.213 140.15 116.034 140.594C115.855 141.038 115.665 141.475 115.504 141.926Z" fill="#263238"/>
<path d="M116.163 138.043C115.776 137.649 115.35 137.291 114.938 136.922C114.526 136.553 114.111 136.206 113.692 135.848C112.851 135.132 112.01 134.416 111.158 133.7C110.925 133.51 110.689 133.317 110.442 133.131C110.195 132.945 109.908 132.773 109.658 132.558C109.64 132.54 109.615 132.558 109.633 132.587C109.837 132.766 110.016 132.977 110.216 133.159C110.417 133.342 110.631 133.539 110.843 133.721C111.262 134.079 111.677 134.437 112.099 134.795C112.937 135.511 113.778 136.227 114.641 136.918C115.128 137.309 115.608 137.717 116.116 138.078C116.121 138.084 116.128 138.089 116.135 138.09C116.143 138.091 116.151 138.088 116.157 138.084C116.163 138.079 116.167 138.072 116.168 138.064C116.169 138.056 116.167 138.049 116.163 138.043Z" fill="#263238"/>
<path d="M126.316 124.226L129.538 134.225C129.575 134.279 129.597 134.342 129.601 134.408C129.605 134.473 129.591 134.539 129.56 134.597C129.529 134.655 129.483 134.703 129.427 134.737C129.371 134.771 129.306 134.788 129.24 134.787L123.992 135.145C123.831 135.144 123.674 135.097 123.539 135.009C123.404 134.922 123.297 134.798 123.23 134.651L120.008 124.656C119.879 124.363 120.008 124.112 120.305 124.09L125.549 123.732C125.711 123.735 125.868 123.782 126.003 123.869C126.139 123.957 126.247 124.081 126.316 124.226Z" fill="#37474F"/>
<path d="M125.693 124.269L128.915 134.268C128.952 134.322 128.974 134.385 128.978 134.451C128.982 134.516 128.968 134.582 128.937 134.64C128.906 134.698 128.86 134.746 128.804 134.78C128.748 134.813 128.683 134.831 128.617 134.83L123.369 135.188C123.208 135.187 123.051 135.14 122.916 135.052C122.781 134.965 122.674 134.841 122.607 134.694L119.385 124.695C119.347 124.642 119.325 124.578 119.321 124.513C119.318 124.447 119.332 124.382 119.362 124.324C119.393 124.266 119.439 124.218 119.495 124.184C119.552 124.15 119.616 124.133 119.682 124.133L124.927 123.775C125.088 123.778 125.245 123.825 125.38 123.912C125.516 124 125.624 124.124 125.693 124.269Z" fill="#455A64"/>
<path d="M124.282 124.829C124.289 124.917 124.323 125.001 124.378 125.07C124.433 125.139 124.508 125.191 124.592 125.218C124.676 125.244 124.767 125.246 124.852 125.221C124.937 125.197 125.013 125.148 125.07 125.08C125.127 125.012 125.163 124.929 125.173 124.841C125.183 124.753 125.166 124.664 125.126 124.586C125.085 124.507 125.022 124.442 124.944 124.4C124.867 124.357 124.778 124.338 124.69 124.345C124.572 124.355 124.463 124.412 124.386 124.503C124.31 124.593 124.272 124.71 124.282 124.829Z" fill="#263238"/>
<path d="M146.206 146.51C143.915 146.825 141.058 145.045 133.654 139.64C132.631 138.895 135.964 130.242 137.098 130.987C138.53 131.921 143.875 135.859 144.23 136.196C147.23 139.042 147.77 146.298 146.206 146.51Z" fill="#FFC4C0"/>
<path d="M139.762 133.602C139.762 133.602 137.653 130.641 136.064 129.431C134.38 128.212 132.425 127.421 130.368 127.126C128.148 126.8 122.56 127.545 122.492 129.191C122.431 130.684 128.109 129.635 128.109 129.635C128.109 129.635 122.145 129.75 122.402 131.558C122.66 133.366 129.179 131.773 129.179 131.773C129.179 131.773 123.054 132.03 123.616 133.853C124.038 135.231 130.024 134.121 130.024 134.121C130.024 134.121 124.762 134.379 125.138 135.814C125.549 137.4 131.141 136.724 131.141 136.724C132.709 140.211 134.954 141.195 136.586 141.736C136.977 141.868 139.762 133.602 139.762 133.602Z" fill="#FFC4C0"/>
<path d="M130.16 129.465C129.444 129.465 128.75 129.437 128.052 129.487C127.354 129.537 126.652 129.612 125.961 129.727C125.053 129.863 124.164 130.103 123.312 130.443C124.869 129.959 127.371 129.727 128.07 129.687C128.768 129.648 129.466 129.551 130.164 129.501C130.182 129.49 130.178 129.465 130.16 129.465Z" fill="#263238"/>
<path d="M130.389 131.984C129.494 132.009 128.599 131.984 127.708 132.063C126.817 132.142 125.979 132.264 125.095 132.389C125.027 132.389 125.052 132.432 125.123 132.425C126.011 132.335 126.838 132.321 127.726 132.242C128.614 132.163 129.516 132.052 130.393 132.006C130.404 132.006 130.404 131.984 130.389 131.984Z" fill="#263238"/>
<path d="M130.973 134.115C129.595 134.119 128.222 134.264 126.874 134.548C126.806 134.548 126.845 134.602 126.917 134.591C128.274 134.423 129.337 134.28 130.962 134.165C130.998 134.162 131.002 134.119 130.973 134.115Z" fill="#263238"/>
<path d="M139.762 132.426L136.844 143.058C136.844 143.058 144.67 147.666 146.399 146.445C148.128 145.224 146.997 139.088 145.042 136.747C144.219 135.773 139.762 132.426 139.762 132.426Z" fill="#FDB306"/>
<path d="M139.658 132.779L139.773 132.421H139.744C140.482 133.026 141.223 133.624 141.957 134.233C142.69 134.841 143.421 135.45 144.105 136.094C144.456 136.407 144.788 136.742 145.096 137.097C145.391 137.462 145.655 137.851 145.884 138.26C146.337 139.095 146.656 139.996 146.829 140.931C146.753 139.969 146.493 139.031 146.063 138.167C145.848 137.733 145.587 137.322 145.286 136.943C144.975 136.573 144.64 136.224 144.284 135.897C143.568 135.253 142.83 134.652 142.078 134.064C141.326 133.477 140.546 132.922 139.751 132.393H139.726V132.418L139.658 132.779Z" fill="#263238"/>
<path d="M141.47 135.064C141.291 135.587 141.155 136.138 141.008 136.657C140.861 137.176 140.718 137.731 140.582 138.257C140.31 139.331 140.045 140.405 139.794 141.479C139.726 141.776 139.658 142.07 139.594 142.364C139.529 142.657 139.497 143.004 139.426 143.319C139.426 143.345 139.458 143.355 139.465 143.319C139.537 143.058 139.644 142.804 139.723 142.546C139.801 142.288 139.873 142.002 139.945 141.73C140.088 141.197 140.227 140.656 140.363 140.126C140.636 139.052 140.904 137.978 141.14 136.904C141.273 136.292 141.427 135.683 141.523 135.068C141.525 135.063 141.526 135.059 141.526 135.054C141.526 135.05 141.524 135.045 141.522 135.041C141.519 135.037 141.516 135.034 141.512 135.032C141.508 135.029 141.504 135.028 141.499 135.027C141.495 135.027 141.49 135.028 141.486 135.03C141.481 135.032 141.478 135.034 141.475 135.038C141.472 135.042 141.47 135.046 141.469 135.05C141.468 135.055 141.468 135.06 141.47 135.064Z" fill="#263238"/>
<path d="M137.095 142.127C137.073 142.456 137.025 142.783 136.952 143.104L136.898 142.972C137.491 143.292 138.056 143.661 138.588 144.074C137.937 143.877 137.324 143.573 136.773 143.176L136.694 143.122C136.802 142.781 136.936 142.448 137.095 142.127Z" fill="#263238"/>
<path d="M29.2975 127.674C29.2975 127.674 21.3821 141.672 21.3785 141.682C20.1041 144.503 19.0408 147.002 18.6112 148.345C18.6097 148.352 18.6097 148.359 18.6112 148.366C18.4764 148.67 18.4139 149.001 18.4286 149.333C18.4286 149.333 18.4286 149.351 18.4286 149.358C19.0122 150.303 41.2726 161.122 42.1748 161.236C43.0769 161.351 43.4815 158.788 42.9516 157.678C42.4218 156.568 35.7487 148.617 35.7487 148.617L43.5208 134.565L29.2975 127.674Z" fill="#EB9481"/>
<path d="M41.8203 161.158C40.9182 161.04 19.0122 150.303 18.4286 149.344C18.4274 149.335 18.4274 149.327 18.4286 149.319C18.4139 148.987 18.4764 148.656 18.6112 148.352C18.6092 148.345 18.6092 148.338 18.6112 148.331C19.0408 146.988 20.1076 144.489 21.375 141.665C21.375 141.665 22.7103 139.22 23.2401 138.371L37.399 145.707L35.7487 148.621C35.7487 148.621 42.0638 156.497 42.5936 157.599C43.1235 158.702 42.744 161.276 41.8203 161.158Z" fill="#EBEBEB"/>
<path d="M42.2248 160.853C41.3154 160.717 19.1373 149.29 18.5717 148.323C18.3497 147.965 19.8247 144.629 21.7257 140.659L21.7865 140.533L36.1781 147.747L36.0457 147.987C36.0457 147.987 42.5792 156.156 43.0911 157.295C43.6031 158.433 43.1341 160.996 42.2248 160.853Z" fill="#FDB306"/>
<path d="M42.418 159.866C38.727 157.847 23.6481 150.057 19.864 148.346C19.8318 148.346 19.8211 148.346 19.864 148.367C23.4762 150.447 38.6196 158.116 42.418 159.927C42.4681 159.966 42.4968 159.909 42.418 159.866Z" fill="white"/>
<path d="M37.2272 148.646C35.8954 147.612 33.9801 146.91 32.3154 147.379C32.251 147.4 32.2796 147.49 32.3154 147.501C33.9551 147.771 35.561 148.216 37.1055 148.829C37.1175 148.837 37.1309 148.842 37.145 148.845C37.1592 148.848 37.1737 148.848 37.1878 148.845C37.202 148.842 37.2154 148.837 37.2274 148.829C37.2393 148.821 37.2496 148.81 37.2576 148.798C37.2656 148.786 37.2712 148.773 37.274 148.759C37.2768 148.745 37.2767 148.73 37.2739 148.716C37.2711 148.702 37.2655 148.688 37.2575 148.677C37.2495 148.665 37.2392 148.654 37.2272 148.646Z" fill="#263238"/>
<path d="M37.9574 149.83C36.6292 148.799 34.7139 148.098 33.0492 148.566C32.9848 148.584 33.0099 148.677 33.0492 148.685C34.6944 148.95 36.3063 149.392 37.8572 150.002C37.8789 150.007 37.9017 150.005 37.9223 149.997C37.9429 149.988 37.96 149.973 37.9713 149.953C37.9826 149.934 37.9873 149.912 37.9848 149.89C37.9823 149.867 37.9727 149.847 37.9574 149.83Z" fill="#263238"/>
<path d="M38.6913 151.02C37.3738 150.003 35.4442 149.287 33.7938 149.756C33.7294 149.774 33.758 149.864 33.8117 149.874C35.4515 150.144 37.0574 150.589 38.6018 151.203C38.624 151.206 38.6466 151.201 38.6663 151.191C38.6861 151.18 38.702 151.164 38.7119 151.143C38.7218 151.123 38.7251 151.101 38.7214 151.078C38.7177 151.056 38.7072 151.036 38.6913 151.02Z" fill="#263238"/>
<path d="M24.1674 144.9C22.9753 143.268 20.437 145.122 21.6328 146.755C22.8285 148.387 25.3631 146.536 24.1674 144.9Z" fill="white"/>
<path opacity="0.1" d="M37.0159 149.207L38.609 159.167C39.7822 159.79 40.9866 160.353 42.2176 160.853C43.1233 160.996 43.5887 158.415 43.084 157.273C42.7045 156.446 38.8631 151.53 37.0159 149.207Z" fill="black"/>
<path d="M42.973 160.234C43.2916 160.592 42.5184 161.88 42.1783 161.837C41.8382 161.795 17.709 149.232 17.3474 148.928C16.9858 148.624 17.8951 147.228 18.4214 147.399C18.9476 147.571 42.973 160.234 42.973 160.234Z" fill="#263238"/>
<path d="M23.2078 137.078L39.1638 145.595C39.1638 145.595 59.2977 116.898 59.6987 109.362C60.2572 98.9477 51.3645 65.8935 51.3645 65.8935L37.1841 65.7969C37.1841 65.7969 42.9515 99.8069 42.4825 105.592C42.2319 108.624 23.2078 137.078 23.2078 137.078Z" fill="#0A1629"/>
<path d="M40.5494 142.298C39.7296 141.704 32.1686 137.325 26.412 134.526C26.4082 134.524 26.4041 134.522 26.3998 134.522C26.3955 134.521 26.3912 134.522 26.387 134.523C26.3829 134.524 26.379 134.526 26.3756 134.528C26.3722 134.531 26.3694 134.534 26.3673 134.538C26.3651 134.542 26.3638 134.546 26.3633 134.55C26.3628 134.555 26.3631 134.559 26.3643 134.563C26.3654 134.567 26.3674 134.571 26.3701 134.575C26.3727 134.578 26.376 134.581 26.3798 134.583C28.1268 135.736 39.4146 141.918 40.51 142.359C40.5458 142.373 40.596 142.323 40.5494 142.298Z" fill="#37474F"/>
<path d="M44.4479 98.3296C43.7892 93.3534 43.0624 88.388 42.2355 83.4368C41.4085 78.4857 40.5314 73.4987 39.4932 68.5655C39.3643 67.9641 39.233 67.3674 39.0994 66.7755C39.0975 66.7661 39.0938 66.7571 39.0885 66.7492C39.0831 66.7412 39.0763 66.7344 39.0683 66.7291C39.0603 66.7237 39.0514 66.72 39.042 66.7182C39.0326 66.7163 39.0229 66.7163 39.0135 66.7182C39.0041 66.7201 38.9951 66.7238 38.9872 66.7291C38.9792 66.7345 38.9724 66.7413 38.967 66.7493C38.9617 66.7573 38.958 66.7662 38.9562 66.7756C38.9543 66.785 38.9543 66.7947 38.9562 66.8041C39.8297 71.698 40.7462 76.5847 41.5302 81.4821C42.3142 86.3796 43.1018 91.2913 43.7605 96.2246C43.9252 97.4418 44.0863 98.6614 44.2438 99.8833C44.4381 101.141 44.5576 102.41 44.6018 103.682C44.6239 104.896 44.4187 106.105 43.9968 107.244C43.5467 108.357 42.9992 109.428 42.3608 110.444C39.7975 114.783 28.3057 133.75 28.0085 134.301C28.0085 134.337 28.0408 134.377 28.0622 134.341C30.8188 130.045 39.3715 116.398 41.9741 111.987C43.1484 109.997 44.4801 107.981 44.8775 105.661C45.2785 103.249 44.7629 100.725 44.4479 98.3296Z" fill="#37474F"/>
<path d="M40.3597 137.078C40.3597 137.078 40.2021 153.256 40.2021 153.267C40.2845 156.36 40.4169 159.07 40.6138 160.47C40.6122 160.477 40.6122 160.484 40.6138 160.491C40.6251 160.823 40.712 161.147 40.868 161.44L40.8895 161.458C41.8275 162.056 66.576 162.095 67.4388 161.816C68.3016 161.537 67.5462 159.041 66.5868 158.275C65.6273 157.509 56.1546 153.263 56.1546 153.263V137.096L40.3597 137.078Z" fill="#EB9481"/>
<path d="M40.2378 149.944C40.2378 149.944 40.2056 153.256 40.2056 153.267C40.2879 156.36 40.4204 159.07 40.6173 160.47C40.6156 160.477 40.6156 160.484 40.6173 160.491C40.6654 160.816 40.7507 161.134 40.8714 161.44L40.8929 161.458C41.8309 162.055 66.5794 162.095 67.4422 161.816C68.305 161.536 67.5496 159.041 66.5902 158.275C65.6307 157.509 56.158 153.263 56.158 153.263V149.891L40.2378 149.944Z" fill="#EBEBEB"/>
<path d="M67.4459 161.778C66.5724 162.053 41.627 161.617 40.689 160.994C40.331 160.765 40.1807 157.127 40.127 152.728V152.588L56.237 152.692V152.964C56.237 152.964 65.7096 157.403 66.6691 158.194C67.6285 158.985 68.3302 161.502 67.4459 161.778Z" fill="#FDB306"/>
<path d="M67.1883 160.803C62.9853 160.624 46.0161 160.309 41.849 160.445C41.8168 160.445 41.8132 160.47 41.849 160.47C46.009 160.739 62.971 160.918 67.1883 160.864C67.2778 160.871 67.2778 160.807 67.1883 160.803Z" fill="white"/>
<path d="M57.5686 153.034C55.9218 152.698 53.892 152.916 52.6068 154.073C52.5566 154.119 52.6068 154.187 52.6748 154.173C54.2656 153.689 55.904 153.378 57.5615 153.246C57.5864 153.242 57.6092 153.23 57.6259 153.211C57.6427 153.192 57.6524 153.168 57.6532 153.143C57.6541 153.118 57.6461 153.093 57.6306 153.073C57.6152 153.054 57.5932 153.04 57.5686 153.034Z" fill="#263238"/>
<path d="M58.7536 153.777C57.1032 153.44 55.0734 153.658 53.7882 154.815C53.738 154.858 53.7882 154.929 53.8562 154.915C55.4469 154.431 57.0853 154.12 58.7429 153.988C58.7679 153.985 58.791 153.973 58.8082 153.954C58.8254 153.936 58.8355 153.912 58.8368 153.887C58.838 153.861 58.8304 153.837 58.8152 153.817C58.8 153.796 58.7782 153.782 58.7536 153.777Z" fill="#263238"/>
<path d="M59.928 154.517C58.2776 154.18 56.2478 154.399 54.9625 155.555C54.916 155.598 54.9625 155.67 55.0341 155.655C56.6272 155.17 58.268 154.86 59.928 154.728C59.9527 154.723 59.975 154.71 59.991 154.691C60.0071 154.672 60.0159 154.648 60.0159 154.622C60.0159 154.597 60.0071 154.573 59.991 154.554C59.975 154.534 59.9527 154.521 59.928 154.517Z" fill="#263238"/>
<path d="M67.8504 160.89C68.2943 161.069 68.1726 162.565 67.8504 162.68C67.5282 162.794 40.3309 162.196 39.8691 162.086C39.4073 161.975 39.6078 160.317 40.1483 160.242C40.6889 160.167 67.8504 160.89 67.8504 160.89Z" fill="#263238"/>
<path d="M44.2045 155.454C42.4145 154.516 40.9539 157.301 42.7475 158.239C44.541 159.177 45.9981 156.392 44.2045 155.454Z" fill="white"/>
<path d="M51.1821 65.8717C51.089 66.1653 45.9911 80.1309 45.5113 80.3528C44.9672 80.6034 56.7704 100.426 57.4685 109.637C57.9125 115.526 57.0389 148.86 57.0389 148.86H39.7833C39.7833 148.86 40.6103 118.892 41.0041 109.397C41.1581 105.714 29.1579 87.3804 29.0111 75.9673C28.9646 72.3694 31.5493 65.793 31.5493 65.793L51.1821 65.8717Z" fill="#0A1629"/>
<path d="M41.1042 109.143C41.1042 108.989 40.9825 108.943 40.9718 109.097C40.5816 114.238 40.4921 119.346 40.2558 124.491C40.0195 129.635 40.152 130.86 39.9228 135.993C39.794 138.897 39.9228 141.811 39.8477 144.718C39.8477 144.727 39.8514 144.736 39.8581 144.743C39.8649 144.75 39.874 144.754 39.8835 144.754C39.893 144.754 39.9021 144.75 39.9088 144.743C39.9155 144.736 39.9193 144.727 39.9193 144.718C40.4455 139.62 41.1007 112.054 41.1042 109.143Z" fill="#37474F"/>
<path d="M57.4648 109.842C57.4404 108.574 57.3207 107.309 57.1068 106.058C56.8654 104.842 56.5057 103.653 56.0328 102.507C55.0769 100.104 53.9528 97.7595 52.8752 95.4111C51.7977 93.0626 50.67 90.6604 49.5208 88.3048C48.8716 86.9849 48.22 85.6651 47.5661 84.3453C46.9038 83.0135 46.1914 81.7032 45.4969 80.3858C45.4904 80.3772 45.4812 80.3711 45.4707 80.3685C45.4603 80.366 45.4493 80.3671 45.4395 80.3717C45.4298 80.3764 45.422 80.3842 45.4175 80.394C45.4129 80.4037 45.4119 80.4148 45.4145 80.4252C46.5207 82.7987 47.6091 85.1794 48.7153 87.553C49.8215 89.9265 50.9062 92.3108 51.9946 94.6951C53.0829 97.0793 54.1426 99.3849 55.1414 101.758C55.6441 102.886 56.0559 104.052 56.3729 105.245C56.6572 106.48 56.8262 107.738 56.8777 109.004C57.0424 111.951 57.1247 114.908 57.4147 117.847C57.4147 117.883 57.4791 117.879 57.4791 117.847C57.5865 115.183 57.5436 112.502 57.4648 109.842Z" fill="#37474F"/>
<path d="M55.7857 145.453C54.7833 145.324 47.1365 145.059 40.7498 145.331C40.7412 145.331 40.733 145.335 40.727 145.341C40.7209 145.347 40.7175 145.355 40.7175 145.363C40.7175 145.372 40.7209 145.38 40.727 145.386C40.733 145.392 40.7412 145.396 40.7498 145.396C42.8369 145.582 54.6115 145.661 55.7857 145.528C55.8144 145.525 55.8323 145.46 55.7857 145.453Z" fill="#37474F"/>
<path d="M47.892 79.5799C46.0432 80.0478 44.2381 80.6743 42.497 81.4523C42.4897 81.4549 42.483 81.4589 42.4772 81.464C42.4715 81.4692 42.4668 81.4755 42.4635 81.4825C42.4602 81.4894 42.4582 81.497 42.4578 81.5047C42.4574 81.5124 42.4586 81.5202 42.4612 81.5275C42.4637 81.5347 42.4677 81.5415 42.4729 81.5472C42.4781 81.5529 42.4843 81.5576 42.4913 81.5609C42.4983 81.5643 42.5059 81.5662 42.5136 81.5666C42.5213 81.567 42.529 81.5658 42.5363 81.5633C44.3263 80.994 46.1879 80.4642 47.9636 79.7983C47.9926 79.7888 48.0166 79.7682 48.0303 79.741C48.0441 79.7138 48.0465 79.6823 48.037 79.6533C48.0275 79.6244 48.0069 79.6004 47.9797 79.5866C47.9525 79.5728 47.921 79.5704 47.892 79.5799Z" fill="#37474F"/>
<path d="M49.6319 67.7555C49.6319 67.6946 49.5317 67.6696 49.5245 67.734C49.3276 69.7961 49.009 71.5932 48.6402 73.5014C48.4684 74.3856 47.2405 79.2509 45.7297 78.7318C45.4755 78.6423 45.3717 78.3738 45.3717 77.98C45.4294 77.4696 45.5496 76.9682 45.7297 76.4871C46.0089 75.4704 46.2524 74.4465 46.4457 73.4119C46.8251 71.4868 47.0038 69.5277 46.9791 67.5657C46.9791 67.5525 46.9738 67.5397 46.9644 67.5303C46.955 67.5209 46.9423 67.5156 46.929 67.5156C46.9157 67.5156 46.903 67.5209 46.8936 67.5303C46.8842 67.5397 46.8789 67.5525 46.8789 67.5657C46.65 70.2665 46.2168 72.9461 45.5829 75.5814C45.2571 76.8487 44.4123 78.7139 45.7333 79.0504C47.0543 79.3869 48.3001 76.2437 48.5579 75.3737C49.2445 72.8916 49.6056 70.3307 49.6319 67.7555Z" fill="#37474F"/>
<path d="M45.7582 78.8673C45.5857 79.1866 45.4339 79.5166 45.3036 79.8554C45.1764 80.1144 45.0987 80.3948 45.0745 80.6823C45.0745 80.736 45.1461 80.7504 45.1783 80.7146C45.3646 80.4782 45.5142 80.2151 45.6222 79.9341C45.7726 79.6298 45.9301 79.3291 46.0697 79.0176C46.0896 78.9763 46.0924 78.9288 46.0772 78.8855C46.0621 78.8422 46.0305 78.8067 45.9892 78.7867C45.9479 78.7668 45.9003 78.7641 45.857 78.7792C45.8137 78.7943 45.7782 78.826 45.7582 78.8673Z" fill="#37474F"/>
<path d="M42.8692 114.203C42.9587 111.751 43.2272 109.191 42.4253 106.811C41.9871 105.653 41.4617 104.531 40.8537 103.453C40.257 102.3 39.6699 101.141 39.0923 99.9765C36.7868 95.3225 34.6137 90.5897 32.6734 85.771C31.739 83.4476 30.9049 81.0669 30.5719 78.5752C30.2653 75.9588 30.4277 73.3087 31.0516 70.7493C31.1984 70.1121 31.3524 69.4749 31.5278 68.8448C31.5278 68.7982 31.4705 68.7732 31.4562 68.8197C30.6398 71.2335 30.1862 73.755 30.1101 76.3019C30.1267 78.7457 30.5664 81.1682 31.4096 83.4619C32.2366 85.8677 33.2712 88.209 34.2736 90.5396C35.3262 92.9453 36.4193 95.332 37.5529 97.6996C38.6806 100.052 39.8835 102.354 41.0756 104.684C41.6906 105.787 42.1371 106.976 42.4002 108.21C42.584 109.489 42.632 110.784 42.5434 112.073C42.3394 117.497 41.8704 135.558 41.8024 140.971C41.8024 141.658 41.8024 142.346 41.7773 143.03C41.7773 143.09 41.8704 143.101 41.874 143.03C42.2356 137.642 42.6759 119.623 42.8692 114.203Z" fill="#37474F"/>
<path d="M38.9992 69.3765C38.9992 69.3371 38.9419 69.3443 38.9348 69.3765C38.7307 70.8694 38.6162 72.4195 37.893 73.7728C37.2343 75.015 36.0779 75.817 34.8214 76.379C34.089 76.6928 33.3409 76.9688 32.5803 77.206C32.5266 77.2239 32.5409 77.3062 32.5803 77.2955C34.0123 76.9983 35.4443 76.6654 36.7009 75.8635C38.0255 75.0079 38.7092 73.6331 38.9276 72.0973C39.046 71.1954 39.07 70.2835 38.9992 69.3765Z" fill="#37474F"/>
<path d="M49.1878 45.7285C52.1198 51.3276 61.3311 59.4184 64.2667 60.1272C67.8897 60.9972 75.9304 54.9327 79.0486 51.3598C80.3374 49.8813 74.9638 43.4373 72.6511 43.738C71.3766 43.9063 64.8574 50.4541 63.7799 50.003C61.1844 48.929 57.5757 46.7022 52.4241 43.7201C49.621 42.0984 47.3656 42.2451 49.1878 45.7285Z" fill="#EB9481"/>
<path d="M69.873 45.8957C69.873 45.8957 71.3337 43.2931 72.2287 42.2907C73.1237 41.2883 77.8278 38.7751 78.4292 39.7596C79.2025 41.0341 76.7717 43.0174 75.4543 43.8337C75.4543 43.8337 77.2443 46.7764 75.8123 48.5807C74.3803 50.3851 69.873 45.8957 69.873 45.8957Z" fill="#EB9481"/>
<path d="M78.0606 52.3185C79.0558 51.7493 83.384 48.7385 84.4008 47.6395C85.4175 46.5404 88.1132 43.1394 87.3471 42.2695C86.581 41.3995 85.711 42.3339 85.711 42.3339C85.711 42.3339 86.6204 40.7229 85.7683 39.921C84.9163 39.1191 83.6203 40.6119 83.6203 40.6119C83.6203 40.6119 84.4366 38.8864 83.5272 38.1489C82.6179 37.4114 81.5618 39.1334 81.5618 39.1334C81.5618 39.1334 82.3781 37.5904 81.3757 37.2969C80.1692 36.9389 78.9806 39.9604 77.767 41.0952C77.4914 41.353 71.8027 45.9318 71.8027 45.9318L78.0606 52.3185Z" fill="#EB9481"/>
<path d="M81.6477 38.9911C80.767 41.2071 80.0009 42.0233 78.1035 43.4052C78.0677 43.4338 78.1034 43.4947 78.1392 43.4696C80.119 42.2847 81.2324 41.4004 81.7551 39.0304C81.7837 38.9123 81.6906 38.8872 81.6477 38.9911Z" fill="#263238"/>
<path d="M83.6776 40.4554C82.5642 42.675 81.7408 43.57 79.8613 45.1631C79.8327 45.1846 79.8613 45.2347 79.8971 45.2132C81.8733 43.8027 82.9616 42.8934 83.7814 40.527C83.8208 40.4089 83.7313 40.3408 83.6776 40.4554Z" fill="#263238"/>
<path d="M85.6108 42.4157C84.3757 44.4885 83.5129 45.5088 81.4902 46.8191C81.4821 46.8262 81.4767 46.836 81.475 46.8467C81.4732 46.8575 81.4753 46.8684 81.4808 46.8778C81.4864 46.8871 81.495 46.8942 81.5052 46.8979C81.5154 46.9016 81.5266 46.9016 81.5368 46.8979C83.7277 45.7594 84.8125 44.4957 85.6717 42.4622C85.729 42.3226 85.7039 42.2868 85.6108 42.4157Z" fill="#263238"/>
<path d="M78.5438 40.1797C78.4149 41.8515 76.6142 42.811 75.397 43.6988C75.3785 43.7117 75.3634 43.7288 75.353 43.7488C75.3426 43.7687 75.3372 43.7909 75.3372 43.8134C75.3372 43.8359 75.3426 43.8581 75.353 43.878C75.3634 43.8979 75.3785 43.9151 75.397 43.9279C76.0664 45.2096 76.6392 47.2144 75.9304 48.5819C75.9274 48.5899 75.9272 48.5986 75.93 48.6066C75.9328 48.6146 75.9384 48.6213 75.9457 48.6256C75.953 48.6299 75.9616 48.6314 75.9699 48.63C75.9782 48.6286 75.9858 48.6242 75.9912 48.6177C76.9471 47.2681 76.5461 45.2525 75.7227 43.8921C76.9865 43.0043 78.7478 41.9589 78.5688 40.194L78.5438 40.1797Z" fill="#263238"/>
<path d="M59.2871 47.0052L55.6319 55.4576C55.6319 55.4576 49.2631 47.5816 48.0459 44.7355C46.6819 41.5278 48.6079 41.5278 51.6939 42.7378C54.7799 43.9479 59.2871 47.0052 59.2871 47.0052Z" fill="#455A64"/>
<path d="M56.9743 46.3368C56.8674 46.3334 56.7629 46.3039 56.67 46.2509C56.5826 46.1991 56.5103 46.1252 56.4607 46.0365C56.411 45.9479 56.3857 45.8477 56.3872 45.7461C56.3844 45.6125 56.3426 45.4827 56.2669 45.3726C56.1912 45.2625 56.0849 45.1771 55.9612 45.1267C55.8466 45.0857 55.7236 45.0734 55.6032 45.0909C55.4886 45.0909 55.3705 45.116 55.2452 45.1375L55.6032 45.1804C55.7116 45.1828 55.8181 45.2097 55.9146 45.2592C56.0038 45.3069 56.0787 45.3774 56.1315 45.4636C56.1844 45.5498 56.2133 45.6486 56.2154 45.7497C56.2137 45.8827 56.2512 46.0134 56.3231 46.1254C56.395 46.2374 56.4982 46.3258 56.6199 46.3797C56.7323 46.4293 56.8562 46.4467 56.9779 46.4299C57.096 46.412 57.2142 46.4048 57.3359 46.3833C57.2106 46.3618 57.0925 46.3511 56.9743 46.3368ZM48.0243 44.3893C48.0243 44.2711 47.9993 44.1566 47.9778 44.0312C47.9563 44.1494 47.9491 44.264 47.9348 44.3893C47.9365 44.4035 47.9365 44.4179 47.9348 44.4322L48.0243 44.6542C48.0363 44.5671 48.0327 44.4786 48.0136 44.3928L48.0243 44.3893ZM53.8203 49.5086C53.7418 49.5828 53.6457 49.6358 53.5411 49.6626C53.4432 49.6878 53.3404 49.6869 53.243 49.6599C53.1456 49.6329 53.0571 49.5807 52.9862 49.5086C52.8903 49.416 52.7694 49.3534 52.6383 49.3286C52.5073 49.3038 52.3719 49.3178 52.2487 49.369C52.133 49.4227 52.0331 49.5053 51.9587 49.6089C51.8871 49.702 51.812 49.7879 51.7439 49.8881C51.8406 49.8201 51.9301 49.7449 52.0232 49.6733C52.101 49.597 52.1953 49.5394 52.2988 49.5051C52.3957 49.4769 52.4982 49.4746 52.5962 49.4985C52.6942 49.5224 52.7843 49.5716 52.8573 49.6411C52.9253 49.7118 53.0079 49.7668 53.0994 49.8022C53.1909 49.8376 53.289 49.8526 53.3869 49.8461C53.4847 49.8397 53.58 49.8119 53.666 49.7647C53.752 49.7175 53.8267 49.6521 53.8848 49.5731C53.9564 49.48 54.0316 49.3905 54.0996 49.2939C53.9922 49.3619 53.9027 49.437 53.8096 49.5086H53.8203Z" fill="white"/>
<path d="M57.6296 46.6412C57.0174 47.6543 55.6105 50.9372 55.3742 51.4957C55.2489 51.7821 54.7978 52.9277 54.6582 53.2284C54.6582 53.2642 54.7012 53.2821 54.7155 53.2284C54.9589 52.6878 55.2596 52.1544 55.5067 51.6281C55.7537 51.1019 57.2967 47.7832 57.6547 46.6448C57.6514 46.6416 57.6472 46.6395 57.6427 46.6389C57.6382 46.6382 57.6336 46.639 57.6296 46.6412Z" fill="#263238"/>
<path opacity="0.1" d="M48.0423 44.7501C49.2595 47.6141 55.6283 55.4901 55.6283 55.4901L57.5114 51.1332L48.6617 42.0293C47.5841 42.0544 47.2261 42.8276 48.0423 44.7501Z" fill="black"/>
<path d="M29.2152 69.5312L53.6057 74.2568C53.5126 74.7365 54.6511 57.4308 52.8682 45.4199C52.342 41.8685 48.3538 40.1895 44.6342 43.3292C36.7833 49.9378 29.1579 69.8426 29.2152 69.5312Z" fill="#455A64"/>
<path d="M34.2702 58.4089L34.1556 58.638L34.2272 58.5592C34.2952 58.4661 34.374 58.3766 34.4384 58.28C34.3811 58.3194 34.3239 58.3552 34.2702 58.4089ZM53.373 69.5069C53.277 69.4144 53.1558 69.3522 53.0247 69.328C52.8936 69.3038 52.7583 69.3187 52.6356 69.3708C52.5197 69.4225 52.4196 69.504 52.3456 69.6071C52.274 69.7002 52.1988 69.7897 52.1308 69.8863C52.2274 69.8183 52.3169 69.7431 52.41 69.6715C52.4882 69.5965 52.5825 69.5402 52.6857 69.5069C52.7825 69.4779 52.8852 69.4753 52.9833 69.4992C53.0815 69.5231 53.1715 69.5727 53.2442 69.6429C53.3123 69.7106 53.3934 69.7638 53.4826 69.7995C53.5718 69.8351 53.6672 69.8525 53.7632 69.8505C53.7632 69.7933 53.7632 69.736 53.7632 69.6787C53.6145 69.6706 53.4746 69.6051 53.373 69.4961V69.5069ZM39.0709 70.8028C38.9916 70.8767 38.8959 70.9307 38.7917 70.9603C38.6935 70.9848 38.5906 70.9831 38.4933 70.9555C38.3959 70.9278 38.3075 70.8752 38.2368 70.8028C38.1399 70.7105 38.0182 70.6484 37.8866 70.6242C37.7549 70.6001 37.6191 70.6148 37.4957 70.6668C37.3811 70.719 37.2824 70.8005 37.2093 70.9031L37.0805 71.0677H37.1306L37.2702 70.9603C37.3474 70.8857 37.4404 70.8295 37.5423 70.7957C37.6396 70.7664 37.743 70.7636 37.8417 70.7875C37.9405 70.8114 38.0311 70.8612 38.1043 70.9317C38.1726 71.0022 38.2554 71.0569 38.347 71.0921C38.4386 71.1272 38.5368 71.1418 38.6347 71.135C38.7326 71.1282 38.8278 71.1001 38.9137 71.0526C38.9995 71.0051 39.074 70.9394 39.1318 70.8601C39.2034 70.767 39.2786 70.6811 39.3466 70.5809C39.2535 70.6453 39.164 70.7205 39.0709 70.7921V70.8028ZM45.4648 58.2084C45.387 58.2816 45.2923 58.3345 45.1892 58.3623C45.0908 58.3886 44.9872 58.3882 44.889 58.3612C44.7909 58.3341 44.7017 58.2814 44.6307 58.2084C44.5351 58.1151 44.414 58.0523 44.2826 58.0281C44.1513 58.0039 44.0157 58.0193 43.8932 58.0723C43.7773 58.124 43.6772 58.2056 43.6032 58.3086C43.5316 58.4017 43.4564 58.4912 43.3884 58.5879C43.4851 58.5198 43.5746 58.4447 43.6677 58.3731C43.7444 58.296 43.8391 58.2394 43.9433 58.2084C44.0398 58.1786 44.1424 58.1752 44.2406 58.1985C44.3388 58.2218 44.429 58.2709 44.5018 58.3408C44.5935 58.433 44.7095 58.4971 44.8363 58.5256C44.9632 58.5541 45.0955 58.5459 45.2178 58.5019C45.3369 58.4558 45.44 58.3762 45.5149 58.2728C45.5865 58.1797 45.6617 58.0902 45.7297 57.9936C45.6474 58.0509 45.5579 58.126 45.4648 58.1976V58.2084ZM53.3659 49.688C53.2187 49.6855 53.0785 49.625 52.9757 49.5197C52.8797 49.4271 52.7588 49.3645 52.6278 49.3397C52.4967 49.3149 52.3613 49.3289 52.2382 49.3801C52.1225 49.4338 52.0226 49.5164 51.9482 49.62C51.8766 49.713 51.8014 49.799 51.7334 49.8992C51.83 49.8312 51.9195 49.756 52.0126 49.6844C52.0905 49.608 52.1848 49.5505 52.2883 49.5161C52.3851 49.488 52.4877 49.4857 52.5857 49.5096C52.6837 49.5334 52.7737 49.5826 52.8468 49.6522C52.9161 49.7221 52.9996 49.7764 53.0915 49.8116C53.1835 49.8468 53.2819 49.862 53.3802 49.8562C53.3794 49.7963 53.3747 49.7365 53.3659 49.6772V49.688ZM53.7776 56.49C53.6643 56.5077 53.5573 56.5532 53.466 56.6226C53.3748 56.692 53.3022 56.783 53.2549 56.8874C53.2091 57.0008 53.193 57.124 53.2083 57.2454C53.2083 57.3599 53.2334 57.4781 53.2549 57.6034C53.2764 57.4888 53.2835 57.3707 53.2978 57.2454C53.304 57.1373 53.3346 57.032 53.3873 56.9375C53.4297 56.8655 53.4871 56.8035 53.5557 56.756C53.6243 56.7084 53.7025 56.6762 53.7847 56.6618C53.7811 56.5902 53.7776 56.5294 53.7776 56.4649V56.49ZM39.4576 53.7871C39.4576 53.6689 39.4325 53.5508 39.411 53.4291C39.3896 53.5436 39.3824 53.6618 39.3645 53.7871C39.3627 53.894 39.3371 53.9992 39.2893 54.095C39.2413 54.1839 39.1707 54.2585 39.0846 54.3114C38.9984 54.3642 38.8999 54.3933 38.7989 54.3957C38.6655 54.3947 38.5346 54.4324 38.4222 54.5042C38.3097 54.576 38.2205 54.6788 38.1652 54.8002C38.1194 54.9136 38.1033 55.0369 38.1187 55.1582C38.1187 55.2764 38.1437 55.3909 38.1652 55.5162C38.1867 55.3981 38.1938 55.2835 38.2117 55.1582C38.2151 55.0502 38.2446 54.9445 38.2977 54.8503C38.3499 54.7634 38.424 54.6916 38.5125 54.642C38.601 54.5924 38.701 54.5667 38.8024 54.5675C38.9361 54.5652 39.0661 54.5236 39.1763 54.4478C39.2864 54.3721 39.3718 54.2655 39.4218 54.1415C39.4702 54.0212 39.485 53.8901 39.4647 53.762L39.4576 53.7871ZM33.9301 65.6297C33.9301 65.5152 33.905 65.397 33.8835 65.2717C33.862 65.3899 33.8549 65.508 33.8406 65.6297C33.8382 65.7382 33.8113 65.8447 33.7618 65.9412C33.7141 66.0303 33.6436 66.1052 33.5574 66.1581C33.4711 66.2109 33.3724 66.2399 33.2713 66.2419C33.1382 66.2403 33.0076 66.2778 32.8956 66.3497C32.7836 66.4216 32.6952 66.5248 32.6413 66.6464C32.5922 66.759 32.5749 66.8828 32.5911 67.0044C32.5911 67.119 32.6162 67.2371 32.6377 67.3624C32.6591 67.2479 32.6663 67.1297 32.6842 67.0044C32.6871 66.8963 32.7166 66.7906 32.7701 66.6966C32.8219 66.6091 32.8958 66.5369 32.9845 66.4872C33.0731 66.4376 33.1733 66.4122 33.2749 66.4137C33.4085 66.411 33.5383 66.3692 33.6484 66.2935C33.7584 66.2178 33.8439 66.1115 33.8943 65.9877C33.9353 65.8731 33.9476 65.7502 33.9301 65.6297ZM45.2357 64.9137C45.2357 64.7992 45.2106 64.681 45.1892 64.5557C45.1677 64.6703 45.1605 64.7884 45.1426 64.9137C45.1414 65.0219 45.1157 65.1284 45.0674 65.2252C45.0195 65.3141 44.9488 65.3888 44.8627 65.4416C44.7766 65.4944 44.678 65.5235 44.577 65.5259C44.4437 65.5254 44.313 65.5633 44.2007 65.635C44.0883 65.7068 43.999 65.8093 43.9433 65.9304C43.8975 66.0438 43.8815 66.1671 43.8968 66.2884C43.8968 66.403 43.9218 66.5211 43.9433 66.6464C43.9648 66.5319 43.972 66.4137 43.9899 66.2884C43.9928 66.1803 44.0223 66.0746 44.0758 65.9806C44.1275 65.8931 44.2015 65.8209 44.2901 65.7712C44.3787 65.7215 44.4789 65.6962 44.5805 65.6977C44.7141 65.695 44.8439 65.6532 44.954 65.5775C45.0641 65.5018 45.1496 65.3955 45.1999 65.2717C45.2488 65.1528 45.266 65.0233 45.25 64.8958L45.2357 64.9137ZM48.0138 44.3932C48.0138 44.275 47.9887 44.1605 47.9672 44.0352C47.9457 44.1533 47.9386 44.2679 47.9243 44.3932C47.9202 44.5014 47.8934 44.6075 47.8455 44.7046C47.7974 44.7931 47.7266 44.8673 47.6404 44.9195C47.5543 44.9717 47.4558 45.0001 47.3551 45.0018C47.2217 45.0013 47.0911 45.0391 46.9788 45.1109C46.8664 45.1826 46.777 45.2852 46.7214 45.4063C46.6756 45.5197 46.6595 45.6429 46.6748 45.7643C46.6748 45.8824 46.6999 45.997 46.7214 46.1223C46.7429 46.0042 46.75 45.8896 46.7679 45.7643C46.7709 45.6573 46.8004 45.5527 46.8538 45.46C46.905 45.372 46.9788 45.2994 47.0676 45.2497C47.1564 45.1999 47.2569 45.1749 47.3586 45.1772C47.492 45.1735 47.6214 45.1314 47.7313 45.0558C47.8412 44.9802 47.9269 44.8744 47.978 44.7512C48.019 44.6365 48.0313 44.5136 48.0138 44.3932ZM41.0542 48.6176C40.9783 48.6937 40.8849 48.7503 40.7822 48.7822C40.6857 48.812 40.5831 48.8154 40.4849 48.7921C40.3867 48.7688 40.2965 48.7197 40.2237 48.6498C40.1796 48.6027 40.1275 48.5639 40.0697 48.5352C40.0363 48.5853 40.0005 48.6355 39.9624 48.6856C40.0098 48.7113 40.0532 48.7439 40.0912 48.7822C40.1876 48.8754 40.3094 48.938 40.4412 48.9622C40.5731 48.9864 40.7091 48.9711 40.8323 48.9183C40.9469 48.8661 41.0457 48.7846 41.1187 48.682C41.1903 48.5889 41.269 48.4994 41.3335 48.4028C41.2368 48.4708 41.1473 48.546 41.0542 48.6176ZM51.6618 62.5187C51.5537 62.5153 51.4481 62.4859 51.3539 62.4328C51.2672 62.3802 51.1956 62.3061 51.146 62.2176C51.0964 62.1292 51.0706 62.0294 51.0711 61.928C51.0688 61.7943 51.0272 61.6643 50.9514 61.5541C50.8756 61.444 50.7691 61.3586 50.6451 61.3087C50.5307 61.2664 50.4075 61.2541 50.2871 61.2729C50.1689 61.2729 50.0508 61.2979 49.9291 61.3158C50.0436 61.3373 50.1618 61.348 50.2871 61.3624C50.3943 61.3652 50.4995 61.3921 50.5949 61.4411C50.6844 61.4885 50.7594 61.559 50.8123 61.6453C50.8652 61.7315 50.894 61.8304 50.8957 61.9316C50.895 62.0645 50.9328 62.1947 51.0046 62.3065C51.0764 62.4184 51.1791 62.507 51.3002 62.5617C51.4128 62.6103 51.5365 62.6277 51.6582 62.6118C51.7763 62.6118 51.8909 62.5867 52.0162 62.5652C51.8945 62.5438 51.7799 62.533 51.6618 62.5187ZM45.293 72.3888C45.2916 72.2549 45.2504 72.1244 45.1745 72.0141C45.0986 71.9037 44.9915 71.8186 44.867 71.7694C44.7532 71.7247 44.6293 71.7123 44.509 71.7336C44.3908 71.7336 44.2727 71.7551 44.151 71.7766C44.2655 71.7981 44.3837 71.8088 44.509 71.8231C44.6164 71.8241 44.7221 71.8512 44.8168 71.9019C44.9062 71.9493 44.9813 72.0198 45.0342 72.106C45.0871 72.1923 45.1159 72.2912 45.1175 72.3923C45.1164 72.4693 45.1297 72.5458 45.1569 72.6179L45.3717 72.6608C45.3221 72.5786 45.2949 72.4848 45.293 72.3888ZM38.8884 63.1953C38.7803 63.192 38.6747 63.1625 38.5805 63.1094C38.493 63.0577 38.4208 62.9837 38.3711 62.8951C38.3215 62.8064 38.2961 62.7062 38.2977 62.6046C38.2954 62.4709 38.2537 62.3409 38.178 62.2308C38.1022 62.1206 37.9956 62.0352 37.8716 61.9853C37.757 61.9443 37.6341 61.932 37.5136 61.9495C37.3991 61.9495 37.2809 61.9745 37.1556 61.996C37.2702 62.0139 37.3883 62.0247 37.5136 62.039C37.6221 62.0413 37.7286 62.0682 37.8251 62.1177C37.9143 62.1654 37.9891 62.236 38.042 62.3222C38.0948 62.4084 38.1238 62.5071 38.1258 62.6082C38.1242 62.7065 38.144 62.8039 38.1839 62.8937C38.2237 62.9835 38.2827 63.0636 38.3566 63.1283C38.4306 63.1931 38.5177 63.2409 38.612 63.2686C38.7063 63.2962 38.8055 63.303 38.9027 63.2884C39.0172 63.2705 39.1354 63.2633 39.2607 63.2419C39.121 63.2204 39.0029 63.2096 38.8884 63.1953ZM47.4803 52.8992C47.3729 52.8963 47.268 52.8655 47.1761 52.8097C47.0886 52.7589 47.0163 52.6856 46.9666 52.5975C46.9169 52.5094 46.8916 52.4097 46.8932 52.3085C46.89 52.1751 46.848 52.0455 46.7724 51.9355C46.6967 51.8255 46.5907 51.7399 46.4672 51.6892C46.3532 51.6458 46.2299 51.6322 46.1092 51.6498C45.9911 51.6498 45.8765 51.6749 45.7512 51.6964C45.8694 51.7178 45.9839 51.7286 46.1092 51.7429C46.2179 51.7435 46.3248 51.7705 46.4207 51.8217C46.5096 51.8696 46.5843 51.9403 46.6371 52.0264C46.6899 52.1125 46.719 52.2111 46.7214 52.3121C46.7204 52.4446 46.7577 52.5746 46.8288 52.6864C46.9 52.7981 47.0019 52.887 47.1223 52.9422C47.2353 52.9898 47.359 53.0059 47.4803 52.9887C47.5985 52.9887 47.7166 52.9637 47.8383 52.9422C47.7238 52.9243 47.6056 52.9136 47.4875 52.8992H47.4803Z" fill="white"/>
<path d="M51.2463 46.1831C50.0577 46.4444 47.6162 45.0052 46.8035 43.3012C46.7498 43.183 46.9897 41.998 47.2116 40.541C47.3441 39.6603 47.473 38.6722 47.5231 37.7629C47.5231 37.5767 53.1473 39.467 53.1473 39.467C52.7589 40.5851 52.5089 41.7464 52.4026 42.9253C52.3969 43.0449 52.4029 43.1648 52.4205 43.2833C52.4205 43.2833 52.4205 43.3191 52.4205 43.3441C52.4993 44.0852 52.5172 45.9146 51.2463 46.1831Z" fill="#EB9481"/>
<path d="M52.41 43.3192C52.41 43.3192 52.41 43.3586 52.41 43.38C52.2146 43.3961 52.0183 43.3961 51.8229 43.38C48.472 43.1223 47.8205 38.8728 47.7095 37.7988C48.7155 37.9993 53.1332 39.4886 53.1332 39.4886C52.7429 40.6063 52.4916 41.7678 52.385 42.9469C52.3841 43.0714 52.3925 43.1959 52.41 43.3192Z" fill="#263238"/>
<path d="M46.8608 30.6353C46.1914 32.6437 47.1222 38.5113 48.5291 39.8538C50.5733 41.7942 53.985 42.0555 55.6497 39.5853C57.2643 37.1939 55.9182 29.5613 54.3395 28.3369C52.0125 26.5362 47.8418 27.6675 46.8608 30.6353Z" fill="#EB9481"/>
<path d="M52.4779 34.2715C52.4779 34.2715 52.4493 34.293 52.4528 34.3109C52.528 34.7047 52.5459 35.1665 52.2058 35.3526C52.2058 35.3526 52.2058 35.3777 52.2058 35.3741C52.6426 35.2452 52.6104 34.6331 52.4779 34.2715Z" fill="#263238"/>
<path d="M52.052 33.911C51.4076 33.9612 51.5543 35.2464 52.1486 35.1998C52.7429 35.1533 52.6033 33.8717 52.052 33.911Z" fill="#263238"/>
<path d="M54.7905 34.0742C54.7905 34.0742 54.8227 34.0742 54.8227 34.1064C54.8585 34.5038 54.9623 34.9549 55.3346 35.048V35.0695C54.8907 35.0587 54.7583 34.4573 54.7905 34.0742Z" fill="#263238"/>
<path d="M55.0985 33.6195C55.7321 33.4978 55.929 34.7758 55.3419 34.8868C54.7548 34.9978 54.5579 33.7197 55.0985 33.6195Z" fill="#263238"/>
<path d="M51.4898 33.3812C51.6526 33.3135 51.8115 33.2371 51.9659 33.1521C52.1449 33.0919 52.3003 32.9766 52.4099 32.8227C52.4328 32.7668 52.4371 32.7049 52.4223 32.6463C52.4075 32.5876 52.3743 32.5353 52.3275 32.4969C52.2231 32.4363 52.1046 32.4043 51.9838 32.4043C51.8631 32.4043 51.7445 32.4363 51.6402 32.4969C51.4117 32.5927 51.226 32.7683 51.1175 32.991C51.095 33.0438 51.0885 33.102 51.0987 33.1585C51.109 33.2149 51.1355 33.2672 51.1752 33.3087C51.2148 33.3502 51.2657 33.3792 51.3216 33.3921C51.3775 33.405 51.436 33.4012 51.4898 33.3812Z" fill="#263238"/>
<path d="M55.5209 32.9154C55.3441 32.9011 55.1683 32.876 54.9946 32.8402C54.8067 32.8419 54.6238 32.7801 54.4755 32.6648C54.4352 32.619 54.4112 32.5611 54.4073 32.5002C54.4034 32.4393 54.4198 32.3788 54.454 32.3283C54.5355 32.2396 54.6392 32.1742 54.7543 32.139C54.8695 32.1037 54.992 32.0999 55.1092 32.1278C55.356 32.146 55.5871 32.2558 55.7571 32.4357C55.7929 32.4793 55.8154 32.5323 55.8219 32.5883C55.8284 32.6444 55.8185 32.7011 55.7936 32.7517C55.7687 32.8023 55.7297 32.8447 55.6813 32.8737C55.633 32.9027 55.5772 32.9172 55.5209 32.9154Z" fill="#263238"/>
<path d="M52.8144 36.7676C52.9328 36.9135 53.0801 37.0333 53.2471 37.1196C53.414 37.2058 53.597 37.2566 53.7845 37.2688C53.9489 37.2802 54.114 37.2682 54.275 37.233C54.3068 37.2297 54.338 37.2225 54.3681 37.2116C54.3974 37.2074 54.4262 37.2002 54.454 37.1901C54.4748 37.1843 54.4929 37.1716 54.5053 37.1539C54.5177 37.1363 54.5236 37.1149 54.522 37.0934C54.5237 37.0791 54.5237 37.0647 54.522 37.0505V37.0147C54.497 36.7068 54.4146 36.245 54.4146 36.245C54.5328 36.2879 55.1306 36.4812 55.1056 36.3201C54.9138 34.9437 54.5815 33.5906 54.1139 32.2819C54.1139 32.2724 54.1101 32.2633 54.1034 32.2566C54.0967 32.2499 54.0876 32.2461 54.0781 32.2461C54.0686 32.2461 54.0595 32.2499 54.0528 32.2566C54.0461 32.2633 54.0423 32.2724 54.0423 32.2819C54.2141 33.5528 54.6079 34.7879 54.7977 36.066C54.584 35.9934 54.3609 35.9524 54.1354 35.9442C54.096 35.9442 54.3108 36.8357 54.3144 36.9753C54.0666 37.0289 53.8105 37.0322 53.5614 36.9848C53.3123 36.9374 53.0753 36.8405 52.8645 36.6996C52.8144 36.7068 52.7857 36.739 52.8144 36.7676Z" fill="#263238"/>
<path d="M54.1999 37.1611C54.0395 37.416 53.8164 37.6255 53.5519 37.7697C53.4058 37.8424 53.2405 37.8674 53.0794 37.8412C52.7214 37.784 52.6856 37.4833 52.7214 37.1933C52.7416 37.0459 52.7801 36.9016 52.8359 36.7637C53.2367 37.038 53.7146 37.1772 54.1999 37.1611Z" fill="#263238"/>
<path d="M53.5412 37.7695C53.395 37.8422 53.2298 37.8672 53.0686 37.8411C52.7106 37.7838 52.6748 37.4831 52.7106 37.1931C52.8938 37.1812 53.0756 37.2318 53.2265 37.3364C53.3773 37.4411 53.4882 37.5937 53.5412 37.7695Z" fill="#FF9ABB"/>
<path d="M48.7441 33.913C49.1236 32.7674 48.4505 30.8593 49.0197 30.333C50.2441 29.2125 52.7931 31.3211 54.5294 31.3175C56.2657 31.3139 56.7633 30.2435 56.4482 28.8616C56.1332 27.4797 54.9661 26.5919 53.0759 26.327C51.4248 26.1514 49.7644 26.5592 48.3825 27.4797C48.3825 27.4797 48.8014 26.796 48.6403 26.5847C48.4792 26.3735 47.6593 27.0358 47.4087 27.3007C47.2269 27.5469 47.09 27.8232 47.0042 28.117C46.7537 28.0555 46.4957 28.0302 46.2381 28.0418C45.8623 28.0798 45.5123 28.2498 45.25 28.5215C45.2214 28.6218 45.8335 28.6969 46.2631 28.7148C46.2631 28.7148 45.472 29.7888 45.497 30.6946C45.5221 31.6003 46.972 35.9142 47.3121 35.9572C47.756 36.0145 48.5901 34.3677 48.7441 33.913Z" fill="#263238"/>
<path d="M46.4205 28.6055C46.4205 28.6055 46.4563 28.6055 46.442 28.6269C46.0286 28.9678 45.7176 29.4163 45.5434 29.9229C45.3751 30.5369 45.3751 31.1848 45.5434 31.7988C45.819 32.991 46.4133 34.0721 46.9289 35.1676C46.9289 35.1998 46.8895 35.2285 46.8751 35.1962C46.1902 34.0712 45.6842 32.8465 45.3751 31.5661C45.1675 30.4778 45.4109 29.2212 46.4205 28.6055Z" fill="#263238"/>
<path d="M48.948 29.9011C49.4584 29.833 49.9771 29.8621 50.4767 29.987C50.9392 30.1445 51.3805 30.3586 51.7905 30.6243C52.73 31.1881 53.8097 31.4747 54.9051 31.4512V31.4727C53.901 31.5664 52.8916 31.3596 52.0053 30.8784C51.5657 30.6122 51.1102 30.3731 50.6413 30.1624C50.0905 30.0104 49.5186 29.9487 48.948 29.9799C48.9413 29.9757 48.9359 29.9699 48.9321 29.963C48.9283 29.9561 48.9263 29.9483 48.9263 29.9405C48.9263 29.9326 48.9283 29.9249 48.9321 29.918C48.9359 29.9111 48.9413 29.9053 48.948 29.9011Z" fill="#263238"/>
<path d="M49.4135 27.001C50.092 26.662 50.8152 26.4209 51.5615 26.285C52.2763 26.1289 53.0126 26.0974 53.7381 26.1919C54.984 26.3852 56.1403 27.1693 56.441 28.4473C56.607 29.1021 56.5227 29.7953 56.2048 30.3913C56.2026 30.3955 56.1997 30.3993 56.1961 30.4024C56.1926 30.4055 56.1884 30.4078 56.1839 30.4093C56.1794 30.4108 56.1747 30.4114 56.17 30.4111C56.1653 30.4107 56.1607 30.4095 56.1564 30.4074C56.1522 30.4052 56.1484 30.4023 56.1453 30.3987C56.1422 30.3952 56.1399 30.391 56.1384 30.3865C56.1369 30.382 56.1363 30.3773 56.1366 30.3726C56.1369 30.3679 56.1382 30.3633 56.1403 30.359C56.4012 29.8108 56.4774 29.1928 56.3573 28.5977C56.2373 28.0026 55.9275 27.4624 55.4744 27.0583C54.4434 26.1812 53.0078 26.1239 51.7333 26.3423C50.9367 26.4886 50.1579 26.719 49.4099 27.0296L49.4135 27.001Z" fill="#263238"/>
<path d="M48.2213 35.5007C48.2213 35.5007 46.9074 33.6068 46.0482 34.0687C45.189 34.5305 46.17 37.2907 47.1759 37.6487C47.3015 37.7062 47.4374 37.7378 47.5755 37.7414C47.7136 37.7451 47.851 37.7207 47.9794 37.6699C48.1078 37.6191 48.2247 37.5428 48.3228 37.4456C48.421 37.3484 48.4985 37.2324 48.5507 37.1045L48.2213 35.5007Z" fill="#EB9481"/>
<path d="M46.3489 34.8516C46.3489 34.8516 46.3489 34.873 46.3489 34.8802C47.0649 35.1666 47.4229 35.8253 47.6806 36.5055C47.6394 36.4347 47.5834 36.3736 47.5164 36.3264C47.4495 36.2793 47.3731 36.2471 47.2925 36.2321C47.212 36.2172 47.1292 36.2198 47.0497 36.2398C46.9702 36.2598 46.896 36.2967 46.8322 36.348C46.8322 36.348 46.8322 36.3874 46.8537 36.3838C46.9777 36.3451 47.1106 36.3456 47.2343 36.3853C47.358 36.4251 47.4664 36.502 47.5446 36.6058C47.6756 36.7811 47.7861 36.9709 47.874 37.1714C47.9098 37.2323 48.0243 37.2 47.9993 37.1284C48.01 36.2084 47.3155 34.9482 46.3489 34.8516Z" fill="#263238"/>
<path d="M92.5668 27.7347L107.857 49.8161L128.453 54.3699L133.583 57.5382L117.312 78.9072L117.917 105.757L92.5668 96.886L67.2132 105.757L62.0831 102.593L67.8182 78.9072L51.5471 57.5382L77.2694 49.8161L87.4366 24.5664L92.5668 27.7347Z" fill="#FDB306"/>
<path opacity="0.1" d="M92.5668 27.7347L107.857 49.8161L128.453 54.3699L133.583 57.5382L117.312 78.9072L117.917 105.757L92.5668 96.886L67.2132 105.757L62.0831 102.593L67.8182 78.9072L51.5471 57.5382L77.2694 49.8161L87.4366 24.5664L92.5668 27.7347Z" fill="black"/>
<path d="M87.4366 24.5664L102.73 46.6478L128.453 54.3699L112.182 75.7389L112.787 102.593L87.4366 93.7177L62.0831 102.593L62.6881 75.7389L46.417 54.3699L72.1429 46.6478L87.4366 24.5664Z" fill="#FDB306"/>
<g opacity="0.2">
<path d="M62.4123 87.9782L62.6879 75.7382L59.1616 71.1057L94.9079 35.3594L102.727 46.6471L103.507 46.8834L62.4123 87.9782Z" fill="white"/>
<path d="M125.402 53.4524L83.903 94.9518L71.9995 99.1189L119.452 51.666L125.402 53.4524Z" fill="white"/>
<path d="M59.8168 50.3457L50.4695 59.6931L47.1257 55.304L48.7654 53.6644L59.8168 50.3457Z" fill="white"/>
<path d="M93.6658 33.5663L57.8479 69.3842L57.5186 68.951L93.3544 33.1152L93.6658 33.5663Z" fill="white"/>
<path d="M112.518 90.6786L103.761 99.4352L103.199 99.2383L112.5 89.9375L112.518 90.6786Z" fill="white"/>
</g>
<path d="M43.2236 47.5215C42.3358 53.4357 40.1269 65.6614 42.6007 69.3381C45.8478 74.1639 56.7023 77.4468 59.5484 78.4241C60.7871 78.8501 64.0986 70.7772 63.4184 69.5564C62.7382 68.3356 51.4684 63.7246 50.7058 63.0086C49.9433 62.2926 48.9588 52.6051 47.9671 47.6146C46.7177 41.3389 43.9754 42.5167 43.2236 47.5215Z" fill="#EB9481"/>
<path d="M66.798 72.4383C66.354 71.9371 66.6118 71.7009 67.7825 71.9157C68.9531 72.1305 73.3959 73.9598 73.9043 72.356C74.4126 70.7522 68.1047 68.2569 66.1321 68.06C64.1595 67.8631 60.8945 68.2139 60.8945 68.2139C62.0258 68.9371 64.5819 70.9741 66.798 72.4383Z" fill="#EB9481"/>
<path d="M56.4517 77.0705C59.7095 79.0144 63.651 81.635 67.9327 81.66C68.4083 81.6737 68.8747 81.5274 69.2573 81.2447C71.1762 81.2913 71.7633 80.3999 71.7633 80.3999C73.5533 79.8951 74.0509 78.8963 74.0509 78.8963C74.0509 78.8963 76.3028 78.9249 76.5569 77.5681C76.8362 76.043 73.6142 76.3008 71.7597 75.3592C67.5031 73.2112 62.0579 68.951 60.8944 68.1992L56.4517 77.0705Z" fill="#EB9481"/>
<path d="M65.7133 76.255C66.9511 76.8988 68.2309 77.4586 69.5439 77.9305C71.0137 78.356 72.5131 78.672 74.0296 78.8756C74.0391 78.8756 74.0482 78.8794 74.0549 78.8861C74.0616 78.8928 74.0654 78.9019 74.0654 78.9114C74.0654 78.9209 74.0616 78.93 74.0549 78.9367C74.0482 78.9434 74.0391 78.9472 74.0296 78.9472C71.0609 78.8493 68.1764 77.9365 65.6918 76.3087C65.6274 76.255 65.656 76.2049 65.7133 76.255Z" fill="#263238"/>
<path d="M64.0378 78.6129C65.3015 79.1391 67.5283 80.0449 71.7777 80.3527C71.7777 80.3527 71.7956 80.3778 71.7777 80.3778C69.0814 80.5415 66.3927 79.9514 64.0127 78.6737C63.9375 78.6343 63.9554 78.5771 64.0378 78.6129Z" fill="#263238"/>
<path d="M63.15 79.9105C65.3338 80.7196 66.8124 80.9558 69.236 81.2351V81.2637C66.4472 81.2315 65.4376 80.9057 63.1142 79.9821C63.0426 79.9499 63.0784 79.8783 63.15 79.9105Z" fill="#263238"/>
<path d="M49.6031 54.4157L40.9324 57.3012C40.9324 57.3012 42.547 47.381 43.8465 44.5993C45.3071 41.4668 46.5888 42.8988 47.738 45.9741C48.8871 49.0493 49.6031 54.4157 49.6031 54.4157Z" fill="#455A64"/>
<path d="M47.4874 52.8991C47.38 52.8962 47.2751 52.8653 47.1831 52.8096C47.0957 52.7587 47.0234 52.6855 46.9737 52.5974C46.924 52.5093 46.8987 52.4095 46.9003 52.3084C46.8971 52.175 46.8551 52.0453 46.7795 51.9353C46.7038 51.8254 46.5978 51.7398 46.4743 51.6891C46.3603 51.6457 46.237 51.6321 46.1163 51.6497C45.9982 51.6497 45.8836 51.6747 45.7583 51.6962C45.8764 51.7177 45.991 51.7284 46.1163 51.7428C46.225 51.7434 46.3319 51.7704 46.4278 51.8215C46.5167 51.8695 46.5913 51.9401 46.6442 52.0263C46.697 52.1124 46.7261 52.211 46.7285 52.312C46.7275 52.4445 46.7648 52.5744 46.8359 52.6862C46.9071 52.798 47.009 52.8869 47.1294 52.9421C47.2424 52.9897 47.3661 53.0058 47.4874 52.9886C47.6056 52.9886 47.7237 52.9635 47.8454 52.9421C47.7237 52.9242 47.6056 52.9134 47.4874 52.8991ZM47.3407 44.998C47.2104 45.0027 47.0838 45.0428 46.9747 45.1141C46.8656 45.1854 46.7779 45.2852 46.7213 45.4026C46.6755 45.516 46.6595 45.6392 46.6748 45.7606C46.6748 45.8787 46.6998 45.9933 46.7213 46.1186C46.7428 46.0004 46.75 45.8859 46.7679 45.7606C46.7708 45.6536 46.8003 45.549 46.8538 45.4563C46.905 45.3683 46.9788 45.2957 47.0676 45.246C47.1563 45.1962 47.2568 45.1712 47.3586 45.1735C47.3787 45.1769 47.3993 45.1769 47.4194 45.1735C47.3979 45.109 47.3657 45.0589 47.3407 44.998Z" fill="white"/>
<path d="M48.7761 52.96C47.6234 53.1748 44.2546 54.3168 43.6961 54.4994C43.399 54.5961 42.2426 55.0328 41.9491 55.1259C41.9097 55.1259 41.9491 55.1939 41.9741 55.1832C42.5362 55.0042 43.1161 54.8825 43.6818 54.707C44.2474 54.5316 47.7164 53.497 48.7904 53.003C48.8298 52.9851 48.8012 52.9528 48.7761 52.96Z" fill="#263238"/>
<path d="M42.701 48.4803C42.701 48.4373 42.6473 48.4301 42.6365 48.4803C42.4038 49.3037 42.1926 50.1306 41.9957 50.9648C41.9964 50.5168 42.0384 50.0698 42.121 49.6295C42.121 49.608 42.096 49.6044 42.0888 49.6295C41.9761 50.1356 41.9292 50.6542 41.9492 51.1724C41.8131 51.7524 41.6807 52.3323 41.5554 52.9159C41.2403 54.398 40.9074 55.8801 40.6747 57.3766C40.6724 57.3948 40.6748 57.4134 40.6817 57.4305C40.6886 57.4475 40.6998 57.4625 40.7141 57.474C40.7285 57.4855 40.7456 57.4932 40.7638 57.4962C40.782 57.4991 40.8006 57.4974 40.8179 57.4911C41.115 57.3801 41.4086 57.262 41.6986 57.1331C41.7272 57.1331 41.7201 57.0651 41.6986 57.0723C41.4408 57.1224 41.1866 57.1904 40.9325 57.2548C41.2905 55.8228 41.5446 54.3908 41.8489 52.9588C42.1532 51.5268 42.4468 49.9731 42.701 48.4803Z" fill="#263238"/>
<path d="M49.0949 50.536C49.0626 50.0527 49.0268 49.5729 48.9803 49.104C48.9803 49.462 49.0089 49.82 49.0304 50.178C48.8765 49.487 48.7118 48.7997 48.5149 48.123C48.6617 49.197 48.8729 50.2388 49.034 51.2985C49.1951 52.3582 49.392 53.3713 49.5674 54.4059C49.3813 54.5026 49.1915 54.5921 49.0018 54.6816C48.9965 54.6859 48.9927 54.6917 48.9909 54.6982C48.9891 54.7047 48.9894 54.7117 48.9918 54.718C48.9942 54.7243 48.9985 54.7298 49.0042 54.7335C49.0098 54.7373 49.0165 54.7391 49.0233 54.7389C49.2452 54.678 49.4672 54.6172 49.6927 54.5635C49.719 54.5599 49.7429 54.5464 49.7595 54.5258C49.7762 54.5051 49.7843 54.4789 49.7822 54.4525C49.5817 53.1315 49.3669 51.8283 49.0949 50.536Z" fill="#263238"/>
<path d="M134.768 97.8516V105.903H136.357V108.649L139.103 105.903H162.348V97.8516H134.768Z" fill="white"/>
<path d="M135.144 98.1574C135.167 100.804 135.234 103.423 135.244 106.011L135.144 105.906H136.626H136.733V106.021V108.7L136.522 108.605L139.066 105.917L139.11 105.875H139.17L160.846 105.85L160.683 106.021V98.1679L160.833 98.325C153.425 98.325 142.638 98.2308 135.127 98.1679L135.144 98.1574ZM135.144 98.1574C142.742 98.1155 153.365 97.9933 160.85 98.0003H161V98.1574V106.011V106.182H160.836L139.16 106.161L139.26 106.116L136.686 108.78L136.472 109V108.689V106.011L136.582 106.126H135.1H135V106.021C135 103.374 135.077 100.755 135.097 98.1679L135.144 98.1574Z" fill="#263238"/>
<path d="M138.715 100.236C138.794 100.118 138.968 100.118 139.047 100.236L139.467 100.862C139.493 100.901 139.533 100.93 139.578 100.943L140.306 101.149C140.442 101.188 140.496 101.353 140.408 101.465L139.943 102.057C139.914 102.094 139.899 102.141 139.9 102.188L139.927 102.945C139.932 103.087 139.791 103.188 139.658 103.139L138.95 102.878C138.906 102.861 138.857 102.861 138.812 102.878L138.102 103.139C137.968 103.188 137.827 103.086 137.833 102.944L137.862 102.188C137.863 102.141 137.848 102.094 137.819 102.057L137.354 101.465C137.266 101.353 137.32 101.188 137.457 101.149L138.184 100.943C138.23 100.93 138.269 100.901 138.296 100.862L138.715 100.236Z" fill="#FDB306"/>
<path d="M143.141 100.235C143.22 100.117 143.394 100.117 143.473 100.235L143.893 100.862C143.919 100.901 143.959 100.93 144.004 100.943L144.728 101.149C144.865 101.188 144.919 101.353 144.831 101.465L144.366 102.057C144.336 102.094 144.321 102.141 144.323 102.188L144.352 102.944C144.357 103.086 144.216 103.188 144.083 103.139L143.376 102.878C143.332 102.861 143.283 102.861 143.238 102.878L142.528 103.139C142.394 103.188 142.253 103.086 142.259 102.944L142.288 102.188C142.289 102.141 142.274 102.094 142.245 102.057L141.778 101.465C141.689 101.353 141.743 101.188 141.88 101.149L142.607 100.943C142.652 100.93 142.692 100.901 142.718 100.862L143.141 100.235Z" fill="#FDB306"/>
<path d="M147.56 100.236C147.639 100.118 147.813 100.118 147.892 100.236L148.312 100.862C148.338 100.901 148.378 100.93 148.423 100.943L149.15 101.149C149.287 101.188 149.341 101.353 149.253 101.465L148.788 102.057C148.759 102.094 148.744 102.141 148.745 102.188L148.772 102.945C148.777 103.087 148.636 103.188 148.503 103.139L147.795 102.878C147.751 102.861 147.702 102.861 147.657 102.878L146.951 103.139C146.817 103.188 146.676 103.086 146.681 102.944L146.71 102.188C146.712 102.141 146.697 102.094 146.667 102.057L146.2 101.465C146.112 101.353 146.165 101.188 146.303 101.149L147.029 100.943C147.075 100.93 147.114 100.901 147.141 100.862L147.56 100.236Z" fill="#FDB306"/>
<path d="M151.982 100.235C152.062 100.117 152.235 100.117 152.314 100.235L152.734 100.862C152.761 100.901 152.8 100.93 152.846 100.943L153.572 101.149C153.709 101.188 153.763 101.353 153.674 101.465L153.207 102.057C153.178 102.094 153.163 102.141 153.164 102.188L153.193 102.944C153.199 103.086 153.058 103.188 152.924 103.139L152.218 102.878C152.173 102.861 152.124 102.861 152.079 102.878L151.369 103.139C151.236 103.188 151.095 103.086 151.1 102.944L151.129 102.188C151.131 102.141 151.116 102.094 151.086 102.057L150.621 101.465C150.533 101.353 150.587 101.188 150.724 101.149L151.448 100.943C151.494 100.93 151.533 100.901 151.559 100.862L151.982 100.235Z" fill="#FDB306"/>
<path d="M156.488 100.291C156.527 100.232 156.614 100.232 156.654 100.291L157.074 100.917C157.113 100.976 157.173 101.02 157.241 101.039L157.967 101.245C158.036 101.265 158.063 101.347 158.019 101.403L157.551 101.995C157.507 102.051 157.484 102.121 157.487 102.192L157.516 102.947C157.519 103.019 157.448 103.07 157.381 103.045L156.675 102.784C156.608 102.759 156.534 102.759 156.467 102.784L155.757 103.045C155.69 103.07 155.62 103.019 155.623 102.948L155.652 102.192C155.654 102.121 155.632 102.051 155.588 101.995L155.123 101.403C155.079 101.347 155.105 101.265 155.174 101.245L155.898 101.039C155.966 101.019 156.025 100.977 156.065 100.918L156.488 100.291Z" stroke="#D8E0F0" stroke-width="0.2"/>
<path d="M57.7908 13.8086V27.5128H59.3767V30.2587L62.1226 27.5128H90.1074V13.8086H57.7908Z" fill="white"/>
<path d="M57.7799 13.8086C57.8265 17.8504 57.8587 23.5426 57.8802 27.5128L57.7799 27.4126H59.4733V27.5164V30.2622L59.2728 30.1799L62.0079 27.4269L62.0473 27.3875L83.0905 27.341H90.0858L89.9247 27.4985L89.957 13.7942L90.0858 13.9267C82.0308 13.9267 65.8242 13.8444 57.7692 13.7942L57.7799 13.8086ZM57.7799 13.8086C65.8313 13.762 82.0452 13.6868 90.0966 13.6797H90.2255V13.8086L90.2577 27.5128V27.6739H90.0966C82.2922 27.7133 70.0056 27.6739 62.1117 27.6453L62.2048 27.6059L59.4482 30.341L59.2513 30.5379V30.2587V27.5128L59.3551 27.6202H57.7692H57.6689C57.6725 23.5855 57.7799 17.9005 57.7799 13.8086Z" fill="#263238"/>
<path d="M68.8994 20.6795C68.8994 21.4513 68.6705 22.2058 68.2417 22.8475C67.813 23.4892 67.2035 23.9894 66.4905 24.2847C65.7774 24.5801 64.9928 24.6573 64.2359 24.5068C63.4789 24.3562 62.7836 23.9845 62.2379 23.4388C61.6922 22.8931 61.3205 22.1978 61.17 21.4408C61.0194 20.6839 61.0967 19.8993 61.392 19.1862C61.6874 18.4732 62.1875 17.8638 62.8292 17.435C63.4709 17.0062 64.2254 16.7773 64.9972 16.7773C66.0321 16.7773 67.0246 17.1885 67.7564 17.9203C68.4882 18.6521 68.8994 19.6446 68.8994 20.6795Z" fill="#EBEBEB"/>
<path d="M65.0473 21.3446C65.7255 21.3446 66.2752 20.7948 66.2752 20.1166C66.2752 19.4384 65.7255 18.8887 65.0473 18.8887C64.3691 18.8887 63.8193 19.4384 63.8193 20.1166C63.8193 20.7948 64.3691 21.3446 65.0473 21.3446Z" fill="white"/>
<path d="M62.9281 23.5031V24.0078C63.287 24.2321 63.6799 24.3965 64.0916 24.4947C64.6112 24.6236 65.1515 24.647 65.6803 24.5633C66.2091 24.4797 66.7158 24.2908 67.1704 24.0078V23.5031C67.1821 23.2172 67.1359 22.9319 67.0346 22.6643C66.9333 22.3967 66.779 22.1523 66.5809 21.9459C66.3827 21.7395 66.1449 21.5752 65.8817 21.463C65.6185 21.3508 65.3353 21.293 65.0492 21.293C64.7631 21.293 64.4799 21.3508 64.2167 21.463C63.9535 21.5752 63.7157 21.7395 63.5176 21.9459C63.3194 22.1523 63.1651 22.3967 63.0638 22.6643C62.9625 22.9319 62.9163 23.2172 62.9281 23.5031Z" fill="white"/>
<path d="M86.2981 18.3086H71.6631V18.5306H86.2981V18.3086Z" fill="#EBEBEB"/>
<path d="M86.2981 19.8262H71.6631V20.0481H86.2981V19.8262Z" fill="#EBEBEB"/>
<path d="M86.2981 21.3438H71.6631V21.5657H86.2981V21.3438Z" fill="#EBEBEB"/>
<path d="M78.9162 22.8633H71.6631V23.0852H78.9162V22.8633Z" fill="#EBEBEB"/>
</svg>
