<svg width="20" height="20" viewBox="0 0 20 20" fill="none" xmlns="http://www.w3.org/2000/svg">
<g id="vuesax/outline/document-upload">
<g id="document-upload">
<path id="Vector" d="M7.50003 14.7917C7.15837 14.7917 6.87503 14.5084 6.87503 14.1667V10.6751L6.27503 11.2751C6.03337 11.5167 5.63337 11.5167 5.3917 11.2751C5.15003 11.0334 5.15003 10.6334 5.3917 10.3917L7.05837 8.72507C7.23337 8.55007 7.50837 8.49174 7.7417 8.59174C7.97503 8.68341 8.12503 8.91674 8.12503 9.16674V14.1667C8.12503 14.5084 7.8417 14.7917 7.50003 14.7917Z" fill="#7D8592"/>
<path id="Vector_2" d="M9.16666 11.4576C9.00832 11.4576 8.84999 11.3992 8.72499 11.2742L7.05833 9.60755C6.81666 9.36589 6.81666 8.96589 7.05833 8.72422C7.29999 8.48255 7.69999 8.48255 7.94166 8.72422L9.60832 10.3909C9.84999 10.6326 9.84999 11.0326 9.60832 11.2742C9.48332 11.3992 9.32499 11.4576 9.16666 11.4576Z" fill="#7D8592"/>
<path id="Vector_3" d="M12.5 18.9596H7.49996C2.97496 18.9596 1.04163 17.0263 1.04163 12.5013V7.5013C1.04163 2.9763 2.97496 1.04297 7.49996 1.04297H11.6666C12.0083 1.04297 12.2916 1.3263 12.2916 1.66797C12.2916 2.00964 12.0083 2.29297 11.6666 2.29297H7.49996C3.65829 2.29297 2.29163 3.65964 2.29163 7.5013V12.5013C2.29163 16.343 3.65829 17.7096 7.49996 17.7096H12.5C16.3416 17.7096 17.7083 16.343 17.7083 12.5013V8.33464C17.7083 7.99297 17.9916 7.70964 18.3333 7.70964C18.675 7.70964 18.9583 7.99297 18.9583 8.33464V12.5013C18.9583 17.0263 17.025 18.9596 12.5 18.9596Z" fill="#7D8592"/>
<path id="Vector_4" d="M18.3333 8.95841H15C12.15 8.95841 11.0416 7.85007 11.0416 5.00007V1.66674C11.0416 1.41674 11.1916 1.18341 11.425 1.09174C11.6583 0.991739 11.925 1.05007 12.1083 1.22507L18.775 7.89174C18.95 8.06674 19.0083 8.34174 18.9083 8.57507C18.8083 8.8084 18.5833 8.95841 18.3333 8.95841ZM12.2916 3.17507V5.00007C12.2916 7.15007 12.85 7.70841 15 7.70841H16.825L12.2916 3.17507Z" fill="#7D8592"/>
</g>
</g>
</svg>
