<svg width="24" height="24" viewBox="0 0 24 24" fill="none" xmlns="http://www.w3.org/2000/svg">
<path d="M13.2109 12.0084L14.9893 14.0409L17.3944 15.5822L17.8179 12.0253L17.3944 8.55322L14.9555 9.9082L13.2109 12.0084Z" fill="#00832D"/>
<path d="M2.84521 15.2434V18.2751C2.84521 18.9696 3.40414 19.5285 4.09857 19.5285H7.13032L7.757 17.242L7.14726 15.2434L5.06399 14.6167L2.84521 15.2434Z" fill="#0066DA"/>
<path d="M7.14726 4.47144L2.84521 8.75655L5.04705 9.38322L7.13032 8.75655L7.74006 6.79183L7.14726 4.47144Z" fill="#E94235"/>
<path d="M7.14726 8.75659H2.84521V15.2435H7.13032V8.75659H7.14726Z" fill="#2684FC"/>
<path d="M20.1214 6.28377L17.3775 8.53641V15.5823L20.1214 17.8349C20.5278 18.1567 21.1376 17.8688 21.1376 17.3438V6.77494C21.1545 6.24989 20.5448 5.94502 20.1214 6.28377ZM13.211 12.0085V15.2435H7.14746V19.5286H16.1411C16.8355 19.5286 17.3945 18.9697 17.3945 18.2753V15.5823L13.211 12.0085Z" fill="#00AC47"/>
<path d="M16.1411 4.47144H7.14746V8.75655H13.211V11.9915L17.3945 8.51942V5.72479C17.3945 5.03036 16.8355 4.47144 16.1411 4.47144Z" fill="#FFBA00"/>
</svg>
