<svg width="40" height="32" viewBox="0 0 40 32" fill="none" xmlns="http://www.w3.org/2000/svg">
<path d="M0 32V21.2941C0 17.2941 0.712545 13.6078 2.13764 10.2353C3.56273 6.86275 5.97746 3.45098 9.38185 0L15.5572 4.82353C13.5779 6.78432 12.0737 8.62746 11.0445 10.3529C10.0152 12.0784 9.34226 13.8431 9.02557 15.6471H16.6261V32H0ZM23.1577 32V21.2941C23.1577 17.2941 23.8703 13.6078 25.2954 10.2353C26.7204 6.86275 29.1352 3.45098 32.5396 0L38.715 4.82353C36.7357 6.78432 35.2314 8.62746 34.2022 10.3529C33.1729 12.0784 32.5 13.8431 32.1833 15.6471H39.7838V32H23.1577Z" fill="url(#paint0_linear_2405_30583)" fill-opacity="0.13"/>
<defs>
<linearGradient id="paint0_linear_2405_30583" x1="3.31531" y1="0.666669" x2="42.997" y2="18.9896" gradientUnits="userSpaceOnUse">
<stop stop-color="#00D1FF"/>
<stop offset="1" stop-color="#9B00FA"/>
</linearGradient>
</defs>
</svg>
