<svg width="32" height="32" viewBox="0 0 32 32" fill="none" xmlns="http://www.w3.org/2000/svg">
<rect width="32" height="32" rx="9.86667" transform="matrix(-1 0 0 1 32 0)" fill="#0A1629"/>
<mask id="mask0_528_10540" style="mask-type:luminance" maskUnits="userSpaceOnUse" x="4" y="4" width="24" height="24">
<path d="M4.39565 4.29065H27.7094V27.7092H4.39565V4.29065Z" fill="white"/>
</mask>
<g mask="url(#mask0_528_10540)">
<path d="M4.55847 22.3447C4.55839 23.2652 4.80744 24.1686 5.27921 24.959C5.75095 25.7494 6.42784 26.3974 7.23806 26.8343C8.04829 27.2711 8.96162 27.4806 9.88124 27.4404C10.8009 27.4002 11.6925 27.1119 12.4615 26.606C12.7803 26.3696 13.0848 26.1144 13.3732 25.8417C14.108 25.2222 15.1378 25.0077 16.1676 25.0077C17.0955 25.0077 18.0314 25.1552 18.7179 25.6781C19.0477 26.0604 19.4327 26.3912 19.8603 26.6596C19.8691 26.6637 19.8773 26.6691 19.8844 26.6757V26.6784C19.8919 26.6838 19.9 26.6883 19.9086 26.6918C19.9139 26.6972 19.9166 26.6972 19.9166 26.6972C20.7161 27.188 21.6361 27.447 22.5742 27.4454H22.6091C23.6549 27.445 24.6754 27.1233 25.5323 26.5238C26.3892 25.9242 27.0412 25.0758 27.4 24.0934C27.7588 23.1111 27.807 22.0422 27.5381 21.0315C27.2692 20.0208 26.6963 19.1171 25.8968 18.4429C25.6112 18.0517 25.4185 17.6004 25.3337 17.1235C25.3329 17.1055 25.3312 17.0876 25.3283 17.0698C25.2586 16.685 25.2253 16.2944 25.2291 15.9033C25.2291 14.8789 25.4356 13.8572 26.047 13.1304C26.3363 12.8289 26.6059 12.5091 26.8542 12.173C27.3544 11.4028 27.6374 10.5118 27.6735 9.59417C27.7095 8.67649 27.4972 7.76608 27.0589 6.95899C26.6206 6.15192 25.9727 5.4781 25.1833 5.00861C24.394 4.53912 23.4926 4.29137 22.5742 4.2915H22.5179C21.1746 4.30696 19.8917 4.85146 18.9473 5.80685C18.0029 6.76224 17.4734 8.05146 17.4736 9.39478V9.41892C17.4778 10.4068 17.7695 11.3722 18.313 12.1972C18.5499 12.5156 18.8051 12.82 19.0772 13.1089C19.6967 13.8437 19.9113 14.8708 19.9113 15.9033C19.9133 16.2335 19.8909 16.5633 19.8442 16.8902C19.7768 17.4886 19.5468 18.0571 19.1791 18.534C19.0665 18.6708 18.9458 18.8022 18.8252 18.9336C18.8091 18.9443 18.7957 18.9577 18.7823 18.9685C18.0984 19.5397 17.125 19.6899 16.1676 19.6899C16.055 19.6899 15.9396 19.6872 15.827 19.6818C14.9233 19.6389 14.0437 19.4163 13.3974 18.8693C13.0948 18.581 12.7741 18.3123 12.4373 18.0647C11.8047 17.654 11.0889 17.3886 10.3415 17.2875C9.594 17.1865 8.83341 17.2522 8.11442 17.4801C8.10855 17.4817 8.10308 17.4844 8.09833 17.4882C7.06981 17.8182 6.1727 18.4664 5.53646 19.3392C4.90023 20.2121 4.55775 21.2646 4.55847 22.3447Z" fill="#00DAB9"/>
<path d="M4.55831 9.39401C4.55823 10.3917 4.85062 11.3676 5.39932 12.2008C5.94803 13.0341 6.72897 13.6882 7.64555 14.0823C8.56213 14.4764 9.57413 14.5931 10.5564 14.4181C11.5386 14.243 12.448 13.7839 13.172 13.0974L13.18 13.0894C13.6701 12.6235 14.0622 12.0645 14.3334 11.4452C14.6046 10.8258 14.7495 10.1586 14.7596 9.4825V9.47258C14.7618 9.44673 14.7627 9.42077 14.7622 9.39481C14.7623 8.50591 14.5301 7.63239 14.0888 6.8608C13.6474 6.0892 13.0122 5.44628 12.2459 4.99569C11.4797 4.54511 10.609 4.30249 9.7202 4.29187C8.83135 4.28124 7.95515 4.50298 7.17837 4.93512C7.1596 4.94853 7.15152 4.9539 7.15152 4.9539C6.26079 5.45588 5.54212 6.21475 5.08932 7.13145C5.08669 7.13738 5.08307 7.14282 5.07856 7.14754C4.73557 7.84669 4.55759 8.61524 4.55831 9.39401Z" fill="#00DAB9"/>
<g style="mix-blend-mode:screen" opacity="0.6">
<path d="M21.9684 4.36305H22.1615C22.2876 4.35501 22.4699 4.3711 22.7006 4.38451C22.976 4.41273 23.2492 4.45932 23.5185 4.52396C23.8635 4.60798 24.1994 4.72564 24.5214 4.87526C25.1426 5.16152 25.6977 5.57332 26.1519 6.0847C26.606 6.59609 26.9494 7.19598 27.1602 7.84659C27.3185 8.326 27.4 8.8274 27.4016 9.33226C27.4124 9.83631 27.3464 10.3391 27.2058 10.8233C27.0705 11.2905 26.8633 11.7338 26.5917 12.1373C26.3262 12.5208 25.9561 12.8507 25.6907 13.2744C25.454 13.6614 25.2938 14.0901 25.2187 14.5374C25.1511 14.9036 25.1188 15.2754 25.1221 15.6477C25.1204 15.9322 25.141 16.2165 25.1838 16.4978C25.209 16.6778 25.2458 16.8561 25.2938 17.0314C25.3206 17.1199 25.3394 17.1762 25.3474 17.2031C25.3447 17.1897 25.3394 17.1628 25.334 17.1226C25.3333 17.1046 25.3315 17.0867 25.3286 17.069C25.2589 16.6841 25.2257 16.2935 25.2294 15.9024C25.2294 14.878 25.4359 13.8563 26.0473 13.1296C26.3366 12.828 26.6062 12.5082 26.8545 12.1722C27.3547 11.4019 27.6378 10.511 27.6738 9.59332C27.7098 8.67562 27.4975 7.7652 27.0592 6.95814C26.621 6.15106 25.973 5.47724 25.1837 5.00775C24.3943 4.53826 23.4929 4.29052 22.5745 4.29065H22.5182C22.3977 4.29856 22.2778 4.31289 22.1589 4.33356C22.0355 4.35233 21.9684 4.36305 21.9684 4.36305Z" fill="white"/>
</g>
<g style="mix-blend-mode:multiply" opacity="0.25">
<path d="M19.8443 16.9009L19.8711 16.8124C19.8886 16.7547 19.9154 16.6703 19.9403 16.5595C20.0134 16.2539 20.0569 15.9419 20.0704 15.6279C20.0943 15.176 20.0509 14.723 19.9417 14.2838C19.8804 14.0286 19.7905 13.7811 19.6735 13.5461C19.5456 13.3082 19.3944 13.0836 19.2219 12.8757C19.0521 12.6721 18.866 12.4879 18.7244 12.3106C18.5775 12.1307 18.4418 11.9419 18.3182 11.7453C18.2035 11.558 18.0989 11.3646 18.0049 11.1661C17.9197 10.9783 17.844 10.7906 17.7818 10.6166C17.683 10.3305 17.6032 10.0382 17.5431 9.74155C17.4989 9.52379 17.4788 9.39587 17.4788 9.39587C17.4583 9.51256 17.4442 9.63028 17.4367 9.74852C17.4149 10.0637 17.4305 10.3804 17.4831 10.6919C17.5558 11.1399 17.6988 11.5736 17.9068 11.977C18.0236 12.2072 18.1612 12.4262 18.3179 12.6314C18.4847 12.8486 18.6571 13.0266 18.8086 13.2173C18.9639 13.3948 19.101 13.5874 19.2179 13.7923C19.3266 13.9926 19.4178 14.2019 19.4903 14.4179C19.622 14.8154 19.7137 15.2251 19.7644 15.6408C19.8108 16.0114 19.8277 16.3273 19.8355 16.5499L19.8443 16.9009Z" fill="black"/>
</g>
<g style="mix-blend-mode:screen" opacity="0.6">
<path d="M8.0984 17.4874C8.1279 17.4847 8.25662 17.4633 8.45506 17.4392C8.57038 17.4257 8.70715 17.415 8.86537 17.407C9.0404 17.3966 9.21587 17.3957 9.39098 17.4043C9.48752 17.4097 9.60552 17.4123 9.69133 17.4204C9.7986 17.4311 9.90587 17.4392 10.0105 17.4526C10.236 17.4849 10.4598 17.5288 10.6809 17.584C10.9149 17.643 11.1451 17.7164 11.3701 17.8039C11.6009 17.8931 11.8242 18.0007 12.0378 18.1257C12.2519 18.2468 12.4548 18.3868 12.6439 18.544C12.8316 18.7049 13.0274 18.8739 13.2312 19.0348C13.4311 19.1936 13.6511 19.3252 13.8855 19.4263C14.0909 19.5149 14.3047 19.5823 14.5238 19.6274C14.705 19.6657 14.8887 19.6908 15.0735 19.7025C15.2154 19.7127 15.3579 19.7136 15.4999 19.7052C15.7332 19.6972 15.8646 19.6891 15.8646 19.6891L15.8271 19.6811C14.9233 19.6382 14.0437 19.4156 13.3975 18.8685C13.0948 18.5802 12.7742 18.3115 12.4374 18.064C11.8048 17.6533 11.089 17.3879 10.3415 17.2868C9.59406 17.1857 8.83348 17.2515 8.11449 17.4794C8.10861 17.4809 8.10314 17.4837 8.0984 17.4874Z" fill="white"/>
</g>
<g style="mix-blend-mode:multiply" opacity="0.25">
<path d="M19.9186 26.6968C19.9186 26.6968 19.8411 26.6453 19.704 26.5397C19.5067 26.3865 19.3194 26.2207 19.1436 26.0433C19.0266 25.9307 18.9213 25.7936 18.7719 25.6499C18.6105 25.5012 18.4292 25.3756 18.2331 25.2769C17.7614 25.0533 17.2545 24.9132 16.7349 24.8631C16.1209 24.7873 15.4988 24.8094 14.8917 24.9285C14.7244 24.9611 14.559 25.0027 14.3961 25.0532C14.2283 25.1061 14.0652 25.1733 13.9089 25.2541C13.5951 25.4223 13.2987 25.6211 13.0239 25.8475C12.7474 26.0642 12.479 26.2854 12.1942 26.4686C12.0535 26.5608 11.906 26.6422 11.753 26.7124C11.5972 26.7865 11.4372 26.8518 11.2741 26.9081C10.6101 27.1384 9.90412 27.2224 9.20462 27.1543L9.07375 27.1409L8.94476 27.1219C8.85331 27.1079 8.75704 27.095 8.67874 27.0757C8.50888 27.041 8.34098 26.9974 8.17565 26.9451C7.84306 26.8389 7.52324 26.6961 7.22203 26.5196C6.6475 26.191 6.14495 25.7501 5.74436 25.2232C5.34376 24.6963 5.05331 24.0942 4.89029 23.4528C4.75027 22.8909 4.71096 22.3086 4.77417 21.733C4.82737 21.241 4.94987 20.7591 5.13808 20.3015C5.28259 19.9443 5.46712 19.6047 5.6881 19.2891C5.77606 19.1551 5.86804 19.0435 5.94581 18.9448C6.00944 18.8594 6.0785 18.7783 6.15257 18.7018L6.33412 18.5063L6.13219 18.6812C6.04932 18.7496 5.9711 18.8234 5.89807 18.9022C5.79298 19.0032 5.69504 19.1115 5.60496 19.2261C5.352 19.5313 5.13446 19.8642 4.95652 20.2183C4.43273 21.2424 4.27202 22.4139 4.50063 23.5413C4.6426 24.2269 4.92303 24.8763 5.32472 25.4498C5.98311 26.3868 6.92581 27.0869 8.01314 27.4464C8.2001 27.5075 8.39026 27.5584 8.58273 27.5989C8.6833 27.6233 8.77233 27.6351 8.86404 27.6499L9.0102 27.6727L9.15581 27.688C9.93158 27.7569 10.7131 27.6574 11.4468 27.3962C11.8092 27.2713 12.1534 27.0989 12.4704 26.8835C12.7828 26.6705 13.0545 26.4335 13.32 26.2146C13.5683 26.0008 13.8349 25.8091 14.1167 25.6418C14.2512 25.5645 14.3924 25.4995 14.5385 25.4474C14.6826 25.3969 14.8291 25.3537 14.9775 25.3179C15.5437 25.1841 16.1265 25.1338 16.7072 25.1685C17.1999 25.1891 17.6865 25.2863 18.1492 25.4568C18.3379 25.5334 18.5149 25.636 18.6753 25.7614C18.8185 25.8776 18.9462 26.0162 19.0725 26.1192C19.2648 26.2841 19.4705 26.4327 19.6874 26.5635C19.836 26.6542 19.9186 26.6968 19.9186 26.6968Z" fill="black"/>
</g>
<g style="mix-blend-mode:multiply" opacity="0.25">
<path d="M5.12901 7.06885L5.04453 7.20696C4.96593 7.33879 4.89433 7.47467 4.83 7.61404C4.59701 8.1189 4.45477 8.66082 4.40977 9.21502L4.40092 9.34642L4.39878 9.37967C4.39808 9.3886 4.39808 9.39756 4.39878 9.40649V9.42258V9.48801C4.40039 9.57563 4.402 9.66501 4.4036 9.75619C4.40521 9.84736 4.40752 9.93961 4.41058 10.0329C4.41728 10.1276 4.43954 10.2287 4.45375 10.3279C4.51356 10.749 4.62983 11.16 4.79942 11.55C4.88497 11.7568 4.98712 11.9563 5.10487 12.1467C5.21731 12.347 5.34869 12.5361 5.49721 12.7114L5.71898 12.9809C5.79809 13.0665 5.88578 13.1445 5.96919 13.2268C6.05259 13.3092 6.13652 13.392 6.22609 13.4682L6.50687 13.6827C6.88547 13.9593 7.29832 14.1856 7.73509 14.3561C7.9489 14.4394 8.16792 14.5085 8.39077 14.5631C8.6104 14.6195 8.8354 14.6398 9.05154 14.6779C9.2701 14.7004 9.48786 14.6996 9.69864 14.7047C9.90969 14.6991 10.1151 14.6653 10.3154 14.6471C10.687 14.5911 11.0503 14.4894 11.397 14.3443C11.6924 14.2362 11.9738 14.0928 12.235 13.9174C12.4364 13.7861 12.6268 13.6385 12.8043 13.4762C12.918 13.3734 13.0255 13.2639 13.1261 13.1483L13.2334 13.0255C12.6664 13.4999 12.0063 13.8501 11.2956 14.0536C11.1354 14.1082 10.9706 14.1483 10.8032 14.1732C10.6266 14.2075 10.4483 14.233 10.269 14.2494C10.084 14.2523 9.8936 14.2714 9.70159 14.2628C9.50904 14.2403 9.31113 14.2395 9.11322 14.2092C8.91746 14.1646 8.71472 14.1394 8.51761 14.0794L8.22263 13.982C8.12131 13.9551 8.02257 13.9192 7.92764 13.8748C7.53455 13.7146 7.16378 13.5045 6.82438 13.2496L6.56694 13.06C6.48649 12.9925 6.41086 12.916 6.33229 12.8455C6.25372 12.775 6.1746 12.7031 6.1022 12.6267L5.89866 12.3853C5.76296 12.2284 5.63926 12.0615 5.52858 11.886C5.41426 11.7179 5.31389 11.5408 5.2285 11.3564C5.14032 11.1803 5.06513 10.9979 5.0035 10.8109C4.93654 10.6365 4.88505 10.4566 4.84957 10.2732C4.83 10.1839 4.80264 10.1002 4.78977 10.0091C4.7769 9.91789 4.7702 9.82403 4.76081 9.73393C4.75142 9.64382 4.74043 9.55506 4.73051 9.4679L4.723 9.403L4.72112 9.38665C4.72112 9.40274 4.72112 9.38155 4.72112 9.38155V9.35044L4.71736 9.22682C4.71136 8.69434 4.78317 8.16382 4.93056 7.65212C4.98554 7.45407 5.05177 7.2593 5.12901 7.06885Z" fill="black"/>
</g>
<g style="mix-blend-mode:screen" opacity="0.6">
<path d="M7.15226 4.9531C7.15226 4.9531 7.31584 4.89678 7.59742 4.78951C7.73151 4.73319 7.91386 4.69833 8.10963 4.64202C8.20885 4.62056 8.31612 4.59911 8.42875 4.57766C8.54138 4.56157 8.66206 4.5428 8.78542 4.52671C8.90878 4.51866 9.04018 4.50793 9.17427 4.49989C9.30835 4.50257 9.44512 4.49184 9.58725 4.49989C9.88369 4.51276 10.1786 4.54862 10.4695 4.60715C10.6197 4.63129 10.7699 4.67956 10.9227 4.7171C11.0702 4.77074 11.2258 4.81096 11.3733 4.87532C11.6755 4.99138 11.9657 5.13689 12.2395 5.30976C12.3709 5.40094 12.5184 5.48408 12.6364 5.5833L12.8241 5.73079L13.0118 5.89974C13.6594 6.49667 14.1424 7.25028 14.4143 8.08801C14.5429 8.47461 14.63 8.87373 14.6745 9.27869C14.6905 9.42619 14.7039 9.54686 14.7066 9.62731C14.7093 9.70777 14.7147 9.75067 14.7147 9.75067C14.7147 9.75067 14.7227 9.70777 14.7361 9.62731C14.7442 9.58977 14.7495 9.53882 14.7603 9.4825V9.47258C14.7625 9.44673 14.7634 9.42077 14.7629 9.39481C14.763 8.50591 14.5308 7.63239 14.0895 6.8608C13.6481 6.0892 13.0129 5.44628 12.2466 4.99569C11.4804 4.54511 10.6098 4.30249 9.72091 4.29187C8.83205 4.28124 7.95589 4.50298 7.17908 4.93512C7.15977 4.94773 7.15226 4.9531 7.15226 4.9531Z" fill="white"/>
</g>
</g>
</svg>
