<svg width="24" height="24" viewBox="0 0 24 24" fill="none" xmlns="http://www.w3.org/2000/svg">
<rect width="24" height="24" rx="8" fill="#F4F9FD"/>
<mask id="path-2-inside-1_909_12208" fill="white">
<path d="M15.4375 10.1242C14.878 10.124 14.3271 10.2624 13.8341 10.527C13.7891 10.4085 13.7092 10.3066 13.6048 10.2346C13.5005 10.1626 13.3767 10.1241 13.25 10.1242H10.75C10.6679 10.1241 10.5866 10.1403 10.5108 10.1717C10.4349 10.2031 10.366 10.2491 10.308 10.3071C10.2499 10.3652 10.2039 10.4341 10.1725 10.51C10.1411 10.5858 10.125 10.6671 10.125 10.7492V18.2492C10.125 18.3313 10.1411 18.4126 10.1725 18.4884C10.2039 18.5643 10.2499 18.6332 10.308 18.6912C10.366 18.7493 10.4349 18.7953 10.5108 18.8267C10.5866 18.8581 10.6679 18.8742 10.75 18.8742H13.25C13.3321 18.8742 13.4134 18.8581 13.4892 18.8267C13.5651 18.7953 13.634 18.7493 13.6921 18.6912C13.7501 18.6332 13.7961 18.5643 13.8275 18.4884C13.8589 18.4126 13.8751 18.3313 13.875 18.2492V14.8117C13.875 14.6459 13.9409 14.487 14.0581 14.3698C14.1753 14.2525 14.3343 14.1867 14.5 14.1867C14.6658 14.1867 14.8247 14.2525 14.942 14.3698C15.0592 14.487 15.125 14.6459 15.125 14.8117V18.2492C15.125 18.3313 15.1411 18.4126 15.1725 18.4884C15.2039 18.5643 15.2499 18.6332 15.308 18.6912C15.366 18.7493 15.4349 18.7953 15.5108 18.8267C15.5866 18.8581 15.6679 18.8742 15.75 18.8742H18.25C18.3321 18.8742 18.4134 18.8581 18.4892 18.8267C18.5651 18.7953 18.634 18.7493 18.6921 18.6912C18.7501 18.6332 18.7961 18.5643 18.8275 18.4884C18.8589 18.4126 18.8751 18.3313 18.875 18.2492V13.5617C18.8739 12.6504 18.5114 11.7767 17.8669 11.1323C17.2225 10.4879 16.3488 10.1253 15.4375 10.1242ZM17.625 17.6242H16.375V14.8117C16.375 14.3144 16.1775 13.8375 15.8258 13.4859C15.4742 13.1342 14.9973 12.9367 14.5 12.9367C14.0027 12.9367 13.5258 13.1342 13.1742 13.4859C12.8226 13.8375 12.625 14.3144 12.625 14.8117V17.6242H11.375V11.3742H12.625V11.8137C12.6251 11.9432 12.6654 12.0694 12.7403 12.1751C12.8152 12.2807 12.9211 12.3604 13.0433 12.4033C13.1655 12.4462 13.298 12.4501 13.4225 12.4144C13.547 12.3788 13.6573 12.3053 13.7383 12.2043C14.0188 11.848 14.4035 11.5883 14.8388 11.4613C15.274 11.3343 15.738 11.3464 16.1661 11.4959C16.5941 11.6454 16.9648 11.9248 17.2264 12.2952C17.4879 12.6655 17.6273 13.1083 17.625 13.5617V17.6242ZM8.87501 10.1242H6.37501C6.29292 10.1241 6.21163 10.1403 6.13578 10.1717C6.05993 10.2031 5.99101 10.2491 5.93297 10.3071C5.87492 10.3652 5.82888 10.4341 5.79749 10.51C5.7661 10.5858 5.74997 10.6671 5.75001 10.7492V18.2492C5.74996 18.3313 5.7661 18.4126 5.79749 18.4884C5.82888 18.5643 5.87492 18.6332 5.93296 18.6912C5.99101 18.7493 6.05993 18.7953 6.13578 18.8267C6.21163 18.8581 6.29292 18.8742 6.37501 18.8742H8.87501C8.9571 18.8742 9.0384 18.8581 9.11425 18.8267C9.1901 18.7953 9.25901 18.7493 9.31706 18.6912C9.37511 18.6332 9.42114 18.5643 9.45253 18.4884C9.48393 18.4126 9.50006 18.3313 9.50001 18.2492V10.7492C9.50006 10.6671 9.48393 10.5858 9.45253 10.51C9.42114 10.4341 9.3751 10.3652 9.31706 10.3071C9.25901 10.2491 9.19009 10.2031 9.11424 10.1717C9.0384 10.1403 8.9571 10.1241 8.87501 10.1242ZM8.25001 17.6242H7.00001V11.3742H8.25001V17.6242ZM7.63417 5.46357C7.36064 5.4472 7.08665 5.48663 6.82884 5.57947C6.57104 5.67232 6.33481 5.81663 6.13452 6.00363C5.93424 6.19063 5.77408 6.41642 5.6638 6.66726C5.55351 6.9181 5.4954 7.18875 5.493 7.46275C5.49059 7.73676 5.54395 8.00839 5.64982 8.26112C5.75568 8.51386 5.91185 8.74242 6.10882 8.93291C6.3058 9.1234 6.53946 9.27183 6.79559 9.36918C7.05173 9.46653 7.32499 9.51077 7.59876 9.4992H7.61646C7.89071 9.51549 8.1654 9.47569 8.42375 9.38223C8.68209 9.28877 8.91867 9.14362 9.11903 8.95564C9.31938 8.76766 9.4793 8.5408 9.58902 8.28893C9.69873 8.03706 9.75594 7.76546 9.75715 7.49073C9.75835 7.216 9.70353 6.94392 9.59602 6.69109C9.48852 6.43827 9.3306 6.21002 9.1319 6.02029C8.9332 5.83056 8.69791 5.68334 8.44039 5.58762C8.18287 5.4919 7.90854 5.44969 7.63416 5.46357H7.63417ZM7.61647 8.2492H7.59876C7.49068 8.26232 7.38104 8.25218 7.27719 8.21946C7.17335 8.18674 7.0777 8.1322 6.99666 8.05949C6.91563 7.98677 6.85107 7.89757 6.80733 7.79787C6.76359 7.69816 6.74168 7.59026 6.74306 7.48139C6.74306 7.01508 7.09279 6.71356 7.63417 6.71356C7.74336 6.69901 7.85439 6.70802 7.9598 6.73999C8.06521 6.77196 8.16255 6.82615 8.24525 6.89891C8.32796 6.97167 8.39411 7.0613 8.43925 7.16178C8.4844 7.26225 8.50749 7.37124 8.50697 7.48139C8.50697 7.9477 8.15724 8.2492 7.61647 8.2492Z"/>
</mask>
<path d="M15.4375 10.1242C14.878 10.124 14.3271 10.2624 13.8341 10.527C13.7891 10.4085 13.7092 10.3066 13.6048 10.2346C13.5005 10.1626 13.3767 10.1241 13.25 10.1242H10.75C10.6679 10.1241 10.5866 10.1403 10.5108 10.1717C10.4349 10.2031 10.366 10.2491 10.308 10.3071C10.2499 10.3652 10.2039 10.4341 10.1725 10.51C10.1411 10.5858 10.125 10.6671 10.125 10.7492V18.2492C10.125 18.3313 10.1411 18.4126 10.1725 18.4884C10.2039 18.5643 10.2499 18.6332 10.308 18.6912C10.366 18.7493 10.4349 18.7953 10.5108 18.8267C10.5866 18.8581 10.6679 18.8742 10.75 18.8742H13.25C13.3321 18.8742 13.4134 18.8581 13.4892 18.8267C13.5651 18.7953 13.634 18.7493 13.6921 18.6912C13.7501 18.6332 13.7961 18.5643 13.8275 18.4884C13.8589 18.4126 13.8751 18.3313 13.875 18.2492V14.8117C13.875 14.6459 13.9409 14.487 14.0581 14.3698C14.1753 14.2525 14.3343 14.1867 14.5 14.1867C14.6658 14.1867 14.8247 14.2525 14.942 14.3698C15.0592 14.487 15.125 14.6459 15.125 14.8117V18.2492C15.125 18.3313 15.1411 18.4126 15.1725 18.4884C15.2039 18.5643 15.2499 18.6332 15.308 18.6912C15.366 18.7493 15.4349 18.7953 15.5108 18.8267C15.5866 18.8581 15.6679 18.8742 15.75 18.8742H18.25C18.3321 18.8742 18.4134 18.8581 18.4892 18.8267C18.5651 18.7953 18.634 18.7493 18.6921 18.6912C18.7501 18.6332 18.7961 18.5643 18.8275 18.4884C18.8589 18.4126 18.8751 18.3313 18.875 18.2492V13.5617C18.8739 12.6504 18.5114 11.7767 17.8669 11.1323C17.2225 10.4879 16.3488 10.1253 15.4375 10.1242ZM17.625 17.6242H16.375V14.8117C16.375 14.3144 16.1775 13.8375 15.8258 13.4859C15.4742 13.1342 14.9973 12.9367 14.5 12.9367C14.0027 12.9367 13.5258 13.1342 13.1742 13.4859C12.8226 13.8375 12.625 14.3144 12.625 14.8117V17.6242H11.375V11.3742H12.625V11.8137C12.6251 11.9432 12.6654 12.0694 12.7403 12.1751C12.8152 12.2807 12.9211 12.3604 13.0433 12.4033C13.1655 12.4462 13.298 12.4501 13.4225 12.4144C13.547 12.3788 13.6573 12.3053 13.7383 12.2043C14.0188 11.848 14.4035 11.5883 14.8388 11.4613C15.274 11.3343 15.738 11.3464 16.1661 11.4959C16.5941 11.6454 16.9648 11.9248 17.2264 12.2952C17.4879 12.6655 17.6273 13.1083 17.625 13.5617V17.6242ZM8.87501 10.1242H6.37501C6.29292 10.1241 6.21163 10.1403 6.13578 10.1717C6.05993 10.2031 5.99101 10.2491 5.93297 10.3071C5.87492 10.3652 5.82888 10.4341 5.79749 10.51C5.7661 10.5858 5.74997 10.6671 5.75001 10.7492V18.2492C5.74996 18.3313 5.7661 18.4126 5.79749 18.4884C5.82888 18.5643 5.87492 18.6332 5.93296 18.6912C5.99101 18.7493 6.05993 18.7953 6.13578 18.8267C6.21163 18.8581 6.29292 18.8742 6.37501 18.8742H8.87501C8.9571 18.8742 9.0384 18.8581 9.11425 18.8267C9.1901 18.7953 9.25901 18.7493 9.31706 18.6912C9.37511 18.6332 9.42114 18.5643 9.45253 18.4884C9.48393 18.4126 9.50006 18.3313 9.50001 18.2492V10.7492C9.50006 10.6671 9.48393 10.5858 9.45253 10.51C9.42114 10.4341 9.3751 10.3652 9.31706 10.3071C9.25901 10.2491 9.19009 10.2031 9.11424 10.1717C9.0384 10.1403 8.9571 10.1241 8.87501 10.1242ZM8.25001 17.6242H7.00001V11.3742H8.25001V17.6242ZM7.63417 5.46357C7.36064 5.4472 7.08665 5.48663 6.82884 5.57947C6.57104 5.67232 6.33481 5.81663 6.13452 6.00363C5.93424 6.19063 5.77408 6.41642 5.6638 6.66726C5.55351 6.9181 5.4954 7.18875 5.493 7.46275C5.49059 7.73676 5.54395 8.00839 5.64982 8.26112C5.75568 8.51386 5.91185 8.74242 6.10882 8.93291C6.3058 9.1234 6.53946 9.27183 6.79559 9.36918C7.05173 9.46653 7.32499 9.51077 7.59876 9.4992H7.61646C7.89071 9.51549 8.1654 9.47569 8.42375 9.38223C8.68209 9.28877 8.91867 9.14362 9.11903 8.95564C9.31938 8.76766 9.4793 8.5408 9.58902 8.28893C9.69873 8.03706 9.75594 7.76546 9.75715 7.49073C9.75835 7.216 9.70353 6.94392 9.59602 6.69109C9.48852 6.43827 9.3306 6.21002 9.1319 6.02029C8.9332 5.83056 8.69791 5.68334 8.44039 5.58762C8.18287 5.4919 7.90854 5.44969 7.63416 5.46357H7.63417ZM7.61647 8.2492H7.59876C7.49068 8.26232 7.38104 8.25218 7.27719 8.21946C7.17335 8.18674 7.0777 8.1322 6.99666 8.05949C6.91563 7.98677 6.85107 7.89757 6.80733 7.79787C6.76359 7.69816 6.74168 7.59026 6.74306 7.48139C6.74306 7.01508 7.09279 6.71356 7.63417 6.71356C7.74336 6.69901 7.85439 6.70802 7.9598 6.73999C8.06521 6.77196 8.16255 6.82615 8.24525 6.89891C8.32796 6.97167 8.39411 7.0613 8.43925 7.16178C8.4844 7.26225 8.50749 7.37124 8.50697 7.48139C8.50697 7.9477 8.15724 8.2492 7.61647 8.2492Z" fill="#0A1629" stroke="#F4F9FD" stroke-width="0.2" mask="url(#path-2-inside-1_909_12208)"/>
</svg>
