<svg width="20" height="20" viewBox="0 0 20 20" fill="none" xmlns="http://www.w3.org/2000/svg">
<path d="M7.29997 18.5581H7.4083C11.1083 18.5581 12.8916 17.0997 13.2 13.8331C13.2333 13.4914 12.9833 13.1831 12.6333 13.1497C12.3 13.1164 11.9833 13.3747 11.95 13.7164C11.7083 16.3331 10.475 17.3081 7.39997 17.3081H7.29163C3.89997 17.3081 2.69997 16.1081 2.69997 12.7164V7.28307C2.69997 3.89141 3.89997 2.69141 7.29163 2.69141H7.39997C10.4916 2.69141 11.725 3.68307 11.95 6.34974C11.9916 6.69141 12.2833 6.94974 12.6333 6.91641C12.9833 6.89141 13.2333 6.58307 13.2083 6.24141C12.925 2.92474 11.1333 1.44141 7.4083 1.44141H7.29997C3.2083 1.44141 1.4583 3.19141 1.4583 7.28307V12.7164C1.4583 16.8081 3.2083 18.5581 7.29997 18.5581Z" fill="#CB0606"/>
<path d="M7.5 10.625H16.9833C17.325 10.625 17.6083 10.3417 17.6083 10C17.6083 9.65833 17.325 9.375 16.9833 9.375H7.5C7.15834 9.375 6.875 9.65833 6.875 10C6.875 10.3417 7.15834 10.625 7.5 10.625Z" fill="#CB0606"/>
<path d="M15.125 13.4172C15.2833 13.4172 15.4416 13.3589 15.5666 13.2339L18.3583 10.4422C18.6 10.2005 18.6 9.80052 18.3583 9.55885L15.5666 6.76719C15.325 6.52552 14.925 6.52552 14.6833 6.76719C14.4416 7.00885 14.4416 7.40885 14.6833 7.65052L17.0333 10.0005L14.6833 12.3505C14.4416 12.5922 14.4416 12.9922 14.6833 13.2339C14.8 13.3589 14.9666 13.4172 15.125 13.4172Z" fill="#CB0606"/>
</svg>
