<svg width="162" height="40" viewBox="0 0 162 40" fill="none" xmlns="http://www.w3.org/2000/svg">
<rect width="40" height="40" rx="11.8519" fill="#0A1629"/>
<g filter="url(#filter0_d_1661_27095)">
<path d="M16.2549 12.9269C16.2549 10.5979 14.3668 8.70984 12.0378 8.70984C9.70883 8.70984 7.8208 10.5979 7.8208 12.9269V28.7728C7.8208 31.1018 9.70883 32.9898 12.0378 32.9898C14.3668 32.9898 16.2549 31.1018 16.2549 28.7728V12.9269Z" fill="#EDEDED"/>
</g>
<g filter="url(#filter1_d_1661_27095)">
<path d="M32.2963 13.9884C32.2963 11.0902 30.4059 8.74072 28.074 8.74072C25.7422 8.74072 23.8518 11.0902 23.8518 13.9884V27.7153C23.8518 30.6135 25.7422 32.9629 28.074 32.9629C30.4059 32.9629 32.2963 30.6135 32.2963 27.7153V13.9884Z" fill="#EDEDED"/>
</g>
<path d="M17.0062 23.7848C18.6531 25.4316 21.3232 25.4316 22.97 23.7848C24.6169 22.1379 24.6169 19.4678 22.97 17.821L15.0939 9.94484C13.447 8.29798 10.777 8.29798 9.1301 9.94484C7.48324 11.5917 7.48324 14.2618 9.1301 15.9086L17.0062 23.7848Z" fill="white"/>
<path d="M30.893 15.9091C32.5399 14.2622 32.5399 11.5921 30.893 9.94528C29.2462 8.29842 26.5761 8.29842 24.9292 9.94527L17.0531 17.8214C15.4063 19.4683 15.4063 22.1383 17.0531 23.7852C18.7 25.432 21.3701 25.432 23.0169 23.7852L30.893 15.9091Z" fill="url(#paint0_linear_1661_27095)"/>
<path fill-rule="evenodd" clip-rule="evenodd" d="M30.7883 10.0501C29.1993 8.46107 26.623 8.46107 25.034 10.0501L17.1579 17.9262C15.5689 19.5152 15.5689 22.0915 17.1579 23.6805C18.7469 25.2695 21.3232 25.2695 22.9122 23.6805L30.7883 15.8043C32.3773 14.2153 32.3773 11.6391 30.7883 10.0501ZM24.8245 9.84056C26.5292 8.13585 29.2931 8.13585 30.9978 9.84056C32.7025 11.5453 32.7025 14.3092 30.9978 16.0139L23.1217 23.89C21.417 25.5947 18.6531 25.5947 16.9484 23.89C15.2437 22.1853 15.2436 19.4214 16.9484 17.7167L24.8245 9.84056Z" fill="white"/>
<path d="M50.73 21.5V3.3H52.862L61.026 17.054H59.882L67.942 3.3H70.074L70.1 21.5H67.604L67.578 7.226H68.176L61 19.29H59.804L52.576 7.226H53.226V21.5H50.73ZM81.334 21.656C79.8607 21.656 78.5607 21.3527 77.434 20.746C76.3247 20.1393 75.458 19.3073 74.834 18.25C74.2274 17.1927 73.924 15.9793 73.924 14.61C73.924 13.2407 74.2187 12.0273 74.808 10.97C75.4147 9.91267 76.238 9.08933 77.278 8.5C78.3354 7.89333 79.5227 7.59 80.84 7.59C82.1747 7.59 83.3534 7.88467 84.376 8.474C85.3987 9.06333 86.196 9.89533 86.768 10.97C87.3574 12.0273 87.652 13.2667 87.652 14.688C87.652 14.792 87.6434 14.9133 87.626 15.052C87.626 15.1907 87.6174 15.3207 87.6 15.442H75.874V13.648H86.3L85.286 14.272C85.3034 13.388 85.1214 12.5993 84.74 11.906C84.3587 11.2127 83.83 10.6753 83.154 10.294C82.4954 9.89533 81.724 9.696 80.84 9.696C79.9734 9.696 79.202 9.89533 78.526 10.294C77.85 10.6753 77.3214 11.2213 76.94 11.932C76.5587 12.6253 76.368 13.4227 76.368 14.324V14.74C76.368 15.6587 76.576 16.482 76.992 17.21C77.4254 17.9207 78.0234 18.4753 78.786 18.874C79.5487 19.2727 80.424 19.472 81.412 19.472C82.2267 19.472 82.9634 19.3333 83.622 19.056C84.298 18.7787 84.8874 18.3627 85.39 17.808L86.768 19.42C86.144 20.148 85.364 20.7027 84.428 21.084C83.5094 21.4653 82.478 21.656 81.334 21.656ZM97.254 21.656C95.7806 21.656 94.4806 21.3527 93.354 20.746C92.2446 20.1393 91.378 19.3073 90.754 18.25C90.1473 17.1927 89.844 15.9793 89.844 14.61C89.844 13.2407 90.1386 12.0273 90.728 10.97C91.3346 9.91267 92.158 9.08933 93.198 8.5C94.2553 7.89333 95.4426 7.59 96.76 7.59C98.0946 7.59 99.2733 7.88467 100.296 8.474C101.319 9.06333 102.116 9.89533 102.688 10.97C103.277 12.0273 103.572 13.2667 103.572 14.688C103.572 14.792 103.563 14.9133 103.546 15.052C103.546 15.1907 103.537 15.3207 103.52 15.442H91.794V13.648H102.22L101.206 14.272C101.223 13.388 101.041 12.5993 100.66 11.906C100.279 11.2127 99.75 10.6753 99.074 10.294C98.4153 9.89533 97.644 9.696 96.76 9.696C95.8933 9.696 95.122 9.89533 94.446 10.294C93.77 10.6753 93.2413 11.2213 92.86 11.932C92.4786 12.6253 92.288 13.4227 92.288 14.324V14.74C92.288 15.6587 92.496 16.482 92.912 17.21C93.3453 17.9207 93.9433 18.4753 94.706 18.874C95.4686 19.2727 96.344 19.472 97.332 19.472C98.1466 19.472 98.8833 19.3333 99.542 19.056C100.218 18.7787 100.807 18.3627 101.31 17.808L102.688 19.42C102.064 20.148 101.284 20.7027 100.348 21.084C99.4293 21.4653 98.398 21.656 97.254 21.656ZM111.77 21.656C110.383 21.656 109.309 21.2833 108.546 20.538C107.783 19.7927 107.402 18.7267 107.402 17.34V4.704H109.898V17.236C109.898 17.9813 110.08 18.5533 110.444 18.952C110.825 19.3507 111.363 19.55 112.056 19.55C112.836 19.55 113.486 19.3333 114.006 18.9L114.786 20.694C114.405 21.0233 113.945 21.266 113.408 21.422C112.888 21.578 112.342 21.656 111.77 21.656ZM105.062 9.774V7.72H113.85V9.774H105.062Z" fill="url(#paint1_linear_1661_27095)"/>
<path d="M117.882 21.5V3.3H125.37C126.982 3.3 128.36 3.56 129.504 4.08C130.665 4.6 131.558 5.34533 132.182 6.316C132.806 7.28667 133.118 8.43933 133.118 9.774C133.118 11.1087 132.806 12.2613 132.182 13.232C131.558 14.2027 130.665 14.948 129.504 15.468C128.36 15.988 126.982 16.248 125.37 16.248H119.754L121.262 14.662V21.5H117.882ZM121.262 15.026L119.754 13.388H125.214C126.704 13.388 127.822 13.076 128.567 12.452C129.33 11.8107 129.712 10.918 129.712 9.774C129.712 8.61267 129.33 7.72 128.567 7.096C127.822 6.472 126.704 6.16 125.214 6.16H119.754L121.262 4.496V15.026ZM136.054 21.5V7.616H139.148V11.438L138.784 10.32C139.2 9.384 139.85 8.67333 140.734 8.188C141.635 7.70267 142.753 7.46 144.088 7.46V10.554C143.949 10.5193 143.819 10.502 143.698 10.502C143.577 10.4847 143.455 10.476 143.334 10.476C142.103 10.476 141.124 10.84 140.396 11.568C139.668 12.2787 139.304 13.3447 139.304 14.766V21.5H136.054ZM152.958 21.682C151.537 21.682 150.271 21.3787 149.162 20.772C148.053 20.148 147.177 19.2987 146.536 18.224C145.895 17.1493 145.574 15.9273 145.574 14.558C145.574 13.1713 145.895 11.9493 146.536 10.892C147.177 9.81733 148.053 8.97667 149.162 8.37C150.271 7.76333 151.537 7.46 152.958 7.46C154.397 7.46 155.671 7.76333 156.78 8.37C157.907 8.97667 158.782 9.80867 159.406 10.866C160.047 11.9233 160.368 13.154 160.368 14.558C160.368 15.9273 160.047 17.1493 159.406 18.224C158.782 19.2987 157.907 20.148 156.78 20.772C155.671 21.3787 154.397 21.682 152.958 21.682ZM152.958 18.9C153.755 18.9 154.466 18.7267 155.09 18.38C155.714 18.0333 156.199 17.5307 156.546 16.872C156.91 16.2133 157.092 15.442 157.092 14.558C157.092 13.6567 156.91 12.8853 156.546 12.244C156.199 11.5853 155.714 11.0827 155.09 10.736C154.466 10.3893 153.764 10.216 152.984 10.216C152.187 10.216 151.476 10.3893 150.852 10.736C150.245 11.0827 149.76 11.5853 149.396 12.244C149.032 12.8853 148.85 13.6567 148.85 14.558C148.85 15.442 149.032 16.2133 149.396 16.872C149.76 17.5307 150.245 18.0333 150.852 18.38C151.476 18.7267 152.178 18.9 152.958 18.9Z" fill="url(#paint2_linear_1661_27095)"/>
<path d="M50.05 34.5V27.5H53.19C53.9967 27.5 54.6167 27.6633 55.05 27.99C55.4833 28.31 55.7 28.75 55.7 29.31C55.7 29.69 55.6133 30.01 55.44 30.27C55.2733 30.53 55.0467 30.73 54.76 30.87C54.4733 31.01 54.1633 31.08 53.83 31.08L54.01 30.78C54.41 30.78 54.7633 30.85 55.07 30.99C55.3767 31.13 55.62 31.3367 55.8 31.61C55.98 31.8767 56.07 32.21 56.07 32.61C56.07 33.21 55.8433 33.6767 55.39 34.01C54.9433 34.3367 54.2767 34.5 53.39 34.5H50.05ZM51.05 33.69H53.35C53.9033 33.69 54.3267 33.5967 54.62 33.41C54.9133 33.2233 55.06 32.93 55.06 32.53C55.06 32.1233 54.9133 31.8267 54.62 31.64C54.3267 31.4533 53.9033 31.36 53.35 31.36H50.96V30.55H53.1C53.6067 30.55 54 30.4567 54.28 30.27C54.56 30.0833 54.7 29.8033 54.7 29.43C54.7 29.0567 54.56 28.7767 54.28 28.59C54 28.4033 53.6067 28.31 53.1 28.31H51.05V33.69ZM57.7084 36.5C57.455 36.5 57.2084 36.4567 56.9684 36.37C56.7284 36.29 56.5217 36.17 56.3484 36.01L56.7584 35.29C56.8917 35.4167 57.0384 35.5133 57.1984 35.58C57.3584 35.6467 57.5284 35.68 57.7084 35.68C57.9417 35.68 58.135 35.62 58.2884 35.5C58.4417 35.38 58.585 35.1667 58.7184 34.86L59.0484 34.13L59.1484 34.01L61.2284 29.2H62.1684L59.5984 35.03C59.445 35.4033 59.2717 35.6967 59.0784 35.91C58.8917 36.1233 58.685 36.2733 58.4584 36.36C58.2317 36.4533 57.9817 36.5 57.7084 36.5ZM58.9684 34.67L56.5484 29.2H57.5484L59.6084 33.92L58.9684 34.67ZM69.0198 34.58C68.4865 34.58 67.9932 34.4933 67.5398 34.32C67.0932 34.14 66.7032 33.89 66.3698 33.57C66.0432 33.2433 65.7865 32.8633 65.5998 32.43C65.4132 31.9967 65.3198 31.52 65.3198 31C65.3198 30.48 65.4132 30.0033 65.5998 29.57C65.7865 29.1367 66.0465 28.76 66.3798 28.44C66.7132 28.1133 67.1032 27.8633 67.5498 27.69C68.0032 27.51 68.4965 27.42 69.0298 27.42C69.5698 27.42 70.0665 27.5133 70.5198 27.7C70.9798 27.88 71.3698 28.15 71.6898 28.51L71.0398 29.14C70.7732 28.86 70.4732 28.6533 70.1398 28.52C69.8065 28.38 69.4498 28.31 69.0698 28.31C68.6765 28.31 68.3098 28.3767 67.9698 28.51C67.6365 28.6433 67.3465 28.83 67.0998 29.07C66.8532 29.31 66.6598 29.5967 66.5198 29.93C66.3865 30.2567 66.3198 30.6133 66.3198 31C66.3198 31.3867 66.3865 31.7467 66.5198 32.08C66.6598 32.4067 66.8532 32.69 67.0998 32.93C67.3465 33.17 67.6365 33.3567 67.9698 33.49C68.3098 33.6233 68.6765 33.69 69.0698 33.69C69.4498 33.69 69.8065 33.6233 70.1398 33.49C70.4732 33.35 70.7732 33.1367 71.0398 32.85L71.6898 33.48C71.3698 33.84 70.9798 34.1133 70.5198 34.3C70.0665 34.4867 69.5665 34.58 69.0198 34.58ZM72.9764 34.5V27.08H73.9364V34.5H72.9764ZM79.0594 34.5V33.38L79.0094 33.17V31.26C79.0094 30.8533 78.8894 30.54 78.6494 30.32C78.416 30.0933 78.0627 29.98 77.5894 29.98C77.276 29.98 76.9694 30.0333 76.6694 30.14C76.3694 30.24 76.116 30.3767 75.9094 30.55L75.5094 29.83C75.7827 29.61 76.1094 29.4433 76.4894 29.33C76.876 29.21 77.2794 29.15 77.6994 29.15C78.426 29.15 78.986 29.3267 79.3794 29.68C79.7727 30.0333 79.9694 30.5733 79.9694 31.3V34.5H79.0594ZM77.3194 34.56C76.926 34.56 76.5794 34.4933 76.2794 34.36C75.986 34.2267 75.7594 34.0433 75.5994 33.81C75.4394 33.57 75.3594 33.3 75.3594 33C75.3594 32.7133 75.426 32.4533 75.5594 32.22C75.6994 31.9867 75.9227 31.8 76.2294 31.66C76.5427 31.52 76.9627 31.45 77.4894 31.45H79.1694V32.14H77.5294C77.0494 32.14 76.726 32.22 76.5594 32.38C76.3927 32.54 76.3094 32.7333 76.3094 32.96C76.3094 33.22 76.4127 33.43 76.6194 33.59C76.826 33.7433 77.1127 33.82 77.4794 33.82C77.8394 33.82 78.1527 33.74 78.4194 33.58C78.6927 33.42 78.8894 33.1867 79.0094 32.88L79.1994 33.54C79.0727 33.8533 78.8494 34.1033 78.5294 34.29C78.2094 34.47 77.806 34.56 77.3194 34.56ZM83.2659 34.56C82.8259 34.56 82.4059 34.5 82.0059 34.38C81.6126 34.26 81.3026 34.1133 81.0759 33.94L81.4759 33.18C81.7026 33.3333 81.9826 33.4633 82.3159 33.57C82.6493 33.6767 82.9893 33.73 83.3359 33.73C83.7826 33.73 84.1026 33.6667 84.2959 33.54C84.4959 33.4133 84.5959 33.2367 84.5959 33.01C84.5959 32.8433 84.5359 32.7133 84.4159 32.62C84.2959 32.5267 84.1359 32.4567 83.9359 32.41C83.7426 32.3633 83.5259 32.3233 83.2859 32.29C83.0459 32.25 82.8059 32.2033 82.5659 32.15C82.3259 32.09 82.1059 32.01 81.9059 31.91C81.7059 31.8033 81.5459 31.66 81.4259 31.48C81.3059 31.2933 81.2459 31.0467 81.2459 30.74C81.2459 30.42 81.3359 30.14 81.5159 29.9C81.6959 29.66 81.9493 29.4767 82.2759 29.35C82.6093 29.2167 83.0026 29.15 83.4559 29.15C83.8026 29.15 84.1526 29.1933 84.5059 29.28C84.8659 29.36 85.1593 29.4767 85.3859 29.63L84.9759 30.39C84.7359 30.23 84.4859 30.12 84.2259 30.06C83.9659 30 83.7059 29.97 83.4459 29.97C83.0259 29.97 82.7126 30.04 82.5059 30.18C82.2993 30.3133 82.1959 30.4867 82.1959 30.7C82.1959 30.88 82.2559 31.02 82.3759 31.12C82.5026 31.2133 82.6626 31.2867 82.8559 31.34C83.0559 31.3933 83.2759 31.44 83.5159 31.48C83.7559 31.5133 83.9959 31.56 84.2359 31.62C84.4759 31.6733 84.6926 31.75 84.8859 31.85C85.0859 31.95 85.2459 32.09 85.3659 32.27C85.4926 32.45 85.5559 32.69 85.5559 32.99C85.5559 33.31 85.4626 33.5867 85.2759 33.82C85.0893 34.0533 84.8259 34.2367 84.4859 34.37C84.1459 34.4967 83.7393 34.56 83.2659 34.56ZM88.2757 34.56C87.8357 34.56 87.4157 34.5 87.0157 34.38C86.6224 34.26 86.3124 34.1133 86.0857 33.94L86.4857 33.18C86.7124 33.3333 86.9924 33.4633 87.3257 33.57C87.659 33.6767 87.999 33.73 88.3457 33.73C88.7924 33.73 89.1124 33.6667 89.3057 33.54C89.5057 33.4133 89.6057 33.2367 89.6057 33.01C89.6057 32.8433 89.5457 32.7133 89.4257 32.62C89.3057 32.5267 89.1457 32.4567 88.9457 32.41C88.7524 32.3633 88.5357 32.3233 88.2957 32.29C88.0557 32.25 87.8157 32.2033 87.5757 32.15C87.3357 32.09 87.1157 32.01 86.9157 31.91C86.7157 31.8033 86.5557 31.66 86.4357 31.48C86.3157 31.2933 86.2557 31.0467 86.2557 30.74C86.2557 30.42 86.3457 30.14 86.5257 29.9C86.7057 29.66 86.959 29.4767 87.2857 29.35C87.619 29.2167 88.0124 29.15 88.4657 29.15C88.8124 29.15 89.1624 29.1933 89.5157 29.28C89.8757 29.36 90.169 29.4767 90.3957 29.63L89.9857 30.39C89.7457 30.23 89.4957 30.12 89.2357 30.06C88.9757 30 88.7157 29.97 88.4557 29.97C88.0357 29.97 87.7224 30.04 87.5157 30.18C87.309 30.3133 87.2057 30.4867 87.2057 30.7C87.2057 30.88 87.2657 31.02 87.3857 31.12C87.5124 31.2133 87.6724 31.2867 87.8657 31.34C88.0657 31.3933 88.2857 31.44 88.5257 31.48C88.7657 31.5133 89.0057 31.56 89.2457 31.62C89.4857 31.6733 89.7024 31.75 89.8957 31.85C90.0957 31.95 90.2557 32.09 90.3757 32.27C90.5024 32.45 90.5657 32.69 90.5657 32.99C90.5657 33.31 90.4724 33.5867 90.2857 33.82C90.099 34.0533 89.8357 34.2367 89.4957 34.37C89.1557 34.4967 88.749 34.56 88.2757 34.56ZM94.5755 34.56C94.1355 34.56 93.7321 34.46 93.3655 34.26C93.0055 34.0533 92.7155 33.75 92.4955 33.35C92.2821 32.95 92.1755 32.45 92.1755 31.85C92.1755 31.25 92.2788 30.75 92.4855 30.35C92.6988 29.95 92.9855 29.65 93.3455 29.45C93.7121 29.25 94.1221 29.15 94.5755 29.15C95.0955 29.15 95.5555 29.2633 95.9555 29.49C96.3555 29.7167 96.6721 30.0333 96.9055 30.44C97.1388 30.84 97.2555 31.31 97.2555 31.85C97.2555 32.39 97.1388 32.8633 96.9055 33.27C96.6721 33.6767 96.3555 33.9933 95.9555 34.22C95.5555 34.4467 95.0955 34.56 94.5755 34.56ZM91.7655 36.44V29.2H92.6855V30.63L92.6255 31.86L92.7255 33.09V36.44H91.7655ZM94.4955 33.72C94.8355 33.72 95.1388 33.6433 95.4055 33.49C95.6788 33.3367 95.8921 33.12 96.0455 32.84C96.2055 32.5533 96.2855 32.2233 96.2855 31.85C96.2855 31.47 96.2055 31.1433 96.0455 30.87C95.8921 30.59 95.6788 30.3733 95.4055 30.22C95.1388 30.0667 94.8355 29.99 94.4955 29.99C94.1621 29.99 93.8588 30.0667 93.5855 30.22C93.3188 30.3733 93.1055 30.59 92.9455 30.87C92.7921 31.1433 92.7155 31.47 92.7155 31.85C92.7155 32.2233 92.7921 32.5533 92.9455 32.84C93.1055 33.12 93.3188 33.3367 93.5855 33.49C93.8588 33.6433 94.1621 33.72 94.4955 33.72ZM98.5819 34.5V27.08H99.5419V34.5H98.5819ZM103.605 34.56C103.152 34.56 102.752 34.4767 102.405 34.31C102.065 34.1433 101.798 33.89 101.605 33.55C101.418 33.2033 101.325 32.77 101.325 32.25V29.2H102.285V32.14C102.285 32.66 102.408 33.05 102.655 33.31C102.908 33.57 103.262 33.7 103.715 33.7C104.048 33.7 104.338 33.6333 104.585 33.5C104.832 33.36 105.022 33.16 105.155 32.9C105.288 32.6333 105.355 32.3133 105.355 31.94V29.2H106.315V34.5H105.405V33.07L105.555 33.45C105.382 33.8033 105.122 34.0767 104.775 34.27C104.428 34.4633 104.038 34.56 103.605 34.56ZM109.662 34.56C109.222 34.56 108.802 34.5 108.402 34.38C108.009 34.26 107.699 34.1133 107.472 33.94L107.872 33.18C108.099 33.3333 108.379 33.4633 108.712 33.57C109.046 33.6767 109.386 33.73 109.732 33.73C110.179 33.73 110.499 33.6667 110.692 33.54C110.892 33.4133 110.992 33.2367 110.992 33.01C110.992 32.8433 110.932 32.7133 110.812 32.62C110.692 32.5267 110.532 32.4567 110.332 32.41C110.139 32.3633 109.922 32.3233 109.682 32.29C109.442 32.25 109.202 32.2033 108.962 32.15C108.722 32.09 108.502 32.01 108.302 31.91C108.102 31.8033 107.942 31.66 107.822 31.48C107.702 31.2933 107.642 31.0467 107.642 30.74C107.642 30.42 107.732 30.14 107.912 29.9C108.092 29.66 108.346 29.4767 108.672 29.35C109.006 29.2167 109.399 29.15 109.852 29.15C110.199 29.15 110.549 29.1933 110.902 29.28C111.262 29.36 111.556 29.4767 111.782 29.63L111.372 30.39C111.132 30.23 110.882 30.12 110.622 30.06C110.362 30 110.102 29.97 109.842 29.97C109.422 29.97 109.109 30.04 108.902 30.18C108.696 30.3133 108.592 30.4867 108.592 30.7C108.592 30.88 108.652 31.02 108.772 31.12C108.899 31.2133 109.059 31.2867 109.252 31.34C109.452 31.3933 109.672 31.44 109.912 31.48C110.152 31.5133 110.392 31.56 110.632 31.62C110.872 31.6733 111.089 31.75 111.282 31.85C111.482 31.95 111.642 32.09 111.762 32.27C111.889 32.45 111.952 32.69 111.952 32.99C111.952 33.31 111.859 33.5867 111.672 33.82C111.486 34.0533 111.222 34.2367 110.882 34.37C110.542 34.4967 110.136 34.56 109.662 34.56Z" fill="url(#paint3_linear_1661_27095)"/>
<defs>
<filter id="filter0_d_1661_27095" x="6.63562" y="8.26539" width="10.8045" height="26.6504" filterUnits="userSpaceOnUse" color-interpolation-filters="sRGB">
<feFlood flood-opacity="0" result="BackgroundImageFix"/>
<feColorMatrix in="SourceAlpha" type="matrix" values="0 0 0 0 0 0 0 0 0 0 0 0 0 0 0 0 0 0 127 0" result="hardAlpha"/>
<feOffset dy="0.740741"/>
<feGaussianBlur stdDeviation="0.592593"/>
<feComposite in2="hardAlpha" operator="out"/>
<feColorMatrix type="matrix" values="0 0 0 0 0.0486111 0 0 0 0 0.145062 0 0 0 0 0.291667 0 0 0 1 0"/>
<feBlend mode="normal" in2="BackgroundImageFix" result="effect1_dropShadow_1661_27095"/>
<feBlend mode="normal" in="SourceGraphic" in2="effect1_dropShadow_1661_27095" result="shape"/>
</filter>
<filter id="filter1_d_1661_27095" x="22.6666" y="8.29628" width="10.8147" height="26.5925" filterUnits="userSpaceOnUse" color-interpolation-filters="sRGB">
<feFlood flood-opacity="0" result="BackgroundImageFix"/>
<feColorMatrix in="SourceAlpha" type="matrix" values="0 0 0 0 0 0 0 0 0 0 0 0 0 0 0 0 0 0 127 0" result="hardAlpha"/>
<feOffset dy="0.740741"/>
<feGaussianBlur stdDeviation="0.592593"/>
<feComposite in2="hardAlpha" operator="out"/>
<feColorMatrix type="matrix" values="0 0 0 0 0.0486111 0 0 0 0 0.145062 0 0 0 0 0.291667 0 0 0 1 0"/>
<feBlend mode="normal" in2="BackgroundImageFix" result="effect1_dropShadow_1661_27095"/>
<feBlend mode="normal" in="SourceGraphic" in2="effect1_dropShadow_1661_27095" result="shape"/>
</filter>
<linearGradient id="paint0_linear_1661_27095" x1="16.9564" y1="23.912" x2="15.2311" y2="11.9921" gradientUnits="userSpaceOnUse">
<stop stop-color="#00D1FF"/>
<stop offset="1" stop-color="#9B00FA"/>
</linearGradient>
<linearGradient id="paint1_linear_1661_27095" x1="105" y1="3.5" x2="105" y2="21.5" gradientUnits="userSpaceOnUse">
<stop stop-color="#0A1629"/>
<stop offset="1" stop-color="#17315A"/>
</linearGradient>
<linearGradient id="paint2_linear_1661_27095" x1="122.508" y1="7.4802" x2="152.31" y2="29.7735" gradientUnits="userSpaceOnUse">
<stop stop-color="#00D1FF"/>
<stop offset="1" stop-color="#9B00FA"/>
</linearGradient>
<linearGradient id="paint3_linear_1661_27095" x1="81" y1="24.5" x2="81" y2="36.5" gradientUnits="userSpaceOnUse">
<stop stop-color="#0A1629"/>
<stop offset="1" stop-color="#17315A"/>
</linearGradient>
</defs>
</svg>
