<svg width="2103" height="724" viewBox="0 0 2103 724" fill="none" xmlns="http://www.w3.org/2000/svg">
<path d="M743.76 551V472.6H778.928C787.963 472.6 794.907 474.429 799.76 478.088C804.613 481.672 807.04 486.6 807.04 492.872C807.04 497.128 806.069 500.712 804.128 503.624C802.261 506.536 799.723 508.776 796.512 510.344C793.301 511.912 789.829 512.696 786.096 512.696L788.112 509.336C792.592 509.336 796.549 510.12 799.984 511.688C803.419 513.256 806.144 515.571 808.16 518.632C810.176 521.619 811.184 525.352 811.184 529.832C811.184 536.552 808.645 541.779 803.568 545.512C798.565 549.171 791.099 551 781.168 551H743.76ZM754.96 541.928H780.72C786.917 541.928 791.659 540.883 794.944 538.792C798.229 536.701 799.872 533.416 799.872 528.936C799.872 524.381 798.229 521.059 794.944 518.968C791.659 516.877 786.917 515.832 780.72 515.832H753.952V506.76H777.92C783.595 506.76 788 505.715 791.136 503.624C794.272 501.533 795.84 498.397 795.84 494.216C795.84 490.035 794.272 486.899 791.136 484.808C788 482.717 783.595 481.672 777.92 481.672H754.96V541.928ZM829.534 573.4C826.696 573.4 823.934 572.915 821.246 571.944C818.558 571.048 816.243 569.704 814.302 567.912L818.894 559.848C820.387 561.267 822.03 562.349 823.822 563.096C825.614 563.843 827.518 564.216 829.534 564.216C832.147 564.216 834.312 563.544 836.03 562.2C837.747 560.856 839.352 558.467 840.846 555.032L844.542 546.856L845.662 545.512L868.958 491.64H879.486L850.702 556.936C848.984 561.117 847.043 564.403 844.878 566.792C842.787 569.181 840.472 570.861 837.934 571.832C835.395 572.877 832.595 573.4 829.534 573.4ZM843.646 552.904L816.542 491.64H827.742L850.814 544.504L843.646 552.904ZM956.222 551.896C950.249 551.896 944.724 550.925 939.646 548.984C934.644 546.968 930.276 544.168 926.542 540.584C922.884 536.925 920.009 532.669 917.918 527.816C915.828 522.963 914.782 517.624 914.782 511.8C914.782 505.976 915.828 500.637 917.918 495.784C920.009 490.931 922.921 486.712 926.654 483.128C930.388 479.469 934.756 476.669 939.758 474.728C944.836 472.712 950.361 471.704 956.334 471.704C962.382 471.704 967.945 472.749 973.022 474.84C978.174 476.856 982.542 479.88 986.126 483.912L978.846 490.968C975.86 487.832 972.5 485.517 968.766 484.024C965.033 482.456 961.038 481.672 956.782 481.672C952.377 481.672 948.27 482.419 944.462 483.912C940.729 485.405 937.481 487.496 934.718 490.184C931.956 492.872 929.79 496.083 928.222 499.816C926.729 503.475 925.982 507.469 925.982 511.8C925.982 516.131 926.729 520.163 928.222 523.896C929.79 527.555 931.956 530.728 934.718 533.416C937.481 536.104 940.729 538.195 944.462 539.688C948.27 541.181 952.377 541.928 956.782 541.928C961.038 541.928 965.033 541.181 968.766 539.688C972.5 538.12 975.86 535.731 978.846 532.52L986.126 539.576C982.542 543.608 978.174 546.669 973.022 548.76C967.945 550.851 962.345 551.896 956.222 551.896ZM1000.54 551V467.896H1011.29V551H1000.54ZM1068.67 551V538.456L1068.11 536.104V514.712C1068.11 510.157 1066.76 506.648 1064.07 504.184C1061.46 501.645 1057.5 500.376 1052.2 500.376C1048.69 500.376 1045.26 500.973 1041.9 502.168C1038.54 503.288 1035.7 504.819 1033.39 506.76L1028.91 498.696C1031.97 496.232 1035.63 494.365 1039.88 493.096C1044.21 491.752 1048.73 491.08 1053.43 491.08C1061.57 491.08 1067.84 493.059 1072.25 497.016C1076.65 500.973 1078.86 507.021 1078.86 515.16V551H1068.67ZM1049.18 551.672C1044.77 551.672 1040.89 550.925 1037.53 549.432C1034.24 547.939 1031.71 545.885 1029.91 543.272C1028.12 540.584 1027.23 537.56 1027.23 534.2C1027.23 530.989 1027.97 528.077 1029.47 525.464C1031.03 522.851 1033.53 520.76 1036.97 519.192C1040.48 517.624 1045.18 516.84 1051.08 516.84H1069.9V524.568H1051.53C1046.15 524.568 1042.53 525.464 1040.67 527.256C1038.8 529.048 1037.87 531.213 1037.87 533.752C1037.87 536.664 1039.02 539.016 1041.34 540.808C1043.65 542.525 1046.86 543.384 1050.97 543.384C1055 543.384 1058.51 542.488 1061.5 540.696C1064.56 538.904 1066.76 536.291 1068.11 532.856L1070.23 540.248C1068.81 543.757 1066.31 546.557 1062.73 548.648C1059.15 550.664 1054.63 551.672 1049.18 551.672ZM1115.78 551.672C1110.85 551.672 1106.15 551 1101.67 549.656C1097.26 548.312 1093.79 546.669 1091.25 544.728L1095.73 536.216C1098.27 537.933 1101.41 539.389 1105.14 540.584C1108.87 541.779 1112.68 542.376 1116.56 542.376C1121.57 542.376 1125.15 541.667 1127.31 540.248C1129.55 538.829 1130.67 536.851 1130.67 534.312C1130.67 532.445 1130 530.989 1128.66 529.944C1127.31 528.899 1125.52 528.115 1123.28 527.592C1121.12 527.069 1118.69 526.621 1116 526.248C1113.31 525.8 1110.63 525.277 1107.94 524.68C1105.25 524.008 1102.79 523.112 1100.55 521.992C1098.31 520.797 1096.51 519.192 1095.17 517.176C1093.83 515.085 1093.15 512.323 1093.15 508.888C1093.15 505.304 1094.16 502.168 1096.18 499.48C1098.19 496.792 1101.03 494.739 1104.69 493.32C1108.42 491.827 1112.83 491.08 1117.91 491.08C1121.79 491.08 1125.71 491.565 1129.67 492.536C1133.7 493.432 1136.98 494.739 1139.52 496.456L1134.93 504.968C1132.24 503.176 1129.44 501.944 1126.53 501.272C1123.62 500.6 1120.71 500.264 1117.79 500.264C1113.09 500.264 1109.58 501.048 1107.27 502.616C1104.95 504.109 1103.79 506.051 1103.79 508.44C1103.79 510.456 1104.47 512.024 1105.81 513.144C1107.23 514.189 1109.02 515.011 1111.19 515.608C1113.43 516.205 1115.89 516.728 1118.58 517.176C1121.27 517.549 1123.95 518.072 1126.64 518.744C1129.33 519.341 1131.76 520.2 1133.92 521.32C1136.16 522.44 1137.95 524.008 1139.3 526.024C1140.72 528.04 1141.43 530.728 1141.43 534.088C1141.43 537.672 1140.38 540.771 1138.29 543.384C1136.2 545.997 1133.25 548.051 1129.44 549.544C1125.63 550.963 1121.08 551.672 1115.78 551.672ZM1171.89 551.672C1166.96 551.672 1162.26 551 1157.78 549.656C1153.37 548.312 1149.9 546.669 1147.36 544.728L1151.84 536.216C1154.38 537.933 1157.51 539.389 1161.25 540.584C1164.98 541.779 1168.79 542.376 1172.67 542.376C1177.67 542.376 1181.26 541.667 1183.42 540.248C1185.66 538.829 1186.78 536.851 1186.78 534.312C1186.78 532.445 1186.11 530.989 1184.77 529.944C1183.42 528.899 1181.63 528.115 1179.39 527.592C1177.23 527.069 1174.8 526.621 1172.11 526.248C1169.42 525.8 1166.74 525.277 1164.05 524.68C1161.36 524.008 1158.9 523.112 1156.66 521.992C1154.42 520.797 1152.62 519.192 1151.28 517.176C1149.94 515.085 1149.26 512.323 1149.26 508.888C1149.26 505.304 1150.27 502.168 1152.29 499.48C1154.3 496.792 1157.14 494.739 1160.8 493.32C1164.53 491.827 1168.94 491.08 1174.02 491.08C1177.9 491.08 1181.82 491.565 1185.78 492.536C1189.81 493.432 1193.09 494.739 1195.63 496.456L1191.04 504.968C1188.35 503.176 1185.55 501.944 1182.64 501.272C1179.73 500.6 1176.82 500.264 1173.9 500.264C1169.2 500.264 1165.69 501.048 1163.38 502.616C1161.06 504.109 1159.9 506.051 1159.9 508.44C1159.9 510.456 1160.58 512.024 1161.92 513.144C1163.34 514.189 1165.13 515.011 1167.3 515.608C1169.54 516.205 1172 516.728 1174.69 517.176C1177.38 517.549 1180.06 518.072 1182.75 518.744C1185.44 519.341 1187.87 520.2 1190.03 521.32C1192.27 522.44 1194.06 524.008 1195.41 526.024C1196.83 528.04 1197.54 530.728 1197.54 534.088C1197.54 537.672 1196.49 540.771 1194.4 543.384C1192.31 545.997 1189.36 548.051 1185.55 549.544C1181.74 550.963 1177.19 551.672 1171.89 551.672ZM1242.45 551.672C1237.52 551.672 1233 550.552 1228.89 548.312C1224.86 545.997 1221.61 542.6 1219.15 538.12C1216.76 533.64 1215.57 528.04 1215.57 521.32C1215.57 514.6 1216.72 509 1219.04 504.52C1221.43 500.04 1224.64 496.68 1228.67 494.44C1232.78 492.2 1237.37 491.08 1242.45 491.08C1248.27 491.08 1253.42 492.349 1257.9 494.888C1262.38 497.427 1265.93 500.973 1268.54 505.528C1271.15 510.008 1272.46 515.272 1272.46 521.32C1272.46 527.368 1271.15 532.669 1268.54 537.224C1265.93 541.779 1262.38 545.325 1257.9 547.864C1253.42 550.403 1248.27 551.672 1242.45 551.672ZM1210.97 572.728V491.64H1221.28V507.656L1220.61 521.432L1221.73 535.208V572.728H1210.97ZM1241.55 542.264C1245.36 542.264 1248.75 541.405 1251.74 539.688C1254.8 537.971 1257.19 535.544 1258.91 532.408C1260.7 529.197 1261.6 525.501 1261.6 521.32C1261.6 517.064 1260.7 513.405 1258.91 510.344C1257.19 507.208 1254.8 504.781 1251.74 503.064C1248.75 501.347 1245.36 500.488 1241.55 500.488C1237.82 500.488 1234.42 501.347 1231.36 503.064C1228.37 504.781 1225.98 507.208 1224.19 510.344C1222.47 513.405 1221.61 517.064 1221.61 521.32C1221.61 525.501 1222.47 529.197 1224.19 532.408C1225.98 535.544 1228.37 537.971 1231.36 539.688C1234.42 541.405 1237.82 542.264 1241.55 542.264ZM1287.32 551V467.896H1298.07V551H1287.32ZM1343.57 551.672C1338.5 551.672 1334.02 550.739 1330.13 548.872C1326.33 547.005 1323.34 544.168 1321.17 540.36C1319.08 536.477 1318.04 531.624 1318.04 525.8V491.64H1328.79V524.568C1328.79 530.392 1330.17 534.76 1332.93 537.672C1335.77 540.584 1339.73 542.04 1344.81 542.04C1348.54 542.04 1351.79 541.293 1354.55 539.8C1357.31 538.232 1359.44 535.992 1360.93 533.08C1362.43 530.093 1363.17 526.509 1363.17 522.328V491.64H1373.93V551H1363.73V534.984L1365.41 539.24C1363.47 543.197 1360.56 546.259 1356.68 548.424C1352.8 550.589 1348.43 551.672 1343.57 551.672ZM1411.42 551.672C1406.49 551.672 1401.79 551 1397.31 549.656C1392.9 548.312 1389.43 546.669 1386.89 544.728L1391.37 536.216C1393.91 537.933 1397.05 539.389 1400.78 540.584C1404.51 541.779 1408.32 542.376 1412.2 542.376C1417.21 542.376 1420.79 541.667 1422.96 540.248C1425.2 538.829 1426.32 536.851 1426.32 534.312C1426.32 532.445 1425.64 530.989 1424.3 529.944C1422.96 528.899 1421.16 528.115 1418.92 527.592C1416.76 527.069 1414.33 526.621 1411.64 526.248C1408.96 525.8 1406.27 525.277 1403.58 524.68C1400.89 524.008 1398.43 523.112 1396.19 521.992C1393.95 520.797 1392.16 519.192 1390.81 517.176C1389.47 515.085 1388.8 512.323 1388.8 508.888C1388.8 505.304 1389.8 502.168 1391.82 499.48C1393.84 496.792 1396.67 494.739 1400.33 493.32C1404.06 491.827 1408.47 491.08 1413.55 491.08C1417.43 491.08 1421.35 491.565 1425.31 492.536C1429.34 493.432 1432.62 494.739 1435.16 496.456L1430.57 504.968C1427.88 503.176 1425.08 501.944 1422.17 501.272C1419.26 500.6 1416.35 500.264 1413.44 500.264C1408.73 500.264 1405.22 501.048 1402.91 502.616C1400.59 504.109 1399.44 506.051 1399.44 508.44C1399.44 510.456 1400.11 512.024 1401.45 513.144C1402.87 514.189 1404.66 515.011 1406.83 515.608C1409.07 516.205 1411.53 516.728 1414.22 517.176C1416.91 517.549 1419.6 518.072 1422.28 518.744C1424.97 519.341 1427.4 520.2 1429.56 521.32C1431.8 522.44 1433.6 524.008 1434.94 526.024C1436.36 528.04 1437.07 530.728 1437.07 534.088C1437.07 537.672 1436.02 540.771 1433.93 543.384C1431.84 545.997 1428.89 548.051 1425.08 549.544C1421.28 550.963 1416.72 551.672 1411.42 551.672Z" fill="url(#paint0_linear_1_193)"/>
<path d="M743.5 395V185H768.1L862.3 343.7H849.1L942.1 185H966.7L967 395H938.2L937.9 230.3H944.8L862 369.5H848.2L764.8 230.3H772.3V395H743.5ZM1096.62 396.8C1079.62 396.8 1064.62 393.3 1051.62 386.3C1038.82 379.3 1028.82 369.7 1021.62 357.5C1014.62 345.3 1011.12 331.3 1011.12 315.5C1011.12 299.7 1014.52 285.7 1021.32 273.5C1028.32 261.3 1037.82 251.8 1049.82 245C1062.02 238 1075.72 234.5 1090.92 234.5C1106.32 234.5 1119.92 237.9 1131.72 244.7C1143.52 251.5 1152.72 261.1 1159.32 273.5C1166.12 285.7 1169.52 300 1169.52 316.4C1169.52 317.6 1169.42 319 1169.22 320.6C1169.22 322.2 1169.12 323.7 1168.92 325.1H1033.62V304.4H1153.92L1142.22 311.6C1142.42 301.4 1140.32 292.3 1135.92 284.3C1131.52 276.3 1125.42 270.1 1117.62 265.7C1110.02 261.1 1101.12 258.8 1090.92 258.8C1080.92 258.8 1072.02 261.1 1064.22 265.7C1056.42 270.1 1050.32 276.4 1045.92 284.6C1041.52 292.6 1039.32 301.8 1039.32 312.2V317C1039.32 327.6 1041.72 337.1 1046.52 345.5C1051.52 353.7 1058.42 360.1 1067.22 364.7C1076.02 369.3 1086.12 371.6 1097.52 371.6C1106.92 371.6 1115.42 370 1123.02 366.8C1130.82 363.6 1137.62 358.8 1143.42 352.4L1159.32 371C1152.12 379.4 1143.12 385.8 1132.32 390.2C1121.72 394.6 1109.82 396.8 1096.62 396.8ZM1280.31 396.8C1263.31 396.8 1248.31 393.3 1235.31 386.3C1222.51 379.3 1212.51 369.7 1205.31 357.5C1198.31 345.3 1194.81 331.3 1194.81 315.5C1194.81 299.7 1198.21 285.7 1205.01 273.5C1212.01 261.3 1221.51 251.8 1233.51 245C1245.71 238 1259.41 234.5 1274.61 234.5C1290.01 234.5 1303.61 237.9 1315.41 244.7C1327.21 251.5 1336.41 261.1 1343.01 273.5C1349.81 285.7 1353.21 300 1353.21 316.4C1353.21 317.6 1353.11 319 1352.91 320.6C1352.91 322.2 1352.81 323.7 1352.61 325.1H1217.31V304.4H1337.61L1325.91 311.6C1326.11 301.4 1324.01 292.3 1319.61 284.3C1315.21 276.3 1309.11 270.1 1301.31 265.7C1293.71 261.1 1284.81 258.8 1274.61 258.8C1264.61 258.8 1255.71 261.1 1247.91 265.7C1240.11 270.1 1234.01 276.4 1229.61 284.6C1225.21 292.6 1223.01 301.8 1223.01 312.2V317C1223.01 327.6 1225.41 337.1 1230.21 345.5C1235.21 353.7 1242.11 360.1 1250.91 364.7C1259.71 369.3 1269.81 371.6 1281.21 371.6C1290.61 371.6 1299.11 370 1306.71 366.8C1314.51 363.6 1321.31 358.8 1327.11 352.4L1343.01 371C1335.81 379.4 1326.81 385.8 1316.01 390.2C1305.41 394.6 1293.51 396.8 1280.31 396.8ZM1447.81 396.8C1431.81 396.8 1419.41 392.5 1410.61 383.9C1401.81 375.3 1397.41 363 1397.41 347V201.2H1426.21V345.8C1426.21 354.4 1428.31 361 1432.51 365.6C1436.91 370.2 1443.11 372.5 1451.11 372.5C1460.11 372.5 1467.61 370 1473.61 365L1482.61 385.7C1478.21 389.5 1472.91 392.3 1466.71 394.1C1460.71 395.9 1454.41 396.8 1447.81 396.8ZM1370.41 259.7V236H1471.81V259.7H1370.41Z" fill="url(#paint1_linear_1_193)"/>
<path d="M1518.33 395V185H1604.73C1623.33 185 1639.23 188 1652.43 194C1665.83 200 1676.13 208.6 1683.33 219.8C1690.53 231 1694.13 244.3 1694.13 259.7C1694.13 275.1 1690.53 288.4 1683.33 299.6C1676.13 310.8 1665.83 319.4 1652.43 325.4C1639.23 331.4 1623.33 334.4 1604.73 334.4H1539.93L1557.33 316.1V395H1518.33ZM1557.33 320.3L1539.93 301.4H1602.93C1620.13 301.4 1633.03 297.8 1641.62 290.6C1650.43 283.2 1654.83 272.9 1654.83 259.7C1654.83 246.3 1650.43 236 1641.62 228.8C1633.03 221.6 1620.13 218 1602.93 218H1539.93L1557.33 198.8V320.3ZM1728.01 395V234.8H1763.71V278.9L1759.51 266C1764.31 255.2 1771.81 247 1782.01 241.4C1792.41 235.8 1805.31 233 1820.71 233V268.7C1819.11 268.3 1817.61 268.1 1816.21 268.1C1814.81 267.9 1813.41 267.8 1812.01 267.8C1797.81 267.8 1786.51 272 1778.11 280.4C1769.71 288.6 1765.51 300.9 1765.51 317.3V395H1728.01ZM1923.05 397.1C1906.65 397.1 1892.05 393.6 1879.25 386.6C1866.45 379.4 1856.35 369.6 1848.95 357.2C1841.55 344.8 1837.85 330.7 1837.85 314.9C1837.85 298.9 1841.55 284.8 1848.95 272.6C1856.35 260.2 1866.45 250.5 1879.25 243.5C1892.05 236.5 1906.65 233 1923.05 233C1939.65 233 1954.35 236.5 1967.15 243.5C1980.15 250.5 1990.25 260.1 1997.45 272.3C2004.85 284.5 2008.55 298.7 2008.55 314.9C2008.55 330.7 2004.85 344.8 1997.45 357.2C1990.25 369.6 1980.15 379.4 1967.15 386.6C1954.35 393.6 1939.65 397.1 1923.05 397.1ZM1923.05 365C1932.25 365 1940.45 363 1947.65 359C1954.85 355 1960.45 349.2 1964.45 341.6C1968.65 334 1970.75 325.1 1970.75 314.9C1970.75 304.5 1968.65 295.6 1964.45 288.2C1960.45 280.6 1954.85 274.8 1947.65 270.8C1940.45 266.8 1932.35 264.8 1923.35 264.8C1914.15 264.8 1905.95 266.8 1898.75 270.8C1891.75 274.8 1886.15 280.6 1881.95 288.2C1877.75 295.6 1875.65 304.5 1875.65 314.9C1875.65 325.1 1877.75 334 1881.95 341.6C1886.15 349.2 1891.75 355 1898.75 359C1905.95 363 1914.05 365 1923.05 365Z" fill="url(#paint2_linear_1_193)"/>
<rect x="92" y="92" width="540" height="540" rx="160" fill="#0A1629"/>
<g filter="url(#filter0_d_1_193)">
<path d="M311.442 266.512C311.442 235.07 285.953 209.582 254.512 209.582C223.07 209.582 197.582 235.07 197.582 266.512V480.432C197.582 511.874 223.07 537.362 254.512 537.362C285.953 537.362 311.442 511.874 311.442 480.432V266.512Z" fill="#EDEDED"/>
</g>
<g filter="url(#filter1_d_1_193)">
<path d="M528 280.843C528 241.717 502.48 210 471 210C439.52 210 414 241.717 414 280.843V466.157C414 505.283 439.52 537 471 537C502.48 537 528 505.283 528 466.157V280.843Z" fill="#EDEDED"/>
</g>
<path d="M321.583 413.094C343.816 435.327 379.862 435.327 402.095 413.094C424.327 390.862 424.327 354.816 402.095 332.583L295.767 226.256C273.534 204.023 237.488 204.023 215.256 226.256C193.023 248.488 193.023 284.534 215.256 306.767L321.583 413.094Z" fill="white"/>
<path d="M509.056 306.773C531.289 284.54 531.289 248.494 509.056 226.261C486.824 204.029 450.778 204.029 428.545 226.261L322.218 332.589C299.985 354.822 299.985 390.868 322.218 413.1C344.45 435.333 380.496 435.333 402.729 413.1L509.056 306.773Z" fill="url(#paint3_linear_1_193)" stroke="white" stroke-width="4" stroke-miterlimit="10"/>
<path d="M356.513 289.811C349.502 282.8 338.753 282.181 332.504 288.429C326.256 294.678 326.874 305.427 333.886 312.438L346.581 325.134C353.592 332.145 364.342 332.764 370.59 326.515C376.838 320.267 376.22 309.518 369.208 302.506L356.513 289.811Z" fill="#5264FD"/>
<path d="M349.759 280.048C343.51 273.799 333.379 273.799 327.131 280.048C320.883 286.296 320.883 296.427 327.131 302.675L349.476 325.02C355.724 331.268 365.855 331.268 372.103 325.02C378.351 318.771 378.351 308.641 372.103 302.392L349.759 280.048Z" fill="white"/>
<defs>
<filter id="filter0_d_1_193" x="181.582" y="203.582" width="145.86" height="359.78" filterUnits="userSpaceOnUse" color-interpolation-filters="sRGB">
<feFlood flood-opacity="0" result="BackgroundImageFix"/>
<feColorMatrix in="SourceAlpha" type="matrix" values="0 0 0 0 0 0 0 0 0 0 0 0 0 0 0 0 0 0 127 0" result="hardAlpha"/>
<feOffset dy="10"/>
<feGaussianBlur stdDeviation="8"/>
<feComposite in2="hardAlpha" operator="out"/>
<feColorMatrix type="matrix" values="0 0 0 0 0.0486111 0 0 0 0 0.145062 0 0 0 0 0.291667 0 0 0 1 0"/>
<feBlend mode="normal" in2="BackgroundImageFix" result="effect1_dropShadow_1_193"/>
<feBlend mode="normal" in="SourceGraphic" in2="effect1_dropShadow_1_193" result="shape"/>
</filter>
<filter id="filter1_d_1_193" x="398" y="204" width="146" height="359" filterUnits="userSpaceOnUse" color-interpolation-filters="sRGB">
<feFlood flood-opacity="0" result="BackgroundImageFix"/>
<feColorMatrix in="SourceAlpha" type="matrix" values="0 0 0 0 0 0 0 0 0 0 0 0 0 0 0 0 0 0 127 0" result="hardAlpha"/>
<feOffset dy="10"/>
<feGaussianBlur stdDeviation="8"/>
<feComposite in2="hardAlpha" operator="out"/>
<feColorMatrix type="matrix" values="0 0 0 0 0.0486111 0 0 0 0 0.145062 0 0 0 0 0.291667 0 0 0 1 0"/>
<feBlend mode="normal" in2="BackgroundImageFix" result="effect1_dropShadow_1_193"/>
<feBlend mode="normal" in="SourceGraphic" in2="effect1_dropShadow_1_193" result="shape"/>
</filter>
<linearGradient id="paint0_linear_1_193" x1="1086.5" y1="442" x2="1086.5" y2="579" gradientUnits="userSpaceOnUse">
<stop stop-color="#0A1629"/>
<stop offset="1" stop-color="#17315A"/>
</linearGradient>
<linearGradient id="paint1_linear_1_193" x1="1366" y1="140" x2="1366" y2="434" gradientUnits="userSpaceOnUse">
<stop stop-color="#0A1629"/>
<stop offset="1" stop-color="#17315A"/>
</linearGradient>
<linearGradient id="paint2_linear_1_193" x1="1566.88" y1="205.01" x2="1984.77" y2="424.603" gradientUnits="userSpaceOnUse">
<stop stop-color="#00D1FF"/>
<stop offset="1" stop-color="#9B00FA"/>
</linearGradient>
<linearGradient id="paint3_linear_1_193" x1="320.912" y1="414.812" x2="297.621" y2="253.893" gradientUnits="userSpaceOnUse">
<stop stop-color="#00D1FF"/>
<stop offset="1" stop-color="#9B00FA"/>
</linearGradient>
</defs>
</svg>
