<svg width="72" height="72" viewBox="0 0 72 72" fill="none" xmlns="http://www.w3.org/2000/svg">
<g filter="url(#filter0_d_1198_14402)">
<rect x="6" y="2" width="60" height="60" rx="16" fill="url(#paint0_linear_1198_14402)"/>
<path d="M41.3663 22.9167H25.633C25.1663 22.9167 24.733 22.9333 24.333 22.95C20.383 23.1833 19.333 24.6333 19.333 29.1333V30.1C19.333 31.0167 20.083 31.7667 20.9997 31.7667H45.9997C46.9163 31.7667 47.6663 31.0167 47.6663 30.1V29.1333C47.6663 24.1667 46.3997 22.9167 41.3663 22.9167Z" fill="white"/>
<path d="M20.9997 34.2667C20.083 34.2667 19.333 35.0167 19.333 35.9333V40.7833C19.333 45.75 20.5997 47 25.633 47H41.3663C46.3163 47 47.6163 45.8 47.6663 41.05V35.9333C47.6663 35.0167 46.9163 34.2667 45.9997 34.2667H20.9997ZM27.5997 42.9333H24.7497C24.0663 42.9333 23.4997 42.3667 23.4997 41.6833C23.4997 41 24.0663 40.4333 24.7497 40.4333H27.6163C28.2997 40.4333 28.8663 41 28.8663 41.6833C28.8663 42.3667 28.2997 42.9333 27.5997 42.9333ZM36.9163 42.9333H31.183C30.4997 42.9333 29.933 42.3667 29.933 41.6833C29.933 41 30.4997 40.4333 31.183 40.4333H36.9163C37.5997 40.4333 38.1663 41 38.1663 41.6833C38.1663 42.3667 37.6163 42.9333 36.9163 42.9333Z" fill="white"/>
<path d="M52.6667 34.2167V25.4833C52.6667 20.2667 49.6833 18 45.1833 18H30.3C29.0334 18 27.9 18.1833 26.9 18.5667C26.1167 18.85 25.4167 19.2667 24.85 19.8167C24.55 20.1 24.7834 20.5667 25.2167 20.5667H43.3333C47.0833 20.5667 50.1167 23.6 50.1167 27.35V39.3C50.1167 39.7167 50.5667 39.95 50.8667 39.65C52.0167 38.4333 52.6667 36.65 52.6667 34.2167Z" fill="white"/>
</g>
<defs>
<filter id="filter0_d_1198_14402" x="0" y="0" width="72" height="72" filterUnits="userSpaceOnUse" color-interpolation-filters="sRGB">
<feFlood flood-opacity="0" result="BackgroundImageFix"/>
<feColorMatrix in="SourceAlpha" type="matrix" values="0 0 0 0 0 0 0 0 0 0 0 0 0 0 0 0 0 0 127 0" result="hardAlpha"/>
<feOffset dy="4"/>
<feGaussianBlur stdDeviation="3"/>
<feComposite in2="hardAlpha" operator="out"/>
<feColorMatrix type="matrix" values="0 0 0 0 0 0 0 0 0 0.603922 0 0 0 0 0.878431 0 0 0 0.12 0"/>
<feBlend mode="normal" in2="BackgroundImageFix" result="effect1_dropShadow_1198_14402"/>
<feBlend mode="normal" in="SourceGraphic" in2="effect1_dropShadow_1198_14402" result="shape"/>
</filter>
<linearGradient id="paint0_linear_1198_14402" x1="28.5" y1="-6.49998" x2="87.9151" y2="49.0228" gradientUnits="userSpaceOnUse">
<stop stop-color="#00D1FF"/>
<stop offset="1" stop-color="#9B00FA"/>
</linearGradient>
</defs>
</svg>
