<svg width="72" height="72" viewBox="0 0 72 72" fill="none" xmlns="http://www.w3.org/2000/svg">
<g filter="url(#filter0_d_1198_14409)">
<rect x="6" y="2" width="60" height="60" rx="16" fill="url(#paint0_linear_1198_14409)"/>
<path d="M44.3335 18.6667H27.6668C22.6668 18.6667 19.3335 21.1667 19.3335 27V32.9333C19.3335 33.55 19.9668 33.9333 20.5168 33.6833C22.1502 32.9333 24.0335 32.65 26.0168 33C30.4002 33.7833 33.6168 37.85 33.5002 42.3C33.4835 43 33.3835 43.6833 33.2002 44.35C33.0668 44.8667 33.4835 45.35 34.0168 45.35H44.3335C49.3335 45.35 52.6668 42.85 52.6668 37.0167V27C52.6668 21.1667 49.3335 18.6667 44.3335 18.6667ZM36.0002 36.1667C33.7002 36.1667 31.8335 34.3 31.8335 32C31.8335 29.7 33.7002 27.8333 36.0002 27.8333C38.3002 27.8333 40.1668 29.7 40.1668 32C40.1668 34.3 38.3002 36.1667 36.0002 36.1667ZM48.0835 35.3333C48.0835 36.0167 47.5168 36.5833 46.8335 36.5833C46.1502 36.5833 45.5835 36.0167 45.5835 35.3333V28.6667C45.5835 27.9833 46.1502 27.4167 46.8335 27.4167C47.5168 27.4167 48.0835 27.9833 48.0835 28.6667V35.3333Z" fill="white"/>
<path d="M24.3332 35.3333C20.6498 35.3333 17.6665 38.3167 17.6665 42C17.6665 43.25 18.0165 44.4333 18.6332 45.4333C19.7832 47.3667 21.8998 48.6667 24.3332 48.6667C26.7665 48.6667 28.8832 47.3667 30.0332 45.4333C30.6498 44.4333 30.9998 43.25 30.9998 42C30.9998 38.3167 28.0165 35.3333 24.3332 35.3333ZM27.6165 41.45L24.0665 44.7333C23.8332 44.95 23.5165 45.0667 23.2165 45.0667C22.8998 45.0667 22.5832 44.95 22.3332 44.7L20.6832 43.05C20.1998 42.5667 20.1998 41.7667 20.6832 41.2833C21.1665 40.8 21.9665 40.8 22.4498 41.2833L23.2498 42.0833L25.9165 39.6167C26.4165 39.15 27.2165 39.1833 27.6832 39.6833C28.1498 40.1833 28.1165 40.9833 27.6165 41.45Z" fill="white"/>
</g>
<defs>
<filter id="filter0_d_1198_14409" x="0" y="0" width="72" height="72" filterUnits="userSpaceOnUse" color-interpolation-filters="sRGB">
<feFlood flood-opacity="0" result="BackgroundImageFix"/>
<feColorMatrix in="SourceAlpha" type="matrix" values="0 0 0 0 0 0 0 0 0 0 0 0 0 0 0 0 0 0 127 0" result="hardAlpha"/>
<feOffset dy="4"/>
<feGaussianBlur stdDeviation="3"/>
<feComposite in2="hardAlpha" operator="out"/>
<feColorMatrix type="matrix" values="0 0 0 0 0 0 0 0 0 0.603922 0 0 0 0 0.878431 0 0 0 0.12 0"/>
<feBlend mode="normal" in2="BackgroundImageFix" result="effect1_dropShadow_1198_14409"/>
<feBlend mode="normal" in="SourceGraphic" in2="effect1_dropShadow_1198_14409" result="shape"/>
</filter>
<linearGradient id="paint0_linear_1198_14409" x1="28.5" y1="-6.49998" x2="87.9151" y2="49.0228" gradientUnits="userSpaceOnUse">
<stop stop-color="#00D1FF"/>
<stop offset="1" stop-color="#9B00FA"/>
</linearGradient>
</defs>
</svg>
