<svg width="72" height="72" viewBox="0 0 72 72" fill="none" xmlns="http://www.w3.org/2000/svg">
<g filter="url(#filter0_d_1198_14396)">
<rect x="6" y="2" width="60" height="60" rx="16" fill="url(#paint0_linear_1198_14396)"/>
<path d="M49.6497 35.4333L47.7664 32.3C47.3497 31.6167 46.983 30.3 46.983 29.5V26.3833C46.983 20.3333 42.0664 15.4167 36.033 15.4167C29.983 15.4333 25.0664 20.3333 25.0664 26.3833V29.4833C25.0664 30.2833 24.6997 31.6 24.2997 32.2833L22.4164 35.4167C21.6997 36.6333 21.533 38.0167 21.983 39.2167C22.433 40.4333 23.4497 41.4 24.783 41.8333C26.583 42.4333 28.3997 42.8667 30.2497 43.1833C30.433 43.2167 30.6164 43.2333 30.7997 43.2667C31.033 43.3 31.283 43.3333 31.533 43.3667C31.9664 43.4333 32.3997 43.4833 32.8497 43.5167C33.8997 43.6167 34.9664 43.6667 36.033 43.6667C37.083 43.6667 38.133 43.6167 39.1664 43.5167C39.5497 43.4833 39.933 43.45 40.2997 43.4C40.5997 43.3667 40.8997 43.3333 41.1997 43.2833C41.383 43.2667 41.5664 43.2333 41.7497 43.2C43.6164 42.9 45.4664 42.4333 47.2664 41.8333C48.5497 41.4 49.533 40.4333 49.9997 39.2C50.4664 37.95 50.333 36.5833 49.6497 35.4333ZM37.2497 28.6667C37.2497 29.3667 36.683 29.9333 35.983 29.9333C35.283 29.9333 34.7164 29.3667 34.7164 28.6667V23.5C34.7164 22.8 35.283 22.2333 35.983 22.2333C36.683 22.2333 37.2497 22.8 37.2497 23.5V28.6667Z" fill="white"/>
<path d="M40.7165 45.35C40.0165 47.2833 38.1665 48.6667 35.9998 48.6667C34.6831 48.6667 33.3831 48.1333 32.4665 47.1833C31.9331 46.6833 31.5331 46.0167 31.2998 45.3333C31.5165 45.3667 31.7331 45.3833 31.9665 45.4167C32.3498 45.4667 32.7498 45.5167 33.1498 45.55C34.0998 45.6333 35.0665 45.6833 36.0331 45.6833C36.9831 45.6833 37.9331 45.6333 38.8665 45.55C39.2165 45.5167 39.5665 45.5 39.8998 45.45C40.1665 45.4167 40.4331 45.3833 40.7165 45.35Z" fill="white"/>
</g>
<defs>
<filter id="filter0_d_1198_14396" x="0" y="0" width="72" height="72" filterUnits="userSpaceOnUse" color-interpolation-filters="sRGB">
<feFlood flood-opacity="0" result="BackgroundImageFix"/>
<feColorMatrix in="SourceAlpha" type="matrix" values="0 0 0 0 0 0 0 0 0 0 0 0 0 0 0 0 0 0 127 0" result="hardAlpha"/>
<feOffset dy="4"/>
<feGaussianBlur stdDeviation="3"/>
<feComposite in2="hardAlpha" operator="out"/>
<feColorMatrix type="matrix" values="0 0 0 0 0 0 0 0 0 0.603922 0 0 0 0 0.878431 0 0 0 0.12 0"/>
<feBlend mode="normal" in2="BackgroundImageFix" result="effect1_dropShadow_1198_14396"/>
<feBlend mode="normal" in="SourceGraphic" in2="effect1_dropShadow_1198_14396" result="shape"/>
</filter>
<linearGradient id="paint0_linear_1198_14396" x1="28.5" y1="-6.49998" x2="87.9151" y2="49.0228" gradientUnits="userSpaceOnUse">
<stop stop-color="#00D1FF"/>
<stop offset="1" stop-color="#9B00FA"/>
</linearGradient>
</defs>
</svg>
