<svg width="72" height="72" viewBox="0 0 72 72" fill="none" xmlns="http://www.w3.org/2000/svg">
<g filter="url(#filter0_d_1198_14415)">
<rect x="6" y="2" width="60" height="60" rx="16" fill="url(#paint0_linear_1198_14415)"/>
<path d="M30.7997 19.6667C29.4664 13.9 20.783 13.8833 19.4497 19.6667C18.6664 23.05 20.8164 25.9167 22.6831 27.7C24.0497 28.9833 26.1997 28.9833 27.5664 27.7C29.4331 25.9167 31.5664 23.05 30.7997 19.6667ZM25.1831 22.3333C24.2664 22.3333 23.5164 21.5833 23.5164 20.6667C23.5164 19.75 24.2497 19 25.1664 19H25.1831C26.1164 19 26.8497 19.75 26.8497 20.6667C26.8497 21.5833 26.1164 22.3333 25.1831 22.3333Z" fill="white"/>
<path d="M52.5167 39.6667C51.1833 33.9 42.4667 33.8833 41.1167 39.6667C40.3333 43.05 42.4833 45.9167 44.3667 47.7C45.7333 48.9833 47.9 48.9833 49.2667 47.7C51.15 45.9167 53.3 43.05 52.5167 39.6667ZM46.8833 42.3333C45.9667 42.3333 45.2167 41.5833 45.2167 40.6667C45.2167 39.75 45.95 39 46.8667 39H46.8833C47.8 39 48.55 39.75 48.55 40.6667C48.55 41.5833 47.8 42.3333 46.8833 42.3333Z" fill="white"/>
<path d="M36.0001 44.9167H31.5334C29.6001 44.9167 27.9167 43.75 27.2501 41.95C26.5667 40.15 27.0667 38.1667 28.5167 36.8833L41.8334 25.2333C42.6334 24.5333 42.6501 23.5833 42.4167 22.9333C42.1667 22.2833 41.5334 21.5833 40.4667 21.5833H36.0001C35.3167 21.5833 34.7501 21.0167 34.7501 20.3333C34.7501 19.65 35.3167 19.0833 36.0001 19.0833H40.4667C42.4001 19.0833 44.0834 20.25 44.7501 22.05C45.4334 23.85 44.9334 25.8333 43.4834 27.1167L30.1667 38.7667C29.3667 39.4667 29.3501 40.4167 29.5834 41.0667C29.8334 41.7167 30.4667 42.4167 31.5334 42.4167H36.0001C36.6834 42.4167 37.2501 42.9833 37.2501 43.6667C37.2501 44.35 36.6834 44.9167 36.0001 44.9167Z" fill="white"/>
</g>
<defs>
<filter id="filter0_d_1198_14415" x="0" y="0" width="72" height="72" filterUnits="userSpaceOnUse" color-interpolation-filters="sRGB">
<feFlood flood-opacity="0" result="BackgroundImageFix"/>
<feColorMatrix in="SourceAlpha" type="matrix" values="0 0 0 0 0 0 0 0 0 0 0 0 0 0 0 0 0 0 127 0" result="hardAlpha"/>
<feOffset dy="4"/>
<feGaussianBlur stdDeviation="3"/>
<feComposite in2="hardAlpha" operator="out"/>
<feColorMatrix type="matrix" values="0 0 0 0 0 0 0 0 0 0.603922 0 0 0 0 0.878431 0 0 0 0.12 0"/>
<feBlend mode="normal" in2="BackgroundImageFix" result="effect1_dropShadow_1198_14415"/>
<feBlend mode="normal" in="SourceGraphic" in2="effect1_dropShadow_1198_14415" result="shape"/>
</filter>
<linearGradient id="paint0_linear_1198_14415" x1="28.5" y1="-6.49998" x2="87.9151" y2="49.0228" gradientUnits="userSpaceOnUse">
<stop stop-color="#00D1FF"/>
<stop offset="1" stop-color="#9B00FA"/>
</linearGradient>
</defs>
</svg>
