<svg width="72" height="72" viewBox="0 0 72 72" fill="none" xmlns="http://www.w3.org/2000/svg">
<g filter="url(#filter0_d_1198_14390)">
<rect x="6" y="2" width="60" height="60" rx="16" fill="url(#paint0_linear_1198_14390)"/>
<path d="M43.9169 17.9333V15.3333C43.9169 14.65 43.3502 14.0833 42.6669 14.0833C41.9836 14.0833 41.4169 14.65 41.4169 15.3333V17.8333H30.5836V15.3333C30.5836 14.65 30.0169 14.0833 29.3336 14.0833C28.6502 14.0833 28.0836 14.65 28.0836 15.3333V17.9333C23.5836 18.35 21.4002 21.0333 21.0669 25.0167C21.0336 25.5 21.4336 25.9 21.9002 25.9H50.1002C50.5835 25.9 50.9835 25.4833 50.9335 25.0167C50.6002 21.0333 48.4169 18.35 43.9169 17.9333Z" fill="white"/>
<path d="M47.6667 37C43.9833 37 41 39.9833 41 43.6667C41 44.9167 41.35 46.1 41.9667 47.1C43.1167 49.0333 45.2333 50.3333 47.6667 50.3333C50.1 50.3333 52.2167 49.0333 53.3667 47.1C53.9833 46.1 54.3333 44.9167 54.3333 43.6667C54.3333 39.9833 51.35 37 47.6667 37ZM51.1167 42.95L47.5667 46.2333C47.3333 46.45 47.0167 46.5667 46.7167 46.5667C46.4 46.5667 46.0833 46.45 45.8333 46.2L44.1833 44.55C43.7 44.0667 43.7 43.2667 44.1833 42.7833C44.6667 42.3 45.4667 42.3 45.95 42.7833L46.75 43.5833L49.4167 41.1167C49.9167 40.65 50.7167 40.6833 51.1833 41.1833C51.65 41.6833 51.6167 42.4667 51.1167 42.95Z" fill="white"/>
<path d="M49.3333 28.4H22.6667C21.75 28.4 21 29.15 21 30.0667V40.3333C21 45.3333 23.5 48.6667 29.3333 48.6667H37.55C38.7 48.6667 39.5 47.55 39.1333 46.4667C38.8 45.5 38.5167 44.4333 38.5167 43.6667C38.5167 38.6167 42.6333 34.5 47.6833 34.5C48.1667 34.5 48.65 34.5333 49.1167 34.6167C50.1167 34.7667 51.0167 33.9833 51.0167 32.9833V30.0833C51 29.15 50.25 28.4 49.3333 28.4ZM31.35 42.35C31.0333 42.65 30.6 42.8333 30.1667 42.8333C29.7333 42.8333 29.3 42.65 28.9833 42.35C28.6833 42.0333 28.5 41.6 28.5 41.1667C28.5 40.7333 28.6833 40.3 28.9833 39.9833C29.15 39.8333 29.3167 39.7167 29.5333 39.6333C30.15 39.3667 30.8833 39.5167 31.35 39.9833C31.65 40.3 31.8333 40.7333 31.8333 41.1667C31.8333 41.6 31.65 42.0333 31.35 42.35ZM31.35 36.5167C31.2667 36.5833 31.1833 36.65 31.1 36.7167C31 36.7833 30.9 36.8333 30.8 36.8667C30.7 36.9167 30.6 36.95 30.5 36.9667C30.3833 36.9833 30.2667 37 30.1667 37C29.7333 37 29.3 36.8167 28.9833 36.5167C28.6833 36.2 28.5 35.7667 28.5 35.3333C28.5 34.9 28.6833 34.4667 28.9833 34.15C29.3667 33.7667 29.95 33.5833 30.5 33.7C30.6 33.7167 30.7 33.75 30.8 33.8C30.9 33.8333 31 33.8833 31.1 33.95C31.1833 34.0167 31.2667 34.0833 31.35 34.15C31.65 34.4667 31.8333 34.9 31.8333 35.3333C31.8333 35.7667 31.65 36.2 31.35 36.5167ZM37.1833 36.5167C36.8667 36.8167 36.4333 37 36 37C35.5667 37 35.1333 36.8167 34.8167 36.5167C34.5167 36.2 34.3333 35.7667 34.3333 35.3333C34.3333 34.9 34.5167 34.4667 34.8167 34.15C35.45 33.5333 36.5667 33.5333 37.1833 34.15C37.4833 34.4667 37.6667 34.9 37.6667 35.3333C37.6667 35.7667 37.4833 36.2 37.1833 36.5167Z" fill="white"/>
</g>
<defs>
<filter id="filter0_d_1198_14390" x="0" y="0" width="72" height="72" filterUnits="userSpaceOnUse" color-interpolation-filters="sRGB">
<feFlood flood-opacity="0" result="BackgroundImageFix"/>
<feColorMatrix in="SourceAlpha" type="matrix" values="0 0 0 0 0 0 0 0 0 0 0 0 0 0 0 0 0 0 127 0" result="hardAlpha"/>
<feOffset dy="4"/>
<feGaussianBlur stdDeviation="3"/>
<feComposite in2="hardAlpha" operator="out"/>
<feColorMatrix type="matrix" values="0 0 0 0 0 0 0 0 0 0.603922 0 0 0 0 0.878431 0 0 0 0.12 0"/>
<feBlend mode="normal" in2="BackgroundImageFix" result="effect1_dropShadow_1198_14390"/>
<feBlend mode="normal" in="SourceGraphic" in2="effect1_dropShadow_1198_14390" result="shape"/>
</filter>
<linearGradient id="paint0_linear_1198_14390" x1="28.5" y1="-6.49998" x2="87.9151" y2="49.0228" gradientUnits="userSpaceOnUse">
<stop stop-color="#00D1FF"/>
<stop offset="1" stop-color="#9B00FA"/>
</linearGradient>
</defs>
</svg>
