<svg width="24" height="25" viewBox="0 0 24 25" fill="none" xmlns="http://www.w3.org/2000/svg">
<path d="M8.29004 6.79C7.87004 6.79 7.54004 6.45 7.54004 6.04V3.25C7.54004 2.84 7.87004 2.5 8.29004 2.5C8.71004 2.5 9.04004 2.84 9.04004 3.25V6.03C9.04004 6.45 8.71004 6.79 8.29004 6.79Z" fill="#0A1629"/>
<path d="M15.71 6.79C15.29 6.79 14.96 6.45 14.96 6.04V3.25C14.96 2.83 15.3 2.5 15.71 2.5C16.13 2.5 16.46 2.84 16.46 3.25V6.03C16.46 6.45 16.13 6.79 15.71 6.79Z" fill="#0A1629"/>
<path d="M19.57 5C18.91 4.51 17.96 4.98 17.96 5.81V5.91C17.96 7.08 17.12 8.16 15.95 8.28C14.6 8.42 13.46 7.36 13.46 6.04V5C13.46 4.45 13.01 4 12.46 4H11.54C10.99 4 10.54 4.45 10.54 5V6.04C10.54 6.83 10.13 7.53 9.51 7.92C9.42 7.98 9.32 8.03 9.22 8.08C9.13 8.13 9.03 8.17 8.92 8.2C8.8 8.24 8.67 8.27 8.53 8.28C8.37 8.3 8.21 8.3 8.05 8.28C7.91 8.27 7.78 8.24 7.66 8.2C7.56 8.17 7.46 8.13 7.36 8.08C7.26 8.03 7.16 7.98 7.07 7.92C6.44 7.48 6.04 6.72 6.04 5.91V5.81C6.04 5.04 5.22 4.58 4.57 4.91C4.56 4.92 4.55 4.92 4.54 4.93C4.5 4.95 4.47 4.97 4.43 5C4.4 5.03 4.36 5.05 4.33 5.08C4.05 5.3 3.8 5.55 3.59 5.82C3.48 5.94 3.39 6.07 3.31 6.2C3.3 6.21 3.29 6.22 3.28 6.24C3.19 6.37 3.11 6.52 3.04 6.66C3.02 6.68 3.01 6.69 3.01 6.71C2.95 6.83 2.89 6.95 2.85 7.08C2.82 7.13 2.81 7.17 2.79 7.22C2.73 7.37 2.69 7.52 2.65 7.67C2.61 7.81 2.58 7.96 2.56 8.11C2.54 8.22 2.53 8.33 2.52 8.45C2.51 8.59 2.5 8.73 2.5 8.87V17.63C2.5 20.32 4.68 22.5 7.37 22.5H16.63C19.32 22.5 21.5 20.32 21.5 17.63V8.87C21.5 7.28 20.74 5.89 19.57 5ZM12 17.92H7.36C6.95 17.92 6.61 17.58 6.61 17.17C6.61 16.75 6.95 16.41 7.36 16.41H12C12.42 16.41 12.75 16.75 12.75 17.17C12.75 17.58 12.42 17.92 12 17.92ZM14.78 14.21H7.36C6.95 14.21 6.61 13.87 6.61 13.46C6.61 13.04 6.95 12.7 7.36 12.7H14.78C15.2 12.7 15.54 13.04 15.54 13.46C15.54 13.87 15.2 14.21 14.78 14.21Z" fill="#0A1629"/>
</svg>
