<svg width="16" height="16" viewBox="0 0 16 16" fill="none" xmlns="http://www.w3.org/2000/svg">
<path d="M7.99998 0.833658C4.04665 0.833658 0.833313 4.04699 0.833313 8.00033C0.833313 11.9537 4.04665 15.167 7.99998 15.167C11.9533 15.167 15.1666 11.9537 15.1666 8.00033C15.1666 4.04699 11.9533 0.833658 7.99998 0.833658ZM7.99998 14.167C4.59998 14.167 1.83331 11.4003 1.83331 8.00033C1.83331 4.60033 4.59998 1.83366 7.99998 1.83366C11.4 1.83366 14.1666 4.60033 14.1666 8.00033C14.1666 11.4003 11.4 14.167 7.99998 14.167Z" fill="#7D8592"/>
<path d="M8 6.83366C7.72667 6.83366 7.5 7.06033 7.5 7.33366V10.667C7.5 10.9403 7.72667 11.167 8 11.167C8.27333 11.167 8.5 10.9403 8.5 10.667V7.33366C8.5 7.06033 8.27333 6.83366 8 6.83366Z" fill="#7D8592"/>
<path d="M7.99998 4.66707C7.91331 4.66707 7.82665 4.68707 7.74665 4.7204C7.66665 4.75374 7.59331 4.8004 7.52665 4.8604C7.46665 4.92707 7.41998 4.99374 7.38665 5.0804C7.35331 5.1604 7.33331 5.24707 7.33331 5.33374C7.33331 5.4204 7.35331 5.50707 7.38665 5.58707C7.41998 5.66707 7.46665 5.7404 7.52665 5.80707C7.59331 5.86707 7.66665 5.91374 7.74665 5.94707C7.90665 6.01374 8.09331 6.01374 8.25331 5.94707C8.33331 5.91374 8.40665 5.86707 8.47331 5.80707C8.53331 5.7404 8.57998 5.66707 8.61331 5.58707C8.64665 5.50707 8.66665 5.4204 8.66665 5.33374C8.66665 5.24707 8.64665 5.1604 8.61331 5.0804C8.57998 4.99374 8.53331 4.92707 8.47331 4.8604C8.40665 4.8004 8.33331 4.75374 8.25331 4.7204C8.17331 4.68707 8.08665 4.66707 7.99998 4.66707Z" fill="#7D8592"/>
</svg>
