<svg width="20" height="20" viewBox="0 0 20 20" fill="none" xmlns="http://www.w3.org/2000/svg">
<path d="M10 13.125C11.725 13.125 13.125 11.725 13.125 10C13.125 8.275 11.725 6.875 10 6.875C8.275 6.875 6.875 8.275 6.875 10C6.875 11.725 8.275 13.125 10 13.125ZM10 8.125C11.0333 8.125 11.875 8.96667 11.875 10C11.875 11.0333 11.0333 11.875 10 11.875C8.96667 11.875 8.125 11.0333 8.125 10C8.125 8.96667 8.96667 8.125 10 8.125Z" fill="#0A1629"/>
<path d="M7.32498 18.4913C7.49998 18.4913 7.67498 18.4663 7.84998 18.4246C8.36665 18.2829 8.79998 17.9579 9.07498 17.4996L9.17498 17.3329C9.66665 16.4829 10.3416 16.4829 10.8333 17.3329L10.925 17.4913C11.2 17.9579 11.6333 18.2913 12.15 18.4246C12.675 18.5663 13.2166 18.4913 13.675 18.2163L15.1083 17.3913C15.6166 17.0996 15.9833 16.6246 16.1416 16.0496C16.2916 15.4746 16.2166 14.8829 15.925 14.3746C15.6833 13.9496 15.6166 13.5663 15.7583 13.3246C15.9 13.0829 16.2583 12.9413 16.75 12.9413C17.9666 12.9413 18.9583 11.9496 18.9583 10.7329V9.26625C18.9583 8.04959 17.9666 7.05792 16.75 7.05792C16.2583 7.05792 15.9 6.91625 15.7583 6.67459C15.6166 6.43292 15.675 6.04959 15.925 5.62459C16.2166 5.11625 16.2916 4.51625 16.1416 3.94959C15.9916 3.37459 15.625 2.89959 15.1083 2.60792L13.6666 1.78292C12.725 1.22459 11.4833 1.54959 10.9166 2.50792L10.8166 2.67459C10.325 3.52459 9.64998 3.52459 9.15831 2.67459L9.06665 2.51625C8.49998 1.54959 7.25831 1.22459 6.30831 1.79125L4.87498 2.61625C4.36665 2.90792 3.99998 3.38292 3.84165 3.95792C3.69165 4.53292 3.76665 5.12459 4.05832 5.63292C4.29998 6.05792 4.36665 6.44125 4.22498 6.68292C4.08331 6.92459 3.72498 7.06625 3.23331 7.06625C2.01665 7.06625 1.02498 8.05792 1.02498 9.27459V10.7413C1.02498 11.9579 2.01665 12.9496 3.23331 12.9496C3.72498 12.9496 4.08331 13.0913 4.22498 13.3329C4.36665 13.5746 4.30832 13.9579 4.05832 14.3829C3.76665 14.8913 3.68332 15.4913 3.84165 16.0579C3.99165 16.6329 4.35831 17.1079 4.87498 17.3996L6.31665 18.2246C6.63331 18.3996 6.97498 18.4913 7.32498 18.4913ZM9.99998 15.4079C9.25831 15.4079 8.56665 15.8746 8.09165 16.6996L7.99998 16.8579C7.89998 17.0329 7.73331 17.1579 7.53331 17.2079C7.33331 17.2579 7.13331 17.2329 6.96665 17.1329L5.52498 16.2996C5.30831 16.1746 5.14165 15.9663 5.07498 15.7163C5.00831 15.4663 5.04165 15.2079 5.16665 14.9913C5.64165 14.1746 5.69998 13.3329 5.33331 12.6913C4.96665 12.0496 4.20831 11.6829 3.25831 11.6829C2.72498 11.6829 2.29998 11.2579 2.29998 10.7246V9.25792C2.29998 8.73292 2.72498 8.29959 3.25831 8.29959C4.20831 8.29959 4.96665 7.93292 5.33331 7.29125C5.69998 6.64959 5.64165 5.80792 5.16665 4.99125C5.04165 4.77459 5.00831 4.51625 5.07498 4.26625C5.14165 4.01625 5.29998 3.81625 5.51665 3.68292L6.95831 2.85792C7.31665 2.64125 7.79165 2.76625 8.00831 3.13292L8.09998 3.29125C8.57498 4.11625 9.26665 4.58292 10.0083 4.58292C10.75 4.58292 11.4416 4.11625 11.9166 3.29125L12.0083 3.12459C12.2166 2.77459 12.6833 2.64959 13.0416 2.85792L14.4833 3.69125C14.7 3.81625 14.8666 4.02459 14.9333 4.27459C15 4.52459 14.9666 4.78292 14.8416 4.99959C14.3666 5.81625 14.3083 6.65792 14.675 7.29959C15.0416 7.94125 15.8 8.30792 16.75 8.30792C17.2833 8.30792 17.7083 8.73292 17.7083 9.26625V10.7329C17.7083 11.2579 17.2833 11.6913 16.75 11.6913C15.8 11.6913 15.0416 12.0579 14.675 12.6996C14.3083 13.3413 14.3666 14.1829 14.8416 14.9996C14.9666 15.2163 15 15.4746 14.9333 15.7246C14.8666 15.9746 14.7083 16.1746 14.4916 16.3079L13.05 17.1329C12.875 17.2413 12.6666 17.2663 12.475 17.2163C12.275 17.1663 12.1083 17.0329 12 16.8579L11.9083 16.6996C11.4333 15.8829 10.7416 15.4079 9.99998 15.4079Z" fill="#0A1629"/>
</svg>
