<svg width="20" height="20" viewBox="0 0 20 20" fill="none" xmlns="http://www.w3.org/2000/svg">
<g id="vuesax/outline/sms">
<g id="sms">
<path id="Vector" d="M14.1667 17.7096H5.83342C2.79175 17.7096 1.04175 15.9596 1.04175 12.918V7.08464C1.04175 4.04297 2.79175 2.29297 5.83342 2.29297H14.1667C17.2084 2.29297 18.9584 4.04297 18.9584 7.08464V12.918C18.9584 15.9596 17.2084 17.7096 14.1667 17.7096ZM5.83342 3.54297C3.45008 3.54297 2.29175 4.7013 2.29175 7.08464V12.918C2.29175 15.3013 3.45008 16.4596 5.83342 16.4596H14.1667C16.5501 16.4596 17.7084 15.3013 17.7084 12.918V7.08464C17.7084 4.7013 16.5501 3.54297 14.1667 3.54297H5.83342Z" fill="white"/>
<path id="Vector_2" d="M9.99973 10.7259C9.29973 10.7259 8.5914 10.5093 8.04974 10.0676L5.4414 7.98429C5.17473 7.76762 5.12474 7.37595 5.3414 7.10928C5.55807 6.84262 5.94974 6.79262 6.21641 7.00929L8.82473 9.09262C9.45806 9.60095 10.5331 9.60095 11.1664 9.09262L13.7747 7.00929C14.0414 6.79262 14.4414 6.83428 14.6497 7.10928C14.8664 7.37595 14.8247 7.77595 14.5497 7.98429L11.9414 10.0676C11.4081 10.5093 10.6997 10.7259 9.99973 10.7259Z" fill="white"/>
</g>
</g>
</svg>
