<svg width="20" height="20" viewBox="0 0 20 20" fill="none" xmlns="http://www.w3.org/2000/svg">
<g id="vuesax/outline/document-text">
<g id="document-text">
<path id="Vector" d="M13.3333 18.9596H6.66667C3.625 18.9596 1.875 17.2096 1.875 14.168V5.83464C1.875 2.79297 3.625 1.04297 6.66667 1.04297H13.3333C16.375 1.04297 18.125 2.79297 18.125 5.83464V14.168C18.125 17.2096 16.375 18.9596 13.3333 18.9596ZM6.66667 2.29297C4.28333 2.29297 3.125 3.4513 3.125 5.83464V14.168C3.125 16.5513 4.28333 17.7096 6.66667 17.7096H13.3333C15.7167 17.7096 16.875 16.5513 16.875 14.168V5.83464C16.875 3.4513 15.7167 2.29297 13.3333 2.29297H6.66667Z" fill="#7D8592"/>
<path id="Vector_2" d="M15.4167 7.70833H13.75C12.4834 7.70833 11.4584 6.68333 11.4584 5.41667V3.75C11.4584 3.40833 11.7417 3.125 12.0834 3.125C12.425 3.125 12.7084 3.40833 12.7084 3.75V5.41667C12.7084 5.99167 13.175 6.45833 13.75 6.45833H15.4167C15.7584 6.45833 16.0417 6.74167 16.0417 7.08333C16.0417 7.425 15.7584 7.70833 15.4167 7.70833Z" fill="#7D8592"/>
<path id="Vector_3" d="M9.99996 11.457H6.66663C6.32496 11.457 6.04163 11.1737 6.04163 10.832C6.04163 10.4904 6.32496 10.207 6.66663 10.207H9.99996C10.3416 10.207 10.625 10.4904 10.625 10.832C10.625 11.1737 10.3416 11.457 9.99996 11.457Z" fill="#7D8592"/>
<path id="Vector_4" d="M13.3333 14.793H6.66663C6.32496 14.793 6.04163 14.5096 6.04163 14.168C6.04163 13.8263 6.32496 13.543 6.66663 13.543H13.3333C13.675 13.543 13.9583 13.8263 13.9583 14.168C13.9583 14.5096 13.675 14.793 13.3333 14.793Z" fill="#7D8592"/>
</g>
</g>
</svg>
