<svg width="21" height="20" viewBox="0 0 21 20" fill="none" xmlns="http://www.w3.org/2000/svg">
<g id="upload">
<path id="Union" fill-rule="evenodd" clip-rule="evenodd" d="M10.7392 1.92242C10.6655 1.89187 10.5847 1.875 10.5 1.875C10.4153 1.875 10.3345 1.89187 10.2608 1.92242C10.187 1.95292 10.118 1.99814 10.0581 2.05806L10.0575 2.05858L5.89139 6.22473C5.64731 6.4688 5.64731 6.86453 5.89139 7.10861C6.13547 7.35269 6.5312 7.35269 6.77528 7.10861L9.875 4.00888V12.5C9.875 12.8452 10.1548 13.125 10.5 13.125C10.8452 13.125 11.125 12.8452 11.125 12.5V4.00888L14.2247 7.10861C14.4688 7.35269 14.8645 7.35269 15.1086 7.10861C15.3527 6.86453 15.3527 6.4688 15.1086 6.22473L10.9419 2.05806C10.882 1.99814 10.813 1.95292 10.7392 1.92242ZM3 11.875C3.34518 11.875 3.625 12.1548 3.625 12.5V15.8333C3.625 16.1096 3.73475 16.3746 3.9301 16.5699C4.12545 16.7653 4.3904 16.875 4.66667 16.875H16.3333C16.6096 16.875 16.8746 16.7653 17.0699 16.5699C17.2653 16.3746 17.375 16.1096 17.375 15.8333V12.5C17.375 12.1548 17.6548 11.875 18 11.875C18.3452 11.875 18.625 12.1548 18.625 12.5V15.8333C18.625 16.4411 18.3836 17.024 17.9538 17.4538C17.524 17.8836 16.9411 18.125 16.3333 18.125H4.66667C4.05888 18.125 3.47598 17.8836 3.04621 17.4538C2.61644 17.024 2.375 16.4411 2.375 15.8333V12.5C2.375 12.1548 2.65482 11.875 3 11.875Z" fill="#358BFE"/>
</g>
</svg>
