<svg width="32" height="32" viewBox="0 0 32 32" fill="none" xmlns="http://www.w3.org/2000/svg">
<rect width="32" height="32" rx="8" fill="#F4F9FD"/>
<path d="M16.7332 23.3834H11.6748C8.7165 23.3834 7.6665 21.3084 7.6665 19.375V12.625C7.6665 9.7417 8.7915 8.6167 11.6748 8.6167H16.7332C19.6165 8.6167 20.7415 9.7417 20.7415 12.625V19.375C20.7415 22.2584 19.6165 23.3834 16.7332 23.3834ZM11.6748 9.88337C9.49984 9.88337 8.93317 10.45 8.93317 12.625V19.375C8.93317 20.4 9.2915 22.1167 11.6748 22.1167H16.7332C18.9082 22.1167 19.4748 21.55 19.4748 19.375V12.625C19.4748 10.45 18.9082 9.88337 16.7332 9.88337H11.6748Z" fill="#0A1629"/>
<path d="M23.3167 21.0916C22.9584 21.0916 22.5001 20.9749 21.9751 20.6082L19.7501 19.0499C19.5834 18.9332 19.4834 18.7416 19.4834 18.5332V13.4666C19.4834 13.2582 19.5834 13.0666 19.7501 12.9499L21.9751 11.3916C22.9667 10.6999 23.6917 10.8999 24.0334 11.0749C24.3751 11.2582 24.9584 11.7332 24.9584 12.9416V19.0499C24.9584 20.2582 24.3751 20.7416 24.0334 20.9166C23.8751 21.0082 23.6251 21.0916 23.3167 21.0916ZM20.7417 18.1999L22.7001 19.5666C23.0751 19.8249 23.3417 19.8499 23.4501 19.7916C23.5667 19.7332 23.6917 19.4999 23.6917 19.0499V12.9499C23.6917 12.4916 23.5584 12.2666 23.4501 12.2082C23.3417 12.1499 23.0751 12.1749 22.7001 12.4332L20.7417 13.7999V18.1999Z" fill="#0A1629"/>
<path d="M15.5835 15.7917C14.5502 15.7917 13.7085 14.9501 13.7085 13.9167C13.7085 12.8834 14.5502 12.0417 15.5835 12.0417C16.6168 12.0417 17.4585 12.8834 17.4585 13.9167C17.4585 14.9501 16.6168 15.7917 15.5835 15.7917ZM15.5835 13.2917C15.2418 13.2917 14.9585 13.5751 14.9585 13.9167C14.9585 14.2584 15.2418 14.5417 15.5835 14.5417C15.9252 14.5417 16.2085 14.2584 16.2085 13.9167C16.2085 13.5751 15.9252 13.2917 15.5835 13.2917Z" fill="#0A1629"/>
</svg>
