<svg width="24" height="24" viewBox="0 0 24 24" fill="none" xmlns="http://www.w3.org/2000/svg">
<rect width="24" height="24" rx="8" fill="#F4F9FD"/>
<path d="M12 18.6687C8.32136 18.6687 5.33125 15.6786 5.33125 12C5.33125 8.32136 8.32136 5.33125 12 5.33125C15.6786 5.33125 18.6687 8.32136 18.6687 12C18.6687 15.6786 15.6786 18.6687 12 18.6687ZM12 6.16875C8.78489 6.16875 6.16875 8.78489 6.16875 12C6.16875 15.2151 8.78489 17.8313 12 17.8313C15.2151 17.8313 17.8313 15.2151 17.8313 12C17.8313 8.78489 15.2151 6.16875 12 6.16875Z" fill="#0A1629" stroke="#0A1629" stroke-width="0.1"/>
<path d="M10.1249 18.0938H9.4999C9.24365 18.0938 9.03115 17.8813 9.03115 17.625C9.03115 17.3687 9.23115 17.1625 9.4874 17.1562C8.50615 13.8063 8.50615 10.1937 9.4874 6.84375C9.23115 6.8375 9.03115 6.63125 9.03115 6.375C9.03115 6.11875 9.24365 5.90625 9.4999 5.90625H10.1249C10.2749 5.90625 10.4187 5.98125 10.5062 6.1C10.5937 6.225 10.6187 6.38125 10.5687 6.525C9.39365 10.0563 9.39365 13.9438 10.5687 17.4813C10.6187 17.625 10.5937 17.7812 10.5062 17.9062C10.4187 18.0188 10.2749 18.0938 10.1249 18.0938Z" fill="#0A1629"/>
<path d="M13.875 18.0937C13.825 18.0937 13.775 18.0874 13.725 18.0687C13.4813 17.9874 13.3438 17.7187 13.4313 17.4749C14.6063 13.9437 14.6063 10.0562 13.4313 6.51868C13.35 6.27493 13.4813 6.00618 13.725 5.92493C13.975 5.84368 14.2375 5.97493 14.3188 6.21868C15.5625 9.94368 15.5625 14.0437 14.3188 17.7624C14.2563 17.9687 14.0688 18.0937 13.875 18.0937Z" fill="#0A1629"/>
<path d="M12 15.25C10.2562 15.25 8.51875 15.0062 6.84375 14.5125C6.8375 14.7625 6.63125 14.9687 6.375 14.9687C6.11875 14.9687 5.90625 14.7562 5.90625 14.5V13.875C5.90625 13.725 5.98125 13.5812 6.1 13.4937C6.225 13.4062 6.38125 13.3812 6.525 13.4312C10.0563 14.6062 13.95 14.6062 17.4813 13.4312C17.625 13.3812 17.7812 13.4062 17.9062 13.4937C18.0313 13.5812 18.1 13.725 18.1 13.875V14.5C18.1 14.7562 17.8875 14.9687 17.6313 14.9687C17.375 14.9687 17.1687 14.7687 17.1625 14.5125C15.4812 15.0062 13.7438 15.25 12 15.25Z" fill="#0A1629"/>
<path d="M17.6251 10.5938C17.5751 10.5938 17.5251 10.5876 17.4751 10.5688C13.9439 9.39385 10.0501 9.39385 6.51886 10.5688C6.26886 10.6501 6.00636 10.5188 5.92511 10.2751C5.85011 10.0251 5.98136 9.7626 6.22511 9.68135C9.95011 8.4376 14.0501 8.4376 17.7689 9.68135C18.0126 9.7626 18.1501 10.0313 18.0626 10.2751C18.0064 10.4688 17.8189 10.5938 17.6251 10.5938Z" fill="#0A1629"/>
</svg>
