<svg width="24" height="25" viewBox="0 0 24 25" fill="none" xmlns="http://www.w3.org/2000/svg">
<path d="M17.62 11.2496C17.19 11.2496 16.85 10.8996 16.85 10.4796C16.85 10.1096 16.48 9.33961 15.86 8.66961C15.25 8.01961 14.58 7.63961 14.02 7.63961C13.59 7.63961 13.25 7.28961 13.25 6.86961C13.25 6.44961 13.6 6.09961 14.02 6.09961C15.02 6.09961 16.07 6.63961 16.99 7.60961C17.85 8.51961 18.4 9.64961 18.4 10.4696C18.4 10.8996 18.05 11.2496 17.62 11.2496Z" fill="#0A1629"/>
<path d="M21.23 11.25C20.8 11.25 20.46 10.9 20.46 10.48C20.46 6.93 17.57 4.05 14.03 4.05C13.6 4.05 13.26 3.7 13.26 3.28C13.26 2.86 13.6 2.5 14.02 2.5C18.42 2.5 22 6.08 22 10.48C22 10.9 21.65 11.25 21.23 11.25Z" fill="#0A1629"/>
<path d="M11.05 15.45L9.2 17.3C8.81 17.69 8.19 17.69 7.79 17.31C7.68 17.2 7.57 17.1 7.46 16.99C6.43 15.95 5.5 14.86 4.67 13.72C3.85 12.58 3.19 11.44 2.71 10.31C2.24 9.17 2 8.08 2 7.04C2 6.36 2.12 5.71 2.36 5.11C2.6 4.5 2.98 3.94 3.51 3.44C4.15 2.81 4.85 2.5 5.59 2.5C5.87 2.5 6.15 2.56 6.4 2.68C6.66 2.8 6.89 2.98 7.07 3.24L9.39 6.51C9.57 6.76 9.7 6.99 9.79 7.21C9.88 7.42 9.93 7.63 9.93 7.82C9.93 8.06 9.86 8.3 9.72 8.53C9.59 8.76 9.4 9 9.16 9.24L8.4 10.03C8.29 10.14 8.24 10.27 8.24 10.43C8.24 10.51 8.25 10.58 8.27 10.66C8.3 10.74 8.33 10.8 8.35 10.86C8.53 11.19 8.84 11.62 9.28 12.14C9.73 12.66 10.21 13.19 10.73 13.72C10.83 13.82 10.94 13.92 11.04 14.02C11.44 14.41 11.45 15.05 11.05 15.45Z" fill="#0A1629"/>
<path d="M21.9701 18.8291C21.9701 19.1091 21.9201 19.3991 21.8201 19.6791C21.7901 19.7591 21.7601 19.8391 21.7201 19.9191C21.5501 20.2791 21.3301 20.6191 21.0401 20.9391C20.5501 21.4791 20.0101 21.8691 19.4001 22.1191C19.3901 22.1191 19.3801 22.1291 19.3701 22.1291C18.7801 22.3691 18.1401 22.4991 17.4501 22.4991C16.4301 22.4991 15.3401 22.2591 14.1901 21.7691C13.0401 21.2791 11.8901 20.6191 10.7501 19.7891C10.3601 19.4991 9.9701 19.2091 9.6001 18.8991L12.8701 15.6291C13.1501 15.8391 13.4001 15.9991 13.6101 16.1091C13.6601 16.1291 13.7201 16.1591 13.7901 16.1891C13.8701 16.2191 13.9501 16.2291 14.0401 16.2291C14.2101 16.2291 14.3401 16.1691 14.4501 16.0591L15.2101 15.3091C15.4601 15.0591 15.7001 14.8691 15.9301 14.7491C16.1601 14.6091 16.3901 14.5391 16.6401 14.5391C16.8301 14.5391 17.0301 14.5791 17.2501 14.6691C17.4701 14.7591 17.7001 14.8891 17.9501 15.0591L21.2601 17.4091C21.5201 17.5891 21.7001 17.7991 21.8101 18.0491C21.9101 18.2991 21.9701 18.5491 21.9701 18.8291Z" fill="#0A1629"/>
</svg>
