<svg width="24" height="24" viewBox="0 0 24 24" fill="none" xmlns="http://www.w3.org/2000/svg">
<rect width="24" height="24" rx="12" fill="#F4F4F4"/>
<path d="M17.9999 8.48681C17.9866 8.48681 17.9666 8.48681 17.9466 8.48681C14.4199 8.13348 10.8999 8.00015 7.41328 8.35348L6.05328 8.48681C5.77328 8.51348 5.52661 8.31348 5.49994 8.03348C5.47328 7.75348 5.67328 7.51348 5.94661 7.48681L7.30661 7.35348C10.8533 6.99348 14.4466 7.13348 18.0466 7.48681C18.3199 7.51348 18.5199 7.76015 18.4933 8.03348C18.4733 8.29348 18.2533 8.48681 17.9999 8.48681Z" fill="#CB0606"/>
<path d="M9.66675 7.8135C9.64009 7.8135 9.61342 7.8135 9.58009 7.80683C9.31342 7.76016 9.12675 7.50016 9.17342 7.2335L9.32009 6.36016C9.42675 5.72016 9.57342 4.8335 11.1268 4.8335H12.8734C14.4334 4.8335 14.5801 5.7535 14.6801 6.36683L14.8268 7.2335C14.8734 7.50683 14.6868 7.76683 14.4201 7.80683C14.1468 7.8535 13.8868 7.66683 13.8468 7.40016L13.7001 6.5335C13.6068 5.9535 13.5868 5.84016 12.8801 5.84016H11.1334C10.4268 5.84016 10.4134 5.9335 10.3134 6.52683L10.1601 7.3935C10.1201 7.64016 9.90675 7.8135 9.66675 7.8135Z" fill="#CB0606"/>
<path d="M14.1401 19.1667H9.8601C7.53343 19.1667 7.4401 17.8801 7.36676 16.8401L6.93343 10.1267C6.91343 9.85338 7.12676 9.61338 7.4001 9.59338C7.6801 9.58005 7.91343 9.78672 7.93343 10.0601L8.36676 16.7734C8.4401 17.7867 8.46676 18.1667 9.8601 18.1667H14.1401C15.5401 18.1667 15.5668 17.7867 15.6334 16.7734L16.0668 10.0601C16.0868 9.78672 16.3268 9.58005 16.6001 9.59338C16.8734 9.61338 17.0868 9.84672 17.0668 10.1267L16.6334 16.8401C16.5601 17.8801 16.4668 19.1667 14.1401 19.1667Z" fill="#CB0606"/>
<path d="M13.1067 15.5H10.8867C10.6134 15.5 10.3867 15.2733 10.3867 15C10.3867 14.7267 10.6134 14.5 10.8867 14.5H13.1067C13.3801 14.5 13.6067 14.7267 13.6067 15C13.6067 15.2733 13.3801 15.5 13.1067 15.5Z" fill="#CB0606"/>
<path d="M13.6666 12.8335H10.3333C10.0599 12.8335 9.83325 12.6068 9.83325 12.3335C9.83325 12.0602 10.0599 11.8335 10.3333 11.8335H13.6666C13.9399 11.8335 14.1666 12.0602 14.1666 12.3335C14.1666 12.6068 13.9399 12.8335 13.6666 12.8335Z" fill="#CB0606"/>
</svg>
