<svg width="16" height="12" viewBox="0 0 16 12" fill="none" xmlns="http://www.w3.org/2000/svg">
<path d="M15.3332 1.42063C14.7936 1.66181 14.2136 1.82424 13.6049 1.89745C14.2265 1.52276 14.7037 0.92904 14.928 0.221493C14.3469 0.568493 13.7028 0.82076 13.017 0.956734C12.4689 0.36792 11.6861 0 10.8208 0C8.87797 0 7.4505 1.82485 7.88917 3.7192C5.38917 3.59307 3.17206 2.3872 1.68768 0.554347C0.899344 1.91592 1.27884 3.69707 2.6184 4.59907C2.12584 4.58307 1.6614 4.44707 1.25622 4.22C1.22322 5.62347 2.2224 6.9364 3.6695 7.22867C3.24601 7.3444 2.78217 7.37147 2.3104 7.2804C2.69294 8.48373 3.80394 9.35933 5.1215 9.38387C3.8565 10.3825 2.26273 10.8285 0.666504 10.6391C1.99812 11.4985 3.58028 12 5.27917 12C10.866 12 14.0224 7.2496 13.8317 2.98892C14.4196 2.56132 14.9298 2.02789 15.3332 1.42063Z" fill="#0A1629"/>
</svg>
