<svg width="25" height="24" viewBox="0 0 25 24" fill="none" xmlns="http://www.w3.org/2000/svg">
<g clip-path="url(#clip0_423_6714)">
<path d="M12.5183 24C19.1558 24 24.5365 18.6274 24.5365 12C24.5365 5.37258 19.1558 0 12.5183 0C5.88077 0 0.5 5.37258 0.5 12C0.5 18.6274 5.88077 24 12.5183 24Z" fill="#E0E0E0"/>
<path d="M12.5182 23.6353C19.0549 23.6353 24.3539 18.3443 24.3539 11.8176C24.3539 5.29093 19.0549 0 12.5182 0C5.98161 0 0.682617 5.29093 0.682617 11.8176C0.682617 18.3443 5.98161 23.6353 12.5182 23.6353Z" fill="white"/>
<mask id="mask0_423_6714" style="mask-type:luminance" maskUnits="userSpaceOnUse" x="4" y="3" width="17" height="17">
<path d="M20.1894 10.4316H12.7008V13.5319H17.0113C16.6095 15.5015 14.9291 16.6322 12.7008 16.6322C10.0707 16.6322 7.95198 14.5167 7.95198 11.8905C7.95198 9.26439 10.0707 7.14889 12.7008 7.14889C13.8333 7.14889 14.8561 7.55011 15.6597 8.20665L17.9976 5.87229C16.573 4.63217 14.7465 3.86621 12.7008 3.86621C8.24422 3.86621 4.66431 7.44068 4.66431 11.8905C4.66431 16.3404 8.24422 19.9148 12.7008 19.9148C16.7191 19.9148 20.3721 16.9969 20.3721 11.8905C20.3721 11.4164 20.299 10.9057 20.1894 10.4316Z" fill="white"/>
</mask>
<g mask="url(#mask0_423_6714)">
<path d="M3.93359 16.6322V7.14893L10.1436 11.8906L3.93359 16.6322Z" fill="#FBBC05"/>
</g>
<mask id="mask1_423_6714" style="mask-type:luminance" maskUnits="userSpaceOnUse" x="4" y="3" width="17" height="17">
<path d="M20.1894 10.4316H12.7008V13.5319H17.0113C16.6095 15.5015 14.9291 16.6322 12.7008 16.6322C10.0707 16.6322 7.95198 14.5167 7.95198 11.8905C7.95198 9.26439 10.0707 7.14889 12.7008 7.14889C13.8333 7.14889 14.8561 7.55011 15.6597 8.20665L17.9976 5.87229C16.573 4.63217 14.7465 3.86621 12.7008 3.86621C8.24422 3.86621 4.66431 7.44068 4.66431 11.8905C4.66431 16.3404 8.24422 19.9148 12.7008 19.9148C16.7191 19.9148 20.3721 16.9969 20.3721 11.8905C20.3721 11.4164 20.299 10.9057 20.1894 10.4316Z" fill="white"/>
</mask>
<g mask="url(#mask1_423_6714)">
<path d="M3.93359 7.14888L10.1436 11.8905L12.7007 9.6656L21.4678 8.2431V3.13672H3.93359V7.14888Z" fill="#EA4335"/>
</g>
<mask id="mask2_423_6714" style="mask-type:luminance" maskUnits="userSpaceOnUse" x="4" y="3" width="17" height="17">
<path d="M20.1894 10.4316H12.7008V13.5319H17.0113C16.6095 15.5015 14.9291 16.6322 12.7008 16.6322C10.0707 16.6322 7.95198 14.5167 7.95198 11.8905C7.95198 9.26439 10.0707 7.14889 12.7008 7.14889C13.8333 7.14889 14.8561 7.55011 15.6597 8.20665L17.9976 5.87229C16.573 4.63217 14.7465 3.86621 12.7008 3.86621C8.24422 3.86621 4.66431 7.44068 4.66431 11.8905C4.66431 16.3404 8.24422 19.9148 12.7008 19.9148C16.7191 19.9148 20.3721 16.9969 20.3721 11.8905C20.3721 11.4164 20.299 10.9057 20.1894 10.4316Z" fill="white"/>
</mask>
<g mask="url(#mask2_423_6714)">
<path d="M3.93359 16.6322L14.8925 8.2431L17.7783 8.60784L21.4678 3.13672V20.6443H3.93359V16.6322Z" fill="#34A853"/>
</g>
<mask id="mask3_423_6714" style="mask-type:luminance" maskUnits="userSpaceOnUse" x="4" y="3" width="17" height="17">
<path d="M20.1894 10.4316H12.7008V13.5319H17.0113C16.6095 15.5015 14.9291 16.6322 12.7008 16.6322C10.0707 16.6322 7.95198 14.5167 7.95198 11.8905C7.95198 9.26439 10.0707 7.14889 12.7008 7.14889C13.8333 7.14889 14.8561 7.55011 15.6597 8.20665L17.9976 5.87229C16.573 4.63217 14.7465 3.86621 12.7008 3.86621C8.24422 3.86621 4.66431 7.44068 4.66431 11.8905C4.66431 16.3404 8.24422 19.9148 12.7008 19.9148C16.7191 19.9148 20.3721 16.9969 20.3721 11.8905C20.3721 11.4164 20.299 10.9057 20.1894 10.4316Z" fill="white"/>
</mask>
<g mask="url(#mask3_423_6714)">
<path d="M21.468 20.6444L10.1438 11.8906L8.68262 10.7963L21.468 7.14893V20.6444Z" fill="#4285F4"/>
</g>
</g>
<defs>
<clipPath id="clip0_423_6714">
<rect width="24" height="24" fill="white" transform="translate(0.5)"/>
</clipPath>
</defs>
</svg>
