<svg width="24" height="25" viewBox="0 0 24 25" fill="none" xmlns="http://www.w3.org/2000/svg">
<path d="M12 19.25C11.59 19.25 11.25 18.91 11.25 18.5V15.5C11.25 15.09 11.59 14.75 12 14.75C12.41 14.75 12.75 15.09 12.75 15.5V18.5C12.75 18.91 12.41 19.25 12 19.25Z" fill="#0A1629"/>
<path d="M17.6 23.0608H6.39996C4.57996 23.0608 2.91996 21.6608 2.61996 19.8708L1.28996 11.9008C1.06996 10.6608 1.67996 9.0708 2.66996 8.2808L9.59996 2.7308C10.94 1.6508 13.05 1.6608 14.4 2.7408L21.33 8.2808C22.31 9.0708 22.91 10.6608 22.71 11.9008L21.38 19.8608C21.08 21.6308 19.38 23.0608 17.6 23.0608ZM11.99 3.4308C11.46 3.4308 10.93 3.5908 10.54 3.9008L3.60996 9.4608C3.04996 9.9108 2.64996 10.9508 2.76996 11.6608L4.09996 19.6208C4.27996 20.6708 5.32996 21.5608 6.39996 21.5608H17.6C18.67 21.5608 19.72 20.6708 19.9 19.6108L21.23 11.6508C21.34 10.9508 20.94 9.8908 20.39 9.4508L13.46 3.9108C13.06 3.5908 12.52 3.4308 11.99 3.4308Z" fill="#0A1629"/>
</svg>
