<svg width="13" height="12" viewBox="0 0 13 12" fill="none" xmlns="http://www.w3.org/2000/svg">
<path d="M6.5 0.625002C3.535 0.625002 1.125 3.035 1.125 6C1.125 8.965 3.535 11.375 6.5 11.375C9.465 11.375 11.875 8.965 11.875 6C11.875 3.035 9.465 0.625002 6.5 0.625002ZM6.5 10.625C3.95 10.625 1.875 8.55 1.875 6C1.875 3.45 3.95 1.375 6.5 1.375C9.05 1.375 11.125 3.45 11.125 6C11.125 8.55 9.05 10.625 6.5 10.625Z" fill="white"/>
<path d="M6.5 5.125C6.295 5.125 6.125 5.295 6.125 5.5V8C6.125 8.205 6.295 8.375 6.5 8.375C6.705 8.375 6.875 8.205 6.875 8V5.5C6.875 5.295 6.705 5.125 6.5 5.125Z" fill="white"/>
<path d="M6.5 3.50006C6.435 3.50006 6.37 3.51506 6.31 3.54006C6.25 3.56506 6.195 3.60006 6.145 3.64506C6.1 3.69506 6.065 3.74506 6.04 3.81006C6.015 3.87006 6 3.93506 6 4.00006C6 4.06506 6.015 4.13006 6.04 4.19006C6.065 4.25006 6.1 4.30506 6.145 4.35506C6.195 4.40006 6.25 4.43506 6.31 4.46006C6.43 4.51006 6.57 4.51006 6.69 4.46006C6.75 4.43506 6.805 4.40006 6.855 4.35506C6.9 4.30506 6.935 4.25006 6.96 4.19006C6.985 4.13006 7 4.06506 7 4.00006C7 3.93506 6.985 3.87006 6.96 3.81006C6.935 3.74506 6.9 3.69506 6.855 3.64506C6.805 3.60006 6.75 3.56506 6.69 3.54006C6.63 3.51506 6.565 3.50006 6.5 3.50006Z" fill="white"/>
</svg>
