<svg width="24" height="24" viewBox="0 0 24 24" fill="none" xmlns="http://www.w3.org/2000/svg">
<rect width="24" height="24" rx="8" fill="#F4F9FD"/>
<path d="M15.3375 7.9125C15.1892 7.9125 15.0442 7.95649 14.9208 8.0389C14.7975 8.12131 14.7014 8.23844 14.6446 8.37549C14.5878 8.51253 14.573 8.66333 14.6019 8.80882C14.6308 8.9543 14.7023 9.08794 14.8072 9.19283C14.9121 9.29772 15.0457 9.36915 15.1912 9.39809C15.3367 9.42703 15.4875 9.41218 15.6245 9.35541C15.7616 9.29864 15.8787 9.20251 15.9611 9.07918C16.0435 8.95584 16.0875 8.81084 16.0875 8.6625C16.0875 8.46359 16.0085 8.27282 15.8678 8.13217C15.7272 7.99152 15.5364 7.9125 15.3375 7.9125ZM18.2125 9.425C18.2003 8.90644 18.1032 8.39338 17.925 7.90625C17.7661 7.48946 17.5187 7.11205 17.2 6.8C16.8905 6.47964 16.5122 6.23386 16.0938 6.08125C15.6079 5.8976 15.0943 5.79826 14.575 5.7875C13.9125 5.75 13.7 5.75 12 5.75C10.3 5.75 10.0875 5.75 9.425 5.7875C8.90572 5.79826 8.39209 5.8976 7.90625 6.08125C7.48855 6.23541 7.11058 6.48098 6.8 6.8C6.47964 7.10949 6.23386 7.48777 6.08125 7.90625C5.8976 8.39209 5.79826 8.90572 5.7875 9.425C5.75 10.0875 5.75 10.3 5.75 12C5.75 13.7 5.75 13.9125 5.7875 14.575C5.79826 15.0943 5.8976 15.6079 6.08125 16.0938C6.23386 16.5122 6.47964 16.8905 6.8 17.2C7.11058 17.519 7.48855 17.7646 7.90625 17.9187C8.39209 18.1024 8.90572 18.2017 9.425 18.2125C10.0875 18.25 10.3 18.25 12 18.25C13.7 18.25 13.9125 18.25 14.575 18.2125C15.0943 18.2017 15.6079 18.1024 16.0938 17.9187C16.5122 17.7661 16.8905 17.5204 17.2 17.2C17.5202 16.8891 17.7677 16.5114 17.925 16.0938C18.1032 15.6066 18.2003 15.0936 18.2125 14.575C18.2125 13.9125 18.25 13.7 18.25 12C18.25 10.3 18.25 10.0875 18.2125 9.425ZM17.0875 14.5C17.0829 14.8967 17.0111 15.2898 16.875 15.6625C16.7752 15.9345 16.6149 16.1803 16.4062 16.3813C16.2035 16.5878 15.9583 16.7478 15.6875 16.85C15.3148 16.9861 14.9217 17.058 14.525 17.0625C13.9 17.0938 13.6687 17.1 12.025 17.1C10.3812 17.1 10.15 17.1 9.525 17.0625C9.11306 17.0702 8.70287 17.0068 8.3125 16.875C8.05361 16.7675 7.8196 16.608 7.625 16.4062C7.41756 16.2055 7.25928 15.9595 7.1625 15.6875C7.00991 15.3095 6.92528 14.9075 6.9125 14.5C6.9125 13.875 6.875 13.6438 6.875 12C6.875 10.3562 6.875 10.125 6.9125 9.5C6.9153 9.09441 6.98934 8.69247 7.13125 8.3125C7.24128 8.04869 7.41017 7.81354 7.625 7.625C7.81488 7.41011 8.04955 7.23943 8.3125 7.125C8.69347 6.98753 9.095 6.91567 9.5 6.9125C10.125 6.9125 10.3562 6.875 12 6.875C13.6438 6.875 13.875 6.875 14.5 6.9125C14.8967 6.91705 15.2898 6.9889 15.6625 7.125C15.9465 7.23041 16.2014 7.40178 16.4062 7.625C16.6111 7.81699 16.7711 8.05171 16.875 8.3125C17.0139 8.69308 17.0858 9.09486 17.0875 9.5C17.1187 10.125 17.125 10.3562 17.125 12C17.125 13.6438 17.1187 13.875 17.0875 14.5ZM12 8.79375C11.3661 8.79499 10.7469 8.98408 10.2204 9.33714C9.69397 9.69019 9.28399 10.1914 9.04227 10.7773C8.80056 11.3633 8.73795 12.0078 8.86237 12.6293C8.98679 13.2509 9.29265 13.8216 9.7413 14.2694C10.1899 14.7171 10.7613 15.0219 11.383 15.1451C12.0048 15.2683 12.6492 15.2044 13.2347 14.9616C13.8202 14.7187 14.3205 14.3078 14.6726 13.7806C15.0246 13.2535 15.2125 12.6339 15.2125 12C15.2133 11.5782 15.1308 11.1604 14.9695 10.7706C14.8083 10.3808 14.5716 10.0268 14.273 9.72878C13.9745 9.43081 13.62 9.1948 13.2299 9.03433C12.8398 8.87386 12.4218 8.7921 12 8.79375ZM12 14.0813C11.5884 14.0813 11.186 13.9592 10.8437 13.7305C10.5015 13.5018 10.2347 13.1768 10.0772 12.7965C9.91965 12.4162 9.87844 11.9977 9.95874 11.594C10.039 11.1902 10.2373 10.8194 10.5283 10.5283C10.8194 10.2373 11.1902 10.039 11.594 9.95874C11.9977 9.87844 12.4162 9.91965 12.7965 10.0772C13.1768 10.2347 13.5018 10.5015 13.7305 10.8437C13.9592 11.186 14.0813 11.5884 14.0813 12C14.0813 12.2733 14.0274 12.544 13.9228 12.7965C13.8182 13.049 13.6649 13.2784 13.4717 13.4717C13.2784 13.6649 13.049 13.8182 12.7965 13.9228C12.544 14.0274 12.2733 14.0813 12 14.0813Z" fill="#0A1629"/>
</svg>
