<svg width="40" height="40" viewBox="0 0 40 40" fill="none" xmlns="http://www.w3.org/2000/svg">
<rect width="40" height="40" rx="11.8519" fill="#0A1629"/>
<g filter="url(#filter0_d_1661_27490)">
<path d="M16.2549 12.9269C16.2549 10.5979 14.3668 8.70984 12.0378 8.70984C9.70883 8.70984 7.8208 10.5979 7.8208 12.9269V28.7728C7.8208 31.1018 9.70883 32.9898 12.0378 32.9898C14.3668 32.9898 16.2549 31.1018 16.2549 28.7728V12.9269Z" fill="#EDEDED"/>
</g>
<g filter="url(#filter1_d_1661_27490)">
<path d="M32.2965 13.9884C32.2965 11.0902 30.4061 8.74072 28.0743 8.74072C25.7424 8.74072 23.8521 11.0902 23.8521 13.9884V27.7153C23.8521 30.6135 25.7424 32.9629 28.0743 32.9629C30.4061 32.9629 32.2965 30.6135 32.2965 27.7153V13.9884Z" fill="#EDEDED"/>
</g>
<path d="M17.006 23.7848C18.6528 25.4316 21.3229 25.4316 22.9698 23.7848C24.6166 22.1379 24.6166 19.4678 22.9698 17.821L15.0936 9.94484C13.4468 8.29798 10.7767 8.29798 9.12985 9.94484C7.483 11.5917 7.483 14.2618 9.12985 15.9086L17.006 23.7848Z" fill="white"/>
<path d="M30.893 15.9091C32.5399 14.2622 32.5399 11.5921 30.893 9.94528C29.2462 8.29842 26.5761 8.29842 24.9292 9.94527L17.0531 17.8214C15.4063 19.4683 15.4063 22.1383 17.0531 23.7852C18.7 25.432 21.3701 25.432 23.0169 23.7852L30.893 15.9091Z" fill="url(#paint0_linear_1661_27490)"/>
<path fill-rule="evenodd" clip-rule="evenodd" d="M30.7883 10.0501C29.1993 8.46107 26.623 8.46107 25.034 10.0501L17.1579 17.9262C15.5689 19.5152 15.5689 22.0915 17.1579 23.6805C18.7469 25.2695 21.3232 25.2695 22.9122 23.6805L30.7883 15.8043C32.3773 14.2153 32.3773 11.6391 30.7883 10.0501ZM24.8245 9.84056C26.5292 8.13585 29.2931 8.13585 30.9978 9.84056C32.7025 11.5453 32.7025 14.3092 30.9978 16.0139L23.1217 23.89C21.417 25.5947 18.6531 25.5947 16.9484 23.89C15.2437 22.1853 15.2436 19.4214 16.9484 17.7167L24.8245 9.84056Z" fill="white"/>
<defs>
<filter id="filter0_d_1661_27490" x="6.63562" y="8.26539" width="10.8045" height="26.6504" filterUnits="userSpaceOnUse" color-interpolation-filters="sRGB">
<feFlood flood-opacity="0" result="BackgroundImageFix"/>
<feColorMatrix in="SourceAlpha" type="matrix" values="0 0 0 0 0 0 0 0 0 0 0 0 0 0 0 0 0 0 127 0" result="hardAlpha"/>
<feOffset dy="0.740741"/>
<feGaussianBlur stdDeviation="0.592593"/>
<feComposite in2="hardAlpha" operator="out"/>
<feColorMatrix type="matrix" values="0 0 0 0 0.0486111 0 0 0 0 0.145062 0 0 0 0 0.291667 0 0 0 1 0"/>
<feBlend mode="normal" in2="BackgroundImageFix" result="effect1_dropShadow_1661_27490"/>
<feBlend mode="normal" in="SourceGraphic" in2="effect1_dropShadow_1661_27490" result="shape"/>
</filter>
<filter id="filter1_d_1661_27490" x="22.6669" y="8.29628" width="10.8147" height="26.5925" filterUnits="userSpaceOnUse" color-interpolation-filters="sRGB">
<feFlood flood-opacity="0" result="BackgroundImageFix"/>
<feColorMatrix in="SourceAlpha" type="matrix" values="0 0 0 0 0 0 0 0 0 0 0 0 0 0 0 0 0 0 127 0" result="hardAlpha"/>
<feOffset dy="0.740741"/>
<feGaussianBlur stdDeviation="0.592593"/>
<feComposite in2="hardAlpha" operator="out"/>
<feColorMatrix type="matrix" values="0 0 0 0 0.0486111 0 0 0 0 0.145062 0 0 0 0 0.291667 0 0 0 1 0"/>
<feBlend mode="normal" in2="BackgroundImageFix" result="effect1_dropShadow_1661_27490"/>
<feBlend mode="normal" in="SourceGraphic" in2="effect1_dropShadow_1661_27490" result="shape"/>
</filter>
<linearGradient id="paint0_linear_1661_27490" x1="16.9564" y1="23.912" x2="15.2311" y2="11.9921" gradientUnits="userSpaceOnUse">
<stop stop-color="#00D1FF"/>
<stop offset="1" stop-color="#9B00FA"/>
</linearGradient>
</defs>
</svg>
