<svg width="20" height="20" viewBox="0 0 20 20" fill="none" xmlns="http://www.w3.org/2000/svg">
<g clip-path="url(#clip0_2693_36325)">
<path d="M5.83342 8.95817V14.1665M5.83342 5.83317V5.84359M10.0001 14.1665V8.95817M14.1667 14.1665V11.0415C14.1667 10.489 13.9473 9.95907 13.5566 9.56837C13.1659 9.17766 12.6359 8.95817 12.0834 8.95817C11.5309 8.95817 11.001 9.17766 10.6103 9.56837C10.2196 9.95907 10.0001 10.489 10.0001 11.0415M1.66675 3.74984C1.66675 3.1973 1.88624 2.6674 2.27694 2.2767C2.66764 1.886 3.19755 1.6665 3.75008 1.6665H16.2501C16.8026 1.6665 17.3325 1.886 17.7232 2.2767C18.1139 2.6674 18.3334 3.1973 18.3334 3.74984V16.2498C18.3334 16.8024 18.1139 17.3323 17.7232 17.723C17.3325 18.1137 16.8026 18.3332 16.2501 18.3332H3.75008C3.19755 18.3332 2.66764 18.1137 2.27694 17.723C1.88624 17.3323 1.66675 16.8024 1.66675 16.2498V3.74984Z" stroke="#0A1629" stroke-width="1.5" stroke-linecap="round" stroke-linejoin="round"/>
</g>
<defs>
<clipPath id="clip0_2693_36325">
<rect width="20" height="20" fill="white"/>
</clipPath>
</defs>
</svg>
