<svg width="80" height="80" viewBox="0 0 80 80" fill="none" xmlns="http://www.w3.org/2000/svg">
<g clip-path="url(#clip0_1579_22378)">
<path d="M-1.03888 -1.26709H81.118V80.7395H-1.03888V-1.26709Z" fill="white"/>
<path opacity="0.06" d="M0 42.9817C0 23.3883 14.5469 5.6742 38.9897 4.28872C45.9394 3.89485 53.893 5.22487 56.6682 10.2207C60.5319 17.1751 54.4396 20.2261 61.3046 29.0879C68.388 38.2317 80.1072 35.7204 80.1715 48.4056C80.2713 67.999 59.9379 76.8252 39.8804 76.8252C19.8226 76.8252 0 62.5751 0 42.9817Z" fill="url(#paint0_linear_1579_22378)"/>
<path d="M25.6047 10.633L62.5761 16.0501C65.5802 16.4903 67.6441 19.3808 67.1866 22.5063L60.3955 68.8547C59.9375 71.9807 57.1308 74.1574 54.1267 73.7174L17.1551 68.3003C14.1511 67.8598 12.0871 64.9696 12.545 61.8436L19.3361 15.4952C19.7941 12.3697 22.6006 10.1928 25.6047 10.633Z" fill="#3B00E2"/>
<path d="M62.7555 22.6897L62.9952 66.5987C63.0127 69.7573 60.6217 72.3316 57.6548 72.3491L21.1424 72.5578C18.1756 72.5747 15.7566 70.0275 15.7393 66.8688L15.4835 20.0261C15.4662 16.8673 17.8573 14.2928 20.8241 14.2758L53.5914 14.0884" fill="white"/>
<path d="M62.7558 22.6681L59.0105 22.6896C56.0436 22.7065 53.6249 20.1596 53.6075 17.0007L53.5917 14.0669" fill="#2C00AB"/>
<path d="M46.0035 61.8537C46.0035 53.8815 52.4816 47.4192 60.4724 47.4192C68.4633 47.4192 74.9414 53.8815 74.9414 61.8537C74.9414 69.8254 68.4633 76.2883 60.4724 76.2883C52.4816 76.2883 46.0035 69.8254 46.0035 61.8537Z" fill="white" stroke="#3B00E2" stroke-width="0.00382406" stroke-linecap="round" stroke-linejoin="round" stroke-dasharray="0.01 0.01"/>
<path d="M53.1324 63.8951H59.1666V69.9406C59.1666 70.9034 59.9523 71.6897 60.9157 71.6897C61.8898 71.6897 62.6648 70.9034 62.6648 69.9406V63.8951H68.7103C69.6624 63.8951 70.4594 63.1201 70.4594 62.1567C70.4594 61.1826 69.6624 60.4076 68.7103 60.4076H62.6648V54.3627C62.6648 53.3993 61.8898 52.613 60.9157 52.613C59.9523 52.613 59.1666 53.3993 59.1666 54.3627V60.4076H53.1324C52.169 60.4076 51.3827 61.1826 51.3827 62.1567C51.3827 63.1201 52.169 63.8951 53.1324 63.8951Z" fill="#3B00E2"/>
</g>
<defs>
<linearGradient id="paint0_linear_1579_22378" x1="4.89399e-07" y1="12.1356" x2="35.7227" y2="13.927" gradientUnits="userSpaceOnUse">
<stop stop-color="#00D1FF"/>
<stop offset="1" stop-color="#9B00FA"/>
</linearGradient>
<clipPath id="clip0_1579_22378">
<rect width="80" height="80" fill="white"/>
</clipPath>
</defs>
</svg>
