<svg width="20" height="20" viewBox="0 0 20 20" fill="none" xmlns="http://www.w3.org/2000/svg">
<path d="M10 19.0077C9.42502 19.0077 8.88335 18.716 8.50002 18.2077L7.25002 16.541C7.22502 16.5077 7.12502 16.4577 7.07502 16.4577H6.66669C3.19169 16.4577 1.04169 15.516 1.04169 10.8327V6.66602C1.04169 2.98268 2.98335 1.04102 6.66669 1.04102H10C10.3417 1.04102 10.625 1.32435 10.625 1.66602C10.625 2.00768 10.3417 2.29102 10 2.29102H6.66669C3.68335 2.29102 2.29169 3.68268 2.29169 6.66602V10.8327C2.29169 14.5993 3.58335 15.2077 6.66669 15.2077H7.08335C7.50835 15.2077 7.99169 15.4494 8.25002 15.791L9.50002 17.4577C9.79169 17.841 10.2084 17.841 10.5 17.4577L11.75 15.791C12.025 15.4244 12.4584 15.2077 12.9167 15.2077H13.3334C16.3167 15.2077 17.7084 13.816 17.7084 10.8327V6.66602C17.7084 6.32435 17.9917 6.04102 18.3334 6.04102C18.675 6.04102 18.9584 6.32435 18.9584 6.66602V10.8327C18.9584 14.516 17.0167 16.4577 13.3334 16.4577H12.9167C12.85 16.4577 12.7917 16.491 12.75 16.541L11.5 18.2077C11.1167 18.716 10.575 19.0077 10 19.0077Z" fill="#D8E0F0"/>
<path d="M10 10.0007C9.53335 10.0007 9.16669 9.62565 9.16669 9.16732C9.16669 8.70898 9.54169 8.33398 10 8.33398C10.4584 8.33398 10.8334 8.70898 10.8334 9.16732C10.8334 9.62565 10.4667 10.0007 10 10.0007Z" fill="#D8E0F0"/>
<path d="M13.3333 10.0007C12.8667 10.0007 12.5 9.62565 12.5 9.16732C12.5 8.70898 12.875 8.33398 13.3333 8.33398C13.7917 8.33398 14.1667 8.70898 14.1667 9.16732C14.1667 9.62565 13.8 10.0007 13.3333 10.0007Z" fill="#D8E0F0"/>
<path d="M6.66665 10.0007C6.19998 10.0007 5.83331 9.62565 5.83331 9.16732C5.83331 8.70898 6.20831 8.33398 6.66665 8.33398C7.12498 8.33398 7.49998 8.70898 7.49998 9.16732C7.49998 9.62565 7.13331 10.0007 6.66665 10.0007Z" fill="#D8E0F0"/>
<path d="M15 6.45792C14.2833 6.45792 12.5917 5.60792 12.075 4.04959C11.8667 3.43292 11.9167 2.72458 12.2083 2.16625C12.4667 1.66625 12.9 1.29958 13.4333 1.13292C13.975 0.966252 14.55 1.04125 15 1.31625C15.45 1.04125 16.025 0.966252 16.575 1.13292C17.1083 1.29958 17.5417 1.66625 17.8 2.16625C18.0917 2.72458 18.1417 3.43292 17.9333 4.04959C17.4083 5.63292 15.6417 6.45792 15 6.45792ZM13.2583 3.64959C13.6083 4.69959 14.8 5.18292 15.0167 5.20792C15.2583 5.18292 16.425 4.64125 16.75 3.65792C16.85 3.35792 16.825 2.99959 16.6917 2.74125C16.5833 2.53292 16.425 2.39958 16.2083 2.33292C15.975 2.24958 15.6583 2.29125 15.5167 2.49958C15.4 2.66625 15.2167 2.76625 15.0167 2.77459C14.8167 2.77459 14.625 2.68292 14.5 2.52458C14.325 2.29958 14.0167 2.26625 13.7917 2.33292C13.575 2.39958 13.4167 2.53292 13.3083 2.74125C13.1833 2.99959 13.1583 3.34959 13.2583 3.64959Z" fill="#D8E0F0"/>
</svg>
