<svg width="20" height="20" viewBox="0 0 20 20" fill="none" xmlns="http://www.w3.org/2000/svg">
<path d="M10 19.0077C9.42502 19.0077 8.88335 18.716 8.50002 18.2077L7.25002 16.541C7.22502 16.5077 7.12502 16.4577 7.07502 16.4577H6.66669C3.19169 16.4577 1.04169 15.516 1.04169 10.8327V6.66602C1.04169 2.98268 2.98335 1.04102 6.66669 1.04102H11.6667C12.0084 1.04102 12.2917 1.32435 12.2917 1.66602C12.2917 2.00768 12.0084 2.29102 11.6667 2.29102H6.66669C3.68335 2.29102 2.29169 3.68268 2.29169 6.66602V10.8327C2.29169 14.5993 3.58335 15.2077 6.66669 15.2077H7.08335C7.50835 15.2077 7.99169 15.4494 8.25002 15.791L9.50002 17.4577C9.79169 17.841 10.2084 17.841 10.5 17.4577L11.75 15.791C12.025 15.4244 12.4584 15.2077 12.9167 15.2077H13.3334C16.3167 15.2077 17.7084 13.816 17.7084 10.8327V8.33268C17.7084 7.99102 17.9917 7.70768 18.3334 7.70768C18.675 7.70768 18.9584 7.99102 18.9584 8.33268V10.8327C18.9584 14.516 17.0167 16.4577 13.3334 16.4577H12.9167C12.85 16.4577 12.7917 16.491 12.75 16.541L11.5 18.2077C11.1167 18.716 10.575 19.0077 10 19.0077Z" fill="#0A1629"/>
<path d="M10 10.0007C9.53335 10.0007 9.16669 9.62565 9.16669 9.16732C9.16669 8.70898 9.54169 8.33398 10 8.33398C10.4584 8.33398 10.8334 8.70898 10.8334 9.16732C10.8334 9.62565 10.4667 10.0007 10 10.0007Z" fill="#0A1629"/>
<path d="M13.3333 10.0007C12.8667 10.0007 12.5 9.62565 12.5 9.16732C12.5 8.70898 12.875 8.33398 13.3333 8.33398C13.7917 8.33398 14.1667 8.70898 14.1667 9.16732C14.1667 9.62565 13.8 10.0007 13.3333 10.0007Z" fill="#0A1629"/>
<path d="M6.66665 10.0007C6.19998 10.0007 5.83331 9.62565 5.83331 9.16732C5.83331 8.70898 6.20831 8.33398 6.66665 8.33398C7.12498 8.33398 7.49998 8.70898 7.49998 9.16732C7.49998 9.62565 7.13331 10.0007 6.66665 10.0007Z" fill="#0A1629"/>
<path d="M16.25 6.45768C14.7584 6.45768 13.5417 5.24102 13.5417 3.74935C13.5417 2.25768 14.7584 1.04102 16.25 1.04102C17.7417 1.04102 18.9584 2.25768 18.9584 3.74935C18.9584 5.24102 17.7417 6.45768 16.25 6.45768ZM16.25 2.29102C15.45 2.29102 14.7917 2.94935 14.7917 3.74935C14.7917 4.54935 15.45 5.20768 16.25 5.20768C17.05 5.20768 17.7084 4.54935 17.7084 3.74935C17.7084 2.94935 17.05 2.29102 16.25 2.29102Z" fill="#F65160"/>
</svg>
