<svg width="25" height="24" viewBox="0 0 25 24" fill="none" xmlns="http://www.w3.org/2000/svg">
<path d="M21.5 6.73046C21.48 6.73046 21.45 6.73046 21.42 6.73046C16.13 6.20046 10.85 6.00046 5.62001 6.53046L3.58001 6.73046C3.16001 6.77046 2.79001 6.47046 2.75001 6.05046C2.71001 5.63046 3.01001 5.27046 3.42001 5.23046L5.46001 5.03046C10.78 4.49046 16.17 4.70046 21.57 5.23046C21.98 5.27046 22.28 5.64046 22.24 6.05046C22.21 6.44046 21.88 6.73046 21.5 6.73046Z" fill="white"/>
<path d="M9.00001 5.72C8.96001 5.72 8.92001 5.72 8.87001 5.71C8.47001 5.64 8.19001 5.25 8.26001 4.85L8.48001 3.54C8.64001 2.58 8.86001 1.25 11.19 1.25H13.81C16.15 1.25 16.37 2.63 16.52 3.55L16.74 4.85C16.81 5.26 16.53 5.65 16.13 5.71C15.72 5.78 15.33 5.5 15.27 5.1L15.05 3.8C14.91 2.93 14.88 2.76 13.82 2.76H11.2C10.14 2.76 10.12 2.9 9.97001 3.79L9.74001 5.09C9.68001 5.46 9.36001 5.72 9.00001 5.72Z" fill="white"/>
<path d="M15.71 22.7496H9.28999C5.79999 22.7496 5.65999 20.8196 5.54999 19.2596L4.89999 9.18959C4.86999 8.77959 5.18999 8.41959 5.59999 8.38959C6.01999 8.36959 6.36999 8.67959 6.39999 9.08959L7.04999 19.1596C7.15999 20.6796 7.19999 21.2496 9.28999 21.2496H15.71C17.81 21.2496 17.85 20.6796 17.95 19.1596L18.6 9.08959C18.63 8.67959 18.99 8.36959 19.4 8.38959C19.81 8.41959 20.13 8.76959 20.1 9.18959L19.45 19.2596C19.34 20.8196 19.2 22.7496 15.71 22.7496Z" fill="white"/>
<path d="M14.16 17.25H10.83C10.42 17.25 10.08 16.91 10.08 16.5C10.08 16.09 10.42 15.75 10.83 15.75H14.16C14.57 15.75 14.91 16.09 14.91 16.5C14.91 16.91 14.57 17.25 14.16 17.25Z" fill="white"/>
<path d="M15 13.25H10C9.59 13.25 9.25 12.91 9.25 12.5C9.25 12.09 9.59 11.75 10 11.75H15C15.41 11.75 15.75 12.09 15.75 12.5C15.75 12.91 15.41 13.25 15 13.25Z" fill="white"/>
</svg>
