<svg width="20" height="20" viewBox="0 0 20 20" fill="none" xmlns="http://www.w3.org/2000/svg">
<path d="M10 10.6243C12.6417 10.6243 14.7917 8.47435 14.7917 5.83268C14.7917 3.19102 12.6417 1.04102 10 1.04102C7.35835 1.04102 5.20835 3.19102 5.20835 5.83268C5.20835 8.47435 7.35835 10.6243 10 10.6243ZM10 2.29102C11.95 2.29102 13.5417 3.88268 13.5417 5.83268C13.5417 7.78268 11.95 9.37435 10 9.37435C8.05002 9.37435 6.45835 7.78268 6.45835 5.83268C6.45835 3.88268 8.05002 2.29102 10 2.29102Z" fill="#0A1629"/>
<path d="M2.84154 18.9583C3.18321 18.9583 3.46654 18.675 3.46654 18.3333C3.46654 15.4583 6.39987 13.125 9.99987 13.125C13.5999 13.125 16.5332 15.4583 16.5332 18.3333C16.5332 18.675 16.8165 18.9583 17.1582 18.9583C17.4999 18.9583 17.7832 18.675 17.7832 18.3333C17.7832 14.775 14.2915 11.875 9.99987 11.875C5.70821 11.875 2.21654 14.775 2.21654 18.3333C2.21654 18.675 2.49988 18.9583 2.84154 18.9583Z" fill="#0A1629"/>
</svg>
